<?xml version="1.0" encoding="utf-8"?>
<!-- Generator: Adobe Illustrator 24.2.3, SVG Export Plug-In . SVG Version: 6.00 Build 0)  -->
<svg version="1.1" id="圖層_1" xmlns="http://www.w3.org/2000/svg" xmlns:xlink="http://www.w3.org/1999/xlink" x="0px" y="0px"
	 viewBox="0 0 572.2 1080.5" style="enable-background:new 0 0 572.2 1080.5;" xml:space="preserve">
<style type="text/css">
	.st0{clip-path:url(#SVGID_2_);}
	.st1{opacity:0.5;}
	.st2{clip-path:url(#SVGID_2_);fill:url(#SVGID_3_);}
	.st3{clip-path:url(#SVGID_2_);fill:#FFFFFF;}
	.st4{clip-path:url(#SVGID_2_);fill:#18254C;}
</style>
<g>
	<defs>
		<rect id="SVGID_1_" x="1.2" y="0.8" width="574.4" height="1081.2"/>
	</defs>
	<clipPath id="SVGID_2_">
		<use xlink:href="#SVGID_1_"  style="overflow:visible;"/>
	</clipPath>
	<g class="st0">
		<g class="st1">
			
				<image style="overflow:visible;enable-background:new    ;" width="3080" height="3045" xlink:href="7F0917B4806A19C8.png"  transform="matrix(0.24 0 0 0.24 -83.79 690.34)">
			</image>
		</g>
	</g>
	
		<linearGradient id="SVGID_3_" gradientUnits="userSpaceOnUse" x1="286.17" y1="-96.5854" x2="286.17" y2="330.5" gradientTransform="matrix(1 0 0 -1 0 1080)">
		<stop  offset="0" style="stop-color:#FFFFFF"/>
		<stop  offset="0.42" style="stop-color:#FFFFFF"/>
		<stop  offset="0.84" style="stop-color:#CCCCCC;stop-opacity:0.4"/>
		<stop  offset="1" style="stop-color:#CCCCCC;stop-opacity:0"/>
	</linearGradient>
	<rect x="0.9" y="749.5" class="st2" width="570.5" height="427.1"/>
	<g style="opacity:0.75;clip-path:url(#SVGID_2_);enable-background:new    ;">
		
			<image style="overflow:visible;" width="323" height="114" xlink:href="7F0917B4806A19C9.png"  transform="matrix(1 0 0 1 90.24 57.33)">
		</image>
	</g>
	<path class="st3" d="M146.8,83.4H356c17.1,0,31,13.9,31,31l0,0c0,17.1-13.9,31-31,31H146.8c-17.1,0-31-13.9-31-31l0,0
		C115.8,97.3,129.7,83.4,146.8,83.4z"/>
	<path class="st4" d="M170.6,102.3c0,0.2,0.1,0.2,0.2,0.2h11c0.2,0,0.5,0.1,0.6,0.3c0.2,0.2,0.3,0.4,0.3,0.6c0,0.2-0.1,0.5-0.3,0.6
		c-0.2,0.2-0.4,0.3-0.6,0.3h-24.2c-0.2,0-0.5-0.1-0.6-0.3c-0.2-0.2-0.3-0.4-0.3-0.6c0-0.2,0.1-0.5,0.3-0.6c0.2-0.2,0.4-0.3,0.6-0.3
		h10.7c0.1,0,0.2-0.1,0.2-0.2v-1.7c0-0.3,0.1-0.5,0.3-0.7c0.4-0.4,1-0.4,1.4,0c0,0,0,0,0,0c0.2,0.2,0.3,0.4,0.3,0.7L170.6,102.3z
		 M179.8,114.3c1,0,1.7,0.8,1.7,1.7v8.7c0,1.1-0.4,1.8-1.2,2.1c-1.4,0.2-2.7,0.3-4.1,0.3c-0.3,0-0.5-0.1-0.8-0.3
		c-0.2-0.2-0.4-0.4-0.5-0.7c-0.1-0.2-0.1-0.4,0.1-0.6c0.1-0.2,0.3-0.3,0.6-0.3h2.1c0.5,0,0.9,0,1.2,0c0.2,0,0.4,0,0.5-0.1
		c0.1-0.1,0.1-0.3,0.1-0.4v-8.5c0-0.1-0.1-0.2-0.2-0.2h-19.1c-0.1,0-0.2,0.1-0.2,0.2c0,0,0,0,0,0v10c0,0.3-0.1,0.5-0.3,0.7
		c-0.2,0.2-0.4,0.3-0.7,0.3c-0.3,0-0.5-0.1-0.7-0.3c-0.2-0.2-0.3-0.4-0.3-0.7V116c0-1,0.8-1.7,1.7-1.7L179.8,114.3z M161.7,107.9
		c0-1,0.8-1.7,1.8-1.7h12.6c1,0,1.7,0.8,1.7,1.7v2.6c0,0.5-0.2,0.9-0.5,1.2c-0.3,0.3-0.8,0.5-1.2,0.5h-12.6c-0.5,0-0.9-0.2-1.2-0.5
		c-0.3-0.3-0.5-0.8-0.5-1.2V107.9z M175.6,110.7c0.1,0,0.2-0.1,0.2-0.2v-2.7c0-0.1-0.1-0.2-0.2-0.2c0,0,0,0-0.1,0h-11.7
		c-0.1,0-0.2,0.1-0.2,0.2v2.7c0,0.1,0.1,0.2,0.2,0.2c0,0,0,0,0,0H175.6z M175.5,122.6c0,1-0.8,1.7-1.7,1.7H166c-0.1,0-0.2,0-0.2,0.1
		c0,0,0,0,0,0v0.5c0,0.2-0.1,0.5-0.3,0.7c-0.4,0.3-0.9,0.3-1.3,0c-0.2-0.2-0.3-0.4-0.3-0.7v-5.2c0-1,0.8-1.7,1.7-1.7l0,0h8
		c1,0,1.7,0.8,1.7,1.7L175.5,122.6z M173.6,119.7c0-0.1-0.1-0.2-0.2-0.2c0,0,0,0,0,0h-7.4c-0.2,0-0.2,0.1-0.2,0.2v2.8
		c0,0.2,0.1,0.2,0.2,0.2h7.4c0.1,0,0.2-0.1,0.2-0.2V119.7z"/>
	<path class="st4" d="M213,104.8c0.2-0.2,0.4-0.3,0.7-0.3c0.3,0,0.5,0,0.7,0.2c0.2,0.1,0.3,0.4,0.3,0.6c0,0.2-0.1,0.4-0.2,0.6
		c-1.2,1-2.4,2-3.7,2.9c-0.1,0.1-0.1,0.2,0,0.3c1.4,1.1,2.9,2.1,4.5,2.9c0.2,0.1,0.4,0.3,0.4,0.5v0.2c0,0.2-0.1,0.4-0.2,0.5
		c-0.2,0.2-0.5,0.4-0.8,0.5c-0.3,0.1-0.6,0-0.9-0.1c-2.2-1.2-4.3-2.7-6-4.5c0,0,0,0-0.1,0c0,0-0.1,0-0.1,0.1c0,0.8-0.6,1.5-1.5,1.5
		c0,0,0,0,0,0h-8.3c-0.3,0-0.7-0.1-0.9-0.4c-0.2-0.2-0.4-0.6-0.4-0.9c0,0,0,0-0.1,0s-0.1,0-0.1,0c-1.9,1.9-4.1,3.5-6.4,4.7
		c-0.2,0.1-0.3,0.1-0.5,0.1c-0.1,0-0.2,0-0.3-0.1c-0.3,0-0.5-0.2-0.6-0.4c-0.1-0.1-0.2-0.3-0.2-0.4v-0.2c0.1-0.2,0.2-0.4,0.4-0.5
		c1.9-0.9,3.7-2.1,5.2-3.5c0.1-0.1,0.1-0.2,0-0.3c0,0,0,0,0,0c-1-1-2.1-1.9-3.2-2.7c-0.2-0.1-0.3-0.3-0.3-0.4c0-0.2,0-0.4,0.2-0.5
		c0.2-0.2,0.4-0.3,0.6-0.3c0.2,0,0.4,0,0.6,0.1c1.2,0.7,2.3,1.6,3.3,2.6c0.1,0.1,0.2,0.1,0.3,0c1.1-1.2,2.1-2.5,2.9-4
		c0,0,0-0.1,0-0.1c0,0-0.1-0.1-0.1-0.1h-6.7c-0.2,0-0.4-0.1-0.6-0.2c-0.3-0.3-0.3-0.8,0-1.2c0,0,0,0,0,0c0.2-0.2,0.4-0.3,0.6-0.2
		h7.8c0,0,0.1,0,0.1,0c0.2-0.1,0.4,0,0.6,0.1l0.4,0.2c0.4,0.2,0.5,0.6,0.4,1c-1,2.2-2.3,4.1-3.9,5.9c0,0,0,0.1,0,0.1
		c0,0,0.1,0,0.1,0h10.4c0,0,0.1,0,0.1,0c0,0,0-0.1,0-0.1c-1.9-2-3.6-4.3-4.8-6.8c-0.1-0.2-0.1-0.4,0-0.7c0.1-0.2,0.3-0.4,0.5-0.4
		c0.1,0,0.2,0,0.3,0c0.1,0,0.3,0,0.4,0c0.2,0.1,0.4,0.3,0.5,0.5c0.5,1,1.1,1.9,1.7,2.9c0.1,0.1,0.2,0.1,0.3,0
		c1.1-0.9,2.2-1.8,3.2-2.8c0.2-0.2,0.4-0.3,0.7-0.3c0.3,0,0.5,0,0.7,0.2c0.2,0.1,0.3,0.3,0.3,0.6c0,0.2-0.1,0.4-0.2,0.6
		c-1.2,1.1-2.5,2.1-3.8,3c-0.1,0.1-0.1,0.2,0,0.3c0.6,0.7,1.2,1.4,1.9,2.1c0.1,0.1,0.3,0.1,0.4,0c0,0,0,0,0,0
		C210.8,106.8,211.9,105.8,213,104.8z M207.5,120.8c0.3,0.1,0.6,0.3,0.7,0.6c0.1,0.1,0.1,0.3,0.1,0.5c0,0.2,0,0.3-0.1,0.5
		c-0.6,1.2-1.2,2.2-1.6,2.9c0,0-0.1,0.1,0,0.1c0,0,0.1,0.1,0.1,0.1h7.7c0.5-0.1,0.9,0.3,0.9,0.8c0.1,0.5-0.3,0.9-0.8,0.9
		c-0.1,0-0.1,0-0.2,0H190c-0.5-0.1-0.8-0.5-0.8-0.9c0-0.4,0.4-0.7,0.8-0.8h7.3c0.1,0,0.1,0,0.1-0.1c0,0,0-0.1,0-0.1
		c-0.2-0.9-0.6-1.8-1-2.7c-0.2-0.3-0.2-0.7,0-1.1c0.1-0.4,0.4-0.6,0.8-0.7v-0.1h-1.5c-0.5,0-0.9-0.2-1.2-0.5
		c-0.3-0.3-0.5-0.7-0.6-1.2v-4.1c0-0.5,0.2-0.9,0.5-1.2c0.3-0.3,0.8-0.5,1.2-0.5h13c1,0,1.7,0.8,1.7,1.7v4.1c0,0.5-0.2,0.9-0.5,1.2
		c-0.3,0.3-0.8,0.5-1.2,0.5L207.5,120.8z M196.1,114.8c-0.1,0-0.2,0.1-0.2,0.2c0,0,0,0,0,0.1v3.7c0,0.1,0.1,0.2,0.2,0.2
		c0,0,0,0,0.1,0h12.1c0.1,0,0.2-0.1,0.2-0.2c0,0,0,0,0-0.1V115c0-0.1-0.1-0.2-0.2-0.2c0,0,0,0-0.1,0L196.1,114.8z M206.8,120.9
		c0,0,0-0.1,0-0.1c0,0-0.1-0.1-0.1-0.1h-8.9c0,0-0.1,0-0.1,0.1c0,0,0,0.1,0,0.2c0.6,0.9,1,1.8,1.4,2.8c0.1,0.1,0.1,0.3,0.1,0.5
		c0,0.2-0.1,0.4-0.1,0.6c-0.2,0.3-0.5,0.6-0.8,0.7v0.1h7.3l0,0c-0.2-0.1-0.4-0.2-0.5-0.4c-0.1-0.2-0.1-0.4,0-0.6
		C205.7,123.3,206.3,122.1,206.8,120.9L206.8,120.9z"/>
	<path class="st4" d="M247.3,103.2c0.2,0.1,0.2,0.3,0.2,0.6c0,0.4-0.4,0.8-0.8,0.8h-19.1c-0.1,0-0.3,0.1-0.4,0.2
		c-1.1,1.9-2.5,3.6-4,5.2c-0.2,0.2-0.5,0.3-0.8,0.3c-0.3,0-0.6-0.1-0.8-0.2c-0.2-0.1-0.4-0.4-0.4-0.7c0-0.2,0.1-0.5,0.3-0.6
		c2.3-2.1,4.1-4.6,5.3-7.5c0.1-0.3,0.3-0.5,0.6-0.6c0.2-0.1,0.3-0.1,0.5-0.1c0.4,0,0.7,0.2,0.9,0.5c0.1,0.2,0.1,0.5,0,0.8
		c-0.1,0.3-0.3,0.6-0.5,1c0,0,0,0.1,0,0.2c0,0,0.1,0.1,0.1,0.1h18.2C247,103,247.2,103.1,247.3,103.2z M232.4,120
		c-0.2,0-0.2,0.1-0.2,0.2v1.6c0,0.1,0.1,0.2,0.2,0.2h7.3c0.4,0,0.8,0.4,0.8,0.8c0,0,0,0,0,0c0,0.2-0.1,0.4-0.2,0.6
		c-0.1,0.1-0.4,0.2-0.6,0.2h-7.3c-0.1,0-0.2,0.1-0.2,0.2c0,0,0,0,0,0.1v3c0,0.3-0.1,0.5-0.3,0.7c-0.2,0.2-0.4,0.3-0.7,0.3
		c-0.3,0-0.5-0.1-0.7-0.3c-0.2-0.2-0.3-0.4-0.3-0.7v-3c0-0.2-0.1-0.2-0.2-0.2h-7.6c-0.2,0-0.4-0.1-0.6-0.2c-0.2-0.1-0.2-0.3-0.2-0.6
		c0-0.4,0.3-0.8,0.8-0.8c0,0,0,0,0,0h7.6c0.1,0,0.2-0.1,0.2-0.2c0,0,0,0,0,0v-1.6c0-0.1-0.1-0.2-0.2-0.2c0,0,0,0,0,0h-5.5
		c-0.4,0-0.8-0.3-0.9-0.7c0-0.4,0.3-0.8,0.7-0.9c0.1,0,0.1,0,0.2,0h5.5c0.1,0,0.2-0.1,0.2-0.2c0,0,0,0,0,0v-1.5
		c0-0.1-0.1-0.2-0.2-0.2c0,0,0,0,0,0h-6.6c-0.2,0-0.4-0.1-0.6-0.2c-0.3-0.3-0.3-0.8,0-1.1c0,0,0,0,0,0c0.2-0.1,0.4-0.2,0.6-0.2h3.6
		c0,0,0.1,0,0.1-0.1c0,0,0-0.1,0-0.1c-0.3-0.6-0.6-1.2-0.9-1.8c-0.1-0.2-0.1-0.4-0.1-0.6c0.1-0.2,0.2-0.3,0.4-0.4
		c0.2-0.1,0.5-0.1,0.7,0c0.2,0.1,0.4,0.2,0.6,0.4c0.4,0.6,0.7,1.2,1,1.7c0.1,0.2,0.1,0.4,0,0.5c-0.1,0.2-0.2,0.3-0.4,0.4l0,0h5.2
		l0,0l0,0c-0.2-0.1-0.3-0.2-0.3-0.4c-0.1-0.2,0-0.3,0.1-0.5c0.4-0.6,0.8-1.2,1.1-1.7c0.1-0.2,0.3-0.4,0.6-0.5c0.3-0.1,0.5-0.1,0.8,0
		c0.2,0.1,0.4,0.2,0.5,0.5c0.1,0.2,0,0.5-0.1,0.7c-0.5,0.7-0.9,1.3-1.4,1.9c0,0,0,0.1,0,0.1c0,0,0,0.1,0.1,0.1c0,0,0,0,0,0h3.9
		c0.4,0,0.8,0.3,0.9,0.7c0,0.4-0.3,0.8-0.7,0.9c-0.1,0-0.1,0-0.2,0h-6.5c-0.2,0-0.2,0.1-0.2,0.2v1.5c0,0.1,0.1,0.2,0.2,0.2h5.8
		c0.2,0,0.4,0.1,0.5,0.2c0.3,0.3,0.3,0.8,0,1.1c0,0,0,0,0,0c-0.1,0.1-0.3,0.2-0.5,0.2L232.4,120z M224.3,111.2
		c-0.2-0.1-0.2-0.4-0.2-0.6c0-0.2,0.1-0.4,0.2-0.6c0.1-0.2,0.3-0.3,0.6-0.2h16.7c0.5,0,0.9,0.2,1.2,0.5c0.3,0.3,0.5,0.8,0.5,1.2
		c0.2,9.6,1.2,14.4,3,14.4c0.4,0,0.7-1.2,0.8-3.6c0-0.2,0.1-0.3,0.2-0.3c0.1-0.1,0.3,0,0.4,0.1c0.4,0.3,0.6,0.8,0.6,1.3
		c0.1,1.2-0.2,2.4-0.6,3.5c-0.3,0.6-0.9,1-1.6,1c-0.6,0-1.2-0.2-1.6-0.5c-0.5-0.4-1-1-1.2-1.6c-0.4-0.8-0.6-1.6-0.9-2.4
		c-0.3-1.1-0.5-2.2-0.6-3.3c-0.1-1.3-0.3-2.6-0.3-3.8s-0.1-2.8-0.2-4.4c0-0.1-0.1-0.2-0.2-0.2c0,0,0,0,0,0h-16.2
		C224.7,111.5,224.4,111.4,224.3,111.2L224.3,111.2z M245.1,106.7c0.1,0.1,0.2,0.3,0.2,0.5c0,0.2-0.1,0.4-0.2,0.6
		c-0.1,0.2-0.3,0.2-0.6,0.2h-16.5c-0.4,0-0.8-0.4-0.8-0.8c0-0.2,0.1-0.4,0.2-0.5c0.2-0.1,0.4-0.2,0.6-0.2h16.5
		C244.7,106.5,244.9,106.5,245.1,106.7L245.1,106.7z"/>
	<path class="st4" d="M267.4,125.1h8.9c0.6,0.1,1.3-0.1,1.8-0.5c0.4-0.6,0.7-1.4,0.7-2.2c0.1-0.4,0.4-0.7,0.8-0.6c0.1,0,0.1,0,0.2,0
		c0.3,0.1,0.5,0.3,0.6,0.5c0.1,0.2,0.2,0.4,0.2,0.6v0.2c-0.1,1.1-0.5,2.2-1.2,3c-0.9,0.6-2,0.9-3,0.8h-9c-1.9,0-3.2-0.3-3.8-0.8
		s-1-1.6-1-3.1v-14.5c0-0.2-0.1-0.2-0.2-0.2h-3.1c-0.1,0-0.2,0.1-0.2,0.2v2.2c0,1.7,0,3.1-0.1,4.4s-0.3,2.6-0.5,4
		c-0.2,1.4-0.7,2.8-1.2,4.1c-0.5,1.3-1.2,2.5-2.1,3.7c-0.1,0.2-0.4,0.3-0.6,0.4h-0.1c-0.2,0-0.5-0.1-0.6-0.3c-0.4-0.3-0.5-1-0.2-1.4
		c0,0,0,0,0,0c0.8-1.1,1.4-2.2,1.9-3.4c0.5-1.2,0.9-2.5,1.1-3.8c0.2-1.2,0.4-2.5,0.5-3.7c0.1-1.1,0.1-2.4,0.1-3.9v-2.2
		c0-0.2-0.1-0.2-0.2-0.2h-2.4c-0.2,0-0.5-0.1-0.7-0.3c-0.2-0.2-0.3-0.4-0.3-0.7c0-0.2,0.1-0.5,0.3-0.7c0.2-0.2,0.4-0.3,0.7-0.3h2.5
		c0.1,0,0.2-0.1,0.2-0.2v-5.1c0-0.2,0.1-0.5,0.3-0.7c0.2-0.2,0.4-0.3,0.7-0.3c0.3,0,0.5,0.1,0.7,0.3c0.2,0.2,0.3,0.4,0.3,0.7v5.1
		c0,0.2,0.1,0.2,0.2,0.2h3.5c0.5,0,0.9,0.2,1.2,0.5c0.3,0.3,0.5,0.8,0.5,1.2v14.9c-0.1,0.6,0.1,1.2,0.5,1.6
		C265.8,125.1,266.6,125.2,267.4,125.1z M277.1,102.6c0.9,0,1.7,0.7,1.7,1.7c0,0,0,0,0,0v14.9c0,0.9-0.7,1.7-1.7,1.7c0,0,0,0,0,0
		h-7.5c-0.9,0-1.7-0.7-1.7-1.7c0,0,0,0,0-0.1v-14.9c0-0.9,0.7-1.7,1.7-1.7c0,0,0,0,0.1,0H277.1z M276.6,110.8c0.1,0,0.2-0.1,0.2-0.2
		v-5.8c0-0.1-0.1-0.2-0.2-0.2c0,0,0,0,0,0h-6.7c-0.1,0-0.2,0.1-0.2,0.2c0,0,0,0,0,0.1v5.8c0,0.1,0.1,0.2,0.2,0.2L276.6,110.8z
		 M276.6,119.1c0.1,0,0.2-0.1,0.2-0.2c0,0,0,0,0-0.1V113c0-0.1-0.1-0.2-0.2-0.2h-6.7c-0.2,0-0.2,0.1-0.2,0.2v5.9
		c0,0.1,0.1,0.2,0.2,0.2c0,0,0,0,0.1,0L276.6,119.1z"/>
	<path class="st4" d="M295.2,103.8c-0.2-0.3-0.1-0.7,0.1-0.9c0,0,0.1-0.1,0.1-0.1c0.2-0.1,0.5-0.1,0.7-0.1c0.2,0.1,0.4,0.2,0.6,0.4
		c1.2,1.6,2.3,3.3,3.2,5.1c0.1,0.2,0.1,0.5,0,0.8c-0.1,0.2-0.3,0.4-0.5,0.5c-0.2,0.1-0.5,0.1-0.7,0c-0.2-0.1-0.4-0.3-0.5-0.5
		l-0.4-0.7c-0.1-0.1-0.2-0.2-0.3-0.2l-6.3,0.3c-2.7,0.1-4.1,0.2-4.3,0.2c-0.3,0-0.5-0.1-0.7-0.2c-0.2-0.2-0.4-0.5-0.4-0.8
		c0-0.2,0.1-0.4,0.2-0.6c0.2-0.2,0.4-0.3,0.6-0.3l1.1-0.1c0.1,0,0.3-0.1,0.4-0.2c0.9-1.7,1.7-3.4,2.4-5.2c0.1-0.3,0.3-0.5,0.6-0.6
		c0.2-0.1,0.3-0.1,0.5-0.1c0.1,0,0.2,0,0.3,0c0.3,0,0.5,0.2,0.6,0.4c0.1,0.2,0.1,0.5,0,0.8c-0.9,2-1.7,3.5-2.3,4.6c0,0,0,0.1,0,0.1
		c0,0,0.1,0.1,0.1,0.1l2.6-0.1l3.5-0.2c0.1,0,0.1,0,0.1-0.1c0,0,0-0.1,0-0.1C296.2,105.3,295.7,104.6,295.2,103.8z M296.5,111
		c0.5,0,0.9,0.2,1.2,0.5c0.3,0.3,0.5,0.8,0.5,1.2v12.7c0,0.4-0.1,0.9-0.2,1.3c-0.2,0.3-0.4,0.6-0.8,0.7c-1,0.3-2,0.4-3,0.3
		c-0.3,0-0.6-0.1-0.8-0.3c-0.2-0.2-0.4-0.4-0.5-0.7c-0.1-0.2-0.1-0.4,0.1-0.6c0.1-0.2,0.3-0.3,0.5-0.3h1.3c0.4,0,0.7,0,0.9,0
		c0.1,0,0.3,0,0.4-0.1c0.1-0.1,0.1-0.3,0.1-0.4v-3.6c0-0.1-0.1-0.2-0.2-0.2c0,0,0,0,0,0h-6.3c-0.1,0-0.2,0.1-0.2,0.2v5
		c0,0.3-0.1,0.5-0.3,0.7c-0.2,0.2-0.4,0.3-0.7,0.3c-0.2,0-0.5-0.1-0.6-0.3c-0.2-0.2-0.3-0.4-0.3-0.7v-14.1c0-0.5,0.2-0.9,0.5-1.2
		c0.3-0.3,0.8-0.5,1.2-0.5H296.5z M296.3,113c0-0.1-0.1-0.2-0.2-0.2c0,0,0,0-0.1,0h-6.3c-0.1,0-0.2,0.1-0.2,0.2v2.3
		c0,0.1,0.1,0.2,0.2,0.2c0,0,0,0,0.1,0h6.3c0.1,0,0.2-0.1,0.2-0.2V113z M289.5,119.8c0,0.1,0.1,0.2,0.2,0.2c0,0,0,0,0,0h6.3
		c0.1,0,0.2-0.1,0.2-0.2v-2.5c0-0.2-0.1-0.2-0.2-0.2h-6.3c-0.1,0-0.2,0.1-0.2,0.2c0,0,0,0,0,0.1V119.8z M310,113.5h-5.3
		c-1,0.1-1.9-0.1-2.8-0.6c-0.6-0.6-0.8-1.5-0.7-2.3v-9.1c0-0.3,0.1-0.5,0.3-0.7c0.2-0.2,0.4-0.3,0.7-0.3c0.6,0,1,0.4,1,1v3.9
		c0,0,0,0.1,0.1,0.1c0,0,0.1,0,0.1,0c2.1-0.7,4.1-1.5,6.1-2.4c0.3-0.1,0.6-0.1,0.8-0.1c0.3,0,0.6,0.2,0.8,0.4c0.3,0.3,0.3,0.7,0,1
		c-0.1,0.1-0.1,0.1-0.2,0.1c-2.4,1-4.9,1.9-7.5,2.6c-0.1,0-0.2,0.2-0.2,0.3v3.1c0,0.3,0.1,0.7,0.3,0.9c0.4,0.2,0.9,0.3,1.3,0.2h5
		c0.4,0.1,0.8-0.1,1.1-0.5c0.3-0.7,0.4-1.4,0.4-2.1c0-0.2,0.1-0.4,0.3-0.5c0.2-0.1,0.4-0.1,0.6,0c0.3,0.1,0.5,0.3,0.7,0.5
		c0.2,0.2,0.2,0.5,0.2,0.8c0,1-0.3,2-0.9,2.8C311.6,113.3,310.8,113.6,310,113.5z M304.9,125.8h5.2c0.5,0.1,1-0.2,1.2-0.6
		c0.3-0.8,0.4-1.6,0.4-2.5c0-0.2,0.1-0.4,0.3-0.5c0.2-0.1,0.4-0.1,0.6,0c0.3,0.1,0.5,0.3,0.7,0.5c0.1,0.2,0.2,0.4,0.2,0.6
		c0.1,1.2-0.2,2.4-0.9,3.3c-0.6,0.6-1.5,0.9-2.4,0.8h-5.5c-1,0.1-2-0.1-2.9-0.6c-0.6-0.6-0.8-1.5-0.7-2.4v-9.3
		c0-0.3,0.1-0.5,0.3-0.7c0.4-0.4,1-0.4,1.4,0c0.2,0.2,0.3,0.4,0.3,0.7v3.7c0,0.1,0,0.1,0.1,0.2c0,0,0.1,0,0.1,0
		c2.3-0.7,4.5-1.6,6.5-2.6c0.2-0.2,0.5-0.2,0.8-0.2c0.3,0,0.5,0.2,0.7,0.4c0.2,0.2,0.3,0.4,0.2,0.7c0,0.2-0.2,0.5-0.4,0.6
		c-2.5,1.2-5.2,2.1-7.9,2.8c-0.1,0-0.2,0.2-0.2,0.3v3.4c0,0.5,0.1,0.8,0.3,1C303.9,125.7,304.4,125.8,304.9,125.8z"/>
	<path class="st4" d="M330.6,105c0.2,0.2,0.3,0.4,0.2,0.7c0,0.3-0.1,0.5-0.3,0.7c-0.2,0.2-0.4,0.3-0.7,0.2c-0.2,0-0.5-0.1-0.6-0.3
		c-1.2-1.5-2.4-2.8-3.8-4.1c-0.1-0.1-0.2-0.1-0.3,0.1c-1.5,2.5-3.4,4.7-5.6,6.6c-0.2,0.1-0.4,0.2-0.6,0.2c-0.2,0-0.5-0.1-0.6-0.3
		c-0.3-0.3-0.4-0.8-0.1-1.1c0,0,0,0,0.1-0.1c2.1-1.7,3.9-3.8,5.2-6.2c0.3-0.6,0.8-0.9,1.5-0.9c0.7,0,1.3,0.2,1.8,0.7
		C328.1,102.3,329.4,103.6,330.6,105z M339.3,107.7c-0.1,0-0.2,0.1-0.2,0.2c0,0,0,0,0,0v3.9c0,0.6,0,1.3,0.1,1.9
		c0.1,0.9,0.3,1.8,0.5,2.7c0.3,1.1,0.6,2.2,1,3.2c0.5,1.1,1.1,2.2,1.8,3.2c0.7,1.1,1.6,2,2.7,2.8c0.2,0.2,0.4,0.4,0.4,0.7v0.1
		c0,0.2-0.1,0.4-0.2,0.6c-0.2,0.2-0.4,0.4-0.7,0.4c-0.3,0.1-0.6,0-0.8-0.2c-1-0.8-1.8-1.7-2.5-2.7c-0.7-1-1.3-2-1.8-3.1
		c-0.4-0.9-0.7-1.8-1-2.8c-0.2-0.8-0.4-1.5-0.5-2.3l0,0l0,0c-0.1,0.8-0.3,1.6-0.6,2.3c-0.3,1-0.7,1.9-1.1,2.8
		c-0.5,1.1-1.2,2.2-1.9,3.1c-0.8,1-1.7,1.9-2.8,2.7c-0.2,0.1-0.4,0.2-0.6,0.2H331c-0.3,0-0.5-0.2-0.7-0.4c-0.2-0.2-0.2-0.5-0.2-0.7
		c0-0.3,0.2-0.5,0.4-0.6c1.1-0.8,2.1-1.8,2.9-2.9c0.8-1,1.4-2.1,1.9-3.2c0.4-1,0.8-2.1,1.1-3.2c0.2-0.9,0.4-1.8,0.5-2.7
		c0.1-0.7,0.1-1.4,0.1-1.9v-3.9c0-0.1,0-0.2-0.1-0.2c0,0,0,0-0.1,0h-2.1c-0.1,0-0.3,0.1-0.3,0.2c-0.5,1.5-1.2,2.9-1.9,4.2
		c-0.2,0.4-0.6,0.7-1.1,0.7c-0.1,0-0.3,0-0.4,0c-0.3,0-0.7-0.1-0.9-0.3c0,0-0.1,0-0.1,0c0,0-0.1,0.1-0.1,0.1v3.4
		c0,0.5-0.2,0.9-0.5,1.2c-0.3,0.3-0.8,0.5-1.2,0.5h-5.7c-0.1,0-0.2,0.1-0.2,0.2v5.3c0,0.1,0,0.1,0.1,0.1c0,0,0.1,0,0.1,0
		c1-0.3,2.6-0.8,4.6-1.4c0.1,0,0.2-0.1,0.1-0.3c-0.3-0.7-0.6-1.3-0.9-1.9c-0.1-0.2-0.1-0.4-0.1-0.6c0.1-0.2,0.2-0.4,0.4-0.4
		c0.2-0.1,0.5-0.1,0.7,0c0.2,0.1,0.4,0.2,0.5,0.4c0.8,1.4,1.5,2.8,2.1,4.3c0.1,0.2,0.1,0.5,0,0.8c-0.1,0.2-0.3,0.4-0.5,0.6
		c-0.2,0.1-0.5,0.1-0.7,0c-0.2-0.1-0.4-0.3-0.5-0.5c-0.1-0.2-0.2-0.4-0.2-0.7c0-0.1-0.1-0.2-0.2-0.1c0,0,0,0-0.1,0
		c-2.6,0.9-5.2,1.8-7.9,2.6c-0.3,0.1-0.5,0.1-0.8,0c-0.2-0.1-0.4-0.3-0.6-0.6c0-0.1-0.1-0.2-0.1-0.4c0-0.1,0-0.3,0.1-0.4
		c0.1-0.2,0.3-0.4,0.6-0.5l1-0.3c0.1,0,0.2-0.2,0.2-0.3v-14c0-0.9,0.7-1.7,1.7-1.7c0,0,0,0,0,0h1.9c0.1,0,0.2-0.1,0.2-0.2v-1.7
		c0-0.2,0.1-0.5,0.3-0.7c0.4-0.4,0.9-0.4,1.3,0c0,0,0,0,0,0c0.2,0.2,0.3,0.4,0.3,0.7v1.7c0,0.1,0.1,0.2,0.2,0.2h1.8
		c0.5,0,0.9,0.2,1.2,0.5c0.3,0.3,0.5,0.8,0.5,1.2v2.3c0,0,0,0.1,0.1,0.1c0,0,0.1,0,0.1,0c1.8-2.5,3.2-6.1,4-10.9
		c0.1-0.3,0.2-0.5,0.4-0.7c0.2-0.1,0.4-0.2,0.6-0.2h0.2c0.5,0.1,0.9,0.6,0.8,1.2c-0.2,1.2-0.5,2.6-1,4c0,0.1,0,0.1,0,0.2
		c0,0,0.1,0.1,0.1,0.1h8.6c0.2-0.1,0.4-0.1,0.6,0l0.4,0.1c0.2,0.1,0.3,0.2,0.4,0.3c0.1,0.2,0.1,0.3,0.1,0.5
		c-0.5,2.1-1.1,4.2-1.9,6.2c-0.1,0.2-0.2,0.4-0.4,0.5c-0.2,0.1-0.5,0.1-0.7,0c-0.2-0.1-0.4-0.2-0.5-0.4c-0.1-0.2-0.1-0.4,0-0.6
		c0.5-1.5,1-3,1.3-4.5c0-0.1,0-0.2-0.2-0.2L339.3,107.7z M328.3,109.9c0-0.2-0.1-0.2-0.2-0.2h-5.5c-0.1,0-0.2,0.1-0.2,0.2
		c0,0,0,0,0,0.1v2.1c0,0.1,0.1,0.2,0.2,0.2h5.4c0.2,0,0.2-0.1,0.2-0.2L328.3,109.9z M322.3,116.1c0,0.1,0.1,0.2,0.2,0.2
		c0,0,0,0,0.1,0h5.4c0.2,0,0.2-0.1,0.2-0.2v-2.2c0-0.1-0.1-0.2-0.2-0.2h-5.5c-0.1,0-0.2,0.1-0.2,0.2L322.3,116.1z"/>
	<g class="st0">
		
			<image style="overflow:visible;" width="1279" height="1279" xlink:href="../../../天璣生技科技(股)公司 - 網頁設計資料/已修-旭能飲.gif"  transform="matrix(0.5778 0 0 0.5778 -82.594 145.5)">
		</image>
	</g>
</g>
</svg>
