<?xml version="1.0" encoding="utf-8"?>
<!-- Generator: Adobe Illustrator 24.2.3, SVG Export Plug-In . SVG Version: 6.00 Build 0)  -->
<svg version="1.1" xmlns="http://www.w3.org/2000/svg" xmlns:xlink="http://www.w3.org/1999/xlink" x="0px" y="0px"
	 viewBox="0 0 572.2 1078.5" style="enable-background:new 0 0 572.2 1078.5;" xml:space="preserve">
<style type="text/css">
	.st0{clip-path:url(#SVGID_2_);fill:#FFFFFF;}
	.st1{clip-path:url(#SVGID_2_);fill:#18254C;}
</style>
<g id="圖層_1">
</g>
<g id="圖層_2">
	<g>
		<defs>
			<rect id="SVGID_1_" x="-1.1" y="-0.3" width="572.1" height="1078.9"/>
		</defs>
		<clipPath id="SVGID_2_">
			<use xlink:href="#SVGID_1_"  style="overflow:visible;"/>
		</clipPath>
		<g style="opacity:0.75;clip-path:url(#SVGID_2_);enable-background:new    ;">
			
				<image style="overflow:visible;" width="424" height="114" xlink:href="7F00ACA7C65BC581.png"  transform="matrix(1 0 0 1 98.24 55.33)">
			</image>
		</g>
		<path class="st0" d="M464.6,143.1H155c-17.1,0-31-13.9-31-31l0,0l0,0c0-17.1,13.9-31,42-31h309.6c6.1,0,20,13.9,20,31l0,0
			C495.6,129.2,481.7,143.1,464.6,143.1L464.6,143.1z"/>
		<path class="st1" d="M162.2,100.3c0,0.2,0.1,0.2,0.2,0.2h11c0.2,0,0.5,0.1,0.6,0.3c0.2,0.2,0.3,0.4,0.3,0.6c0,0.2-0.1,0.5-0.3,0.6
			c-0.2,0.2-0.4,0.3-0.6,0.3h-24.1c-0.2,0-0.5-0.1-0.6-0.3c-0.2-0.2-0.3-0.4-0.3-0.6c0-0.2,0.1-0.5,0.3-0.6c0.2-0.2,0.4-0.3,0.6-0.3
			H160c0.1,0,0.2-0.1,0.2-0.2v-1.7c0-0.6,0.4-1,1-1c0.3,0,0.5,0.1,0.7,0.3c0.2,0.2,0.3,0.4,0.3,0.7L162.2,100.3z M171.4,112.3
			c0.5,0,0.9,0.2,1.2,0.5c0.3,0.3,0.5,0.8,0.5,1.2v8.7c0,1.1-0.4,1.8-1.2,2.1c-1.4,0.2-2.7,0.3-4.1,0.3c-0.3,0-0.5-0.1-0.8-0.3
			c-0.2-0.2-0.4-0.4-0.5-0.7c-0.1-0.2-0.1-0.4,0.1-0.6c0.1-0.2,0.3-0.3,0.6-0.3h2.1c0.5,0,1,0,1.2,0c0.2,0,0.4,0,0.5-0.1
			c0.1-0.1,0.2-0.3,0.1-0.4v-8.5c0-0.1-0.1-0.2-0.2-0.2h-19.1c-0.1,0-0.2,0.1-0.2,0.2v10c0,0.3-0.1,0.5-0.3,0.7
			c-0.4,0.4-1,0.3-1.4-0.1c-0.2-0.2-0.2-0.4-0.3-0.6V114c0-1,0.8-1.7,1.7-1.7L171.4,112.3z M153.3,105.9c0-1,0.8-1.7,1.7-1.7h12.6
			c1,0,1.7,0.8,1.7,1.7v2.6c0,0.5-0.2,0.9-0.5,1.2c-0.3,0.3-0.8,0.5-1.2,0.5h-12.6c-0.5,0-0.9-0.2-1.2-0.5c-0.3-0.3-0.5-0.8-0.5-1.2
			L153.3,105.9z M167.2,108.7c0.2,0,0.2-0.1,0.2-0.2v-2.7c0-0.2-0.1-0.2-0.2-0.2h-11.7c-0.1,0-0.2,0.1-0.2,0.2v2.7
			c0,0.1,0.1,0.2,0.2,0.2c0,0,0,0,0,0H167.2z M167.1,120.6c0,1-0.8,1.7-1.7,1.7h-7.7c-0.1,0-0.2,0.1-0.2,0.2v0.5
			c0,0.2-0.1,0.5-0.3,0.7c-0.2,0.2-0.4,0.3-0.6,0.3c-0.5,0-0.9-0.4-0.9-0.9c0,0,0,0,0,0v-5.2c0-1,0.8-1.7,1.7-1.7l0,0h8
			c1,0,1.7,0.8,1.7,1.7L167.1,120.6z M165.2,117.7c0-0.1-0.1-0.2-0.2-0.2c0,0,0,0,0,0h-7.4c-0.2,0-0.2,0.1-0.2,0.2v2.8
			c0,0.2,0.1,0.2,0.2,0.2h7.3c0.1,0,0.2-0.1,0.2-0.2L165.2,117.7z"/>
		<path class="st1" d="M204.6,102.8c0.2-0.2,0.4-0.3,0.7-0.3c0.3,0,0.5,0,0.7,0.2c0.2,0.1,0.3,0.4,0.3,0.6c0,0.2-0.1,0.4-0.3,0.6
			c-1.2,1-2.4,2-3.7,2.9c-0.1,0.1-0.1,0.2,0,0.3c1.4,1.1,2.9,2.1,4.5,2.9c0.2,0.1,0.4,0.3,0.4,0.5v0.2c0,0.2-0.1,0.4-0.2,0.5
			c-0.2,0.2-0.5,0.4-0.8,0.5c-0.3,0.1-0.6,0-0.9-0.1c-2.2-1.2-4.3-2.7-6-4.5c0,0-0.1,0-0.1,0c0,0-0.1,0-0.1,0.1
			c0,0.8-0.6,1.5-1.5,1.5c0,0,0,0,0,0h-8.4c-0.3,0-0.7-0.1-0.9-0.4c-0.2-0.2-0.4-0.6-0.4-0.9c0,0,0,0-0.1,0s-0.1,0-0.1,0
			c-1.9,1.9-4.1,3.5-6.4,4.7c-0.2,0.1-0.3,0.1-0.5,0.1c-0.1,0-0.2,0-0.3-0.1c-0.3,0-0.5-0.2-0.6-0.4c-0.1-0.1-0.2-0.3-0.2-0.4v-0.2
			c0.1-0.2,0.2-0.4,0.4-0.5c1.9-0.9,3.7-2.1,5.2-3.5c0.1-0.1,0.1-0.2,0-0.3c0,0,0,0,0,0c-1-1-2.1-1.9-3.2-2.7
			c-0.2-0.1-0.3-0.3-0.3-0.4c0-0.2,0-0.4,0.2-0.5c0.2-0.2,0.4-0.3,0.6-0.3c0.2,0,0.4,0,0.6,0.1c1.2,0.7,2.3,1.6,3.3,2.6
			c0.1,0.1,0.2,0.1,0.3,0c1.1-1.2,2.1-2.5,2.9-4c0,0,0-0.1,0-0.1c0,0-0.1-0.1-0.1-0.1h-6.7c-0.2,0-0.4-0.1-0.6-0.2
			c-0.3-0.3-0.3-0.8,0-1.2c0,0,0,0,0,0c0.2-0.2,0.4-0.3,0.6-0.2h7.8c0,0,0.1,0,0.1,0c0.2-0.1,0.4,0,0.6,0.1l0.4,0.2
			c0.2,0.1,0.3,0.2,0.4,0.4c0.1,0.2,0.1,0.4,0,0.6c-1,2.2-2.3,4.1-4,5.9c0,0,0,0.1,0,0.1c0,0,0.1,0,0.1,0h10.4c0,0,0.1,0,0.1,0
			c0,0,0-0.1,0-0.1c-1.9-2-3.6-4.3-4.8-6.8c-0.1-0.2-0.1-0.4,0-0.7c0.1-0.2,0.3-0.4,0.5-0.4c0.1,0,0.2,0,0.3,0c0.1,0,0.3,0,0.4,0
			c0.2,0.1,0.4,0.3,0.5,0.5c0.5,1,1.1,1.9,1.7,2.9c0.1,0.1,0.2,0.1,0.3,0c0,0,0,0,0,0c1.1-0.9,2.2-1.8,3.2-2.8
			c0.2-0.2,0.4-0.3,0.7-0.3c0.3,0,0.5,0,0.7,0.2c0.2,0.1,0.3,0.3,0.3,0.6c0,0.2-0.1,0.4-0.2,0.6c-1.2,1.1-2.5,2.1-3.8,3
			c-0.1,0.1-0.1,0.2,0,0.3c0.6,0.7,1.2,1.4,1.9,2.1c0.1,0.1,0.2,0.1,0.3,0c0,0,0,0,0,0C202.4,104.8,203.6,103.8,204.6,102.8z
			 M199.2,118.8c0.3,0.1,0.6,0.3,0.7,0.6c0.1,0.1,0.1,0.3,0.1,0.5c0,0.2,0,0.3-0.1,0.5c-0.6,1.2-1.2,2.2-1.6,2.9c0,0,0,0.1,0,0.1
			c0,0,0.1,0.1,0.1,0.1h7.7c0.5,0.1,0.8,0.5,0.8,0.9c0,0.4-0.4,0.7-0.8,0.8h-24.4c-0.5,0.1-0.9-0.3-0.9-0.8
			c-0.1-0.5,0.3-0.9,0.8-0.9c0.1,0,0.1,0,0.2,0h7.3c0.1,0,0.1,0,0.1-0.1c0,0,0-0.1,0-0.1c-0.2-0.9-0.6-1.8-1-2.7
			c-0.1-0.2-0.1-0.4-0.1-0.6c0-0.2,0-0.4,0.1-0.5c0.1-0.4,0.4-0.6,0.8-0.7v-0.1h-1.5c-0.5,0-0.9-0.2-1.2-0.5
			c-0.3-0.3-0.5-0.8-0.5-1.2v-4.1c0-1,0.8-1.7,1.7-1.7h13c1,0,1.7,0.8,1.7,1.7v4.1c0,0.5-0.2,0.9-0.5,1.2c-0.3,0.3-0.8,0.5-1.2,0.5
			L199.2,118.8z M187.7,112.8c-0.1,0-0.2,0.1-0.2,0.2c0,0,0,0,0,0.1v3.7c0,0.1,0.1,0.2,0.2,0.2c0,0,0,0,0.1,0h12.1
			c0.1,0,0.2-0.1,0.2-0.2c0,0,0,0,0-0.1V113c0-0.1-0.1-0.2-0.2-0.2c0,0,0,0-0.1,0L187.7,112.8z M198.4,118.9c0,0,0-0.1,0-0.1
			c0,0-0.1-0.1-0.1-0.1h-8.9c0,0-0.1,0-0.1,0.1c0,0,0,0.1,0,0.2c0.6,0.9,1,1.8,1.4,2.8c0.1,0.1,0.1,0.3,0.1,0.5
			c0,0.2-0.1,0.4-0.1,0.6c-0.2,0.3-0.5,0.6-0.8,0.7v0.1h7.3l0,0c-0.2-0.1-0.4-0.2-0.5-0.4c-0.1-0.2-0.1-0.4,0.1-0.6
			C197.4,121.3,197.9,120.1,198.4,118.9z"/>
		<path class="st1" d="M238.9,101.2c0.2,0.1,0.2,0.3,0.2,0.6c0,0.2-0.1,0.4-0.2,0.6c-0.1,0.2-0.3,0.2-0.6,0.2h-19.1
			c-0.1,0-0.3,0.1-0.4,0.2c-1.1,1.9-2.5,3.6-4,5.2c-0.2,0.2-0.5,0.3-0.8,0.3c-0.3,0-0.6-0.1-0.8-0.2c-0.2-0.1-0.4-0.4-0.4-0.7
			c0-0.2,0.1-0.5,0.3-0.6c2.3-2.1,4.1-4.6,5.3-7.5c0.1-0.3,0.3-0.5,0.6-0.6c0.2-0.1,0.4-0.1,0.5-0.1c0.4,0,0.7,0.2,0.9,0.5
			c0.1,0.2,0.1,0.5,0,0.8c-0.1,0.3-0.3,0.7-0.5,1c0,0,0,0.1,0,0.2c0,0,0.1,0.1,0.1,0.1h18.2C238.6,101,238.8,101.1,238.9,101.2z
			 M224.1,118c-0.2,0-0.2,0.1-0.2,0.2v1.6c0,0.1,0.1,0.2,0.2,0.2h7.3c0.2,0,0.4,0.1,0.6,0.2c0.2,0.2,0.2,0.4,0.2,0.6
			c0,0.2-0.1,0.4-0.2,0.6c-0.1,0.1-0.4,0.2-0.6,0.2h-7.3c-0.1,0-0.2,0.1-0.2,0.2c0,0,0,0,0,0.1v3c0,0.3-0.1,0.5-0.3,0.7
			c-0.2,0.2-0.4,0.3-0.7,0.3c-0.3,0-0.5-0.1-0.7-0.3c-0.2-0.2-0.3-0.4-0.3-0.7v-3c0-0.2-0.1-0.2-0.2-0.2H214c-0.2,0-0.4-0.1-0.6-0.2
			c-0.2-0.1-0.2-0.3-0.2-0.6c0-0.2,0.1-0.4,0.2-0.6c0.1-0.2,0.3-0.3,0.6-0.3h7.6c0.1,0,0.2-0.1,0.2-0.2c0,0,0,0,0,0v-1.6
			c0-0.1-0.1-0.2-0.2-0.2c0,0,0,0,0,0h-5.5c-0.4,0-0.8-0.3-0.9-0.7c0-0.4,0.3-0.8,0.7-0.9c0.1,0,0.1,0,0.2,0h5.5
			c0.1,0,0.2-0.1,0.2-0.2c0,0,0,0,0,0v-1.5c0-0.1-0.1-0.2-0.2-0.2c0,0,0,0,0,0h-6.6c-0.2,0-0.4-0.1-0.6-0.2c-0.3-0.3-0.3-0.8,0-1.1
			c0,0,0,0,0,0c0.2-0.1,0.4-0.2,0.6-0.2h3.6c0,0,0.1,0,0.1-0.1c0,0,0-0.1,0-0.1c-0.3-0.6-0.6-1.2-0.9-1.8c-0.1-0.2-0.1-0.4-0.1-0.6
			c0.1-0.2,0.2-0.3,0.4-0.4c0.2-0.1,0.5-0.1,0.7,0c0.2,0.1,0.4,0.2,0.6,0.4c0.4,0.5,0.7,1.1,1,1.7c0.1,0.2,0.1,0.4,0,0.5
			c-0.1,0.2-0.2,0.3-0.4,0.4l0,0h5.2l0,0l0,0c-0.2-0.1-0.3-0.2-0.3-0.4c-0.1-0.2,0-0.3,0.1-0.5c0.4-0.6,0.8-1.2,1.1-1.7
			c0.1-0.2,0.3-0.4,0.6-0.5c0.3-0.1,0.5-0.1,0.8,0c0.2,0.1,0.4,0.2,0.5,0.5c0.1,0.2,0,0.5-0.1,0.7c-0.5,0.7-0.9,1.4-1.4,1.9
			c0,0,0,0.1,0,0.1c0,0,0.1,0.1,0.1,0.1h3.9c0.2,0,0.4,0.1,0.5,0.2c0.3,0.3,0.3,0.8,0,1.1c-0.1,0.1-0.3,0.2-0.5,0.2h-6.5
			c-0.2,0-0.2,0.1-0.2,0.2v1.5c0,0.1,0.1,0.2,0.2,0.2h5.8c0.2,0,0.4,0.1,0.5,0.2c0.3,0.3,0.3,0.8,0,1.1c-0.1,0.1-0.3,0.2-0.5,0.2
			L224.1,118z M215.9,109.2c-0.2-0.1-0.2-0.4-0.2-0.6c0-0.2,0.1-0.4,0.2-0.6c0.1-0.2,0.3-0.3,0.6-0.2h16.7c0.5,0,0.9,0.2,1.2,0.5
			c0.3,0.3,0.5,0.8,0.5,1.2c0.2,9.6,1.2,14.4,3,14.4c0.4,0,0.7-1.2,0.8-3.6c0-0.2,0.1-0.3,0.3-0.4c0.2-0.1,0.3,0,0.4,0.1
			c0.4,0.3,0.6,0.8,0.6,1.3c0.1,1.2-0.2,2.4-0.6,3.5c-0.3,0.6-0.9,1-1.6,1c-0.6,0-1.2-0.2-1.6-0.5c-0.5-0.4-1-1-1.2-1.6
			c-0.4-0.8-0.6-1.6-0.9-2.4c-0.3-1.1-0.5-2.2-0.6-3.3c-0.1-1.3-0.3-2.6-0.3-3.8s-0.1-2.8-0.2-4.4c0-0.1-0.1-0.2-0.2-0.2
			c0,0,0,0,0,0h-16.3C216.3,109.5,216,109.4,215.9,109.2L215.9,109.2z M236.7,104.7c0.1,0.1,0.2,0.3,0.2,0.5c0,0.2-0.1,0.4-0.2,0.6
			c-0.1,0.2-0.3,0.2-0.6,0.2h-16.4c-0.2,0-0.4-0.1-0.6-0.2c-0.1-0.1-0.2-0.3-0.2-0.6c0-0.2,0.1-0.4,0.2-0.5c0.2-0.1,0.4-0.2,0.6-0.2
			h16.4C236.3,104.5,236.5,104.5,236.7,104.7L236.7,104.7z"/>
		<path class="st1" d="M257.2,103c0.2,0.2,0.3,0.4,0.2,0.7c0,0.3-0.1,0.5-0.3,0.7c-0.2,0.2-0.4,0.3-0.7,0.2c-0.2,0-0.5-0.1-0.6-0.3
			c-1.2-1.5-2.4-2.8-3.8-4.1c-0.1-0.1-0.2-0.1-0.3,0.1c-1.5,2.5-3.4,4.7-5.6,6.6c-0.2,0.2-0.4,0.2-0.6,0.2c-0.2,0-0.5-0.1-0.6-0.3
			c-0.1-0.1-0.2-0.4-0.2-0.6c0-0.2,0.1-0.5,0.3-0.6c2.1-1.7,3.9-3.8,5.2-6.2c0.3-0.6,0.8-0.9,1.5-0.9c0.7,0,1.3,0.2,1.8,0.7
			C254.8,100.3,256.1,101.6,257.2,103z M265.9,105.7c-0.1,0-0.2,0.1-0.2,0.2c0,0,0,0,0,0.1v3.9c0,0.6,0,1.3,0.1,1.9
			c0.1,0.9,0.3,1.8,0.5,2.7c0.3,1.1,0.6,2.2,1,3.2c0.5,1.1,1.1,2.2,1.8,3.2c0.7,1.1,1.6,2,2.7,2.8c0.2,0.2,0.4,0.4,0.4,0.7v0.1
			c0,0.2-0.1,0.4-0.2,0.6c-0.2,0.2-0.4,0.4-0.7,0.4c-0.3,0-0.6,0-0.8-0.2c-1-0.8-1.8-1.7-2.5-2.7c-0.7-1-1.3-2-1.8-3.1
			c-0.4-0.9-0.7-1.8-1-2.8c-0.2-0.8-0.4-1.5-0.5-2.3l0,0l0,0c-0.1,0.8-0.3,1.6-0.6,2.3c-0.3,1-0.7,1.9-1.1,2.8
			c-0.5,1.1-1.2,2.2-1.9,3.1c-0.8,1-1.7,1.9-2.8,2.7c-0.2,0.1-0.4,0.2-0.6,0.2c-0.1,0-0.1,0-0.2,0c-0.3,0-0.5-0.2-0.7-0.4
			c-0.2-0.2-0.2-0.5-0.2-0.7c0-0.3,0.2-0.5,0.4-0.6c1.1-0.8,2.1-1.8,2.9-2.9c0.8-1,1.4-2.1,1.9-3.2c0.4-1,0.8-2.1,1.1-3.2
			c0.2-0.9,0.4-1.8,0.5-2.7c0.1-0.6,0.1-1.3,0.1-1.9v-3.9c0-0.1,0-0.2-0.1-0.2c0,0,0,0-0.1,0h-2.1c-0.1,0-0.3,0.1-0.3,0.2
			c-0.5,1.5-1.2,2.9-1.9,4.2c-0.2,0.4-0.6,0.7-1.1,0.7c-0.1,0-0.3,0-0.4,0c-0.3,0-0.7-0.1-0.9-0.3c0,0-0.1,0-0.1,0
			c0,0-0.1,0.1-0.1,0.1v3.4c0,0.5-0.2,0.9-0.5,1.2c-0.3,0.3-0.8,0.5-1.2,0.5h-5.7c-0.2,0-0.2,0.1-0.2,0.2v5.3c0,0.1,0,0.1,0.1,0.1
			c0,0,0.1,0,0.1,0c1-0.3,2.6-0.8,4.6-1.4c0.1,0,0.2-0.1,0.1-0.3c-0.3-0.7-0.6-1.3-0.9-1.9c-0.1-0.2-0.1-0.4-0.1-0.6
			c0.1-0.2,0.2-0.4,0.4-0.4c0.2-0.1,0.5-0.1,0.7,0c0.2,0.1,0.4,0.2,0.5,0.4c0.8,1.4,1.5,2.8,2.2,4.3c0.1,0.2,0.1,0.5,0,0.8
			c-0.1,0.2-0.3,0.4-0.5,0.6c-0.2,0.1-0.5,0.1-0.7,0c-0.2-0.1-0.4-0.3-0.5-0.5c-0.1-0.2-0.2-0.4-0.2-0.7c0-0.1-0.1-0.2-0.2-0.1
			c0,0,0,0-0.1,0c-2.6,0.9-5.2,1.8-7.9,2.6c-0.3,0.1-0.5,0.1-0.8,0c-0.2-0.1-0.4-0.3-0.6-0.6c0-0.1-0.1-0.2-0.1-0.4
			c0-0.1,0-0.3,0.1-0.4c0.1-0.2,0.3-0.4,0.6-0.5l1-0.3c0.1,0,0.2-0.2,0.2-0.3v-14c0-0.9,0.7-1.7,1.7-1.7c0,0,0,0,0,0h1.9
			c0.2,0,0.2-0.1,0.2-0.2v-1.7c0-0.2,0.1-0.5,0.3-0.7c0.4-0.4,0.9-0.4,1.3,0c0,0,0,0,0,0c0.2,0.2,0.3,0.4,0.3,0.7v1.7
			c0,0.1,0.1,0.2,0.2,0.2h1.9c0.9,0,1.7,0.7,1.7,1.7c0,0,0,0,0,0v2.3c0,0,0,0.1,0.1,0.1c0,0,0.1,0,0.1,0c1.8-2.5,3.2-6.1,4-10.9
			c0.1-0.3,0.2-0.5,0.4-0.7c0.2-0.1,0.4-0.2,0.6-0.2h0.2c0.5,0.1,0.9,0.6,0.8,1.2c-0.2,1.2-0.5,2.6-1,4c0,0,0,0.1,0,0.2
			c0,0,0.1,0.1,0.1,0.1h8.5c0.2-0.1,0.4-0.1,0.6,0l0.4,0.1c0.2,0.1,0.3,0.2,0.4,0.3c0.1,0.2,0.1,0.3,0.1,0.5
			c-0.5,2.1-1.1,4.2-1.9,6.2c-0.1,0.2-0.2,0.4-0.4,0.5c-0.2,0.1-0.5,0.1-0.7,0c-0.2-0.1-0.4-0.2-0.5-0.4c-0.1-0.2-0.1-0.4,0-0.6
			c0.5-1.5,1-3,1.3-4.5c0-0.1,0-0.2-0.2-0.2L265.9,105.7z M254.9,107.9c0-0.1-0.1-0.2-0.2-0.2c0,0,0,0-0.1,0h-5.5
			c-0.2,0-0.2,0.1-0.2,0.2v2.1c0,0.1,0.1,0.2,0.2,0.2h5.5c0.1,0,0.2-0.1,0.2-0.2V107.9z M249,114.1c0,0.2,0.1,0.2,0.2,0.2h5.5
			c0.1,0,0.2-0.1,0.2-0.2c0,0,0,0,0-0.1v-2.2c0-0.1-0.1-0.2-0.2-0.2h-5.5c-0.2,0-0.2,0.1-0.2,0.2V114.1z"/>
		<path class="st1" d="M301,99.8c1,0,1.7,0.8,1.7,1.7v20.8c0,0.5-0.1,1.1-0.3,1.6c-0.2,0.4-0.6,0.6-1,0.8c-1.5,0.3-3,0.4-4.5,0.3
			l0,0c-0.3,0-0.6-0.1-0.8-0.3c-0.2-0.2-0.4-0.4-0.5-0.7c-0.1-0.2-0.1-0.4,0.1-0.6c0.1-0.2,0.3-0.3,0.5-0.3h2h1.8
			c0.5,0,0.8-0.3,0.8-0.8v-6.2c0-0.1-0.1-0.2-0.2-0.2h-8c-0.2,0-0.2,0.1-0.2,0.2v7.8c0,0.3-0.1,0.5-0.3,0.7
			c-0.2,0.2-0.4,0.3-0.7,0.3c-0.6,0-1-0.4-1-1v-7.8c0-0.1-0.1-0.2-0.2-0.2h-7.3c-0.1,0-0.2,0.1-0.3,0.2c0,0,0,0,0,0
			c-0.3,3-1.4,6-3.1,8.5c-0.2,0.2-0.4,0.3-0.6,0.3c-0.3,0-0.5-0.1-0.7-0.3c-0.2-0.2-0.3-0.4-0.4-0.7c0,0,0-0.1,0-0.2
			c0-0.2,0.1-0.4,0.2-0.6c0.8-1.1,1.4-2.2,1.8-3.5c0.5-1.4,0.9-2.9,1-4.5c0.1-1.3,0.2-2.8,0.2-4.6v-9.1c0-0.5,0.2-0.9,0.5-1.2
			c0.3-0.3,0.8-0.5,1.2-0.5L301,99.8z M282.7,113.8c0,0.2,0,0.2,0.2,0.2h7.1c0.2,0,0.2-0.1,0.2-0.2V109c0-0.1-0.1-0.2-0.2-0.2
			c0,0,0,0-0.1,0h-7c-0.1,0-0.2,0.1-0.2,0.2c0,0,0,0,0,0.1v1.7C282.8,111.8,282.8,112.8,282.7,113.8L282.7,113.8z M290.3,101.9
			c0-0.1-0.1-0.2-0.2-0.2h-7c-0.2,0-0.2,0.1-0.2,0.2v4.7c0,0.2,0.1,0.2,0.2,0.2h7c0.2,0,0.2-0.1,0.2-0.2V101.9z M300.5,106.8
			c0.1,0,0.2-0.1,0.2-0.2c0,0,0,0,0-0.1v-4.7c0-0.1-0.1-0.2-0.2-0.2h-8c-0.2,0-0.2,0.1-0.2,0.2v4.7c0,0.2,0.1,0.2,0.2,0.2H300.5z
			 M292.3,113.8c0,0.1,0.1,0.2,0.2,0.2h8c0.1,0,0.2-0.1,0.2-0.2V109c0-0.1-0.1-0.2-0.2-0.2c0,0,0,0-0.1,0h-8c-0.2,0-0.2,0.1-0.2,0.2
			V113.8z"/>
		<path class="st1" d="M319.2,105.4c0.2-0.1,0.5-0.1,0.7,0l0.3,0.1c0.2,0.1,0.3,0.2,0.4,0.4c0.1,0.2,0.1,0.4,0.1,0.6
			c-0.7,3.2-1.9,6.3-3.5,9.2c-1.3,2.2-3.1,4.2-5.1,5.8c-0.2,0.2-0.5,0.3-0.8,0.2c-0.3,0-0.6-0.2-0.8-0.4c-0.2-0.2-0.3-0.4-0.3-0.7
			c0-0.3,0.1-0.5,0.4-0.7c1.7-1.3,3.2-2.9,4.5-4.7c1.6-2.3,2.7-5,3.4-7.7c0,0,0-0.1,0-0.1c0,0-0.1-0.1-0.1-0.1h-6.9
			c-0.3,0-0.5-0.1-0.7-0.3c-0.4-0.4-0.4-1,0-1.4c0.2-0.2,0.4-0.3,0.7-0.3L319.2,105.4L319.2,105.4z M334,103.4
			c0.2-0.2,0.5-0.4,0.7-0.4c0.3,0,0.6,0,0.8,0.2c0.4,0.3,0.5,1,0.2,1.4c0,0,0,0,0,0c-2.2,2.5-4.7,4.9-7.3,7
			c-0.1,0.1-0.1,0.2-0.1,0.4c1.9,3.6,4.8,6.6,8.4,8.6c0.2,0.1,0.4,0.4,0.4,0.6v0.2c0,0.2-0.1,0.4-0.2,0.6c-0.2,0.2-0.5,0.4-0.8,0.5
			c-0.1,0-0.2,0.1-0.3,0.1c-0.2,0-0.4-0.1-0.6-0.2c-4.4-2.5-7.9-7-10.4-13.5c0,0,0,0-0.1,0l0,0v13.5c0,0.6-0.1,1.1-0.3,1.7
			c-0.2,0.4-0.6,0.7-1,0.8c-1.4,0.3-2.9,0.5-4.3,0.4l0,0c-0.3,0-0.6-0.1-0.9-0.3c-0.3-0.2-0.5-0.5-0.6-0.8c0-0.1-0.1-0.2-0.1-0.3
			c0-0.1,0-0.3,0.1-0.4c0.1-0.2,0.3-0.3,0.6-0.3h3.6c0.4,0,0.8-0.2,0.8-0.7c0-0.1,0-0.1,0-0.2V98.8c0-0.3,0.1-0.5,0.3-0.7
			c0.4-0.4,1-0.4,1.4,0c0,0,0,0,0,0c0.2,0.2,0.3,0.4,0.3,0.7v4.2c0,0.1,0,0.3,0.1,0.4c0.6,2.3,1.4,4.5,2.5,6.6
			c0.1,0.1,0.1,0.2,0.3,0.1c1.2-1.1,2.5-2.3,3.8-3.6C332.3,105.4,333.2,104.4,334,103.4L334,103.4z"/>
		<path class="st1" d="M344.7,123.6c-0.3,0-0.5-0.1-0.7-0.3c-0.2-0.2-0.3-0.4-0.3-0.7c0-0.3,0.1-0.5,0.3-0.7
			c0.2-0.2,0.4-0.3,0.7-0.3h3.7c0.1,0,0.2,0,0.2-0.1c0,0,0,0,0-0.1v-16.5c0-0.1-0.1-0.2-0.2-0.2c0,0,0,0,0,0h-2.9
			c-0.2,0-0.4-0.1-0.6-0.2c-0.2-0.1-0.2-0.3-0.2-0.6c0-0.2,0.1-0.4,0.2-0.6c0.1-0.2,0.4-0.3,0.6-0.4c1-0.2,2-0.5,2.9-0.9
			c0.5-0.3,1.1-0.4,1.7-0.4c0.3,0,0.5,0.1,0.7,0.3c0.2,0.2,0.3,0.4,0.3,0.7v18.9c0,0.1,0.1,0.2,0.2,0.2h3.2c0.5,0,1,0.5,1,1
			c0,0.3-0.1,0.5-0.3,0.7c-0.2,0.2-0.5,0.3-0.7,0.3L344.7,123.6z"/>
		<path class="st1" d="M359.7,123.6c-0.2,0-0.4-0.1-0.5-0.2c-0.1-0.1-0.2-0.3-0.2-0.5c0-0.5,0.2-0.9,0.6-1.2
			c2.7-2.3,5.2-4.9,7.3-7.8c1.4-1.8,2.2-3.9,2.3-6.2c0.1-1.2-0.3-2.4-1.1-3.3c-0.8-0.9-1.9-1.3-3.1-1.2c-1.5,0.1-3,0.8-4,1.9
			c-0.2,0.2-0.4,0.3-0.7,0.3c-0.3,0-0.5-0.1-0.7-0.3c-0.2-0.2-0.3-0.4-0.3-0.7c0-0.3,0.1-0.5,0.3-0.7c1.5-1.6,3.6-2.5,5.7-2.5
			c1.7-0.1,3.4,0.6,4.6,1.8c1.2,1.3,1.8,3,1.7,4.7c-0.1,2.4-0.9,4.6-2.2,6.5c-1.9,2.7-4.1,5.2-6.5,7.4c0,0,0,0.1,0,0.1
			c0,0,0.1,0,0.1,0c1.1-0.1,2.3-0.2,3.4-0.2h5.3c0.6,0.1,1,0.6,1,1.2c0,0.5-0.5,0.9-1,1L359.7,123.6z"/>
		<path class="st1" d="M382.5,124c-2.1,0-4-1.1-5-2.9c-1.2-1.9-1.8-4.8-1.8-8.6c0-3.8,0.6-6.6,1.8-8.5c1-1.8,2.9-2.9,5-2.9
			c2.1,0,4,1.1,5,2.9c1.2,1.9,1.8,4.7,1.8,8.5s-0.6,6.7-1.8,8.6C386.5,122.9,384.6,124,382.5,124z M382.5,122c1.3,0,2.4-0.8,3.2-2.4
			c0.9-2.3,1.3-4.7,1.2-7.2c0.1-2.4-0.3-4.8-1.2-7c-0.5-1.3-1.7-2.3-3.2-2.3c-1.5,0.1-2.7,1-3.2,2.3c-0.9,2.2-1.3,4.6-1.2,7
			c-0.1,2.4,0.3,4.9,1.2,7.2C380,121.2,381.1,122,382.5,122z"/>
		<path class="st1" d="M399.1,124c-2.1,0-4-1.1-5-2.9c-1.2-1.9-1.8-4.8-1.8-8.6s0.6-6.6,1.8-8.5c1-1.8,2.9-2.9,5-2.9
			c2.1,0,3.9,1.1,4.9,2.9c1.2,1.9,1.8,4.7,1.8,8.5s-0.6,6.7-1.8,8.6C403,122.9,401.1,124,399.1,124z M399.1,122
			c1.3,0,2.4-0.8,3.2-2.4c0.9-2.3,1.3-4.7,1.2-7.2c0.1-2.4-0.3-4.8-1.2-7c-0.8-1.6-1.8-2.3-3.2-2.3c-1.5,0-2.7,1-3.2,2.3
			c-0.9,2.2-1.3,4.6-1.2,7c-0.1,2.4,0.3,4.9,1.2,7.2C396.6,121.2,397.7,122,399.1,122z"/>
		<path class="st1" d="M412.5,123.2c-0.2,0.2-0.6,0.4-0.9,0.4c-0.3,0-0.7-0.1-0.9-0.4c-0.2-0.2-0.4-0.5-0.4-0.9v-19.1
			c0-0.5,0.2-0.9,0.5-1.2c0.3-0.3,0.8-0.5,1.2-0.5h4.4c2.1-0.1,4.3,0.4,6.1,1.5c1.4,1,2.1,2.7,2.1,4.9c0.1,1.9-0.7,3.8-2.2,5
			c-1.7,1.2-3.8,1.8-5.9,1.7h-3.5c-0.2,0-0.2,0.1-0.2,0.2v7.5C412.9,122.6,412.8,123,412.5,123.2z M412.9,112.4
			c0,0.1,0.1,0.2,0.2,0.2h3.1c1.6,0.1,3.2-0.3,4.5-1.1c1-0.9,1.6-2.2,1.5-3.6c0.1-1.3-0.4-2.6-1.5-3.4c-1.4-0.8-3-1.1-4.6-1h-3
			c-0.1,0-0.2,0.1-0.2,0.2c0,0,0,0,0,0.1L412.9,112.4z"/>
		<path class="st1" d="M431.8,124c-1.8,0-2.7-1.1-2.7-3.4v-19.9c0-0.3,0.1-0.6,0.4-0.9c0.2-0.2,0.5-0.4,0.9-0.3
			c0.7,0,1.2,0.5,1.2,1.2c0,0,0,0,0,0v20c-0.1,0.4,0.1,0.8,0.4,1.1l0.3,0.2l0.4,0.2c0.1,0.1,0.2,0.1,0.2,0.2
			c0.1,0.1,0.1,0.2,0.2,0.3l0,0c0,0.1,0,0.1,0,0.2c0,0.2-0.1,0.4-0.1,0.6c-0.2,0.2-0.4,0.3-0.6,0.4L431.8,124z"/>
		<path class="st1" d="M442.2,124c-3.3,0-5-2.1-5-6.3v-9.1c0-0.3,0.1-0.7,0.4-0.9c0.2-0.2,0.5-0.4,0.9-0.3c0.3,0,0.6,0.1,0.9,0.3
			c0.2,0.2,0.4,0.6,0.4,0.9v8.8c-0.1,1.2,0.2,2.4,0.8,3.4c0.6,0.8,1.5,1.2,2.5,1.1c0.8,0,1.6-0.2,2.2-0.6c0.8-0.6,1.6-1.3,2.2-2.1
			c0.1-0.1,0.2-0.2,0.1-0.4v-10.3c0-0.7,0.5-1.2,1.2-1.2c0,0,0,0,0,0c0.3,0,0.6,0.1,0.9,0.3c0.2,0.2,0.4,0.6,0.4,0.9v14.1
			c0,0.3-0.1,0.5-0.3,0.7c-0.2,0.2-0.4,0.3-0.7,0.3c-0.3,0-0.6-0.1-0.8-0.3c-0.2-0.2-0.3-0.4-0.3-0.7l-0.1-1.6c0,0-0.1,0-0.1,0
			c-0.7,0.9-1.6,1.6-2.5,2.2C444.2,123.7,443.2,124,442.2,124z"/>
		<path class="st1" d="M459.9,124c-1.9,0-3.7-0.6-5.2-1.6c-0.2-0.1-0.4-0.4-0.4-0.7v-0.2c0-0.2,0.1-0.4,0.2-0.6
			c0.2-0.2,0.4-0.3,0.7-0.4c0.3,0,0.6,0,0.8,0.2c1.2,0.9,2.6,1.3,4.1,1.3c0.9,0.1,1.8-0.2,2.5-0.8c0.6-0.5,0.9-1.2,0.9-2
			c0-0.3-0.1-0.7-0.2-1c-0.1-0.3-0.3-0.5-0.6-0.7c-0.3-0.2-0.6-0.4-0.9-0.6c-0.3-0.2-0.7-0.3-1-0.5c-0.3-0.1-0.7-0.3-1.1-0.4
			c-0.5-0.2-0.9-0.3-1.4-0.5c-0.4-0.2-0.9-0.4-1.3-0.7c-0.4-0.2-0.8-0.5-1.2-0.9c-0.3-0.3-0.6-0.7-0.7-1.1c-0.2-0.5-0.3-1-0.3-1.5
			c0-1.3,0.5-2.4,1.5-3.2c1.1-0.9,2.6-1.4,4-1.3c1.5,0,2.9,0.4,4.1,1.2c0.2,0.1,0.4,0.4,0.4,0.6c0.1,0.5-0.3,1-0.8,1.1
			c-0.3,0.1-0.5,0-0.8-0.1c-0.9-0.6-1.9-0.9-3-0.9c-0.8-0.1-1.7,0.2-2.4,0.7c-0.5,0.4-0.8,1.1-0.8,1.8c0,0.3,0.1,0.6,0.2,0.9
			c0.1,0.2,0.3,0.5,0.5,0.7c0.3,0.2,0.6,0.4,0.9,0.5c0.3,0.2,0.7,0.3,1,0.4l1.1,0.4l0.2,0.1c0.6,0.2,1.1,0.4,1.4,0.6
			c0.4,0.2,0.8,0.4,1.2,0.7c0.4,0.2,0.8,0.5,1.1,0.9c0.3,0.3,0.5,0.7,0.7,1.2c0.2,0.5,0.3,1.1,0.3,1.6c0,1.3-0.5,2.6-1.5,3.4
			C463,123.6,461.4,124.1,459.9,124z"/>
		<g style="clip-path:url(#SVGID_2_);">
			
				<image style="overflow:visible;" width="3690" height="5181" xlink:href="7F00ACA7C65BC583.png"  transform="matrix(0.24 0 0 0.24 -153.36 158.82)">
			</image>
		</g>
	</g>
</g>
</svg>
