<?xml version="1.0" encoding="utf-8"?>
<!-- Generator: Adobe Illustrator 24.2.3, SVG Export Plug-In . SVG Version: 6.00 Build 0)  -->
<svg version="1.1" id="圖層_1" xmlns="http://www.w3.org/2000/svg" xmlns:xlink="http://www.w3.org/1999/xlink" x="0px" y="0px"
	 viewBox="0 0 1920 1080" style="enable-background:new 0 0 1920 1080;" xml:space="preserve">
<style type="text/css">
	.st0{clip-path:url(#SVGID_2_);}
	.st1{fill:#FFFFFF;}
	.st2{clip-path:url(#SVGID_4_);}
	.st3{filter:url(#Adobe_OpacityMaskFilter);}
	.st4{fill:url(#SVGID_6_);}
	.st5{opacity:0.4;fill:#FFFFFF;}
	.st6{display:none;}
	.st7{display:inline;}
	.st8{fill:#00C4DA;}
	.st9{fill:#FFFFFF;stroke:#FFFFFF;stroke-width:1.8;stroke-miterlimit:10;}
	.st10{fill:#D7B21D;}
	.st11{fill:#D2AF13;}
	.st12{fill:url(#SVGID_7_);}
	.st13{fill:url(#SVGID_8_);}
	.st14{fill:url(#SVGID_9_);}
	.st15{fill:url(#SVGID_10_);}
	.st16{fill:url(#SVGID_11_);}
	.st17{fill:#009DC3;}
	.st18{font-family:'GenJyuuGothic-Bold';}
	.st19{font-size:24px;}
	.st20{letter-spacing:4;}
	.st21{letter-spacing:1;}
	.st22{font-family:'GenJyuuGothic-Normal';}
	.st23{font-size:18px;}
	.st24{display:inline;fill:#009DC3;}
	.st25{writing-mode:tb;}
	.st26{fill:#18254C;}
	.st27{font-size:48px;glyph-orientation-vertical:0;}
	.st28{letter-spacing:9;}
	.st29{font-size:48px;glyph-orientation-vertical:1;}
	.st30{display:inline;fill:none;stroke:#18254C;stroke-width:1.024;stroke-miterlimit:10;}
	.st31{filter:url(#Adobe_OpacityMaskFilter_1_);}
	.st32{fill:url(#SVGID_13_);}
	.st33{filter:url(#Adobe_OpacityMaskFilter_2_);}
	.st34{fill:url(#SVGID_15_);}
	.st35{filter:url(#Adobe_OpacityMaskFilter_3_);}
	.st36{fill:url(#SVGID_17_);}
</style>
<g>
	<defs>
		<rect id="SVGID_1_" width="1920" height="1080"/>
	</defs>
	<clipPath id="SVGID_2_">
		<use xlink:href="#SVGID_1_"  style="overflow:visible;"/>
	</clipPath>
	<g class="st0">
		<rect x="-11" y="-23.3" class="st1" width="1952" height="1116.3"/>
		<g>
			<g>
				<defs>
					<rect id="SVGID_3_" y="-12" width="1920" height="1092"/>
				</defs>
				<clipPath id="SVGID_4_">
					<use xlink:href="#SVGID_3_"  style="overflow:visible;"/>
				</clipPath>
				<g class="st2">
				</g>
			</g>
		</g>
		<defs>
			<filter id="Adobe_OpacityMaskFilter" filterUnits="userSpaceOnUse" x="238" y="-172" width="1699.5" height="1133">
				<feColorMatrix  type="matrix" values="1 0 0 0 0  0 1 0 0 0  0 0 1 0 0  0 0 0 1 0"/>
			</filter>
		</defs>
		<mask maskUnits="userSpaceOnUse" x="238" y="-172" width="1699.5" height="1133" id="SVGID_5_">
			<g class="st3">
				<radialGradient id="SVGID_6_" cx="1236.6218" cy="23.6502" r="975.4866" gradientUnits="userSpaceOnUse">
					<stop  offset="0" style="stop-color:#FFFFFF"/>
					<stop  offset="0.3671" style="stop-color:#FFFFFF"/>
					<stop  offset="1" style="stop-color:#000000"/>
				</radialGradient>
				<rect x="226" y="-39" class="st4" width="1731" height="1002"/>
			</g>
		</mask>
		<g transform="matrix(1 0 0 1 0 0)" style="mask:url(#SVGID_5_);">
			
				<image style="overflow:visible;" width="4752" height="3168" xlink:href="../../../天璣生技科技(股)公司 - 網頁設計資料/pexels-sharefaith-491036-1231251.jpg"  transform="matrix(0.3576 0 0 0.3576 238 -172)">
			</image>
		</g>
		<rect x="-46" y="-76" class="st5" width="2000" height="1133"/>
		<g class="st6">
			
				<image style="display:inline;overflow:visible;opacity:0.75;" width="773" height="193" xlink:href="ACD4CA100073A5BF.png"  transform="matrix(1 0 0 1 16 917)">
			</image>
			<g class="st7">
				<g>
					<path class="st8" d="M107.7,947.2h36.2c33.7,0,61.3,27.6,61.3,61.3v71.5H46.4v-71.5C46.4,974.8,74,947.2,107.7,947.2z"/>
					<path class="st8" d="M292.1,947.2h36.2c33.7,0,61.3,27.6,61.3,61.3v71.5H230.8v-71.5C230.8,974.8,258.4,947.2,292.1,947.2z"/>
					<path class="st8" d="M476.5,947.2h36.2c33.7,0,61.3,27.6,61.3,61.3v71.5H415.1v-71.5C415.1,974.8,442.7,947.2,476.5,947.2z"/>
					<path class="st8" d="M660.8,947.2H697c33.7,0,61.3,27.6,61.3,61.3v71.5H599.5v-71.5C599.5,974.8,627.1,947.2,660.8,947.2z"/>
					<g>
						<path class="st1" d="M95,1020.4c-1-0.1-1.9-0.1-2.7-0.2c-5.7-1.1-8.1-7.9-4.3-12.3c0.2-0.2,0.4-0.4,0.6-0.6
							c11.1-11.1,22.2-22.2,33.3-33.3c0.7-0.7,1.4-1.2,2.3-1.6c2.3-1.2,6.4-0.9,8.5,1.2c1.2,1.2,2.4,2.4,3.7,3.6
							c10,10,19.9,19.9,29.9,29.9c0.7,0.7,1.5,1.6,1.9,2.6c2.1,5.2-1.1,10.5-6.7,10.7c-0.4,0-0.9,0-1.4,0c0,0.4,0,0.7,0,1
							c0,7.9,0,15.8,0,23.6c0,4.3-2.7,7.8-6.9,8.8c-0.8,0.2-1.6,0.2-2.4,0.2c-4.1,0-8.2,0-12.3,0c-2,0-3-0.9-3-2.9
							c0-6.2,0-12.3,0-18.5c0-2.9-1.6-4.5-4.6-4.5c-2.3,0-4.6,0-6.9,0c-2.7,0-4.4,1.7-4.4,4.4c0,6.2,0,12.4,0,18.6c0,2.1-0.9,3-3,3
							c-4,0-8.1-0.1-12.1,0c-5.4,0.1-9.6-4.1-9.5-9.5c0.1-7.7,0-15.4,0-23.2C95,1021.1,95,1020.7,95,1020.4z M140.2,1049.2
							c3.5,0,6.9,0,10.2,0c3,0,4.6-1.6,4.6-4.6c0-8.8,0-17.5,0-26.3c0-1.8,1-2.8,2.8-2.8c1.1,0,2.2,0,3.3,0c1.4,0,2.4-0.9,2.7-2.2
							c0.3-1.3-0.4-2.2-1.3-3c-10.9-10.9-21.8-21.8-32.7-32.7c-1.8-1.8-3.1-1.8-4.9,0c-9.7,9.7-19.4,19.4-29.1,29.2
							c-1.3,1.3-2.7,2.7-4,4c-0.9,0.9-1.1,2-0.6,3.1c0.5,1.1,1.4,1.7,2.6,1.7c1,0,2,0,3,0c2.1,0,3,0.9,3,3.1c0,8.8,0,17.5,0,26.3
							c0,2.7,1.7,4.4,4.4,4.4c3.2,0,6.4,0,9.6,0c0.3,0,0.5,0,0.8,0c0-0.4,0-0.7,0-1c0-5.5,0-10.9,0-16.4c0.1-4.3,3.5-8.1,7.8-8.4
							c3.3-0.2,6.6,0,9.9,0c0.3,0,0.5,0.1,0.8,0.1c4.2,1,7,4.4,7,8.8c0,5.3,0,10.6,0,15.9C140.2,1048.4,140.2,1048.8,140.2,1049.2z"
							/>
					</g>
					<g>
						<path class="st1" d="M540.9,1010.8c-0.5,1.6-0.9,3.2-1.6,4.6c-1.8,3.3-4.6,5.4-8.3,6.1c-0.7,0.1-0.9,0.4-0.9,1.1
							c0,4.4,0,8.7,0,13.1c0,2.7-1.6,4.6-4.1,4.7c-0.9,0-2-0.3-2.8-0.7c-6.1-3.3-12.4-6.1-19-8.1c-6.5-2.1-13.2-3.5-20.1-4.2
							c-0.1,0-0.1,0-0.2,0.1c0.1,0.4,0.2,0.7,0.3,1c2.7,7.4,5.4,14.8,8,22.2c1.3,3.5-0.7,6.3-4.4,6.3c-3.1,0-6.2,0-9.3,0
							c-2.2,0-3.7-1-4.5-3.2c-3.2-8.8-6.4-17.6-9.6-26.4c-0.2-0.6-0.5-1-1.1-1.4c-1.6-0.9-2.7-2.4-3.1-4.2c0-0.2-0.1-0.3-0.1-0.5
							c0-0.1-0.1-0.1-0.1-0.2c-0.9,0-1.9,0-2.8,0c-3-0.1-5.4-2.4-5.5-5.5c0-4.2,0-8.4,0-12.5c0-2.8,2.2-5.2,5-5.4
							c0.9-0.1,1.8-0.1,2.7-0.1c0.5,0,0.7-0.1,0.8-0.6c0.9-3.4,3.3-5.3,6.8-5.3c3.1,0,6.3-0.1,9.4,0c6.2,0.1,12.2-0.8,18.2-2
							c10-2.1,19.5-5.7,28.4-10.6c1.1-0.6,2.2-1,3.4-0.7c2.2,0.5,3.6,2.2,3.6,4.7c0,3.9,0,7.8,0,11.8c0,0.6-0.1,1.1,0,1.7
							c0,0.2,0.3,0.6,0.6,0.6c5.7,1.3,9.1,4.8,10.2,10.6c0,0.1,0.1,0.1,0.1,0.2C540.9,1008.8,540.9,1009.8,540.9,1010.8z
							 M525.7,1036.2c0-18,0-35.8,0-53.8c-13.4,7.5-27.6,11.9-42.8,13.3c0,9.1,0,18.2,0,27.2
							C498.1,1024.4,512.3,1028.8,525.7,1036.2z M478.5,1022.7c0-9,0-17.8,0-26.7c-3.9,0-7.8,0-11.6,0c-1.5,0-2.4,1-2.4,2.5
							c0,7.2,0,14.5,0,21.7c0,1.5,1,2.5,2.5,2.5c1.2,0,2.5,0,3.7,0C473.2,1022.7,475.8,1022.7,478.5,1022.7z M488.3,1052.6
							c0-0.2-0.1-0.3-0.1-0.4c-3-8.2-6-16.5-8.9-24.7c-0.2-0.5-0.5-0.5-0.9-0.5c-2.9,0-5.8,0-8.7,0c-0.2,0-0.4,0-0.7,0.1
							c0,0.2,0,0.3,0,0.3c3,8.2,6,16.5,8.9,24.7c0.2,0.5,0.4,0.6,0.9,0.6c2.8,0,5.6,0,8.4,0C487.5,1052.6,487.9,1052.6,488.3,1052.6
							z M530.1,1017.3c3.8-0.5,6.6-4.2,6.5-8.3c-0.1-3.7-3.2-7.3-6.5-7.6C530.1,1006.7,530.1,1012,530.1,1017.3z M460,1001.9
							c-0.9,0-1.8,0-2.6,0c-0.9,0-1.4,0.5-1.4,1.4c0,0.7,0,1.3,0,2c0,3.3,0,6.6,0,9.8c0,0.7,0.2,1.4,1,1.5c1,0.1,2,0,3,0
							C460,1011.8,460,1006.9,460,1001.9z"/>
					</g>
					<g>
						<path class="st1" d="M267.5,1035.6c0.4-1,1.2-1.5,2.2-1.7c0.9-0.3,1.9-0.6,2.8-0.9c1.4-0.5,2.6,0,3.1,1.3
							c0.4,1.2-0.2,2.4-1.6,2.9c-1,0.3-1.9,0.6-2.9,1c-1.8,0.6-2.5,0.3-3.5-1.3C267.5,1036.3,267.5,1035.9,267.5,1035.6z"/>
						<path class="st1" d="M345.8,1013.3c0,1.6-0.7,3-1.8,4.1c-4.2,4.1-8.4,8.2-12.6,12.3c-0.5,0.5-0.7,1-0.6,1.8
							c1,5.9,2,11.8,3,17.6c0.4,2.2-0.4,4-2.1,5.3c-1.7,1.3-3.7,1.5-5.6,0.5c-3.3-1.7-6.6-3.4-9.9-5.2c-2-1.1-4-2.1-6-3.2
							c-0.7-0.4-1.3-0.4-2,0c-5.2,2.8-10.4,5.5-15.6,8.2c-3.2,1.7-7,0.2-7.9-3.2c-0.3-1-0.2-2-0.1-3c0.9-5.7,1.9-11.4,2.9-17.1
							c0.1-0.8-0.1-1.3-0.6-1.9c-4.2-4-8.3-8.1-12.5-12.2c-1.7-1.7-2.4-3.6-1.6-5.9c0.7-2.3,2.4-3.4,4.8-3.8
							c5.8-0.8,11.5-1.7,17.3-2.5c0.8-0.1,1.2-0.5,1.5-1.1c2.6-5.3,5.2-10.6,7.8-15.8c1.3-2.7,4.2-3.9,6.9-2.9
							c1.4,0.5,2.4,1.6,3.1,2.9c2.6,5.2,5.2,10.5,7.7,15.7c0.4,0.8,0.8,1.1,1.7,1.2c5.8,0.8,11.6,1.7,17.4,2.5
							C343.8,1008.2,345.8,1010.5,345.8,1013.3z M341.4,1013.5c0-1.1-0.7-1.3-1.4-1.4c-5.7-0.8-11.5-1.7-17.2-2.5
							c-2.1-0.3-3.7-1.3-4.7-3.3c-0.7-1.5-1.5-3-2.2-4.4c-1.9-3.8-3.8-7.6-5.7-11.5c-0.2-0.5-0.5-1-1.2-1c-0.7,0-0.9,0.5-1.2,1
							c0,0.1-0.1,0.2-0.1,0.3c-2.5,5.2-5.1,10.3-7.6,15.5c-0.9,1.9-2.4,3-4.5,3.4c-4.2,0.6-8.4,1.2-12.6,1.8
							c-1.8,0.3-3.6,0.5-5.4,0.8c-1,0.2-1.3,1.1-0.6,1.9c0.1,0.1,0.3,0.3,0.4,0.4c4.1,4,8.3,8.1,12.4,12.1c1.5,1.5,2.2,3.2,1.8,5.4
							c-1,5.8-2,11.6-3,17.4c-0.1,0.6-0.2,1.1,0.4,1.5c0.6,0.4,1.1,0.1,1.6-0.1c5.1-2.7,10.2-5.3,15.3-8c2.1-1.1,4.1-1.1,6.2,0
							c5.1,2.7,10.2,5.4,15.3,8.1c0.5,0.3,1,0.5,1.6,0.1c0.5-0.4,0.5-0.9,0.4-1.5c-1-5.7-1.9-11.3-2.9-17c-0.4-2.4,0.2-4.3,1.9-6
							c4.2-4,8.3-8,12.4-12.1C341.1,1014.1,341.3,1013.7,341.4,1013.5z"/>
						<path class="st1" d="M311.2,1062.8c0,0.7,0.1,1.4,0,2.1c-0.1,1.2-1,2-2.2,2c-1.1,0-2.1-0.8-2.1-2c-0.1-1.4-0.1-2.9,0-4.3
							c0.1-1.2,1-2,2.1-2c1.2,0,2.1,0.8,2.2,2C311.3,1061.4,311.2,1062.1,311.2,1062.8C311.2,1062.8,311.2,1062.8,311.2,1062.8z"/>
						<path class="st1" d="M350.6,1036c0,1.6-1.4,2.6-2.7,2.2c-1.3-0.4-2.6-0.8-3.9-1.3c-1.1-0.4-1.7-1.6-1.4-2.7
							c0.3-1.1,1.4-1.8,2.5-1.5c1.4,0.4,2.8,0.8,4.2,1.4C350.2,1034.5,350.6,1035.3,350.6,1036z"/>
						<path class="st1" d="M285.1,987.7c0.3,0.2,1,0.5,1.4,1c0.8,1,1.6,2.1,2.3,3.1c0.7,1.1,0.5,2.4-0.5,3.1c-1,0.7-2.2,0.5-3-0.5
							c-0.8-1.1-1.6-2.2-2.4-3.3c-0.5-0.7-0.5-1.5-0.1-2.3C283.3,988.1,283.9,987.7,285.1,987.7z"/>
						<path class="st1" d="M328.8,993c0.2-0.4,0.3-0.9,0.6-1.3c0.7-1,1.4-2,2.1-3c0.9-1.1,2.2-1.4,3.2-0.6c1,0.7,1.2,2,0.4,3.2
							c-0.7,1.1-1.5,2.1-2.3,3.1c-0.6,0.8-1.6,1-2.5,0.7C329.4,994.8,328.8,994,328.8,993z"/>
					</g>
					<g>
						<path class="st9" d="M661.9,1033.5c0-7.5-0.1-15-0.1-22.5c0-0.7,0.2-1.4,0.5-2c2.7-5.5,5.4-11,8.1-16.5c0.5-1,1.2-1.4,2.3-1.4
							c4.4,0,8.9,0,13.3,0c1.1,0,1.8,0.4,2.3,1.4c2.7,5.5,5.5,11,8.3,16.5c0.3,0.6,0.5,1.3,0.5,2c0.1,14.8,0.1,29.6,0.2,44.4
							c0,5.5-3.8,9.3-9.2,9.3c-5.6,0-11.3,0-16.9,0.1c-5.4,0-9.2-3.8-9.2-9.1C661.9,1048.2,661.9,1040.8,661.9,1033.5z
							 M664.8,1016.2c0,8.9,0.1,17.6,0.1,26.4c9.8,0,19.5-0.1,29.3-0.1c0-8.8-0.1-17.6-0.1-26.4
							C684.3,1016.1,674.6,1016.1,664.8,1016.2z M664.8,1013.1c9.8,0,19.5-0.1,29.5-0.1c-0.2-1.1-0.1-2.2-0.5-3.1
							c-2.5-5.1-5.1-10.2-7.7-15.3c-0.3-0.5-0.6-0.7-1.1-0.7c-3.8,0-7.5,0.1-11.3,0c-0.7,0-0.9,0.2-1.2,0.8c-2.3,4.7-4.6,9.5-7,14.2
							C664.8,1010.3,664.6,1011.6,664.8,1013.1z M664.9,1046.2c0,1.4,0,7.9,0,9.2c0,4,2.4,6.4,6.4,6.4c5.6,0,11.1,0,16.7-0.1
							c3.9,0,6.3-2.5,6.3-6.4c0-3,0-6,0-9c0-0.3,0-0.5,0-0.8c-9.9,0-19.6,0.1-29.4,0.1c0,1,0,1.9,0,2.9"/>
						<path class="st9" d="M679.3,976.6c2.4,0,4.8,0,7.2,0c1.2,0,1.6,0.4,1.6,1.6c0,1.7,0,3.3,0,5c0,1.1,0,2.2,0,3.3
							c0,1.2-0.6,1.7-1.7,1.7c-4.7,0-9.5,0-14.2,0c-1.1,0-1.7-0.6-1.7-1.7c0-2.8,0-5.6,0-8.3c0-1.1,0.5-1.5,1.6-1.5
							C674.5,976.6,676.9,976.6,679.3,976.6z M673.5,979.4c0,2,0,3.9,0,5.8c3.9,0,7.8,0,11.6,0c0-2,0-3.9,0-5.8
							C681.2,979.4,677.4,979.4,673.5,979.4z"/>
					</g>
				</g>
			</g>
		</g>
		<g class="st6">
			
				<image style="display:inline;overflow:visible;opacity:0.75;" width="268" height="136" xlink:href="ACD4CA100073A5BB.png"  transform="matrix(1 0 0 1 1612 917)">
			</image>
			<g class="st7">
				<g>
					<g>
						<g>
							<path class="st10" d="M1656.5,978.8h5.6v12.1c0,3-0.2,6.1-0.6,9.3c-0.4,3.3-1.1,6.6-2.3,9.9c-1.1,3.3-2.9,6.6-5.2,9.8
								c-2.3,3.2-5.4,6.3-9.2,9.2c-3.8,2.9-8.6,5.6-14.3,7.9c-0.2-0.4-0.6-0.9-1-1.5c-0.4-0.6-0.8-1.1-1.3-1.7
								c-0.5-0.5-0.9-1-1.3-1.3c5.4-2.2,9.9-4.6,13.5-7.3c3.6-2.7,6.5-5.5,8.6-8.4c2.1-2.9,3.7-5.9,4.8-8.9c1.1-3,1.8-6,2.1-8.9
								c0.3-2.9,0.5-5.7,0.5-8.3V978.8z M1628.7,999h62.3v5.4h-62.3V999z M1631.3,976.9h56.6v5.4h-56.6V976.9z M1662.8,1001.6
								c2.3,7.5,6,13.9,11.1,19.2c5.1,5.3,11.5,9.1,19.2,11.4c-0.4,0.4-0.8,0.8-1.3,1.4c-0.5,0.5-0.9,1.1-1.3,1.8
								c-0.4,0.6-0.8,1.2-1,1.6c-5.3-1.8-10-4.2-14.1-7.4c-4.1-3.2-7.6-7-10.4-11.5c-2.9-4.5-5.2-9.5-7-15.2L1662.8,1001.6z"/>
							<path class="st10" d="M1702.1,1024.4c2.6-0.7,5.6-1.7,9.1-2.8c3.5-1.2,7.1-2.4,10.7-3.7l0.8,4.7c-3.4,1.2-6.8,2.4-10.1,3.5
								c-3.4,1.2-6.5,2.3-9.3,3.3L1702.1,1024.4z M1703,976.3h19.4v4.9H1703V976.3z M1703.7,997.1h17.4v4.9h-17.4V997.1z
								 M1710.2,979.2h4.7v44.1l-4.7,1.3V979.2z M1728.5,1010.1h4.6v5.1c0,2.2-0.2,4.6-0.8,7.2c-0.5,2.6-1.4,5.2-2.7,7.8
								c-1.3,2.6-3.2,5-5.7,7.1c-0.2-0.3-0.6-0.7-1-1.1c-0.4-0.4-0.9-0.8-1.4-1.3c-0.5-0.4-0.9-0.7-1.3-0.9c2.2-1.9,3.9-4,5.1-6.2
								c1.2-2.2,2-4.4,2.4-6.6c0.4-2.2,0.6-4.3,0.6-6.2V1010.1z M1722.6,1008.4h46v4.4h-46V1008.4z M1724,991.7
								c0-0.3-0.1-0.8-0.3-1.3c-0.1-0.5-0.3-1.1-0.5-1.6c-0.2-0.5-0.3-1-0.5-1.4c0.5,0,0.9-0.3,1.4-0.8c0.4-0.5,0.9-1.1,1.3-1.8
								c0.3-0.5,0.8-1.4,1.5-2.8c0.6-1.3,1.4-2.8,2.1-4.6c0.8-1.8,1.4-3.5,2-5.3l4.4,1.4c-1.1,2.9-2.5,5.7-4,8.6
								c-1.5,2.9-3,5.3-4.4,7.2v0.1c-1,0.5-1.7,1-2.1,1.3C1724.3,991,1724,991.3,1724,991.7z M1724.4,1004c0-0.3-0.2-0.8-0.3-1.3
								c-0.2-0.5-0.3-1-0.5-1.6c-0.2-0.5-0.4-1-0.6-1.4c0.6-0.1,1.2-0.5,1.8-1.1c0.6-0.6,1.3-1.4,2.1-2.4c0.6-0.6,1.5-1.8,2.7-3.5
								c1.2-1.7,2.5-3.8,3.9-6.1c1.4-2.3,2.6-4.6,3.7-7l4.3,1.6c-2.1,3.8-4.4,7.4-6.9,11c-2.5,3.6-5,6.7-7.5,9.3v0.1
								c-0.9,0.5-1.5,0.9-2,1.3C1724.6,1003.4,1724.4,1003.7,1724.4,1004z M1724,991.7l-0.1-3.6l2.2-1.4l9.6-0.9
								c-0.3,0.6-0.6,1.3-0.9,2.1c-0.3,0.8-0.5,1.4-0.7,1.9c-2.6,0.3-4.5,0.6-5.9,0.9c-1.3,0.2-2.3,0.4-2.9,0.6
								C1724.8,991.3,1724.3,991.5,1724,991.7z M1724.4,1004l-0.1-3.4l2.2-1.4l12.4-1.4c0,0.6,0,1.2,0,1.9c0,0.7,0.1,1.3,0.1,1.7
								c-3,0.4-5.3,0.8-7.2,1c-1.8,0.2-3.2,0.4-4.2,0.6c-1,0.2-1.7,0.3-2.2,0.5C1725,1003.8,1724.6,1003.9,1724.4,1004z
								 M1729.8,1018l2.5-2.9c1.3,0.8,2.6,1.7,4.1,2.7c1.4,1,2.8,2,4.1,3c1.3,1,2.4,1.8,3.2,2.5l-2.6,3.4c-0.9-0.8-1.9-1.6-3.2-2.6
								c-1.3-1-2.6-2-4.1-3.1C1732.4,1019.9,1731.1,1018.9,1729.8,1018z M1735.3,993.2l3.1-0.7c0.7,1.8,1.4,3.8,2.1,6
								c0.7,2.2,1.1,3.9,1.4,5.3l-3.3,1c-0.3-1.5-0.8-3.3-1.5-5.5C1736.5,997.1,1735.9,995.1,1735.3,993.2z M1759.6,1013.6l4.1,2.2
								c-2.4,4.7-5.7,8.8-10,12.3c-4.3,3.6-9.3,6.5-15,8.8c-0.3-0.5-0.8-1.1-1.3-1.9c-0.5-0.7-1-1.3-1.5-1.7
								c5.4-2.1,10.2-4.9,14.3-8.3C1754.4,1021.6,1757.5,1017.8,1759.6,1013.6z M1741.2,971.5h4.6c0.2,8.6,0.7,16.5,1.5,23.7
								c0.7,7.2,1.8,13.6,3.1,19c1.3,5.4,3.1,9.7,5.2,12.8c2.1,3.1,4.6,4.8,7.5,5c1.4,0.1,2.5-2.5,3.1-7.9c0.3,0.3,0.7,0.7,1.2,1
								c0.5,0.4,0.9,0.7,1.4,1c0.5,0.3,0.8,0.5,1.1,0.7c-0.4,2.7-1,4.8-1.6,6.3c-0.7,1.5-1.4,2.6-2.2,3.3c-0.8,0.6-1.7,0.9-2.6,0.9
								c-3.3-0.2-6.1-1.5-8.5-3.7c-2.4-2.2-4.4-5.3-6-9.2s-3-8.6-4-13.9c-1-5.4-1.8-11.3-2.4-17.9
								C1741.8,986,1741.4,979,1741.2,971.5z M1749.8,990.9c0-0.3-0.1-0.8-0.3-1.3c-0.2-0.5-0.3-1.1-0.5-1.6c-0.2-0.5-0.3-1-0.5-1.4
								c0.4,0,0.8-0.3,1.2-0.8c0.4-0.5,0.9-1.1,1.4-1.8c0.3-0.5,0.8-1.4,1.5-2.6c0.7-1.2,1.4-2.7,2.2-4.4c0.8-1.7,1.4-3.5,2-5.2
								l4.2,1.4c-1.1,2.9-2.4,5.7-3.9,8.4c-1.5,2.7-3,5.1-4.5,7v0.1c-0.9,0.4-1.6,0.8-2.1,1.2
								C1750.1,990.2,1749.8,990.6,1749.8,990.9z M1750.2,1003.1c0-0.3-0.2-0.8-0.4-1.3c-0.2-0.5-0.4-1-0.5-1.6
								c-0.2-0.5-0.3-1-0.5-1.4c0.6-0.1,1.2-0.5,1.9-1.1c0.7-0.6,1.4-1.4,2.2-2.4c0.6-0.7,1.5-1.8,2.7-3.5c1.2-1.7,2.6-3.6,4-5.9
								c1.5-2.3,2.7-4.6,3.8-7l4.3,1.6c-2.2,3.8-4.6,7.4-7.3,10.9c-2.6,3.5-5.3,6.6-7.8,9.2v0.1c-0.8,0.5-1.4,1-1.8,1.3
								C1750.4,1002.5,1750.2,1002.8,1750.2,1003.1z M1749.8,990.9l-0.1-3.6l2.3-1.4l9.9-1c-0.3,0.6-0.6,1.3-0.9,2.1
								c-0.3,0.8-0.5,1.5-0.7,1.9c-2.7,0.3-4.7,0.6-6.1,0.9c-1.4,0.2-2.4,0.4-3,0.6C1750.6,990.5,1750.1,990.7,1749.8,990.9z
								 M1750.2,1003.1l-0.1-3.3l2.1-1.4l12.2-1.4c0,0.6,0,1.2,0,1.9c0,0.7,0.1,1.3,0.1,1.7c-2.9,0.4-5.2,0.7-7,0.9
								c-1.8,0.2-3.1,0.5-4.1,0.6c-1,0.2-1.7,0.4-2.2,0.5C1750.9,1002.9,1750.5,1003,1750.2,1003.1z M1752.9,1004.5l2.8-2.6
								c1.2,0.8,2.6,1.6,4,2.6s2.5,1.9,3.4,2.6l-2.7,2.9c-0.9-0.8-2-1.7-3.4-2.7C1755.6,1006.3,1754.2,1005.4,1752.9,1004.5z
								 M1760.9,992.4l3.5-0.9c0.7,1.8,1.4,3.8,2.1,5.9c0.7,2.1,1.1,3.9,1.4,5.3l-3.6,1.2c-0.3-1.5-0.8-3.4-1.4-5.6
								C1762.3,996.2,1761.6,994.2,1760.9,992.4z"/>
						</g>
						<path class="st10" d="M1864.9,939.8c0.1,0,0.2,0.2,0,0.2l-3.6,1.4c-1.3,0.5-2.1,2.1-2,3.9l0.3,4c0,0.2-0.2,0.2-0.3,0l-1.1-3.9
							c-0.5-1.8-1.8-3-3.2-3l-3.9-0.1c-0.1,0-0.2-0.2,0-0.2l3.6-1.3c1.3-0.5,2.2-2.1,2-4l-0.3-4.1c0-0.2,0.2-0.2,0.3,0l1.1,3.9
							c0.5,1.8,1.8,3,3.3,3L1864.9,939.8z"/>
						<g>
							<g>
								<path class="st10" d="M1858.7,951l-0.9-3.9c-0.4-1.6-1.5-2.8-2.7-3.1l-0.7,44c0,0,2.6-0.4,4.1-1.3
									C1858.4,986.7,1858.8,951.1,1858.7,951z"/>
							</g>
							<g>
								<path class="st10" d="M1808.3,1002.1c0.1,0,43.5-9.5,43.5-9.5c-0.4-1.3-1.1-2.5-2-3.5l-0.2-0.2l-54.7,11.7L1808.3,1002.1z"
									/>
								<g>
									<path class="st10" d="M1682.1,936.8l-44,16.2c0.2,1.4,0.9,2.7,1.9,3.6l40.6-15C1681.8,940.3,1682.3,938.5,1682.1,936.8z"/>
									<g>
										<path class="st10" d="M1770.7,976.9l-2.3-1.5c-1.1-0.7-2.5-1-3.8-0.7c2.9,4.7,12.4,19.7,12.4,19.8l6.9,4.2l0.1-0.6
											L1770.7,976.9z"/>
										<g>
											<path class="st10" d="M1721.6,952.4c1.4-0.5,2.6-1.5,3.4-2.7l-35-11.6c-0.5,1.3-0.6,2.8-0.1,4.2l31.1,10.3L1721.6,952.4z
												"/>
											<path class="st10" d="M1762.4,968.8l-0.5-1l-29-14.3l-0.1,0c-1.4,0.5-2.6,1.5-3.4,2.8l33.3,16.4
												C1763.1,971.5,1763,970.1,1762.4,968.8z"/>
										</g>
										<path class="st10" d="M1720.9,953.6l1,0.2c2.8,0.5,5,2.5,5.7,5.2l0.1,0.2l0-0.2c0.3-2.8,2.2-5.2,4.8-6.1l1-0.3l-1-0.2
											c-2.8-0.5-5-2.5-5.8-5.2l0,0l0,0.1c-0.3,2.8-2.2,5.2-4.8,6.1L1720.9,953.6z"/>
									</g>
								</g>
								<g>
									<path class="st10" d="M1641.7,959.3l-2.4-0.4c-2.5-0.4-5,0.7-6.4,2.8l-1.3,1.9l0.5-2.3c0.6-2.5-0.4-5-2.4-6.6l-1.9-1.5
										l2.4,0.4c2.5,0.4,5-0.7,6.4-2.8l1.1-1.7l-0.4,2c-0.5,2.5,0.4,5,2.4,6.5L1641.7,959.3z"/>
								</g>
							</g>
						</g>
						<path class="st10" d="M1806.9,1003l-14.6-1.5l3.5-6.1c0-0.1-0.1-0.2-0.1-0.1l-5.2,4l-3.8-14.2c0-0.1-0.3-0.1-0.3,0l-1.8,14.9
							l-6.3-3.9c-0.1-0.1-0.2,0.1-0.1,0.1l4.8,5.8l-14.9,3.5c-0.2,0-0.1,0.3,0,0.3l15.3,1.4l-3.7,6.4c0,0.1,0.1,0.2,0.1,0.1l5.5-4.3
							l3.7,14.1c0,0.1,0.3,0.1,0.3,0l1.8-14.5l5.7,3.5c0.1,0.1,0.2-0.1,0.1-0.1l-4.7-5.7l14.7-3.6
							C1807.1,1003.2,1807.1,1003,1806.9,1003z"/>
						<path class="st10" d="M1862.3,994.8l-2.5-0.9c-2.5-0.9-5.3-0.2-7.1,1.7l-1.7,1.7l1-2.2c1.1-2.4,0.6-5.3-1.2-7.2l-1.7-1.9
							l2.5,0.9c2.5,0.9,5.3,0.2,7.1-1.6l1.5-1.5l-0.8,2c-1,2.4-0.6,5.3,1.2,7.2L1862.3,994.8z"/>
						<g>
							<path class="st11" d="M1690,944.9l-1.8-1.5c-1.8-1.5-4.3-1.8-6.5-0.8l-1.9,0.9l1.5-1.6c1.6-1.7,2.1-4.2,1.2-6.4l-0.8-2.1
								l1.8,1.5c1.8,1.5,4.3,1.8,6.4,0.8l1.7-0.8l-1.3,1.4c-1.6,1.7-2.1,4.2-1.2,6.4L1690,944.9z"/>
						</g>
						<path class="st11" d="M1765.6,973.8c1.1,0,2.2,0.3,3.2,0.9l0.4,0.3l-0.2-0.4c-1-1.9-0.9-4.2,0.3-6c-1.9,1-4.2,0.9-6-0.3
							l-0.4-0.3l0.2,0.4c1,1.9,0.9,4.3-0.4,6.1C1763.6,974,1764.6,973.8,1765.6,973.8z"/>
					</g>
					<g>
						
							<radialGradient id="SVGID_7_" cx="22172.1094" cy="1049.1565" r="11.8676" gradientTransform="matrix(6.857587e-02 -4.127944e-03 6.008652e-02 0.9982 203.9315 48.5348)" gradientUnits="userSpaceOnUse">
							<stop  offset="0" style="stop-color:#FFFFFF"/>
							<stop  offset="1.394588e-02" style="stop-color:#FAFAFA"/>
							<stop  offset="0.2317" style="stop-color:#B0AFAF"/>
							<stop  offset="0.436" style="stop-color:#737171"/>
							<stop  offset="0.6207" style="stop-color:#434040"/>
							<stop  offset="0.782" style="stop-color:#211D1D"/>
							<stop  offset="0.9139" style="stop-color:#0C0808"/>
							<stop  offset="1" style="stop-color:#040000"/>
						</radialGradient>
						<path class="st12" d="M1788.3,1004.2c0.4,6.5,0.3,11.9-0.1,11.9c-0.4,0-1.1-5.3-1.5-11.8s-0.3-11.9,0.1-11.9
							C1787.2,992.4,1787.9,997.7,1788.3,1004.2z"/>
						
							<radialGradient id="SVGID_8_" cx="-9234.9072" cy="1905.6814" r="11.8676" gradientTransform="matrix(-4.127944e-03 -6.857587e-02 0.9982 -6.008652e-02 -152.916 485.4845)" gradientUnits="userSpaceOnUse">
							<stop  offset="0" style="stop-color:#FFFFFF"/>
							<stop  offset="1.394588e-02" style="stop-color:#FAFAFA"/>
							<stop  offset="0.2317" style="stop-color:#B0AFAF"/>
							<stop  offset="0.436" style="stop-color:#737171"/>
							<stop  offset="0.6207" style="stop-color:#434040"/>
							<stop  offset="0.782" style="stop-color:#211D1D"/>
							<stop  offset="0.9139" style="stop-color:#0C0808"/>
							<stop  offset="1" style="stop-color:#040000"/>
						</radialGradient>
						<path class="st13" d="M1787.4,1003.5c6.5-0.4,11.9-0.3,11.9,0.1c0,0.4-5.3,1.1-11.8,1.5c-6.5,0.4-11.9,0.3-11.9-0.1
							C1775.6,1004.5,1780.9,1003.9,1787.4,1003.5z"/>
						
							<radialGradient id="SVGID_9_" cx="9043.4346" cy="1924.3773" r="8.0518" gradientTransform="matrix(4.559198e-02 -5.143239e-02 0.7483 0.6633 -64.8947 192.8888)" gradientUnits="userSpaceOnUse">
							<stop  offset="0" style="stop-color:#FFFFFF"/>
							<stop  offset="1.394588e-02" style="stop-color:#FAFAFA"/>
							<stop  offset="0.2317" style="stop-color:#B0AFAF"/>
							<stop  offset="0.436" style="stop-color:#737171"/>
							<stop  offset="0.6207" style="stop-color:#434040"/>
							<stop  offset="0.782" style="stop-color:#211D1D"/>
							<stop  offset="0.9139" style="stop-color:#0C0808"/>
							<stop  offset="1" style="stop-color:#040000"/>
						</radialGradient>
						<path class="st14" d="M1787.8,1003.9c3.3,3,5.9,5.5,5.7,5.8c-0.2,0.2-3.1-2-6.4-4.9s-5.9-5.5-5.7-5.8
							C1781.6,998.7,1784.5,1000.9,1787.8,1003.9z"/>
						
							<radialGradient id="SVGID_10_" cx="-21966.7188" cy="1004.3256" r="8.0518" gradientTransform="matrix(-5.143239e-02 -4.559198e-02 0.6633 -0.7483 -8.562 754.3107)" gradientUnits="userSpaceOnUse">
							<stop  offset="0" style="stop-color:#FFFFFF"/>
							<stop  offset="1.394588e-02" style="stop-color:#FAFAFA"/>
							<stop  offset="0.2317" style="stop-color:#B0AFAF"/>
							<stop  offset="0.436" style="stop-color:#737171"/>
							<stop  offset="0.6207" style="stop-color:#434040"/>
							<stop  offset="0.782" style="stop-color:#211D1D"/>
							<stop  offset="0.9139" style="stop-color:#0C0808"/>
							<stop  offset="1" style="stop-color:#040000"/>
						</radialGradient>
						<path class="st15" d="M1787,1003.9c3-3.3,5.5-5.9,5.8-5.7c0.2,0.2-2,3.1-4.9,6.4c-3,3.3-5.5,5.9-5.8,5.7
							S1784.1,1007.2,1787,1003.9z"/>
						
							<radialGradient id="SVGID_11_" cx="1742.5928" cy="1049.1565" r="5.0932" gradientTransform="matrix(0.9982 -6.008652e-02 6.008652e-02 0.9982 -15.041 61.716)" gradientUnits="userSpaceOnUse">
							<stop  offset="0" style="stop-color:#FFFFFF"/>
							<stop  offset="8.611822e-02" style="stop-color:#DFDFDF"/>
							<stop  offset="0.2796" style="stop-color:#9E9C9C"/>
							<stop  offset="0.4635" style="stop-color:#676464"/>
							<stop  offset="0.6325" style="stop-color:#3C3939"/>
							<stop  offset="0.7835" style="stop-color:#1D1A1A"/>
							<stop  offset="0.9111" style="stop-color:#0B0707"/>
							<stop  offset="1" style="stop-color:#040000"/>
						</radialGradient>
						<circle class="st16" cx="1787.4" cy="1004.3" r="5.1"/>
					</g>
				</g>
			</g>
		</g>
		<g class="st6">
			<g class="st7">
				
					<image style="overflow:visible;opacity:0.75;" width="553" height="147" xlink:href="ACD4CA100073A5B6.png"  transform="matrix(1 0 0 1 975.6116 931.6116)">
				</image>
				<g>
					<text transform="matrix(1 0 0 1 989.791 966.1094)"><tspan x="0" y="0" class="st17 st18 st19 st20">天璣生技科</tspan><tspan x="144" y="0" class="st17 st18 st19 st21">技(</tspan><tspan x="179.5" y="0" class="st17 st18 st19 st20">股)公</tspan><tspan x="250.9" y="0" class="st17 st18 st19 st21">司</tspan><tspan x="0" y="36" class="st17 st22 st23">地址：</tspan><tspan x="56.7" y="36" class="st17 st22 st23">407</tspan><tspan x="86.3" y="36" class="st17 st22 st23">臺中市西屯區臺灣大道三段</tspan><tspan x="313.1" y="36" class="st17 st22 st23">660</tspan><tspan x="342.8" y="36" class="st17 st22 st23">號</tspan><tspan x="361.7" y="36" class="st17 st22 st23">18</tspan><tspan x="381.4" y="36" class="st17 st22 st23">樓之</tspan><tspan x="419.2" y="36" class="st17 st22 st23">5</tspan><tspan x="0" y="64.2" class="st17 st22 st23">電話：</tspan><tspan x="56.7" y="64.2" class="st17 st22 st23">04-24520458</tspan><tspan x="161.7" y="64.2" class="st17 st22 st23">    傳真：</tspan><tspan x="238" y="64.2" class="st17 st22 st23">04-24520197</tspan><tspan x="342.9" y="64.2" class="st17 st22 st23">    手機：</tspan><tspan x="419.3" y="64.2" class="st17 st22 st23">0919-525653</tspan><tspan x="0" y="92.3" class="st17 st22 st23">E-MAIL</tspan><tspan x="57.8" y="92.3" class="st17 st22 st23">：</tspan><tspan x="76.7" y="92.3" class="st17 st22 st23">dimensity0605@gmail.com</tspan><tspan x="313.4" y="92.3" class="st17 st22 st23">          統編：</tspan><tspan x="419.2" y="92.3" class="st17 st22 st23">00115436</tspan></text>
				</g>
			</g>
			<rect x="960" y="984" class="st24" width="2" height="82"/>
		</g>
		<g class="st6">
			<g class="st7">
				<text transform="matrix(1 0 0 1 101.1308 71.4226)" class="st25"><tspan x="0" y="0" class="st26 st18 st27 st28">產</tspan><tspan x="0" y="57.6" class="st26 st18 st29 st28"> </tspan><tspan x="0" y="78.1" class="st26 st18 st27 st28">品</tspan><tspan x="0" y="135.7" class="st26 st18 st29 st28"> </tspan><tspan x="0" y="156.2" class="st26 st18 st27 st28">介</tspan><tspan x="0" y="213.8" class="st26 st18 st29 st28"> </tspan><tspan x="0" y="234.2" class="st26 st18 st27 st28">紹</tspan></text>
			</g>
			<path class="st30" d="M102,421.5L102,421.5c-29,0-52.5-23.5-52.5-52.5V-44c0-29,23.5-52.5,52.5-52.5h0c29,0,52.5,23.5,52.5,52.5
				v413C154.5,398,131,421.5,102,421.5z"/>
		</g>
		
			<image style="display:none;overflow:visible;" width="881" height="825" xlink:href="ACD4CA100073A5B7.png"  transform="matrix(0.7003 0 0 0.7003 1298 -24)">
		</image>
		<g class="st6">
			
				<image style="display:inline;overflow:visible;" width="1533" height="1661" xlink:href="ACD4CA100073A5C7.png"  transform="matrix(0.1447 0 0 0.1447 144.4218 377.382)">
			</image>
			
				<image style="display:inline;overflow:visible;" width="1533" height="1659" xlink:href="ACD4CA100073A5CB.png"  transform="matrix(0.1447 0 0 0.1447 369.3417 377.5266)">
			</image>
			
				<image style="display:inline;overflow:visible;" width="1535" height="1661" xlink:href="ACD4CA100073A5CE.png"  transform="matrix(0.1447 0 0 0.1447 144.2771 640.772)">
			</image>
			
				<image style="display:inline;overflow:visible;" width="1535" height="1661" xlink:href="ACD4CA100073A5CF.png"  transform="matrix(0.1447 0 0 0.1447 369.1971 640.772)">
			</image>
			
				<image style="display:inline;overflow:visible;" width="1535" height="1661" xlink:href="FAC1345010B6F43C.png"  transform="matrix(0.1447 0 0 0.1447 594.117 640.772)">
			</image>
		</g>
		<g class="st6">
			<g class="st7">
				<defs>
					<filter id="Adobe_OpacityMaskFilter_1_" filterUnits="userSpaceOnUse" x="1360.4" y="857.2" width="355.6" height="351.5">
						<feColorMatrix  type="matrix" values="1 0 0 0 0  0 1 0 0 0  0 0 1 0 0  0 0 0 1 0"/>
					</filter>
				</defs>
				<mask maskUnits="userSpaceOnUse" x="1360.4" y="857.2" width="355.6" height="351.5" id="SVGID_12_">
					<g class="st31">
						<linearGradient id="SVGID_13_" gradientUnits="userSpaceOnUse" x1="1526.0051" y1="880.7537" x2="1526.0051" y2="1171.9962">
							<stop  offset="0" style="stop-color:#FFFFFF"/>
							<stop  offset="0.4701" style="stop-color:#000000"/>
							<stop  offset="1" style="stop-color:#000000"/>
						</linearGradient>
						<rect x="1370.7" y="880.8" class="st32" width="310.7" height="291.2"/>
					</g>
				</mask>
				<g transform="matrix(1 0 0 1 -1.220703e-04 0)" style="opacity:0.3;mask:url(#SVGID_12_);">
					
						<image style="overflow:visible;" width="1279" height="1279" xlink:href="../../../天璣生技科技(股)公司 - 網頁設計資料/已修-旭能飲.gif"  transform="matrix(0.278 0 0 -0.2749 1360.3864 1208.6938)">
					</image>
				</g>
				
					<image style="overflow:visible;" width="1279" height="1279" xlink:href="../../../天璣生技科技(股)公司 - 網頁設計資料/已修-旭能飲.gif"  transform="matrix(0.278 0 0 0.278 1360.3864 572.4745)">
				</image>
			</g>
			<g class="st7">
				<defs>
					<filter id="Adobe_OpacityMaskFilter_2_" filterUnits="userSpaceOnUse" x="1206.4" y="852.2" width="277.7" height="366">
						<feColorMatrix  type="matrix" values="1 0 0 0 0  0 1 0 0 0  0 0 1 0 0  0 0 0 1 0"/>
					</filter>
				</defs>
				<mask maskUnits="userSpaceOnUse" x="1206.4" y="852.2" width="277.7" height="366" id="SVGID_14_">
					<g class="st33">
						<linearGradient id="SVGID_15_" gradientUnits="userSpaceOnUse" x1="1392.3595" y1="894.8187" x2="1392.3595" y2="1176.8578">
							<stop  offset="0" style="stop-color:#FFFFFF"/>
							<stop  offset="0.4701" style="stop-color:#000000"/>
							<stop  offset="1" style="stop-color:#000000"/>
						</linearGradient>
						<rect x="1285.5" y="894.8" class="st34" width="213.6" height="282"/>
					</g>
				</mask>
				<g style="opacity:0.3;mask:url(#SVGID_14_);">
					
						<image style="overflow:visible;" width="1108" height="1477" xlink:href="../../../天璣生技科技(股)公司 - 網頁設計資料/已修-萃取精華.gif"  transform="matrix(0.2507 0 0 -0.2478 1206.3951 1218.1732)">
					</image>
				</g>
				
					<image style="overflow:visible;" width="1108" height="1477" xlink:href="../../../天璣生技科技(股)公司 - 網頁設計資料/已修-萃取精華.gif"  transform="matrix(0.2507 0 0 0.2507 1206.3951 574.028)">
				</image>
			</g>
			<g class="st7">
				<defs>
					<filter id="Adobe_OpacityMaskFilter_3_" filterUnits="userSpaceOnUse" x="1426.1" y="871.4" width="594.8" height="441">
						<feColorMatrix  type="matrix" values="1 0 0 0 0  0 1 0 0 0  0 0 1 0 0  0 0 0 1 0"/>
					</filter>
				</defs>
				<mask maskUnits="userSpaceOnUse" x="1426.1" y="871.4" width="594.8" height="441" id="SVGID_16_">
					<g class="st35">
						<linearGradient id="SVGID_17_" gradientUnits="userSpaceOnUse" x1="1723.087" y1="890" x2="1723.087" y2="1304">
							<stop  offset="0" style="stop-color:#FFFFFF"/>
							<stop  offset="0.4701" style="stop-color:#000000"/>
							<stop  offset="1" style="stop-color:#000000"/>
						</linearGradient>
						<rect x="1570.3" y="890" class="st36" width="305.6" height="414"/>
					</g>
				</mask>
				<g style="opacity:0.3;mask:url(#SVGID_16_);">
					
						<image style="overflow:visible;" width="1280" height="960" xlink:href="../../../天璣生技科技(股)公司 - 網頁設計資料/已修-高登氧1200Plus.gif"  transform="matrix(0.4647 0 0 -0.4594 1426.1072 1312.3713)">
					</image>
				</g>
				
					<image style="overflow:visible;" width="1280" height="960" xlink:href="../../../天璣生技科技(股)公司 - 網頁設計資料/已修-高登氧1200Plus.gif"  transform="matrix(0.4647 0 0 0.4647 1426.1072 463)">
				</image>
			</g>
		</g>
	</g>
</g>
</svg>
