<svg id="圖層_1" data-name="圖層 1" xmlns="http://www.w3.org/2000/svg" viewBox="0 0 29 27.13"><defs><style>.cls-1{fill:#d7b21d;}</style></defs><g id="new"><path class="cls-1" d="M10.4,2.23h8.23c0,.52,0,1,0,1.54a10.63,10.63,0,0,0,.14,1.79,2.45,2.45,0,0,0,4.79-.34c.08-.75.05-1.51.07-2.27V2.2c1.25.1,2.5-.23,3.65.41A3.12,3.12,0,0,1,29,5.32c0,.81,0,1.62,0,2.43V23.58a3.43,3.43,0,0,1-3.67,3.55H3.62A3.46,3.46,0,0,1,.48,25.5,3.76,3.76,0,0,1,0,23.42V5.59A3.15,3.15,0,0,1,1.5,2.74,2.67,2.67,0,0,1,2.63,2.3c.88-.06,1.77,0,2.7,0,0,.67,0,1.36,0,2.06a5.6,5.6,0,0,0,.11,1.09,2.48,2.48,0,0,0,4.89-.27c.06-.5.05-1,.06-1.5S10.4,2.73,10.4,2.23ZM1.85,9.9c0,.11,0,.18,0,.24v4c0,3.08,0,6.15,0,9.22a1.74,1.74,0,0,0,1.93,1.93H25.26a1.73,1.73,0,0,0,1.89-1.86q0-6.62,0-13.22c0-.12,0-.24,0-.35Z"/><path class="cls-1" d="M22.1,2.9c0,.62,0,1.25,0,1.87a1,1,0,1,1-1.91,0q0-1.91,0-3.81a1,1,0,0,1,.95-1,1,1,0,0,1,1,1c0,.63,0,1.26,0,1.9Z"/><path class="cls-1" d="M8.8,2.93c0,.61,0,1.23,0,1.84a1,1,0,0,1-.94,1.06,1,1,0,0,1-1-1.07c0-1.24,0-2.47,0-3.7A1,1,0,0,1,7.43.11a.9.9,0,0,1,1,.06A1,1,0,0,1,8.81,1v1.9Z"/><path class="cls-1" d="M17.26,18.68H12V16.89h5.29Z"/><path class="cls-1" d="M4.8,18.67V16.89h5.25v1.78Z"/><path class="cls-1" d="M17.26,13.06v1.76H12V13.06Z"/><path class="cls-1" d="M17.26,20.75v1.76H12V20.75Z"/><path class="cls-1" d="M4.8,14.82V13.06H10v1.76Z"/><path class="cls-1" d="M4.81,20.74H10v1.77H4.81Z"/><path class="cls-1" d="M24.27,16.88v1.79H19.16V16.88Z"/><path class="cls-1" d="M24.27,13.06v1.76h-5.1V13.06Z"/><path class="cls-1" d="M24.27,20.74v1.77H19.16V20.74Z"/></g></svg>