<svg id="圖層_1" data-name="圖層 1" xmlns="http://www.w3.org/2000/svg" viewBox="0 0 28.92 26.28"><defs><style>.cls-1{fill:#18254c;}</style></defs><g id="new02"><path class="cls-1" d="M10.9,2.16h8c0,.51,0,1,0,1.49A9.93,9.93,0,0,0,19,5.38a2.37,2.37,0,0,0,4.64-.32c.08-.73.05-1.47.07-2.2V2.13c1.2.1,2.42-.22,3.54.4a3,3,0,0,1,1.63,2.62c0,.78,0,1.57,0,2.36V22.84a3.44,3.44,0,0,1-.39,1.69,3.36,3.36,0,0,1-3.16,1.75h-21a3.36,3.36,0,0,1-3-1.57,3.67,3.67,0,0,1-.46-2V13.18c0-2.59,0-5.18,0-7.77A3,3,0,0,1,2.28,2.65a2.65,2.65,0,0,1,1.1-.42c.85-.06,1.71,0,2.61,0,0,.64,0,1.32,0,2a4.62,4.62,0,0,0,.11,1A2.41,2.41,0,0,0,10.85,5c.05-.48,0-1,.05-1.46S10.9,2.64,10.9,2.16ZM2.62,9.59c0,.11,0,.17,0,.24v3.91c0,3,0,6,0,8.93a1.69,1.69,0,0,0,1.87,1.87H25.29a1.67,1.67,0,0,0,1.83-1.8c0-4.27,0-8.54,0-12.81,0-.12,0-.23,0-.34Z"/><path class="cls-1" d="M22.24,2.81V4.62c0,.64-.35,1-.91,1a.92.92,0,0,1-.95-1q0-1.85,0-3.69a.93.93,0,0,1,.93-1,.92.92,0,0,1,.92,1c0,.61,0,1.22,0,1.84Z"/><path class="cls-1" d="M9.35,2.84c0,.59,0,1.19,0,1.78a.91.91,0,0,1-.91,1,.93.93,0,0,1-.95-1c0-1.2,0-2.39,0-3.59A1,1,0,0,1,8,.1.88.88,0,0,1,9,.17.93.93,0,0,1,9.36,1V2.84Z"/><path class="cls-1" d="M17.55,18.1H12.42V16.36h5.13Z"/><path class="cls-1" d="M5.48,18.08V16.36h5.08v1.72Z"/><path class="cls-1" d="M17.55,12.65v1.7H12.42v-1.7Z"/><path class="cls-1" d="M17.55,20.1v1.7H12.41V20.1Z"/><path class="cls-1" d="M5.48,14.36V12.65h5.08v1.71Z"/><path class="cls-1" d="M5.48,20.09h5.08v1.72H5.48Z"/><path class="cls-1" d="M24.34,16.35v1.74H19.39V16.35Z"/><path class="cls-1" d="M24.34,12.65v1.71H19.4V12.65Z"/><path class="cls-1" d="M24.34,20.09V21.8H19.39V20.09Z"/></g></svg>