<svg id="圖層_1" data-name="圖層 1" xmlns="http://www.w3.org/2000/svg" viewBox="0 0 424.78 110.26"><defs><style>.cls-1{fill:#fff;stroke:#18254c;stroke-miterlimit:10;stroke-width:1.06px;}.cls-2{fill:#18254c;}</style></defs><g id="關於公司"><path class="cls-1" d="M424.25,55.13h0a54.59,54.59,0,0,1-54.6,54.6H-59.87a54.6,54.6,0,0,1-54.6-54.6h0A54.61,54.61,0,0,1-59.87.53H369.65A54.6,54.6,0,0,1,424.25,55.13Z"/><path class="cls-2" d="M119,31.77a2.82,2.82,0,0,1,2.88,2.87v35a11.45,11.45,0,0,1-.44,3.54,3.28,3.28,0,0,1-1.66,1.92,9.38,9.38,0,0,1-4.38,1.08h-.2a3.08,3.08,0,0,1-2-.73,4,4,0,0,1-1.27-2,2.3,2.3,0,0,0-.09-.25,2.06,2.06,0,0,1-.1-.63,2,2,0,0,1,.39-1.17,1.88,1.88,0,0,1,1.61-.83H114a11.67,11.67,0,0,0,1.37,0,.88.88,0,0,0,.66-.19,1.07,1.07,0,0,0,.17-.68V48.34c0-.26-.12-.39-.34-.39h-7.71v0a.51.51,0,0,1,.32.36.54.54,0,0,1-.07.47c-1.21,1.43-2.26,2.65-3.17,3.65a.34.34,0,0,0,0,.54l.58.59c.2.16.36.16.49,0,.49-.56.93-1.09,1.32-1.61a2.19,2.19,0,0,1,1.21-.83,2.26,2.26,0,0,1,1.47.1,1.23,1.23,0,0,1,.7.92,1.25,1.25,0,0,1-.31,1.12c-1.56,1.63-3,3.07-4.39,4.34a.17.17,0,0,0,0,.15.13.13,0,0,0,.13.1l2.82-.25c.17,0,.22-.06.15-.19a1.48,1.48,0,0,0-.15-.25,1.23,1.23,0,0,1-.07-1.09,1.1,1.1,0,0,1,.76-.71,2.12,2.12,0,0,1,1.34.05,1.87,1.87,0,0,1,1,.83,17.24,17.24,0,0,1,1.51,3.12,1.51,1.51,0,0,1-.07,1.26,1.56,1.56,0,0,1-1,.83l-.3.1a1.15,1.15,0,0,1-1-.12,1.49,1.49,0,0,1-.66-.76.17.17,0,0,0-.24-.14c-.88.09-3.83.35-8.87.78a.58.58,0,0,1-.68-.49,0,0,0,0,0,0,0l-2.25.73v.05a.59.59,0,0,1,.42.17.65.65,0,0,1,.17.46v4.15a15.74,15.74,0,0,1-.2,2.61,10,10,0,0,1-.73,2.36,6.87,6.87,0,0,1-1.63,2.24A10.5,10.5,0,0,1,94,75.4a2.53,2.53,0,0,1-.93.19,2.43,2.43,0,0,1-.73-.1,3.09,3.09,0,0,1-1.42-1,1.31,1.31,0,0,1-.26-1.22,1.38,1.38,0,0,1,.8-1,7.1,7.1,0,0,0,2.78-2,.23.23,0,0,0,0-.2A.2.2,0,0,0,94,70H91.59a2.78,2.78,0,0,1-2-.86,2.75,2.75,0,0,1-.85-2V64.28A1.76,1.76,0,0,1,89.25,63a1.73,1.73,0,0,1,1.29-.54,1.84,1.84,0,0,1,1.83,1.85v2a.3.3,0,0,0,.34.34H95a.3.3,0,0,0,.34-.34v-2.1a2.5,2.5,0,0,1,.78-1.87A2.55,2.55,0,0,1,98,61.6a.28.28,0,0,0,.2-.1.23.23,0,0,0,0-.24c0-.13-.07-.26-.1-.39a.41.41,0,0,0-.49-.34c-2.63.26-5.43.5-8.38.73A1.72,1.72,0,0,1,88,60.89a1.46,1.46,0,0,1-.59-1.09,1.42,1.42,0,0,1,.32-1.15,1.45,1.45,0,0,1,1-.56l.92-.05a1.16,1.16,0,0,0,.59-.24c.1-.13.5-.55,1.22-1.27.19-.19.21-.37,0-.54a25,25,0,0,0-2.78-2.63,1.52,1.52,0,0,1-.51-1,1.44,1.44,0,0,1,.31-1.12l.1-.15a1.32,1.32,0,0,1,.88-.51,1.37,1.37,0,0,1,1,.27c.07.06.13.05.2,0l1.56-2.49a.17.17,0,0,0,0-.22.21.21,0,0,0-.17-.12H85.79c-.23,0-.35.13-.35.39v25.3a2.68,2.68,0,0,1-.85,2,2.81,2.81,0,0,1-2,.83,2.83,2.83,0,0,1-2.83-2.83v-39a2.81,2.81,0,0,1,.83-2,2.77,2.77,0,0,1,2.05-.82h13.5A2.82,2.82,0,0,1,99,34.64V45.17A2.75,2.75,0,0,1,96.22,48H96s0,0,0,0a.57.57,0,0,1,.24.83Q93.44,52,93.05,52.48a.34.34,0,0,0,0,.54l.58.59a.31.31,0,0,0,.49,0c.49-.59,1-1.17,1.41-1.76a2,2,0,0,1,1.13-.76,2.08,2.08,0,0,1,1.36.13,1.1,1.1,0,0,1,.66.85,1.16,1.16,0,0,1-.27,1c-1.63,1.75-3.06,3.22-4.29,4.39a.13.13,0,0,0,0,.14.11.11,0,0,0,.12.1l2.24-.2c.13,0,.16,0,.1-.14a1.21,1.21,0,0,1,0-1,1.17,1.17,0,0,1,.73-.71h0a2,2,0,0,1,1.27,0,1.52,1.52,0,0,1,.92.8,11.83,11.83,0,0,1,.93,1.71s0-.05.05-.05l1.31-.1a.4.4,0,0,0,.3-.1c.61-.58,1.1-1.05,1.46-1.41.19-.2.21-.37,0-.54a36,36,0,0,0-3-2.92,1.32,1.32,0,0,1-.51-1,1.46,1.46,0,0,1,.37-1l.19-.19a1.45,1.45,0,0,1,.93-.44,1.28,1.28,0,0,1,1,.29.16.16,0,0,0,.25,0c.42-.58,1-1.41,1.61-2.49a.17.17,0,0,0,0-.17c0-.05-.07-.07-.1-.07a2,2,0,0,1-2-2V34.64a2.81,2.81,0,0,1,.83-2,2.77,2.77,0,0,1,2-.82ZM93.39,36.1a.3.3,0,0,0-.34-.34H85.79a.31.31,0,0,0-.35.34v1.61c0,.26.12.39.35.39h7.26c.23,0,.34-.13.34-.39Zm-7.6,5.56c-.23,0-.35.13-.35.39v1.56a.31.31,0,0,0,.35.34h7.26a.3.3,0,0,0,.34-.34V42.05c0-.26-.11-.39-.34-.39ZM112.6,67.11A2.94,2.94,0,0,1,109.72,70h-3.61c-.26,0-.39.11-.39.34v3.12a2,2,0,0,1-.58,1.43,1.87,1.87,0,0,1-1.41.61,2.08,2.08,0,0,1-2-2V63.6a1.87,1.87,0,0,1,.61-1.41,2,2,0,0,1,1.44-.59,2,2,0,0,1,2,2v2.73c0,.23.13.34.39.34h2.34c.26,0,.39-.11.39-.34v-2a1.86,1.86,0,0,1,.54-1.34,1.78,1.78,0,0,1,1.32-.56,1.91,1.91,0,0,1,1.9,1.9Zm3.56-31a.31.31,0,0,0-.34-.34h-7.51c-.26,0-.39.12-.39.34v1.61a.34.34,0,0,0,.39.39h7.51c.22,0,.34-.13.34-.39Zm-8.24,7.51c0,.23.13.34.39.34h7.51a.3.3,0,0,0,.34-.34V42.05c0-.26-.12-.39-.34-.39h-7.51a.34.34,0,0,0-.39.39Z"/><path class="cls-2" d="M169.42,47.9a.34.34,0,0,0,.39.39h6.24a2.75,2.75,0,0,1,2.78,2.78q0,4.88-.29,12.68c-.1,2.79-.26,5.07-.49,6.82a8.86,8.86,0,0,1-1,3.56,5.41,5.41,0,0,1-3.36,2.1,13.78,13.78,0,0,1-2.53.19h-.05a2.91,2.91,0,0,1-2-.78,4,4,0,0,1-1.27-2,2,2,0,0,1-.1-.58,1.86,1.86,0,0,1,.39-1.12,1.7,1.7,0,0,1,1.47-.78h0a8.33,8.33,0,0,0,1,0h.15a1.37,1.37,0,0,0,1.26-.78Q173,69.06,173.27,54a.34.34,0,0,0-.39-.39h-3.36q-.35,0-.39.39-.88,13.56-5.27,20.48a1.84,1.84,0,0,1-1.61.88,2.47,2.47,0,0,1-1.85-.83,1.28,1.28,0,0,0-.24-.29,3.62,3.62,0,0,1-1-2,2.72,2.72,0,0,1-.05-.49,3.21,3.21,0,0,1,.49-1.71A28.54,28.54,0,0,0,163,59.41a136,136,0,0,0,.86-16.14.31.31,0,0,0-.35-.34h-1.75A2.75,2.75,0,0,1,159,40.17a2.69,2.69,0,0,1,.8-2,2.66,2.66,0,0,1,1.93-.8h4.68c.26,0,.39-.11.39-.34V32.79a2.83,2.83,0,0,1,2.87-2.88h.15a2.79,2.79,0,0,1,2,.83,2.75,2.75,0,0,1,.86,2.05v4.29a.3.3,0,0,0,.34.34h4.83a2.73,2.73,0,0,1,2.72,2.75,2.75,2.75,0,0,1-2.72,2.76H170c-.26,0-.39.11-.39.34C169.5,45.22,169.45,46.76,169.42,47.9ZM187.8,32.45a4.19,4.19,0,0,1,1.46-2,3.81,3.81,0,0,1,2.29-.75h0a4,4,0,0,1,2.34.73,4.15,4.15,0,0,1,1.56,1.95q3.36,8.24,7.85,12.38a3.58,3.58,0,0,1,1.17,2,3,3,0,0,1,.1.78,3.3,3.3,0,0,1-.34,1.46l-.39.88a2.08,2.08,0,0,1-1.51,1.27,1.62,1.62,0,0,1-.54.1,1.83,1.83,0,0,1-1.27-.54,32.11,32.11,0,0,1-5-6.36,43.8,43.8,0,0,1-3.65-7.49c0-.06,0-.09-.1-.09a.16.16,0,0,0-.15.09,41.74,41.74,0,0,1-3.56,7.46,31.56,31.56,0,0,1-5,6.44,1.66,1.66,0,0,1-1.22.53,3.12,3.12,0,0,1-.54,0A2.23,2.23,0,0,1,179.9,50a2.77,2.77,0,0,1-.24-.49,3.57,3.57,0,0,1-.39-1.61,3.74,3.74,0,0,1,1.17-2.83A34.28,34.28,0,0,0,187.8,32.45Zm-3.41,34.81a2.4,2.4,0,0,1-1.27-1.56,3.92,3.92,0,0,1-.05-.59,2.22,2.22,0,0,1,.49-1.41h.05a3.44,3.44,0,0,1,2-1.32,2.65,2.65,0,0,1,.87-.15,3.44,3.44,0,0,1,1.47.35A75.51,75.51,0,0,1,200,69.5a2.59,2.59,0,0,1,1.12,1.9v.39a2.85,2.85,0,0,1-.64,1.8l-.44.59a2.55,2.55,0,0,1-1.85,1h-.34a2.83,2.83,0,0,1-1.75-.58A76,76,0,0,0,184.39,67.26ZM196.77,54a2.49,2.49,0,0,1,.88,1.95,2.94,2.94,0,0,1-.93,2.14l-.15.15a2.54,2.54,0,0,1-1.8.73h-.15a2.78,2.78,0,0,1-2-.93,45.77,45.77,0,0,0-4.43-4,2.17,2.17,0,0,1-.93-1.85,2.22,2.22,0,0,1,.68-1.61,3.3,3.3,0,0,1,2-.92h.29a3.16,3.16,0,0,1,1.86.58A47.15,47.15,0,0,1,196.77,54Z"/><path class="cls-2" d="M251.84,33.62A3.2,3.2,0,0,1,253.4,32a3.05,3.05,0,0,1,1.41-.34,3.77,3.77,0,0,1,.88.1l1.27.39a2.45,2.45,0,0,1,1.6,1.36,2.23,2.23,0,0,1,0,2.05,59.74,59.74,0,0,1-10.38,15.65,2.58,2.58,0,0,1-2,.88h-.05a3.14,3.14,0,0,1-2.09-.74c-.39-.32-.78-.63-1.17-.92a2.28,2.28,0,0,1-.2-3.51A43.13,43.13,0,0,0,251.84,33.62Zm17.65,27.64a2.31,2.31,0,0,1-.44-1.37,3.77,3.77,0,0,1,0-.58,2.22,2.22,0,0,1,1.32-1.56l.59-.29a3.47,3.47,0,0,1,1.51-.34,4.2,4.2,0,0,1,.83.09,3.29,3.29,0,0,1,2,1.32A114.45,114.45,0,0,1,283.67,71a2.47,2.47,0,0,1,.39,1.32,2.34,2.34,0,0,1-.15.83,2.61,2.61,0,0,1-1.41,1.7l-1.07.59a3.09,3.09,0,0,1-1.27.29,2.76,2.76,0,0,1-.88-.15,2.85,2.85,0,0,1-1.65-1.41c-.2-.36-.41-.72-.64-1.07a.46.46,0,0,0-.53-.3q-17.61,1.17-30.13,1.76a.21.21,0,0,1-.15,0,3.08,3.08,0,0,1-2-.73,3.2,3.2,0,0,1-1.07-2l-.05-.54a1.74,1.74,0,0,1-.05-.39,2.44,2.44,0,0,1,.64-1.66,2.49,2.49,0,0,1,1.9-.92l3.7-.15a.54.54,0,0,0,.54-.34,119,119,0,0,0,7.46-17.11A3.55,3.55,0,0,1,258.71,49a3.18,3.18,0,0,1,1.51-.39,2.8,2.8,0,0,1,.73.1l1.56.34a2.37,2.37,0,0,1,1.61,1.27,2.65,2.65,0,0,1,.25,1.07,2.51,2.51,0,0,1-.2.93q-3.71,8.34-7.6,15.26a.22.22,0,0,0,0,.24.21.21,0,0,0,.17.1L273,67.06a.19.19,0,0,0,.2-.12.28.28,0,0,0,0-.22Q271.49,64,269.49,61.26ZM268.36,36a2.47,2.47,0,0,1-.34-1.22,2.71,2.71,0,0,1,.15-.88,2.35,2.35,0,0,1,1.41-1.51l.64-.24a3,3,0,0,1,1.21-.25,3.17,3.17,0,0,1,1.08.2,3.21,3.21,0,0,1,1.75,1.46A66.42,66.42,0,0,0,284,46.05a2.78,2.78,0,0,1-.09,4c-.36.36-.7.71-1,1.07a2.52,2.52,0,0,1-1.9.83h-.05a2.38,2.38,0,0,1-1.8-.78A102.58,102.58,0,0,1,268.36,36Z"/><path class="cls-2" d="M361.51,32.84a2.9,2.9,0,0,1,2.87,2.87v33.2a10.68,10.68,0,0,1-.61,4.1,4.13,4.13,0,0,1-2.17,2.14q-2,1.08-6.77,1.17h-.1a3.18,3.18,0,0,1-2.1-.78,3.76,3.76,0,0,1-1.31-2l-.3-.93a2.51,2.51,0,0,1-.09-.63,1.91,1.91,0,0,1,.39-1.13,1.69,1.69,0,0,1,1.51-.82l.05,0h1.9c.87,0,1.62,0,2.24,0a1.56,1.56,0,0,0,1-.25,1.1,1.1,0,0,0,.29-.88v-30c0-.22-.13-.34-.39-.34H326.26a2.83,2.83,0,0,1-2.83-2.82,2.73,2.73,0,0,1,.83-2,2.7,2.7,0,0,1,2-.83Zm-10.83,9.21a2.46,2.46,0,0,1,1.83.76,2.57,2.57,0,0,1,0,3.65,2.46,2.46,0,0,1-1.83.76H326.5a2.59,2.59,0,0,1,0-5.17Zm0,22.87a2.77,2.77,0,0,1-.83,2,2.72,2.72,0,0,1-2,.85H332.65c-.27,0-.39.12-.39.34v.39a2.83,2.83,0,0,1-.83,2,2.75,2.75,0,0,1-2.05.85h-.05a2.75,2.75,0,0,1-2-.85,2.78,2.78,0,0,1-.86-2V53.8a2.76,2.76,0,0,1,.86-2,2.81,2.81,0,0,1,2-.83h18.48a2.83,2.83,0,0,1,2.87,2.88Zm-5.85-8.54c0-.26-.11-.39-.34-.39H332.65a.34.34,0,0,0-.39.39v5.95c0,.23.12.34.39.34h11.84a.3.3,0,0,0,.34-.34Z"/></g></svg>