<svg id="圖層_1" data-name="圖層 1" xmlns="http://www.w3.org/2000/svg" viewBox="0 0 423.78 111.26"><defs><style>.cls-1{fill:#fff;stroke:#18254c;stroke-miterlimit:10;stroke-width:1.06px;}.cls-2{fill:#18254c;}</style></defs><g id="關於公司"><path class="cls-1" d="M423.25,56.13h0a54.59,54.59,0,0,1-54.6,54.6H-60.87a54.6,54.6,0,0,1-54.6-54.6h0a54.61,54.61,0,0,1,54.6-54.6H368.65A54.6,54.6,0,0,1,423.25,56.13Z"/><path class="cls-2" d="M93.66,56a3.86,3.86,0,0,1,.63,2.14,3.9,3.9,0,0,1-.73,2.34,1.49,1.49,0,0,1-1.27.69H92.1a1.56,1.56,0,0,1-1.32-.93c-.42-.91-1-2-1.71-3.41,0-.07,0-.09-.07-.08s-.07.06-.07.13V74.69a2.75,2.75,0,0,1-2.76,2.73,2.69,2.69,0,0,1-2-.8,2.66,2.66,0,0,1-.8-1.93V59.14a.08.08,0,0,0,0-.07s-.05,0-.05,0a44.09,44.09,0,0,1-3.17,7.22A1.27,1.27,0,0,1,79,67h-.14a1.57,1.57,0,0,1-1.32-.88,1.28,1.28,0,0,1-.14-.29,4.54,4.54,0,0,1-.64-2.29,4.9,4.9,0,0,1,.78-2.59,52,52,0,0,0,5.36-14c.07-.26,0-.39-.29-.39H79.86a2.75,2.75,0,0,1-2.73-2.73,2.77,2.77,0,0,1,2.73-2.73h3.22c.23,0,.34-.13.34-.39V33.59a2.75,2.75,0,0,1,4.7-1.92,2.61,2.61,0,0,1,.81,1.92v7.12c0,.26.11.39.34.39h2A2.75,2.75,0,0,1,94,43.83a2.73,2.73,0,0,1-2.73,2.73h-2c-.23,0-.34.13-.34.39v1.81a1.13,1.13,0,0,0,.19.63Q90.49,51.29,93.66,56Zm22.28,1.85a4,4,0,0,1,1.9-1.41,4,4,0,0,1,1.07-.15,3.38,3.38,0,0,1,1.27.25l.1,0a2.37,2.37,0,0,1,1.36,1.52,1.77,1.77,0,0,1,.15.73,2.21,2.21,0,0,1-.44,1.26A40.42,40.42,0,0,1,116,66.26a.29.29,0,0,0,0,.48q3.21,2.79,5.46,5.07a2.38,2.38,0,0,1,.73,1.71.93.93,0,0,1-.05.29,2.6,2.6,0,0,1-1,1.9l-.19.15a3.05,3.05,0,0,1-1.8.59h-.35a3.2,3.2,0,0,1-2-1c-1.44-1.59-3.14-3.33-5.12-5.21a.33.33,0,0,0-.54,0,55.24,55.24,0,0,1-12.43,6.38,3.26,3.26,0,0,1-1.12.2,2.9,2.9,0,0,1-1.17-.25,4.31,4.31,0,0,1-2-1.46,2.06,2.06,0,0,1-.15-.24,1.83,1.83,0,0,1-.44-1.17A1.74,1.74,0,0,1,94,73a1.77,1.77,0,0,1,1.22-1.26Q109.21,67.18,115.94,57.87ZM96.83,52.66a2.41,2.41,0,0,1-1-1.71,1.55,1.55,0,0,1,0-.34,2.32,2.32,0,0,1,.59-1.56l.1-.15a2.65,2.65,0,0,1,1.7-.92,1.52,1.52,0,0,1,.44,0,2.48,2.48,0,0,1,1.46.48.31.31,0,0,0,.44-.09c1-1.43,1.93-3,2.88-4.64a.21.21,0,0,0,0-.19.22.22,0,0,0-.2-.1H97a2.75,2.75,0,0,1-2.73-2.73,2.55,2.55,0,0,1,.81-1.9A2.64,2.64,0,0,1,97,38h8.29c.26,0,.39-.11.39-.34V34a2.78,2.78,0,0,1,.83-2,2.74,2.74,0,0,1,2-.83h.1a2.79,2.79,0,0,1,2,.83,2.75,2.75,0,0,1,.85,2v3.66a.3.3,0,0,0,.34.34h8.19a2.66,2.66,0,0,1,2.68,2.68,2.68,2.68,0,0,1-.78,1.93,2.56,2.56,0,0,1-1.9.8h-9a.65.65,0,0,0-.58.29q-4.09,5.28-6,7.51c-.16.2-.15.36,0,.49,1.17,1,2,1.67,2.48,2.1a.36.36,0,0,0,.54,0,34.66,34.66,0,0,0,4.68-5.66,3.56,3.56,0,0,1,1.8-1.41,3.17,3.17,0,0,1,1.08-.2,2.9,2.9,0,0,1,1.17.25,2.19,2.19,0,0,1,1.36,1.41,2.16,2.16,0,0,1,.15.78,2,2,0,0,1-.39,1.17,47.17,47.17,0,0,1-17.6,15.75,3.15,3.15,0,0,1-1.37.34,3.2,3.2,0,0,1-.83-.1,3.54,3.54,0,0,1-1.9-1.27,1.92,1.92,0,0,1-.53-1.31,1.8,1.8,0,0,1,0-.44,1.78,1.78,0,0,1,1.07-1.42,49.3,49.3,0,0,0,6.24-3.7c.23-.13.24-.29,0-.49Q100.34,55.33,96.83,52.66Z"/><path class="cls-2" d="M161.6,50.36a2.54,2.54,0,0,1,1.12-1.85,2.49,2.49,0,0,1,1.46-.49,4,4,0,0,1,.59,0l.19,0a3.12,3.12,0,0,1,1.95,1.22,3,3,0,0,1,.58,1.8,2.39,2.39,0,0,1,0,.44,50.27,50.27,0,0,1-3.61,14,2.4,2.4,0,0,1-1.71,1.37,3.47,3.47,0,0,1-.78.1,2.78,2.78,0,0,1-1.41-.39l-.59-.34a2.54,2.54,0,0,1-1.26-1.71,2.31,2.31,0,0,1-.15-.83,3,3,0,0,1,.34-1.36A38.45,38.45,0,0,0,161.6,50.36Zm9.26-3.51A2.9,2.9,0,0,1,173.74,44h.43a2.9,2.9,0,0,1,2.88,2.87V67.67a3.57,3.57,0,0,0,.46,2.27,3.45,3.45,0,0,0,2.22.46h6.88A2.3,2.3,0,0,0,189,68.74a25.72,25.72,0,0,0,.64-4.82,1.54,1.54,0,0,1,.87-1.37,1.81,1.81,0,0,1,1.71,0l.39.2a3.85,3.85,0,0,1,1.9,1.56,3.05,3.05,0,0,1,.59,1.8v.44c-.39,3.19-1,5.44-1.9,6.78q-1.66,2.58-6.1,2.58H179q-4.72,0-6.41-1.73c-1.12-1.15-1.68-3.31-1.68-6.46Zm2.88-11.26a1.9,1.9,0,0,1-1.27-1.41,2.94,2.94,0,0,1-.05-.59,2.29,2.29,0,0,1,.44-1.31l.19-.15a3.67,3.67,0,0,1,2-1.36,3.45,3.45,0,0,1,1-.15,3.68,3.68,0,0,1,1.42.29c2,.85,4.14,1.82,6.29,2.93s3.8,2.11,5.36,3.12a2.38,2.38,0,0,1,1.17,1.8,2.72,2.72,0,0,1,0,.49,2.67,2.67,0,0,1-.54,1.61l-.49.63a2.56,2.56,0,0,1-1.85,1.07,1.8,1.8,0,0,1-.44,0,2.75,2.75,0,0,1-1.7-.58,60,60,0,0,0-5.27-3.22Q176.85,37,173.74,35.59Zm18.42,15.07a2.63,2.63,0,0,1-.44-1.42,3.19,3.19,0,0,1,.1-.68A2.57,2.57,0,0,1,193.09,47l.34-.14a3.18,3.18,0,0,1,1.51-.39,3.46,3.46,0,0,1,.78.09,3.31,3.31,0,0,1,1.95,1.32,62.58,62.58,0,0,1,3.9,6.68,52.52,52.52,0,0,1,2.63,6.19,2.94,2.94,0,0,1-.09,2.34,3.41,3.41,0,0,1-1.66,1.71l-.88.43a2.12,2.12,0,0,1-1,.25,2.15,2.15,0,0,1-1-.25,2.21,2.21,0,0,1-1.27-1.51,57.52,57.52,0,0,0-2.38-6.14A65.3,65.3,0,0,0,192.16,50.66Z"/><path class="cls-2" d="M252.35,62.8a2.16,2.16,0,0,1,.78-.15,2.6,2.6,0,0,1,2.44,2.05,4.09,4.09,0,0,1,0,.63,3.54,3.54,0,0,1-.43,1.66,3.31,3.31,0,0,1-1.81,1.41Q249.52,69.77,242.5,72a2.31,2.31,0,0,1-.83.15,2.44,2.44,0,0,1-1.27-.39,2.69,2.69,0,0,1-1.26-1.71l-.1-.39a6.22,6.22,0,0,1,0-.68,3,3,0,0,1,.44-1.56,2.85,2.85,0,0,1,1.8-1.32c1-.26,2-.54,2.93-.83a.43.43,0,0,0,.39-.44v-11c0-.23-.13-.35-.39-.35h-1.95a2.62,2.62,0,0,1-1.93-.8,2.72,2.72,0,0,1,0-3.85,2.63,2.63,0,0,1,1.93-.81h1.95a.34.34,0,0,0,.39-.39v-8c0-.23-.13-.34-.39-.34h-2.34a2.67,2.67,0,0,1-2-.83,2.75,2.75,0,0,1-.8-2,2.66,2.66,0,0,1,.8-2,2.69,2.69,0,0,1,2-.81h10.92a2.66,2.66,0,0,1,2,.81,2.63,2.63,0,0,1,.81,2,2.72,2.72,0,0,1-.81,2,2.64,2.64,0,0,1-2,.83h-2.2c-.26,0-.39.11-.39.34v8a.34.34,0,0,0,.39.39H252a2.53,2.53,0,0,1,1.9.81,2.77,2.77,0,0,1,0,3.85,2.52,2.52,0,0,1-1.9.8h-1.42c-.26,0-.39.12-.39.35v9.26a.26.26,0,0,0,.13.22.22.22,0,0,0,.22,0Zm21.06,7.36a.34.34,0,0,0,.39.39H283a2.68,2.68,0,1,1,0,5.36H256.3a2.68,2.68,0,1,1,0-5.36H267a.34.34,0,0,0,.39-.39v-4a.34.34,0,0,0-.39-.39h-7.31a2.52,2.52,0,0,1-1.85-.78,2.64,2.64,0,0,1,0-3.75,2.52,2.52,0,0,1,1.85-.78H267a.35.35,0,0,0,.39-.4V56.51c0-.23-.13-.34-.39-.34h-6.73a2.73,2.73,0,0,1-2-.86,2.77,2.77,0,0,1-.83-2V35.84a2.74,2.74,0,0,1,.83-2.05,2.78,2.78,0,0,1,2-.83h20.28a2.84,2.84,0,0,1,2.88,2.88V53.29a2.81,2.81,0,0,1-.83,2,2.73,2.73,0,0,1-2.05.86H273.8c-.26,0-.39.11-.39.34v3.55a.35.35,0,0,0,.39.4h7.55a2.6,2.6,0,0,1,1.88.78,2.58,2.58,0,0,1,0,3.75,2.6,2.6,0,0,1-1.88.78H273.8a.34.34,0,0,0-.39.39ZM263.12,38a.34.34,0,0,0-.39.39v3.41c0,.23.13.35.39.35h4.39c.26,0,.39-.12.39-.35V38.37a.34.34,0,0,0-.39-.39Zm0,8.83a.34.34,0,0,0-.39.39v3.55c0,.23.13.35.39.35h4.39c.26,0,.39-.12.39-.35V47.2a.34.34,0,0,0-.39-.39Zm14.33-4.68c.26,0,.39-.12.39-.35V38.37a.34.34,0,0,0-.39-.39h-4.19a.34.34,0,0,0-.39.39v3.41c0,.23.13.35.39.35Zm0,9c.26,0,.39-.12.39-.35V47.2a.34.34,0,0,0-.39-.39h-4.19a.34.34,0,0,0-.39.39v3.55c0,.23.13.35.39.35Z"/><path class="cls-2" d="M336.76,45.88a2.41,2.41,0,0,1-2.43-2.44.16.16,0,0,0-.1-.14.18.18,0,0,0-.2,0,60.1,60.1,0,0,1-8.23,4.24,3.1,3.1,0,0,1-1.17.24,3.15,3.15,0,0,1-1.08-.19,3.5,3.5,0,0,1-1.8-1.47,3.4,3.4,0,0,0-.2-.34,2.15,2.15,0,0,1-.39-1.22,2.73,2.73,0,0,1,.1-.68,2.05,2.05,0,0,1,1.27-1.36,52.43,52.43,0,0,0,8.38-4.27A39.49,39.49,0,0,0,337.69,33a6.84,6.84,0,0,1,4.83-2.1h.39a7.13,7.13,0,0,1,4.92,2,45.19,45.19,0,0,0,16.09,9.22,1.9,1.9,0,0,1,1.27,1.31,2.71,2.71,0,0,1,.09.68,2.28,2.28,0,0,1-.34,1.17,4.83,4.83,0,0,0-.44.64,3.42,3.42,0,0,1-1.85,1.46,3.11,3.11,0,0,1-1.07.2,3.17,3.17,0,0,1-1.22-.25,63.88,63.88,0,0,1-8.24-4.19.21.21,0,0,0-.19,0,.15.15,0,0,0-.1.15,2.59,2.59,0,0,1-2.59,2.58Zm-9.94,27.79a3,3,0,0,1-2.1,1.07,1.11,1.11,0,0,1-.34.05,3.3,3.3,0,0,1-2-.69l-.19-.14a2.07,2.07,0,0,1-1-1.85,2.51,2.51,0,0,1,.64-1.71,19.34,19.34,0,0,0,3.6-6.43,2.91,2.91,0,0,1,1.37-1.66,2.6,2.6,0,0,1,1.27-.34A2.86,2.86,0,0,1,331,64.79a2.94,2.94,0,0,1-.14.88A23,23,0,0,1,326.82,73.67ZM354,48.12a3.74,3.74,0,0,1,.54,0,2.17,2.17,0,0,1,1.07.3l1.22.77a2.65,2.65,0,0,1,1.12,1.47,2.29,2.29,0,0,1,.1.68,2.37,2.37,0,0,1-.29,1.12,63.43,63.43,0,0,1-5.12,7.85,2.55,2.55,0,0,1-1.81,1.07,2,2,0,0,1-.48.05,2.8,2.8,0,0,1-1.61-.49,2.35,2.35,0,0,1-1.12-1.56,2.34,2.34,0,0,1,.39-1.85,38.28,38.28,0,0,0,2.53-4,.26.26,0,0,0,0-.21.18.18,0,0,0-.19-.13h-21a2.49,2.49,0,1,1,0-5h24.47A.45.45,0,0,0,354,48.12ZM341.1,71.42H347a1.94,1.94,0,0,0,1.46-.46,3.71,3.71,0,0,0,.64-2,1.78,1.78,0,0,1,.92-1.42,2.21,2.21,0,0,1,1-.24,2.16,2.16,0,0,1,.78.15,3.92,3.92,0,0,1,1.9,1.51,3,3,0,0,1,.49,1.61,3.79,3.79,0,0,1-.05.58q-.63,3.22-2.07,4.39a7.1,7.1,0,0,1-4.51,1.17h-7.12q-4.49,0-6-1.44c-1-1-1.51-2.77-1.51-5.44V64.7a2.73,2.73,0,0,1,.86-2.05,2.79,2.79,0,0,1,2-.83h.15a2.81,2.81,0,0,1,2,.83,2.72,2.72,0,0,1,.85,2.05v5.11q0,1.08.42,1.35A4.08,4.08,0,0,0,341.1,71.42ZM338,60.8a2.08,2.08,0,0,1-1-1.51,1.75,1.75,0,0,1,0-.4,1.82,1.82,0,0,1,.59-1.31,3.32,3.32,0,0,1,2-1.12,5.34,5.34,0,0,1,.69-.05,3.57,3.57,0,0,1,1.61.39,43.07,43.07,0,0,1,5.07,3.26,2.59,2.59,0,0,1,.92,2,2.74,2.74,0,0,1-.78,2l-.05,0a2.73,2.73,0,0,1-2,.83,3.13,3.13,0,0,1-2.09-.73A32,32,0,0,0,338,60.8Zm-.63-19.75a.18.18,0,0,0,0,.15.13.13,0,0,0,.13.1h11.4a.13.13,0,0,0,.13-.1.18.18,0,0,0,0-.15,39.31,39.31,0,0,1-5.7-4.73c-.17-.19-.33-.19-.49,0A36,36,0,0,1,337.35,41.05Zm17,24.43a2.25,2.25,0,0,1-.63-1.56,1.12,1.12,0,0,1,0-.34A2.07,2.07,0,0,1,354.85,62a3.48,3.48,0,0,1,1.85-.54h.49a3.44,3.44,0,0,1,2.1,1.07,40.4,40.4,0,0,1,5.65,7,2.87,2.87,0,0,1,.44,1.47,3,3,0,0,1-.1.78,3.2,3.2,0,0,1-1.41,1.85l-.39.24a2.47,2.47,0,0,1-1.32.39,2,2,0,0,1-.73-.14,2.72,2.72,0,0,1-1.66-1.32A44.2,44.2,0,0,0,354.36,65.48Z"/></g></svg>