<svg id="圖層_1" data-name="圖層 1" xmlns="http://www.w3.org/2000/svg" viewBox="0 0 425.78 112.26"><defs><style>.cls-1{fill:#fff;stroke:#18254c;stroke-miterlimit:10;stroke-width:1.06px;}.cls-2{fill:#18254c;}</style></defs><g id="關於公司"><path class="cls-1" d="M425.25,56.13h0a54.59,54.59,0,0,1-54.6,54.6H-58.87a54.6,54.6,0,0,1-54.6-54.6h0a54.61,54.61,0,0,1,54.6-54.6H370.65A54.6,54.6,0,0,1,425.25,56.13Z"/><path class="cls-2" d="M96.58,33.06A5.24,5.24,0,0,1,101,30.67h.34A5.58,5.58,0,0,1,105.94,33a54.57,54.57,0,0,0,8,8.31,51.05,51.05,0,0,0,9.26,6.27,2,2,0,0,1,1.17,1.51,3.49,3.49,0,0,1,0,.53,2.17,2.17,0,0,1-.49,1.37c-.16.26-.34.52-.53.78A3.17,3.17,0,0,1,121.54,53a3.23,3.23,0,0,1-.73.09,2.82,2.82,0,0,1-1.46-.43,71.17,71.17,0,0,1-10-7.54,55,55,0,0,1-7.73-8.31.18.18,0,0,0-.19-.14.19.19,0,0,0-.2.14,49.75,49.75,0,0,1-7.38,8.29A69.16,69.16,0,0,1,84,52.7a3.18,3.18,0,0,1-1.51.39,5.32,5.32,0,0,1-.69,0,3.6,3.6,0,0,1-1.9-1.27,1.81,1.81,0,0,0-.19-.25A2.35,2.35,0,0,1,79.13,50v-.44A2.23,2.23,0,0,1,80.25,48a54,54,0,0,0,9.14-6.88A51.77,51.77,0,0,0,96.58,33.06Zm8.88,27.69c-.23,0-.35.13-.35.39v9.21c0,.26.12.39.35.39h14.82a2.68,2.68,0,1,1,0,5.36H83.18a2.68,2.68,0,1,1,0-5.36h2.39c.22,0,.34-.13.34-.39v-14a2.75,2.75,0,0,1,.85-2.05,2.81,2.81,0,0,1,2-.83h.1a2.84,2.84,0,0,1,2.88,2.88v14a.34.34,0,0,0,.39.39h6.34a.35.35,0,0,0,.39-.39V47.68a2.8,2.8,0,0,1,.82-2,2.75,2.75,0,0,1,2-.85h.49a2.9,2.9,0,0,1,2.87,2.87v7.46c0,.26.12.39.35.39h10.38a2.61,2.61,0,1,1,0,5.22Z"/><path class="cls-2" d="M204.45,61.92a2.46,2.46,0,0,1-1.71,4.19H191s0,0-.07.07,0,.08,0,.08a37.54,37.54,0,0,0,5.9,2.78,51.53,51.53,0,0,0,6.78,2,1.54,1.54,0,0,1,1.22,1.08,1.24,1.24,0,0,1,.14.58,1.64,1.64,0,0,1-.39,1c-.19.26-.39.51-.58.78a4.28,4.28,0,0,1-1.95,1.56,3.57,3.57,0,0,1-1.27.24,4,4,0,0,1-1.07-.15A41.62,41.62,0,0,1,186,68.74a.16.16,0,0,0-.19,0,.17.17,0,0,0-.1.15v5.75a2.84,2.84,0,0,1-2.88,2.88h0a2.83,2.83,0,0,1-2.87-2.88V69.13c0-.06,0-.11-.12-.14s-.14,0-.18,0a44.57,44.57,0,0,1-13.69,7.07,3.41,3.41,0,0,1-1.08.19,3.66,3.66,0,0,1-1.31-.24,5.09,5.09,0,0,1-2-1.51l-.29-.4a1.66,1.66,0,0,1-.39-1.07,2,2,0,0,1,.09-.58,1.65,1.65,0,0,1,1.22-1.17,50,50,0,0,0,12.68-5,.12.12,0,0,0,0-.13c0-.05,0-.07-.07-.07H163.3a2.49,2.49,0,0,1-2.48-2.46,2.35,2.35,0,0,1,.73-1.73,2.38,2.38,0,0,1,1.75-.73h16.24c.26,0,.39-.12.39-.34V59.38a.34.34,0,0,0-.39-.39H167.69a2,2,0,0,1-1.53-.63,2.17,2.17,0,0,1,0-3,2,2,0,0,1,1.53-.64h11.85c.26,0,.39-.11.39-.34V52.85a.34.34,0,0,0-.39-.39H165.35a2.29,2.29,0,0,1-1.66-.68,2.31,2.31,0,0,1,0-3.27,2.29,2.29,0,0,1,1.66-.68h6.83a.26.26,0,0,0,.19-.12.2.2,0,0,0,0-.22,23.65,23.65,0,0,0-1.37-3.07.59.59,0,0,1,0-.37.38.38,0,0,1,.27-.22H163.4a2.32,2.32,0,0,1-1.7-.71,2.33,2.33,0,0,1,0-3.41,2.35,2.35,0,0,1,1.7-.7h3.9a.23.23,0,0,0,.22-.13.2.2,0,0,0,0-.22q-.58-1.45-1.65-3.51a2.14,2.14,0,0,1-.3-1.07,1.85,1.85,0,0,1,.2-.83,2,2,0,0,1,1.32-1.31,3.6,3.6,0,0,1,1.14-.2,3.66,3.66,0,0,1,1.15.2,3.08,3.08,0,0,1,1.7,1.41A25.59,25.59,0,0,1,172.52,36a1.81,1.81,0,0,1,0,1.71,2.27,2.27,0,0,1-1.27,1.22s0,0,0,.1h3.9c.23,0,.34-.13.34-.39v-5a2.64,2.64,0,0,1,.83-2,2.72,2.72,0,0,1,2-.81,2.63,2.63,0,0,1,1.95.81,2.66,2.66,0,0,1,.81,2v5a.34.34,0,0,0,.39.39h2.92a.34.34,0,0,0,.39-.39v-5a2.64,2.64,0,0,1,.83-2,2.81,2.81,0,0,1,4,0,2.64,2.64,0,0,1,.83,2v5c0,.26.11.39.34.39h3.85s.05,0,.05-.1a1.32,1.32,0,0,1-.88-.78,1.37,1.37,0,0,1,0-1.17,31.39,31.39,0,0,0,1.37-3.07,3.42,3.42,0,0,1,1.56-1.71,3,3,0,0,1,1.46-.39,3,3,0,0,1,.78.1l.63.14a2.07,2.07,0,0,1,1.46,1.22,2.61,2.61,0,0,1,.15.83,2.24,2.24,0,0,1-.29,1.07c-.94,1.5-1.68,2.67-2.2,3.51a.17.17,0,0,0,0,.22c.05.09.11.13.17.13h3.71a2.35,2.35,0,0,1,1.73.7,2.42,2.42,0,0,1-1.73,4.12H196a.66.66,0,0,0-.59.29q-.93,1.76-2,3.42a.21.21,0,0,0,0,.19.15.15,0,0,0,.15.1h7.11a2.27,2.27,0,0,1,1.66.68,2.31,2.31,0,0,1,0,3.27,2.27,2.27,0,0,1-1.66.68H186.12a.34.34,0,0,0-.39.39v1.51c0,.23.13.34.39.34H198.6a2.17,2.17,0,0,1,2.14,2.15A2.15,2.15,0,0,1,198.6,59H186.12a.34.34,0,0,0-.39.39v1.47c0,.22.13.34.39.34h16.62A2.34,2.34,0,0,1,204.45,61.92ZM188.9,44.17a.25.25,0,0,0,0-.24.25.25,0,0,0-.22-.1H177.49a.2.2,0,0,0-.2.1.33.33,0,0,0,0,.24A22.17,22.17,0,0,1,178.56,47a.6.6,0,0,1-.05.54.58.58,0,0,1-.44.29v0H187a.51.51,0,0,0,.49-.34C187.82,46.71,188.31,45.6,188.9,44.17Z"/><path class="cls-2" d="M265,57a2.83,2.83,0,0,1-.83,2,2.75,2.75,0,0,1-2,.85h-2a.3.3,0,0,0-.34.34V72.55a7.9,7.9,0,0,1-.34,2.63,2.73,2.73,0,0,1-1.37,1.46,7,7,0,0,1-3.12.73h-.19a2.51,2.51,0,0,1-1.61-.58A3.59,3.59,0,0,1,252,75.13a1.63,1.63,0,0,1,.19-1.44,1.44,1.44,0,0,1,1.27-.66h.83a.89.89,0,0,0,.54-.12.6.6,0,0,0,.14-.46V60.21c0-.23-.13-.34-.39-.34h-2A2.9,2.9,0,0,1,249.77,57V44.61a2.75,2.75,0,0,1,.85-2,2.8,2.8,0,0,1,2-.82h1.22a.36.36,0,0,0,.39-.35c0-.35.1-.88.2-1.58s.17-1.23.24-1.58-.08-.35-.34-.35h-6.1a.34.34,0,0,0-.39.39v13.8q0,14.62-2.63,22.38A1.54,1.54,0,0,1,244,75.57a3.49,3.49,0,0,1-.53.05,1.92,1.92,0,0,1-1.17-.39A3.79,3.79,0,0,1,241,73.52a3.67,3.67,0,0,1-.19-1.17,3.25,3.25,0,0,1,.14-1q1.91-6.24,1.9-19.26V35.69a2.84,2.84,0,0,1,2.88-2.88h16.57a2.46,2.46,0,0,1,1.81.74,2.39,2.39,0,0,1,.73,1.77,2.51,2.51,0,0,1-.73,1.81,2.43,2.43,0,0,1-1.81.75h-1.55a.45.45,0,0,0-.49.35c-.36,1.2-.69,2.25-1,3.16a.22.22,0,0,0,0,.22.25.25,0,0,0,.22.13h2.58A2.82,2.82,0,0,1,265,44.61Zm-15.46,7.12a2.13,2.13,0,0,1,.93-1.41,2.15,2.15,0,0,1,1.22-.39,1.85,1.85,0,0,1,.44,0,2.3,2.3,0,0,1,1.46,1,2.13,2.13,0,0,1,.34,1.17,2.72,2.72,0,0,1,0,.49,37.61,37.61,0,0,1-2,6.29,1.75,1.75,0,0,1-1.22,1.07,2.11,2.11,0,0,1-.63.1,2.07,2.07,0,0,1-1.07-.29,2.24,2.24,0,0,1-1.12-1.32,2.78,2.78,0,0,1-.1-.73,2.41,2.41,0,0,1,.19-1A25.12,25.12,0,0,0,249.52,64.11ZM260,48.85a.31.31,0,0,0,.35-.34V46.17a.31.31,0,0,0-.35-.34h-5.26c-.26,0-.39.11-.39.34v2.34c0,.23.13.34.39.34Zm-5.26,3.81a.34.34,0,0,0-.39.39v2.29a.34.34,0,0,0,.39.39H260c.23,0,.35-.13.35-.39V53.05c0-.26-.12-.39-.35-.39ZM266.2,67.52a1.89,1.89,0,0,1,.14.69,2.17,2.17,0,0,1-.24,1,2.48,2.48,0,0,1-1.32,1.17,2.33,2.33,0,0,1-.68.1,1.85,1.85,0,0,1-.83-.2,1.89,1.89,0,0,1-1-1.21,42.84,42.84,0,0,0-1.37-4.1,2.66,2.66,0,0,1-.1-.68,2.31,2.31,0,0,1,.15-.83,1.91,1.91,0,0,1,1.12-1,2.48,2.48,0,0,1,.73-.1,2.83,2.83,0,0,1,.83.14,1.92,1.92,0,0,1,1.07,1.13C265.3,65,265.8,66.32,266.2,67.52ZM269,69.86a3.6,3.6,0,0,1,2-1h.44a3.33,3.33,0,0,1,1.75.49,2.07,2.07,0,0,1,1,1.56v.29a2,2,0,0,1-.68,1.46,37,37,0,0,1-5,3.61,3.22,3.22,0,0,1-1.56.39,3.73,3.73,0,0,1-2.48-1A1.73,1.73,0,0,1,264,74.4v-.3a2,2,0,0,1,.93-1.36A28,28,0,0,0,269,69.86Zm-1.9-25.69a2.73,2.73,0,0,1,.86-2,2.76,2.76,0,0,1,2-.83h2.68c.23,0,.37-.13.44-.39.13-.88.24-1.81.34-2.78,0-.23-.08-.34-.34-.34h-4.83a2.49,2.49,0,0,1-2.48-2.49,2.51,2.51,0,0,1,2.48-2.49h16.19a2.51,2.51,0,0,1,2.48,2.49,2.49,2.49,0,0,1-2.48,2.49H279.6a.45.45,0,0,0-.49.34c-.35,1.2-.63,2.13-.83,2.78a.3.3,0,0,0,0,.26.23.23,0,0,0,.22.13h4.39a2.83,2.83,0,0,1,2.87,2.87V64.79a2.74,2.74,0,0,1-.83,2,2.78,2.78,0,0,1-2,.83H270a2.79,2.79,0,0,1-2-.83,2.73,2.73,0,0,1-.86-2Zm13.17,4.63c.25,0,.38-.11.38-.34V46c0-.23-.13-.34-.38-.34h-7.81a.3.3,0,0,0-.34.34v2.48a.3.3,0,0,0,.34.34Zm0,7.27a.34.34,0,0,0,.38-.39V53.24a.34.34,0,0,0-.38-.39h-7.81c-.22,0-.34.13-.34.39v2.44c0,.26.12.39.34.39Zm0,7.31c.25,0,.38-.11.38-.34V60.5c0-.22-.13-.34-.38-.34h-7.81a.31.31,0,0,0-.34.34V63a.3.3,0,0,0,.34.34Zm-1.32,9a1.93,1.93,0,0,1-.59-1.41,1.89,1.89,0,0,1,.88-1.66,3.22,3.22,0,0,1,1.8-.54h.25a3.33,3.33,0,0,1,1.95.83c1.2,1.07,2.22,2,3.07,2.83a2.17,2.17,0,0,1,.63,1.51v.29a2.25,2.25,0,0,1-1,1.66,2.88,2.88,0,0,1-1.61.49h-.44a3.28,3.28,0,0,1-1.9-1C281.1,74.46,280.09,73.47,278.92,72.4Z"/><path class="cls-2" d="M364.85,49.39a2.29,2.29,0,0,1,1.65.66,2.16,2.16,0,0,1,.69,1.63A2.34,2.34,0,0,1,364.85,54H325.46a2.34,2.34,0,0,1-2.35-2.34,2.16,2.16,0,0,1,.69-1.63,2.28,2.28,0,0,1,1.66-.66h16.38a.34.34,0,0,0,.39-.39V47.73c0-.23-.13-.34-.39-.34H331.5a2.75,2.75,0,0,1-2-.85,2.78,2.78,0,0,1-.86-2V35.2a2.92,2.92,0,0,1,2.88-2.87H359a2.9,2.9,0,0,1,2.88,2.87v9.31A2.9,2.9,0,0,1,359,47.39H348.61c-.26,0-.39.11-.39.34V49a.34.34,0,0,0,.39.39Zm-33.4,19.35a6.07,6.07,0,0,1,3.07-.92,4.92,4.92,0,0,1,2,.39l.1.05a1.61,1.61,0,0,1,1.07,1.31v.29a1.38,1.38,0,0,1-.68,1.22,50.79,50.79,0,0,1-8,4.59,3.57,3.57,0,0,1-1.61.39,3.7,3.7,0,0,1-.83-.1,4.67,4.67,0,0,1-2.19-1.17c-.07-.07-.14-.13-.2-.2a1.62,1.62,0,0,1-.54-1.17,1.74,1.74,0,0,1,.05-.39,1.55,1.55,0,0,1,1.08-1.22A39.58,39.58,0,0,0,331.45,68.74Zm29.64-4.58a2.74,2.74,0,0,1-.85,2,2.81,2.81,0,0,1-2,.83h-9.51a.34.34,0,0,0-.39.39v5a6.35,6.35,0,0,1-.51,2.9,3.31,3.31,0,0,1-2,1.44,20.4,20.4,0,0,1-5.6.63h-.05a3.16,3.16,0,0,1-1.86-.63A4.09,4.09,0,0,1,337.11,75a1.5,1.5,0,0,1,.17-1.46,1.4,1.4,0,0,1,1.29-.66c.55,0,1,0,1.41,0,.72,0,1.22,0,1.51,0a1.81,1.81,0,0,0,.76-.2.58.58,0,0,0,.22-.53V67.43a.34.34,0,0,0-.39-.39h-9.36a2.84,2.84,0,0,1-2.88-2.88V58.51a2.84,2.84,0,0,1,2.88-2.88h25.5a2.81,2.81,0,0,1,2,.83,2.72,2.72,0,0,1,.85,2ZM334.67,36c-.23,0-.34.13-.34.39v1.37a.3.3,0,0,0,.34.34h20.91a.3.3,0,0,0,.34-.34V36.37c0-.26-.11-.39-.34-.39Zm0,5.56a.3.3,0,0,0-.34.34V43.3c0,.26.11.38.34.38h20.91c.23,0,.34-.12.34-.38V41.88a.3.3,0,0,0-.34-.34Zm1.22,18.23c-.26,0-.39.12-.39.34V62.6c0,.23.13.34.39.34h18.82c.26,0,.39-.11.39-.34V60.11c0-.22-.13-.34-.39-.34Zm17,11.56a1.41,1.41,0,0,1-.92-1.42,1.49,1.49,0,0,1,.58-1.17,4.16,4.16,0,0,1,2.1-.87,3.1,3.1,0,0,1,.63-.05,4.45,4.45,0,0,1,1.61.29,87.69,87.69,0,0,1,8,3.75,1.79,1.79,0,0,1,.93,1.66,1.91,1.91,0,0,1-.68,1.51,3.65,3.65,0,0,1-2.2.83h-.24a3.69,3.69,0,0,1-2.05-.59A80.93,80.93,0,0,0,352.9,71.33Z"/></g></svg>