<?xml version="1.0" encoding="utf-8"?>
<!-- Generator: Adobe Illustrator 24.2.3, SVG Export Plug-In . SVG Version: 6.00 Build 0)  -->
<svg version="1.1" xmlns="http://www.w3.org/2000/svg" xmlns:xlink="http://www.w3.org/1999/xlink" x="0px" y="0px"
	 viewBox="0 0 581.2 1078.5" style="enable-background:new 0 0 581.2 1078.5;" xml:space="preserve">
<style type="text/css">
	.st0{clip-path:url(#SVGID_2_);fill:#FFFFFF;}
	.st1{clip-path:url(#SVGID_2_);fill:#18254C;}
</style>
<g id="圖層_1">
</g>
<g id="圖層_2">
	<g>
		<defs>
			<rect id="SVGID_1_" x="-0.6" y="-0.3" width="581.1" height="1078.9"/>
		</defs>
		<clipPath id="SVGID_2_">
			<use xlink:href="#SVGID_1_"  style="overflow:visible;"/>
		</clipPath>
		<g style="opacity:0.75;clip-path:url(#SVGID_2_);enable-background:new    ;">
			
				<image style="overflow:visible;" width="355" height="114" xlink:href="7F1182C13A786E13.png"  transform="matrix(1 0 0 1 22.24 55.33)">
			</image>
		</g>
		<path class="st0" d="M79.1,81.4h241.1c17.1,0,31,13.9,31,31l0,0c0,17.1-13.9,31-31,31H79.1c-17.1,0-31-13.9-31-31l0,0
			C48,95.3,61.9,81.4,79.1,81.4z"/>
		<path class="st1" d="M103.4,100.3c0,0.2,0.1,0.2,0.2,0.2h11c0.2,0,0.5,0.1,0.7,0.3c0.2,0.2,0.3,0.4,0.3,0.6c0,0.2-0.1,0.5-0.3,0.6
			c-0.2,0.2-0.4,0.3-0.7,0.3H90.4c-0.2,0-0.5-0.1-0.7-0.3c-0.2-0.2-0.3-0.4-0.3-0.6c0-0.2,0.1-0.5,0.3-0.6c0.2-0.2,0.4-0.3,0.7-0.3
			h10.7c0.1,0,0.2-0.1,0.2-0.2v-1.7c0-0.6,0.4-1,1-1c0.3,0,0.5,0.1,0.7,0.3c0.2,0.2,0.3,0.4,0.3,0.7V100.3z M112.6,112.3
			c0.5,0,0.9,0.2,1.2,0.5c0.3,0.3,0.5,0.8,0.5,1.2v8.7c0,1.1-0.4,1.8-1.2,2.1c-1.4,0.2-2.7,0.3-4.1,0.3c-0.3,0-0.5-0.1-0.8-0.3
			c-0.2-0.2-0.4-0.4-0.5-0.7c-0.1-0.2-0.1-0.4,0.1-0.6c0.1-0.2,0.3-0.3,0.6-0.3h2.1c0.5,0,1,0,1.2,0c0.2,0,0.4,0,0.5-0.1
			c0.1-0.1,0.1-0.3,0.1-0.4v-8.5c0-0.1-0.1-0.2-0.2-0.2H93c-0.1,0-0.2,0.1-0.2,0.2c0,0,0,0,0,0v10c0,0.3-0.1,0.5-0.3,0.7
			c-0.2,0.2-0.4,0.3-0.7,0.3c-0.6,0-1-0.4-1-1V114c0-1,0.8-1.7,1.7-1.7L112.6,112.3z M94.5,105.9c0-1,0.8-1.7,1.7-1.7h12.6
			c1,0,1.7,0.8,1.7,1.7v2.6c0,0.5-0.2,0.9-0.5,1.2c-0.3,0.3-0.8,0.5-1.2,0.5H96.2c-0.5,0-0.9-0.2-1.2-0.5c-0.3-0.3-0.5-0.8-0.5-1.2
			L94.5,105.9z M108.4,108.8c0.2,0,0.2-0.1,0.2-0.2v-2.7c0-0.2-0.1-0.2-0.2-0.2H96.6c-0.1,0-0.2,0.1-0.2,0.2v2.7
			c0,0.1,0.1,0.2,0.2,0.2c0,0,0,0,0,0H108.4z M108.3,120.6c0,1-0.8,1.7-1.7,1.7h-7.7c-0.1,0-0.2,0-0.2,0.1c0,0,0,0,0,0v0.5
			c0,0.2-0.1,0.5-0.3,0.7c-0.4,0.3-0.9,0.3-1.3,0c-0.2-0.2-0.3-0.4-0.3-0.7v-5.2c0-1,0.7-1.8,1.7-1.8c0,0,0,0,0.1,0h8
			c1,0,1.7,0.8,1.7,1.7L108.3,120.6z M106.4,117.8c0-0.1-0.1-0.2-0.2-0.2c0,0,0,0,0,0h-7.4c-0.2,0-0.2,0.1-0.2,0.2v2.8
			c0,0.2,0.1,0.2,0.2,0.2h7.4c0.1,0,0.2-0.1,0.2-0.2V117.8z"/>
		<path class="st1" d="M145.8,102.8c0.2-0.2,0.4-0.3,0.7-0.3c0.3,0,0.5,0,0.7,0.2c0.2,0.1,0.3,0.4,0.3,0.6c0,0.2-0.1,0.4-0.2,0.6
			c-1.2,1-2.4,2-3.7,2.9c-0.1,0.1-0.1,0.2,0,0.3c1.4,1.1,2.9,2.1,4.5,2.9c0.2,0.1,0.4,0.3,0.4,0.5v0.2c0,0.2-0.1,0.4-0.2,0.5
			c-0.2,0.2-0.5,0.4-0.8,0.5c-0.3,0.1-0.6,0-0.9-0.1c-2.2-1.2-4.3-2.7-6-4.5c0,0-0.1,0-0.1,0c0,0-0.1,0-0.1,0.1
			c0,0.8-0.6,1.5-1.5,1.5c0,0,0,0,0,0h-8.3c-0.3,0-0.7-0.1-0.9-0.4c-0.2-0.2-0.4-0.6-0.4-0.9c0,0,0,0-0.1,0s-0.1,0-0.1,0
			c-1.9,1.9-4.1,3.5-6.4,4.7c-0.2,0.1-0.3,0.1-0.5,0.1c-0.1,0-0.2,0-0.3-0.1c-0.3,0-0.5-0.2-0.6-0.4c-0.1-0.1-0.2-0.3-0.2-0.4v-0.2
			c0.1-0.2,0.2-0.4,0.4-0.5c1.9-0.9,3.7-2.1,5.2-3.5c0.1-0.1,0.1-0.2,0-0.3c0,0,0,0,0,0c-1-1-2.1-1.9-3.2-2.7
			c-0.2-0.1-0.3-0.3-0.3-0.4c0-0.2,0-0.4,0.2-0.5c0.2-0.2,0.4-0.3,0.6-0.3c0.2,0,0.4,0,0.6,0.1c1.2,0.7,2.3,1.6,3.3,2.6
			c0.1,0.1,0.2,0.1,0.3,0c1.1-1.2,2.1-2.5,2.9-4c0,0,0-0.1,0-0.1c0,0-0.1-0.1-0.1-0.1h-6.7c-0.2,0-0.4-0.1-0.6-0.2
			c-0.3-0.3-0.3-0.8,0-1.2c0,0,0,0,0,0c0.2-0.2,0.4-0.3,0.6-0.2h7.8c0,0,0.1,0,0.1,0c0.2-0.1,0.4,0,0.6,0.1l0.4,0.2
			c0.4,0.2,0.5,0.6,0.4,1c-1,2.2-2.3,4.2-4,5.9c0,0,0,0.1,0,0.1c0,0,0.1,0,0.1,0h10.4c0,0,0.1,0,0.1,0c0,0,0-0.1,0-0.1
			c-1.9-2-3.6-4.3-4.8-6.8c-0.1-0.2-0.1-0.4,0-0.7c0.1-0.2,0.3-0.4,0.5-0.4c0.1,0,0.2,0,0.3,0c0.1,0,0.3,0,0.4,0
			c0.2,0.1,0.4,0.3,0.5,0.5c0.5,1,1.1,1.9,1.7,2.9c0.1,0.1,0.2,0.1,0.3,0c1.1-0.9,2.2-1.8,3.2-2.8c0.2-0.2,0.4-0.3,0.7-0.3
			c0.3,0,0.5,0,0.7,0.2c0.2,0.1,0.3,0.3,0.3,0.6c0,0.2-0.1,0.4-0.2,0.6c-1.2,1.1-2.5,2.1-3.8,3c-0.1,0.1-0.1,0.2,0,0.3
			c0.6,0.7,1.2,1.4,1.9,2.1c0.1,0.1,0.3,0.1,0.4,0c0,0,0,0,0,0C143.6,104.8,144.7,103.8,145.8,102.8z M140.3,118.8
			c0.3,0.1,0.6,0.3,0.7,0.6c0.1,0.1,0.1,0.3,0.1,0.5c0,0.2,0,0.3-0.1,0.5c-0.6,1.2-1.2,2.2-1.6,2.9c0,0,0,0.1,0,0.1
			c0,0,0.1,0.1,0.1,0.1h7.7c0.5-0.1,0.9,0.3,0.9,0.8c0.1,0.5-0.3,0.9-0.8,0.9c-0.1,0-0.1,0-0.2,0h-24.4c-0.5-0.1-0.8-0.5-0.8-0.9
			c0-0.4,0.4-0.7,0.8-0.8h7.3c0.1,0,0.1,0,0.1-0.1c0,0,0-0.1,0-0.1c-0.2-0.9-0.6-1.8-1-2.7c-0.2-0.3-0.2-0.7,0-1.1
			c0.1-0.4,0.4-0.6,0.8-0.7v-0.1h-1.6c-0.5,0-0.9-0.2-1.2-0.5c-0.3-0.3-0.5-0.8-0.5-1.2v-4.1c0-1,0.8-1.7,1.7-1.7h13
			c1,0,1.7,0.8,1.7,1.7v4.1c0,0.5-0.2,0.9-0.5,1.2c-0.3,0.3-0.8,0.5-1.2,0.5L140.3,118.8z M128.9,112.8c-0.1,0-0.2,0.1-0.2,0.2
			c0,0,0,0,0,0.1v3.7c0,0.1,0.1,0.2,0.2,0.2c0,0,0,0,0.1,0H141c0.1,0,0.2-0.1,0.2-0.2c0,0,0,0,0-0.1V113c0-0.1-0.1-0.2-0.2-0.2
			c0,0,0,0-0.1,0L128.9,112.8z M139.6,118.9c0,0,0-0.1,0-0.1c0,0-0.1-0.1-0.1-0.1h-8.9c0,0-0.1,0-0.1,0.1c0,0,0,0.1,0,0.2
			c0.6,0.9,1,1.8,1.4,2.8c0.1,0.1,0.1,0.3,0.1,0.5c0,0.2-0.1,0.4-0.1,0.6c-0.2,0.3-0.5,0.6-0.8,0.7v0.1h7.3l0,0
			c-0.2-0.1-0.4-0.2-0.5-0.4c-0.1-0.2-0.1-0.4,0-0.6C138.5,121.3,139.1,120.1,139.6,118.9z"/>
		<path class="st1" d="M180.1,101.2c0.2,0.1,0.2,0.3,0.2,0.6c0,0.4-0.4,0.8-0.8,0.8h-19.1c-0.1,0-0.3,0.1-0.4,0.2
			c-1.1,1.9-2.5,3.6-4,5.2c-0.2,0.2-0.5,0.3-0.8,0.3c-0.3,0-0.6-0.1-0.8-0.2c-0.2-0.1-0.4-0.4-0.4-0.7c0-0.2,0.1-0.5,0.3-0.6
			c2.3-2.1,4.1-4.6,5.3-7.5c0.1-0.3,0.3-0.5,0.6-0.6c0.2-0.1,0.3-0.1,0.5-0.1c0.4,0,0.7,0.2,0.9,0.5c0.1,0.2,0.1,0.5,0,0.8
			c-0.1,0.3-0.3,0.6-0.5,1c0,0,0,0.1,0,0.2c0,0,0.1,0.1,0.1,0.1h18.2C179.8,101,180,101.1,180.1,101.2z M165.2,118
			c-0.2,0-0.2,0.1-0.2,0.2v1.6c0,0.1,0.1,0.2,0.2,0.2h7.3c0.4,0,0.8,0.4,0.8,0.8c0,0,0,0,0,0c0,0.2-0.1,0.4-0.2,0.6
			c-0.1,0.1-0.4,0.2-0.6,0.2h-7.3c-0.1,0-0.2,0.1-0.2,0.2c0,0,0,0,0,0.1v3c0,0.3-0.1,0.5-0.3,0.7c-0.2,0.2-0.4,0.3-0.7,0.3
			c-0.3,0-0.5-0.1-0.7-0.3c-0.2-0.2-0.3-0.4-0.3-0.7v-3c0-0.2-0.1-0.2-0.2-0.2h-7.6c-0.2,0-0.4-0.1-0.6-0.2
			c-0.2-0.1-0.2-0.3-0.2-0.6c0-0.4,0.3-0.8,0.8-0.8c0,0,0,0,0,0h7.6c0.1,0,0.2-0.1,0.2-0.2c0,0,0,0,0,0v-1.6c0-0.1-0.1-0.2-0.2-0.2
			c0,0,0,0,0,0h-5.5c-0.4,0-0.8-0.3-0.9-0.7c0-0.4,0.3-0.8,0.7-0.9c0.1,0,0.1,0,0.2,0h5.5c0.1,0,0.2-0.1,0.2-0.2c0,0,0,0,0,0v-1.5
			c0-0.1-0.1-0.2-0.2-0.2c0,0,0,0,0,0h-6.6c-0.2,0-0.4-0.1-0.6-0.2c-0.3-0.3-0.3-0.8,0-1.1c0,0,0,0,0,0c0.2-0.1,0.4-0.2,0.6-0.2h3.6
			c0,0,0.1,0,0.1-0.1c0,0,0-0.1,0-0.1c-0.3-0.6-0.6-1.2-0.9-1.8c-0.1-0.2-0.1-0.4-0.1-0.6c0.1-0.2,0.2-0.3,0.4-0.4
			c0.2-0.1,0.5-0.1,0.7,0c0.2,0.1,0.4,0.2,0.6,0.4c0.4,0.6,0.7,1.2,1,1.7c0.1,0.2,0.1,0.4,0,0.5c-0.1,0.2-0.2,0.3-0.4,0.4l0,0h5.2
			l0,0l0,0c-0.2-0.1-0.3-0.2-0.3-0.4c-0.1-0.2,0-0.3,0.1-0.5c0.4-0.6,0.8-1.2,1.1-1.7c0.1-0.2,0.3-0.4,0.6-0.5
			c0.3-0.1,0.5-0.1,0.8,0c0.2,0.1,0.4,0.2,0.5,0.5c0.1,0.2,0,0.5-0.1,0.7c-0.5,0.7-0.9,1.3-1.4,1.9c0,0,0,0.1,0,0.1
			c0,0,0,0.1,0.1,0.1c0,0,0,0,0,0h3.9c0.4,0,0.8,0.3,0.9,0.7c0,0.4-0.3,0.8-0.7,0.9c-0.1,0-0.1,0-0.2,0h-6.5c-0.2,0-0.2,0.1-0.2,0.2
			v1.5c0,0.1,0.1,0.2,0.2,0.2h5.8c0.2,0,0.4,0.1,0.5,0.2c0.3,0.3,0.3,0.8,0,1.1c0,0,0,0,0,0c-0.1,0.1-0.3,0.2-0.5,0.2L165.2,118z
			 M157.1,109.2c-0.2-0.1-0.2-0.4-0.2-0.6c0-0.2,0.1-0.4,0.2-0.6c0.1-0.2,0.3-0.3,0.6-0.2h16.7c0.5,0,0.9,0.2,1.2,0.5
			c0.3,0.3,0.5,0.8,0.5,1.2c0.2,9.6,1.2,14.4,3,14.4c0.4,0,0.7-1.2,0.8-3.6c0-0.2,0.1-0.3,0.2-0.3c0.2-0.1,0.3,0,0.4,0.1
			c0.4,0.3,0.6,0.8,0.6,1.3c0.1,1.2-0.2,2.4-0.6,3.5c-0.3,0.6-0.9,1-1.6,1c-0.6,0-1.2-0.2-1.6-0.5c-0.5-0.4-1-1-1.2-1.6
			c-0.4-0.8-0.6-1.6-0.9-2.4c-0.3-1.1-0.5-2.2-0.6-3.3c-0.1-1.3-0.3-2.6-0.3-3.8s-0.1-2.8-0.2-4.4c0-0.1-0.1-0.2-0.2-0.2
			c0,0,0,0,0,0h-16.2C157.4,109.5,157.2,109.4,157.1,109.2L157.1,109.2z M177.9,104.7c0.1,0.1,0.2,0.3,0.2,0.5
			c0,0.2-0.1,0.4-0.2,0.6c-0.1,0.2-0.3,0.2-0.6,0.2h-16.5c-0.4,0-0.8-0.4-0.8-0.8c0-0.2,0.1-0.4,0.2-0.5c0.2-0.1,0.4-0.2,0.6-0.2
			h16.5C177.5,104.5,177.7,104.5,177.9,104.7L177.9,104.7z"/>
		<path class="st1" d="M212.4,117.5c0.3,0,0.5,0.1,0.7,0.3c0.4,0.4,0.4,1,0,1.3c-0.2,0.2-0.4,0.3-0.6,0.3H201c-0.1,0-0.2,0-0.2,0.1
			c0,0,0,0,0,0.1v5.2c0,0.3-0.1,0.5-0.3,0.7c-0.2,0.2-0.4,0.3-0.7,0.3c-0.3,0-0.5-0.1-0.7-0.3c-0.2-0.2-0.3-0.4-0.3-0.7v-5.2
			c0-0.1-0.1-0.2-0.2-0.2c0,0,0,0,0,0h-11.1c-0.2,0-0.5-0.1-0.7-0.3c-0.4-0.3-0.4-0.9,0-1.3c0,0,0,0,0,0c0.2-0.2,0.4-0.3,0.7-0.3
			h11.1c0.1,0,0.2-0.1,0.2-0.2V117c0-0.3,0.1-0.6,0.3-0.8c0.2-0.2,0.5-0.3,0.8-0.3c0,0,0,0,0.1,0 M200,115.8L200,115.8
			c-0.3-0.4-0.3-0.9,0-1.2c0.1-0.1,0.1-0.1,0.2-0.1c2.1-1,3.7-2.7,4.5-4.8c0.1-0.3,0.3-0.5,0.5-0.6c0.2-0.1,0.4-0.2,0.6-0.2h0.2
			c0.2,0,0.4,0.2,0.6,0.4c0.1,0.2,0.2,0.4,0.1,0.7c-0.2,0.6-0.4,1.2-0.8,1.7c-0.1,0.1,0,0.2,0.1,0.3c0,0,0,0,0,0
			c1.6,0.9,3.2,2,4.7,3.1c0.2,0.1,0.3,0.4,0.3,0.6c0,0.3-0.1,0.5-0.3,0.7c-0.2,0.2-0.4,0.3-0.7,0.3c-0.3,0-0.5-0.1-0.7-0.3
			c-1.3-1.1-2.7-2.1-4.2-3c-0.1-0.1-0.2-0.1-0.3,0c-1.1,1.1-2.3,2-3.7,2.7c-0.1,0.1-0.2,0.2-0.2,0.3v1c0,0.1,0.1,0.2,0.2,0.2
			c0,0,0,0,0,0L200,115.8z M195.4,104.9c-0.4,0.4-1,0.4-1.4,0c-0.2-0.2-0.3-0.4-0.3-0.7v-1.6c0-0.2-0.1-0.2-0.2-0.2h-5.8
			c-0.5,0-0.9-0.4-0.9-0.9c0-0.5,0.4-0.9,0.9-0.9h5.8c0.1,0,0.2-0.1,0.2-0.2v-1c0-0.3,0.1-0.5,0.3-0.7c0.4-0.4,1-0.4,1.4,0
			c0.2,0.2,0.3,0.4,0.3,0.7v1c0,0.2,0.1,0.2,0.2,0.2h7.9c0.1,0,0.2-0.1,0.2-0.2v-1c0-0.3,0.1-0.5,0.3-0.7c0.4-0.4,1-0.4,1.4,0
			c0.2,0.2,0.3,0.4,0.3,0.7v1c0,0.2,0.1,0.2,0.2,0.2h6.1c0.2,0,0.5,0.1,0.6,0.3c0.2,0.2,0.3,0.4,0.3,0.6c0,0.2-0.1,0.5-0.3,0.6
			c-0.2,0.2-0.4,0.3-0.6,0.3h-6.1c-0.1,0-0.2,0.1-0.2,0.2v1.6c0,0.3-0.1,0.5-0.3,0.7c-0.4,0.4-1,0.4-1.4,0c-0.2-0.2-0.3-0.4-0.3-0.7
			v-1.6c0-0.2-0.1-0.2-0.2-0.2h-7.9c-0.1,0-0.2,0.1-0.2,0.2v1.6C195.7,104.4,195.5,104.7,195.4,104.9L195.4,104.9z M210.8,106.5
			c0.2,0,0.5,0.1,0.6,0.3c0.2,0.2,0.3,0.4,0.3,0.7c0,0.2-0.1,0.5-0.3,0.7c-0.2,0.2-0.4,0.3-0.6,0.3h-21.7c-0.5,0-0.9-0.4-0.9-0.9
			c0,0,0,0,0,0c0-0.2,0.1-0.5,0.3-0.7c0.2-0.2,0.4-0.3,0.6-0.3h9.5c0.1,0,0.2-0.1,0.2-0.2c0,0,0,0,0,0v-1.4c0-0.3,0.1-0.5,0.3-0.7
			c0.2-0.2,0.4-0.3,0.7-0.3c0.3,0,0.5,0.1,0.7,0.3c0.2,0.2,0.3,0.4,0.3,0.7v1.4c0,0.1,0.1,0.2,0.2,0.2c0,0,0,0,0.1,0H210.8z
			 M193.9,109.6c0.1-0.2,0.3-0.5,0.5-0.6c0.2-0.1,0.5-0.2,0.7-0.2c0.2,0.1,0.4,0.2,0.6,0.4c0.1,0.2,0.1,0.5,0.1,0.7
			c-0.2,0.4-0.4,0.8-0.5,1.2c-0.1,0.1-0.1,0.2,0.1,0.3c1,0.7,2,1.4,2.9,2.1c0.4,0.3,0.4,0.8,0.1,1.2c0,0,0,0-0.1,0.1
			c-0.2,0.2-0.4,0.3-0.6,0.3c-0.2,0-0.5-0.1-0.7-0.2c-0.8-0.7-1.7-1.3-2.5-1.9c-0.1-0.1-0.2-0.1-0.3,0.1c-1,1.3-2.2,2.5-3.6,3.4
			c-0.2,0.2-0.5,0.2-0.8,0.2c-0.3,0-0.5-0.2-0.7-0.4c-0.1-0.1-0.2-0.4-0.2-0.6c0-0.2,0.1-0.4,0.3-0.6
			C191.3,113.9,193,111.9,193.9,109.6L193.9,109.6z"/>
		<path class="st1" d="M233.1,100.5c0.2,0.2,0.3,0.4,0.3,0.7c0,0.5-0.4,1-0.9,1h-1c-0.2,0-0.2,0.1-0.2,0.2v22.4
			c0,0.3-0.1,0.5-0.3,0.7c-0.2,0.2-0.4,0.3-0.7,0.3c-0.3,0-0.5-0.1-0.7-0.3c-0.2-0.2-0.3-0.4-0.3-0.7v-4.4c0-0.2-0.1-0.2-0.2-0.2
			l-4.9,0.8l-4.6,0.7c-0.3,0-0.5,0-0.8-0.2c-0.2-0.2-0.4-0.4-0.4-0.7c0-0.1,0-0.1,0-0.2c0-0.2,0.1-0.4,0.2-0.6
			c0.2-0.2,0.4-0.4,0.6-0.4l1.8-0.2c0.1,0,0.2-0.1,0.2-0.2c0,0,0,0,0,0v-16.9c0-0.1-0.1-0.2-0.2-0.2h-1.2c-0.5,0-0.9-0.5-0.9-1
			c0-0.2,0.1-0.5,0.3-0.7c0.2-0.2,0.4-0.3,0.7-0.3h12.7C232.7,100.2,233,100.3,233.1,100.5z M229.1,106.3c0.2,0,0.2-0.1,0.2-0.2
			v-3.8c0-0.1-0.1-0.2-0.2-0.2h-5.7c-0.1,0-0.2,0.1-0.2,0.2v3.8c0,0.1,0.1,0.2,0.2,0.2c0,0,0,0,0.1,0H229.1z M229.1,112.6
			c0.2,0,0.2-0.1,0.2-0.2v-4c0-0.1-0.1-0.2-0.2-0.2h-5.7c-0.1,0-0.2,0.1-0.2,0.2c0,0,0,0,0,0v4c0,0.1,0.1,0.2,0.2,0.2c0,0,0,0,0,0
			H229.1z M223.4,114.4c-0.1,0-0.2,0.1-0.2,0.2c0,0,0,0,0,0v4.4c0,0.2,0.1,0.2,0.2,0.2c1.3-0.2,3.2-0.5,5.7-0.8
			c0.1,0,0.2-0.1,0.2-0.2c0,0,0,0,0,0v-3.4c0-0.1-0.1-0.2-0.2-0.2L223.4,114.4z M243.4,102.5c0.4,0,0.9,0,1.3,0.1
			c0.2,0,0.3,0.2,0.5,0.3c0.1,0.2,0.1,0.3,0.1,0.5c-0.6,5.1-2.2,10-4.8,14.4c-0.1,0.1-0.1,0.3,0,0.4c1.4,2,3.2,3.7,5.2,5
			c0.3,0.1,0.4,0.4,0.4,0.7c0,0.2-0.1,0.4-0.2,0.6c-0.2,0.2-0.4,0.4-0.7,0.4c-0.1,0-0.2,0-0.3,0c-0.2,0-0.4-0.1-0.6-0.2
			c-2-1.3-3.7-3-5.1-4.9c-0.1-0.1-0.2-0.1-0.3,0c-1.5,1.9-3.3,3.5-5.3,4.8c-0.2,0.2-0.5,0.2-0.8,0.1c-0.3-0.1-0.5-0.2-0.7-0.5
			c-0.1-0.1-0.2-0.3-0.2-0.5c0-0.3,0.1-0.6,0.4-0.7c2.1-1.3,4-3,5.4-5c0.1-0.1,0.1-0.3,0-0.4c-2-3.8-3.5-7.8-4.3-12
			c0-0.2,0-0.5,0.2-0.7c0.1-0.2,0.4-0.4,0.6-0.4c0.5-0.1,1,0.2,1.1,0.8c0.7,3.6,1.9,7.2,3.6,10.4c0,0,0.1,0.1,0.1,0.1
			c0,0,0.1,0,0.1-0.1c1.9-3.5,3.2-7.3,3.8-11.3c0-0.1,0-0.2-0.2-0.2h-9.2c-0.3,0-0.5-0.1-0.7-0.3c-0.4-0.4-0.4-1,0-1.4
			c0.2-0.2,0.4-0.3,0.7-0.3L243.4,102.5z"/>
		<path class="st1" d="M257.5,110.3c-0.1,0-0.2,0.1-0.2,0.2v0.3c0,0.1,0,0.3,0.1,0.4c0.9,1.3,2,2.8,3.2,4.7c0.2,0.2,0.3,0.5,0.2,0.8
			c0,0.3-0.1,0.6-0.3,0.8c-0.2,0.2-0.4,0.3-0.6,0.2c-0.2,0-0.4-0.2-0.5-0.4c-0.5-1-1.1-2.2-1.9-3.6c0,0-0.1,0-0.1,0c0,0,0,0,0,0.1
			V125c0,0.5-0.4,0.9-0.9,0.9c0,0,0,0,0,0c-0.5,0-0.9-0.4-0.9-0.9v-10.6l0,0c0,0,0,0-0.1,0c-0.7,2.3-1.7,4.5-2.9,6.6
			c-0.1,0.2-0.3,0.3-0.5,0.3c-0.2,0-0.4-0.1-0.6-0.4c-0.3-0.6-0.3-1.4,0.1-1.9c1.5-2.7,2.7-5.5,3.5-8.5c0-0.1,0-0.1,0-0.2
			c0-0.1-0.1-0.1-0.1-0.1h-2.8c-0.2,0-0.5-0.1-0.7-0.3c-0.2-0.2-0.3-0.4-0.3-0.7c0-0.2,0.1-0.5,0.3-0.7c0.2-0.2,0.4-0.3,0.7-0.3h3.1
			c0.1,0,0.2-0.1,0.2-0.2c0,0,0,0,0-0.1v-8.9c0-0.5,0.4-0.9,0.9-0.9c0,0,0,0,0,0c0.5,0,0.9,0.4,0.9,0.9c0,0,0,0,0,0v8.9
			c0,0.2,0.1,0.2,0.2,0.2h2.3c0.2,0,0.5,0.1,0.7,0.3c0.2,0.2,0.3,0.4,0.3,0.7c0,0.2-0.1,0.5-0.3,0.7c-0.2,0.2-0.4,0.3-0.7,0.3H257.5
			z M254.6,106.1c0,0.2,0,0.4-0.1,0.6c-0.1,0.2-0.3,0.3-0.5,0.3c-0.2,0.1-0.4,0-0.6-0.1c-0.2-0.1-0.3-0.3-0.3-0.5
			c-0.3-1.7-0.7-3.4-1.4-5.1c-0.1-0.2,0-0.4,0.1-0.5c0.1-0.2,0.2-0.3,0.4-0.3c0.2-0.1,0.4,0,0.6,0.1c0.2,0.1,0.3,0.2,0.4,0.4
			C253.8,102.7,254.3,104.4,254.6,106.1L254.6,106.1z M259.3,106.7c-0.1,0.2-0.2,0.3-0.4,0.4c-0.2,0.1-0.4,0.1-0.5,0
			c-0.2-0.1-0.3-0.2-0.4-0.3c0-0.1-0.1-0.2-0.1-0.3c0-0.1,0-0.2,0-0.2c0.6-1.7,1.2-3.4,1.6-5.2c0.1-0.2,0.2-0.4,0.4-0.5
			c0.2-0.1,0.4-0.1,0.6-0.1c0.2,0.1,0.4,0.2,0.5,0.4c0.1,0.2,0.1,0.4,0.1,0.7C260.5,103.6,259.9,105.4,259.3,106.7L259.3,106.7z
			 M271,107.9c0,0.2,0.1,0.2,0.2,0.2h6.6c0.2,0,0.4,0.1,0.6,0.2c0.2,0.1,0.2,0.3,0.2,0.6c0,0.2-0.1,0.4-0.2,0.6
			c-0.1,0.2-0.3,0.2-0.6,0.2h-15.2c-0.2,0-0.4-0.1-0.5-0.2c-0.1-0.2-0.2-0.4-0.2-0.6c0-0.4,0.3-0.8,0.7-0.8c0,0,0,0,0,0h6.2
			c0.1,0,0.2-0.1,0.2-0.2v-1.8c0-0.1-0.1-0.2-0.2-0.2c0,0,0,0,0,0h-4.7c-0.2,0-0.4-0.1-0.5-0.2c-0.1-0.1-0.2-0.3-0.2-0.5
			c0-0.2,0.1-0.4,0.2-0.5c0.1-0.1,0.3-0.2,0.5-0.2h4.7c0.1,0,0.2-0.1,0.2-0.2v-1.5c0-0.2-0.1-0.2-0.2-0.2h-5.4
			c-0.2,0-0.4-0.1-0.6-0.2c-0.1-0.1-0.2-0.3-0.2-0.6c0-0.4,0.4-0.8,0.8-0.8l0,0h5.4c0.1,0,0.2-0.1,0.2-0.2v-1.3
			c0-0.2,0.1-0.5,0.3-0.7c0.2-0.2,0.4-0.3,0.7-0.3c0.5,0,0.9,0.4,0.9,0.9c0,0,0,0,0,0v1.3c0,0.2,0.1,0.2,0.2,0.2h5.9
			c0.2,0,0.4,0.1,0.5,0.2c0.1,0.2,0.2,0.4,0.2,0.6c0,0.2-0.1,0.4-0.2,0.6c-0.1,0.1-0.3,0.2-0.5,0.2h-5.9c-0.1,0-0.2,0.1-0.2,0.2v1.5
			c0,0.2,0.1,0.2,0.2,0.2h5.3c0.2,0,0.4,0.1,0.5,0.2c0.1,0.1,0.2,0.3,0.2,0.5c0,0.2-0.1,0.4-0.2,0.5c-0.1,0.1-0.3,0.2-0.5,0.2h-5.3
			c-0.1,0-0.2,0.1-0.2,0.2c0,0,0,0,0,0L271,107.9z M274.9,111.6c1,0,1.7,0.8,1.7,1.7v10.4c0,0.4-0.1,0.8-0.2,1.2
			c-0.2,0.3-0.4,0.5-0.7,0.7c-1,0.3-1.9,0.4-2.9,0.3h-0.1c-0.2,0-0.5-0.1-0.7-0.2c-0.2-0.2-0.4-0.4-0.4-0.6
			c-0.1-0.2-0.1-0.4,0.1-0.5c0.1-0.2,0.3-0.3,0.5-0.2h1.1c0.5,0,0.9,0,1,0c0.1,0,0.3,0,0.4-0.1c0.1-0.1,0.1-0.2,0.1-0.3v-2.6
			c0-0.1-0.1-0.2-0.2-0.2h-8.6c-0.1,0-0.2,0.1-0.2,0.2v3.8c0,0.3-0.1,0.5-0.3,0.7c-0.4,0.4-1,0.4-1.3,0c-0.2-0.2-0.3-0.4-0.3-0.6
			v-11.6c0-0.5,0.2-0.9,0.5-1.2c0.3-0.3,0.8-0.5,1.2-0.5H274.9z M274.7,113.4c0-0.1-0.1-0.2-0.2-0.2h-8.6c-0.1,0-0.2,0.1-0.2,0.2
			c0,0,0,0,0,0v2c0,0.2,0.1,0.2,0.2,0.2h8.6c0.1,0,0.2-0.1,0.2-0.2c0,0,0,0,0-0.1V113.4z M265.7,119.2c0,0.2,0.1,0.2,0.2,0.2h8.6
			c0.1,0,0.2-0.1,0.2-0.2c0,0,0,0,0-0.1v-1.9c0-0.1-0.1-0.2-0.2-0.2h-8.6c-0.1,0-0.2,0.1-0.2,0.2V119.2z"/>
		<path class="st1" d="M310.5,110.8c0.3,0.3,0.3,0.9,0,1.2c-0.2,0.2-0.4,0.3-0.6,0.2h-4.4c-0.1,0-0.2,0.1-0.2,0.2c0,0,0,0,0,0.1v2.8
			c0,0.1,0.1,0.2,0.2,0.2c0,0,0,0,0.1,0h3c0.2,0,0.5,0.1,0.6,0.2c0.2,0.2,0.3,0.4,0.2,0.6c0,0.2-0.1,0.5-0.2,0.6
			c-0.2,0.2-0.4,0.3-0.6,0.2h-10.1c-0.1,0-0.2,0-0.2,0.1c0,0,0,0,0,0.1v2.4c0,0.1,0.1,0.2,0.2,0.2c0,0,0,0,0,0h11.2
			c0.2,0,0.5,0.1,0.6,0.3c0.2,0.2,0.3,0.4,0.2,0.6c0,0.2-0.1,0.5-0.2,0.6c-0.2,0.2-0.4,0.3-0.6,0.3h-11.2c-0.1,0-0.2,0-0.2,0.1
			c0,0,0,0,0,0.1v3c0,0.6-0.5,1-1.1,0.9c-0.2,0-0.5-0.1-0.6-0.3c-0.2-0.2-0.3-0.4-0.3-0.7v-3c0-0.1-0.1-0.2-0.2-0.2c0,0,0,0-0.1,0
			h-10.9c-0.2,0-0.5-0.1-0.6-0.3c-0.2-0.2-0.3-0.4-0.2-0.6c0-0.2,0.1-0.5,0.2-0.6c0.2-0.2,0.4-0.3,0.6-0.3H296
			c0.1,0,0.2-0.1,0.2-0.2c0,0,0,0,0,0v-2.4c0-0.1-0.1-0.2-0.2-0.2c0,0,0,0-0.1,0h-9.6c-0.2,0-0.4-0.1-0.6-0.2
			c-0.2-0.2-0.3-0.4-0.2-0.6c0-0.2,0.1-0.4,0.2-0.6c0.2-0.2,0.4-0.3,0.6-0.2h2.8c0.1,0,0.2-0.1,0.2-0.2c0,0,0,0,0-0.1v-2.8
			c0-0.1-0.1-0.2-0.2-0.2c0,0,0,0-0.1,0h-4.4c-0.2,0-0.5-0.1-0.6-0.2c-0.3-0.3-0.3-0.9,0-1.2c0.2-0.2,0.4-0.3,0.6-0.2h4.4
			c0.1,0,0.2-0.1,0.2-0.2c0,0,0,0,0-0.1v-2.7c0-0.1-0.1-0.2-0.2-0.2c0,0,0,0-0.1,0h-2.3c-0.2,0-0.5-0.1-0.6-0.2
			c-0.2-0.2-0.3-0.4-0.2-0.6c0-0.2,0.1-0.5,0.2-0.6c0.2-0.2,0.4-0.3,0.6-0.2H308c0.2,0,0.4,0.1,0.6,0.2c0.2,0.2,0.3,0.4,0.2,0.6
			c0,0.2-0.1,0.4-0.2,0.6c-0.2,0.2-0.4,0.3-0.6,0.2h-2.5c-0.1,0-0.2,0.1-0.2,0.2c0,0,0,0,0,0.1v2.7c0,0.1,0.1,0.2,0.2,0.2
			c0,0,0,0,0.1,0h4.4C310.1,110.5,310.4,110.6,310.5,110.8z M292.8,104.5c-0.2,0.2-0.4,0.3-0.7,0.3c-0.3,0-0.5-0.1-0.7-0.3
			c-0.2-0.2-0.3-0.4-0.3-0.7v-1.2c0-0.2-0.1-0.2-0.2-0.2h-5.8c-0.2,0-0.5-0.1-0.6-0.3c-0.2-0.2-0.3-0.4-0.3-0.6
			c0-0.2,0.1-0.5,0.3-0.6c0.2-0.2,0.4-0.3,0.6-0.3h5.8c0.1,0,0.2-0.1,0.2-0.2v-1c0-0.3,0.1-0.5,0.3-0.7c0.2-0.2,0.4-0.3,0.7-0.3
			c0.3,0,0.5,0.1,0.7,0.3c0.2,0.2,0.3,0.4,0.3,0.7v1c0,0.2,0.1,0.2,0.2,0.2h8c0.1,0,0.2-0.1,0.2-0.2v-1c0-0.3,0.1-0.5,0.3-0.7
			c0.4-0.4,1-0.4,1.4,0c0.2,0.2,0.3,0.4,0.3,0.7v1c0,0.2,0.1,0.2,0.2,0.2h6c0.2,0,0.5,0.1,0.6,0.3c0.2,0.2,0.3,0.4,0.3,0.6
			c0,0.2-0.1,0.5-0.3,0.6c-0.2,0.2-0.4,0.3-0.6,0.3h-6c-0.1,0-0.2,0.1-0.2,0.2v1.2c0,0.3-0.1,0.5-0.3,0.7c-0.4,0.4-1,0.4-1.4,0
			c-0.2-0.2-0.3-0.4-0.3-0.7v-1.2c0-0.2-0.1-0.2-0.2-0.2h-8c-0.1,0-0.2,0.1-0.2,0.2v1.2C293,104.1,292.9,104.3,292.8,104.5z
			 M291.5,107.4c-0.1,0-0.2,0.1-0.2,0.2c0,0,0,0,0,0.1v2.7c0,0.1,0.1,0.2,0.2,0.2c0,0,0,0,0.1,0h4.5c0.1,0,0.2-0.1,0.2-0.2v-2.7
			c0-0.2-0.1-0.2-0.2-0.2H291.5z M291.3,115.3c0,0.1,0.1,0.2,0.2,0.2c0,0,0,0,0.1,0h4.5c0.1,0,0.2-0.1,0.2-0.2v-2.8
			c0-0.2-0.1-0.2-0.2-0.2h-4.5c-0.1,0-0.2,0.1-0.2,0.2c0,0,0,0,0,0.1L291.3,115.3z M303.2,110.6c0.1,0,0.2-0.1,0.2-0.2
			c0,0,0,0,0-0.1v-2.7c0-0.1-0.1-0.2-0.2-0.2c0,0,0,0-0.1,0h-4.8c-0.1,0-0.2,0.1-0.2,0.2v2.7c0,0.2,0.1,0.2,0.2,0.2H303.2z
			 M303.2,115.6c0.1,0,0.2-0.1,0.2-0.2c0,0,0,0,0-0.1v-2.8c0-0.1-0.1-0.2-0.2-0.2c0,0,0,0-0.1,0h-4.8c-0.1,0-0.2,0.1-0.2,0.2v2.8
			c0,0.2,0.1,0.2,0.2,0.2L303.2,115.6z"/>
		<g style="clip-path:url(#SVGID_2_);">
			
				<image style="overflow:visible;" width="2830" height="5547" xlink:href="7F1182C13A786E11.png"  transform="matrix(0.24 0 0 0.24 -97.92 102.42)">
			</image>
		</g>
	</g>
</g>
</svg>
