<?xml version="1.0" encoding="utf-8"?>
<!-- Generator: Adobe Illustrator 24.2.3, SVG Export Plug-In . SVG Version: 6.00 Build 0)  -->
<svg version="1.1" id="圖層_1" xmlns="http://www.w3.org/2000/svg" xmlns:xlink="http://www.w3.org/1999/xlink" x="0px" y="0px"
	 viewBox="0 0 195 449.8" style="enable-background:new 0 0 195 449.8;" xml:space="preserve">
<style type="text/css">
	.st0{clip-path:url(#SVGID_2_);}
	.st1{fill:#18254C;}
	.st2{fill:none;stroke:#18254C;stroke-width:1.02;stroke-miterlimit:10;}
</style>
<g>
	<defs>
		<rect id="SVGID_1_" x="-0.1" y="-0.4" width="1920" height="1125.4"/>
	</defs>
	<clipPath id="SVGID_2_">
		<use xlink:href="#SVGID_1_"  style="overflow:visible;"/>
	</clipPath>
	<g class="st0">
		<g id="about">
			<path class="st1" d="M118.6,73.5c1.5,0,2.7,1.2,2.8,2.7c0,0,0,0.1,0,0.1v33.7c0,1.1-0.1,2.3-0.4,3.4c-0.3,0.8-0.8,1.5-1.6,1.9
				c-1.3,0.7-2.8,1-4.2,1H115c-0.7,0-1.4-0.2-1.9-0.7c-0.6-0.5-1-1.2-1.2-2c0-0.1-0.1-0.2-0.1-0.2c-0.1-0.2-0.1-0.4-0.1-0.6
				c0-0.4,0.1-0.8,0.4-1.1c0.3-0.5,0.9-0.8,1.5-0.8h0.2c0.6,0,1,0,1.3,0c0.2,0,0.5,0,0.6-0.2c0.1-0.2,0.2-0.4,0.2-0.7V89.4
				c0-0.2-0.1-0.4-0.3-0.4h-7.4l0,0c0.2,0.1,0.3,0.2,0.3,0.4c0.1,0.1,0,0.3-0.1,0.4c-1.2,1.4-2.2,2.6-3,3.5
				c-0.1,0.1-0.2,0.3-0.1,0.4c0,0,0,0,0.1,0.1l0.6,0.6c0.2,0.2,0.3,0.2,0.5,0c0.5-0.5,0.9-1,1.3-1.5c0.3-0.4,0.7-0.7,1.2-0.8
				c0.5-0.1,1-0.1,1.4,0.1c0.6,0.3,0.9,1,0.6,1.7c-0.1,0.1-0.1,0.2-0.2,0.3c-1.5,1.6-2.9,3-4.2,4.2c0,0,0,0.1,0,0.1
				c0,0.1,0.1,0.1,0.1,0.1c0,0,0,0,0,0l2.7-0.2c0.2,0,0.2-0.1,0.1-0.2c0-0.1-0.1-0.2-0.1-0.2c-0.2-0.3-0.2-0.7-0.1-1
				c0.1-0.3,0.4-0.6,0.7-0.7c0.4-0.1,0.9-0.1,1.3,0c0.4,0.1,0.8,0.4,1,0.8c0.6,0.9,1.1,2,1.4,3c0.2,0.4,0.1,0.8-0.1,1.2
				c-0.2,0.4-0.6,0.7-1,0.8l-0.3,0.1c-0.3,0.1-0.6,0.1-0.9-0.1c-0.3-0.2-0.5-0.4-0.6-0.7c0-0.1-0.1-0.2-0.2-0.2c0,0,0,0,0,0
				c-0.8,0.1-3.7,0.3-8.5,0.8c-0.3,0.1-0.6-0.2-0.7-0.5c0,0,0,0,0,0l0,0l-2.2,0.7l0,0c0.2,0,0.3,0.1,0.4,0.2
				c0.1,0.1,0.2,0.3,0.2,0.4v4c0,0.8-0.1,1.7-0.2,2.5c-0.1,0.8-0.4,1.6-0.7,2.3c-0.4,0.8-0.9,1.5-1.6,2.2c-0.8,0.7-1.7,1.3-2.7,1.7
				c-0.3,0.1-0.6,0.2-0.9,0.2c-0.2,0-0.5,0-0.7-0.1c-0.5-0.2-1-0.5-1.4-1c-0.3-0.3-0.4-0.8-0.3-1.2c0.1-0.4,0.4-0.8,0.8-0.9
				c1-0.4,2-1.1,2.7-1.9c0-0.1,0-0.1,0-0.2c0-0.1-0.1-0.1-0.2-0.1h-2.4c-1.5,0-2.7-1.2-2.8-2.8v-2.7c0-0.5,0.2-0.9,0.5-1.3
				c0.7-0.7,1.8-0.7,2.5,0c0.3,0.3,0.5,0.8,0.5,1.3v2c0,0.2,0.1,0.3,0.2,0.3c0,0,0.1,0,0.1,0h2.2c0.2,0,0.3-0.1,0.3-0.3
				c0,0,0-0.1,0-0.1v-2c0-0.7,0.3-1.3,0.8-1.8c0.5-0.5,1.1-0.7,1.8-0.7c0.1,0,0.1,0,0.2-0.1c0-0.1,0-0.2,0-0.2l-0.1-0.4
				c0-0.2-0.2-0.4-0.4-0.3c0,0,0,0,0,0c-2.5,0.3-5.2,0.5-8.1,0.7c-0.4,0-0.8-0.1-1.2-0.3c-0.3-0.2-0.5-0.6-0.6-1
				c-0.1-0.4,0-0.8,0.3-1.1c0.2-0.3,0.6-0.5,1-0.5h0.9c0.2,0,0.4-0.1,0.6-0.2c0.4-0.4,0.8-0.8,1.2-1.2c0.2-0.2,0.2-0.4,0-0.5
				c-0.8-0.9-1.7-1.8-2.7-2.5c-0.3-0.3-0.5-0.6-0.5-1c-0.1-0.4,0.1-0.8,0.3-1.1l0.1-0.1c0.2-0.3,0.5-0.5,0.8-0.5c0.4,0,0.7,0,1,0.3
				c0.1,0.1,0.1,0,0.2,0l1.6-2.5c0.1-0.1,0.1-0.2,0-0.2c0-0.1-0.1-0.1-0.2-0.1h-6.2c-0.2,0-0.3,0.1-0.3,0.4v24.3
				c0,0.7-0.3,1.4-0.8,1.9c-0.5,0.5-1.3,0.8-2,0.8c-1.5,0-2.7-1.2-2.7-2.7V76.2c0-1.5,1.2-2.7,2.7-2.8c0,0,0.1,0,0.1,0h13
				c1.5,0,2.7,1.2,2.8,2.7c0,0,0,0.1,0,0.1v10.1c0,1.5-1.2,2.7-2.6,2.7c0,0,0,0,0,0h-0.2l0,0c0.2,0.1,0.3,0.2,0.3,0.4
				c0.1,0.1,0,0.3-0.1,0.4l-3,3.5c-0.1,0.1-0.2,0.3-0.1,0.4c0,0,0,0,0.1,0.1l0.6,0.6c0.1,0.1,0.3,0.2,0.4,0.1c0,0,0,0,0.1-0.1
				c0.5-0.6,0.9-1.1,1.4-1.7c0.3-0.4,0.6-0.6,1.1-0.7c0.4-0.1,0.9-0.1,1.3,0.1c0.3,0.1,0.6,0.5,0.6,0.8c0.1,0.4,0,0.7-0.3,1
				c-1.6,1.7-2.9,3.1-4.1,4.2c0,0,0,0.1,0,0.2c0,0.1,0.1,0.1,0.1,0.1c0,0,0,0,0,0l2.2-0.1c0.1,0,0.2,0,0.1-0.1c-0.2-0.3-0.2-0.7,0-1
				c0.1-0.3,0.4-0.6,0.7-0.7l0,0c0.4-0.1,0.8-0.1,1.2,0c0.4,0.1,0.7,0.4,0.9,0.8c0.3,0.5,0.6,1.1,0.9,1.6l0,0l1.3-0.1
				c0.1,0,0.2,0,0.3-0.1c0.6-0.6,1.1-1,1.4-1.4c0.2-0.2,0.2-0.4,0-0.5c-0.9-1-1.8-1.9-2.7-2.8c-0.3-0.2-0.5-0.6-0.5-1
				c0-0.4,0.1-0.7,0.3-1l0.2-0.2c0.2-0.2,0.6-0.4,0.9-0.4c0.3,0,0.7,0.1,0.9,0.3c0,0.1,0.1,0.1,0.2,0c0,0,0,0,0,0
				c0.4-0.6,0.9-1.4,1.6-2.4c0,0,0-0.1,0-0.2c0-0.1-0.1-0.1-0.1-0.1c-0.5,0-1-0.2-1.4-0.6c-0.4-0.4-0.6-0.8-0.6-1.4V76.2
				c0-1.5,1.2-2.7,2.7-2.8c0,0,0.1,0,0.1,0H118.6z M94,77.7c0-0.2-0.1-0.3-0.2-0.3c0,0-0.1,0-0.1,0h-7c-0.2,0-0.3,0.1-0.3,0.2
				c0,0,0,0.1,0,0.1v1.5c0,0.2,0.1,0.4,0.3,0.4h7c0.2,0,0.3-0.1,0.3-0.4V77.7z M86.7,83c-0.2,0-0.3,0.1-0.3,0.4v1.5
				c0,0.2,0.1,0.3,0.3,0.3c0,0,0.1,0,0.1,0h7c0.2,0,0.3-0.1,0.3-0.2c0,0,0-0.1,0-0.1v-1.5c0-0.3-0.1-0.4-0.3-0.4H86.7z M112.4,107.5
				c0,1.5-1.3,2.7-2.8,2.8h-3.5c-0.2,0-0.4,0.1-0.4,0.3v3c0,0.5-0.2,1-0.6,1.4c-0.4,0.4-0.8,0.6-1.4,0.6c-0.5,0-1-0.2-1.4-0.6
				c-0.4-0.4-0.6-0.9-0.6-1.4v-9.5c0-0.5,0.2-1,0.6-1.4c0.4-0.4,0.9-0.6,1.4-0.6c1.1,0,1.9,0.8,1.9,1.9c0,0,0,0,0,0v2.6
				c0,0.2,0.1,0.3,0.4,0.3h2.2c0.2,0,0.4-0.1,0.4-0.3v-1.9c0-0.5,0.2-0.9,0.5-1.3c0.3-0.4,0.8-0.5,1.3-0.5c1,0,1.8,0.8,1.8,1.8
				L112.4,107.5z M115.9,77.7c0-0.2-0.1-0.3-0.2-0.3c0,0-0.1,0-0.1,0h-7.2c-0.2,0-0.4,0.1-0.4,0.3v1.5c0,0.2,0.1,0.3,0.3,0.4
				c0,0,0.1,0,0.1,0h7.2c0.2,0,0.3-0.1,0.3-0.4V77.7z M107.9,84.9c0,0.2,0.1,0.3,0.4,0.3h7.2c0.2,0,0.3-0.1,0.3-0.2c0,0,0-0.1,0-0.1
				v-1.5c0-0.3-0.1-0.4-0.3-0.4h-7.2c-0.2,0-0.4,0.1-0.4,0.4V84.9z"/>
			<path class="st1" d="M89,167.1c0,0.2,0.1,0.4,0.4,0.4h6c1.5,0,2.7,1.2,2.7,2.6c0,0,0,0,0,0c0,3.1-0.1,7.2-0.3,12.2
				c-0.1,2.7-0.2,4.9-0.5,6.6c-0.1,1.2-0.4,2.4-0.9,3.4c-0.8,1.1-1.9,1.8-3.2,2c-0.8,0.1-1.6,0.2-2.4,0.2l0,0
				c-0.7,0-1.4-0.3-1.9-0.8c-0.6-0.5-1-1.2-1.2-1.9c-0.1-0.2-0.1-0.4-0.1-0.6c0-0.4,0.1-0.8,0.4-1.1c0.3-0.5,0.8-0.8,1.4-0.8l0,0
				c0.3,0,0.6,0,0.9,0h0.1c0.5,0,1-0.3,1.2-0.8c0.6-0.9,1-6.1,1.2-15.8c0-0.2-0.1-0.3-0.3-0.4c0,0-0.1,0-0.1,0h-3.3
				c-0.2,0-0.3,0.1-0.4,0.4c-0.6,8.7-2.2,15.2-5.1,19.7c-0.3,0.5-0.9,0.9-1.6,0.8c-0.7,0-1.3-0.3-1.8-0.8c-0.1-0.1-0.1-0.2-0.2-0.3
				c-0.5-0.5-0.9-1.2-0.9-2c0-0.2,0-0.3,0-0.5c0-0.6,0.2-1.2,0.5-1.6c1.7-3.2,2.8-6.6,3.2-10.2c0.6-5.2,0.9-10.3,0.8-15.5
				c0-0.2-0.1-0.3-0.2-0.3c0,0-0.1,0-0.1,0h-1.7c-0.7,0-1.4-0.3-1.8-0.8c-1-1-1-2.7,0-3.8c0.5-0.5,1.2-0.8,1.8-0.8h4.5
				c0.2,0,0.4-0.1,0.4-0.3v-4.1c0-1.5,1.2-2.7,2.7-2.8c0,0,0,0,0.1,0h0.2c0.7,0,1.4,0.3,1.9,0.8c0.6,0.5,0.8,1.2,0.8,2v4.1
				c0,0.2,0.1,0.3,0.2,0.3c0,0,0.1,0,0.1,0h4.6c0.7,0,1.4,0.3,1.8,0.8c1,1,1,2.7,0,3.8c-0.5,0.5-1.2,0.8-1.8,0.8h-7.6
				c-0.2,0-0.4,0.1-0.4,0.3C89.1,164.5,89,166,89,167.1z M106.7,152.2c0.3-0.8,0.8-1.4,1.4-1.9c0.6-0.5,1.4-0.7,2.2-0.7l0,0
				c1.7,0,3.1,1,3.8,2.6c2.2,5.3,4.7,9.2,7.5,11.9c0.6,0.5,1,1.2,1.1,1.9c0.1,0.2,0.1,0.5,0.1,0.8c0,0.5-0.1,1-0.3,1.4
				c-0.1,0.3-0.2,0.6-0.4,0.9c-0.2,0.6-0.8,1.1-1.4,1.2c-0.2,0.1-0.3,0.1-0.5,0.1c-0.5,0-0.9-0.2-1.2-0.5c-1.9-1.8-3.5-3.9-4.8-6.1
				c-1.4-2.3-2.6-4.7-3.5-7.2c0,0,0-0.1-0.1-0.1c0,0,0,0,0,0c-0.1,0-0.1,0-0.1,0.1c-0.9,2.5-2.1,4.9-3.4,7.2
				c-1.3,2.3-2.9,4.3-4.8,6.2c-0.3,0.3-0.7,0.5-1.2,0.5c-0.2,0-0.3,0-0.5-0.1c-0.6-0.2-1.1-0.6-1.4-1.2c-0.1-0.2-0.2-0.3-0.2-0.5
				c-0.2-0.5-0.4-1-0.4-1.5c0-1,0.4-2,1.1-2.7C102.8,160.9,105.2,156.7,106.7,152.2z M103.4,185.7c-0.6-0.3-1.1-0.8-1.2-1.5
				c0-0.2,0-0.4,0-0.6c0-0.5,0.2-1,0.5-1.4l0,0c0.5-0.6,1.2-1.1,1.9-1.3c0.3-0.1,0.6-0.1,0.8-0.1c0.5,0,1,0.1,1.4,0.3
				c4.1,1.9,8,4.1,11.6,6.7c0.6,0.4,1,1.1,1.1,1.8v0.3c0,0.6-0.2,1.2-0.6,1.7l-0.4,0.6c-0.4,0.6-1.1,0.9-1.8,1h-0.3
				c-0.6,0-1.2-0.2-1.7-0.6C111.1,190,107.4,187.7,103.4,185.7z M115.3,172.9c0.5,0.5,0.9,1.2,0.8,1.9c0,0.8-0.3,1.5-0.9,2.1
				l-0.1,0.1c-0.5,0.4-1.1,0.7-1.7,0.7h-0.2c-0.7,0-1.4-0.4-1.9-0.9c-1.3-1.4-2.8-2.6-4.3-3.8c-1-0.7-1.2-2.1-0.5-3.1
				c0.1-0.1,0.1-0.2,0.2-0.3c0.5-0.5,1.2-0.8,2-0.9h0.3c0.6,0,1.3,0.2,1.8,0.6C112.5,170.4,113.9,171.6,115.3,172.9z"/>
			<path class="st1" d="M90.2,231.4c0.3-0.7,0.8-1.3,1.5-1.6c0.4-0.2,0.9-0.3,1.4-0.3c0.3,0,0.6,0,0.8,0.1l1.2,0.4
				c0.7,0.2,1.3,0.7,1.6,1.3c0.3,0.6,0.3,1.4,0,2c-2.5,5.5-5.9,10.6-10,15c-0.5,0.6-1.2,0.9-1.9,0.8l0,0c-0.7,0-1.4-0.2-2-0.7
				c-0.4-0.3-0.8-0.6-1.1-0.9c-1-0.7-1.2-2.1-0.5-3.1c0.1-0.1,0.2-0.2,0.3-0.3C85.1,240.5,88.1,236.2,90.2,231.4z M107.2,258
				c-0.3-0.4-0.4-0.8-0.4-1.3c0-0.2,0-0.4,0-0.6c0.1-0.7,0.6-1.2,1.3-1.5l0.6-0.3c0.5-0.2,1-0.3,1.5-0.3c0.3,0,0.5,0,0.8,0.1
				c0.8,0.2,1.5,0.6,1.9,1.3c2.9,3.8,5.6,7.8,8,12c0.2,0.4,0.4,0.8,0.4,1.3c0,0.3,0,0.5-0.1,0.8c-0.2,0.7-0.7,1.3-1.4,1.6l-1,0.6
				c-0.4,0.2-0.8,0.3-1.2,0.3c-0.3,0-0.6,0-0.8-0.1c-0.7-0.2-1.3-0.7-1.6-1.4c-0.2-0.3-0.4-0.7-0.6-1c-0.1-0.2-0.3-0.3-0.5-0.3
				c-11.3,0.8-20.9,1.3-29,1.7c0,0-0.1,0.1-0.2,0c-0.7,0-1.4-0.2-1.9-0.7c-0.6-0.5-0.9-1.2-1-1.9v-0.5c0-0.1,0-0.2,0-0.4
				c0-0.6,0.2-1.2,0.6-1.6c0.4-0.5,1.1-0.9,1.8-0.9l3.6-0.1c0.2,0,0.4-0.1,0.5-0.3c2.8-5.3,5.2-10.8,7.2-16.4
				c0.3-0.7,0.8-1.3,1.4-1.7c0.4-0.2,0.9-0.4,1.4-0.4c0.2,0,0.5,0,0.7,0.1l1.5,0.3c0.7,0.1,1.2,0.6,1.5,1.2c0.2,0.3,0.2,0.7,0.2,1
				c0,0.3-0.1,0.6-0.2,0.9c-2.4,5.3-4.8,10.2-7.3,14.7c0,0.1,0,0.2,0,0.2c0,0.1,0.1,0.1,0.2,0.1l15.7-0.8c0.1,0,0.2,0,0.2-0.1
				c0-0.1,0-0.1,0-0.2C109.6,261.5,108.4,259.7,107.2,258L107.2,258z M106.1,233.7c-0.2-0.4-0.3-0.8-0.3-1.2c0-0.3,0.1-0.6,0.2-0.8
				c0.2-0.7,0.7-1.2,1.3-1.5l0.6-0.2c0.4-0.2,0.8-0.2,1.2-0.2c0.3,0,0.7,0.1,1,0.2c0.7,0.2,1.3,0.7,1.7,1.4c2.6,4.4,5.8,8.4,9.3,12
				c0.5,0.5,0.8,1.1,0.8,1.8c0,0.8-0.3,1.5-0.8,2c-0.3,0.3-0.7,0.7-1,1c-0.5,0.5-1.1,0.8-1.8,0.8l0,0c-0.7,0-1.3-0.3-1.7-0.8
				C112.5,243.7,109.1,238.9,106.1,233.7L106.1,233.7z"/>
			<path class="st1" d="M117.6,308.7c0.7,0,1.4,0.3,1.9,0.8c0.5,0.5,0.8,1.2,0.8,2v31.9c0.1,1.3-0.1,2.7-0.6,3.9
				c-0.4,0.9-1.2,1.7-2.1,2.1c-1.3,0.7-3.5,1-6.5,1.1H111c-0.7,0-1.4-0.3-2-0.8c-0.6-0.5-1.1-1.2-1.3-2c-0.1-0.3-0.2-0.6-0.3-0.9
				c-0.1-0.2-0.1-0.4-0.1-0.6c0-0.4,0.1-0.8,0.4-1.1c0.3-0.5,0.9-0.8,1.4-0.8v0h1.8c0.8,0,1.6,0,2.2,0c0.3,0,0.7-0.1,0.9-0.2
				c0.2-0.2,0.3-0.5,0.3-0.8v-28.8c0-0.2-0.1-0.3-0.4-0.3H83.7c-0.7,0-1.4-0.3-1.9-0.8c-1.1-1.1-1.1-2.8,0-3.8
				c0.5-0.5,1.2-0.8,1.9-0.8L117.6,308.7z M107.1,317.6c1.4,0,2.5,1.1,2.5,2.5s-1.1,2.5-2.5,2.5H83.9c-1.4,0-2.5-1.1-2.5-2.5
				s1.1-2.5,2.5-2.5l0,0H107.1z M107.1,339.6c0,0.7-0.3,1.4-0.8,2c-0.5,0.6-1.2,0.8-2,0.8H89.8c-0.2,0-0.4,0.1-0.4,0.3v0.4
				c0,0.7-0.3,1.4-0.8,2c-0.5,0.5-1.2,0.8-2,0.8l0,0c-1.5,0-2.8-1.2-2.8-2.8v-14.2c0-0.8,0.3-1.5,0.8-2c0.5-0.5,1.3-0.8,2-0.8h17.8
				c1.5,0,2.7,1.2,2.8,2.7c0,0,0,0,0,0.1L107.1,339.6z M101.5,331.4c0-0.2-0.1-0.4-0.3-0.4H89.8c-0.2,0-0.3,0.1-0.4,0.3
				c0,0,0,0.1,0,0.1v5.7c0,0.2,0.1,0.3,0.4,0.3h11.4c0.2,0,0.3-0.1,0.3-0.2c0,0,0-0.1,0-0.1L101.5,331.4z"/>
			<path class="st2" d="M101.9-96.9L101.9-96.9c29,0,52.5,23.5,52.5,52.5v413c0,29-23.5,52.5-52.5,52.5l0,0
				c-29,0-52.5-23.5-52.5-52.5v-413C49.4-73.4,72.9-96.9,101.9-96.9z"/>
		</g>
	</g>
</g>
</svg>
