<?xml version="1.0" encoding="utf-8"?>
<!-- Generator: Adobe Illustrator 24.2.3, SVG Export Plug-In . SVG Version: 6.00 Build 0)  -->
<svg version="1.1" id="圖層_1" xmlns="http://www.w3.org/2000/svg" xmlns:xlink="http://www.w3.org/1999/xlink" x="0px" y="0px"
	 viewBox="0 0 195 449.8" style="enable-background:new 0 0 195 449.8;" xml:space="preserve">
<style type="text/css">
	.st0{clip-path:url(#SVGID_2_);fill:#18254C;}
	.st1{clip-path:url(#SVGID_2_);fill:none;stroke:#18254C;stroke-width:1.02;stroke-miterlimit:10;}
</style>
<g>
	<defs>
		<rect id="SVGID_1_" width="194" height="449"/>
	</defs>
	<clipPath id="SVGID_2_">
		<use xlink:href="#SVGID_1_"  style="overflow:visible;"/>
	</clipPath>
	<path class="st0" d="M96.1,73.8c0.9-1.4,2.5-2.3,4.3-2.3h0.3c1.7,0,3.4,0.8,4.4,2.2c2.3,2.9,4.8,5.6,7.7,8c2.7,2.3,5.7,4.3,8.9,6
		c0.6,0.3,1,0.8,1.1,1.4c0,0.2,0,0.3,0,0.5c0,0.5-0.2,0.9-0.5,1.3c-0.2,0.3-0.3,0.5-0.5,0.8c-0.4,0.6-1.1,1-1.8,1.2
		c-0.2,0.1-0.5,0.1-0.7,0.1c-0.5,0-1-0.2-1.4-0.4c-3.4-2.1-6.6-4.6-9.6-7.2c-2.7-2.4-5.2-5.1-7.4-8c0-0.1-0.1-0.1-0.2-0.1
		c-0.1,0-0.2,0.1-0.2,0.1c-2.1,2.9-4.4,5.6-7.1,8c-3,2.7-6.1,5.2-9.5,7.3c-0.4,0.2-1,0.4-1.5,0.4c-0.2,0-0.4,0-0.7,0
		c-0.7-0.2-1.4-0.7-1.8-1.3c-0.1-0.1-0.1-0.2-0.2-0.2c-0.3-0.4-0.5-0.9-0.5-1.4v-0.4c0.1-0.7,0.5-1.2,1.1-1.6
		c3.2-1.9,6.1-4.1,8.8-6.6C91.7,79.2,94,76.6,96.1,73.8z M104.6,100.4c-0.2,0-0.3,0.1-0.3,0.4v8.8c0,0.2,0.1,0.4,0.3,0.4h14.2
		c1.4,0,2.6,1.2,2.6,2.6c0,1.4-1.2,2.6-2.6,2.6c0,0,0,0,0,0H83.2c-1.4,0-2.6-1.2-2.6-2.6s1.2-2.6,2.6-2.6h2.3c0.2,0,0.3-0.1,0.3-0.4
		V96.1c0-0.8,0.3-1.5,0.8-2c0.5-0.5,1.3-0.8,2-0.8h0.1c1.5,0,2.7,1.2,2.8,2.7c0,0,0,0,0,0.1v13.5c0,0.2,0.1,0.3,0.3,0.4
		c0,0,0.1,0,0.1,0H98c0.2,0,0.3-0.1,0.4-0.3c0,0,0-0.1,0-0.1V87.8c0-0.7,0.3-1.5,0.8-2c0.5-0.5,1.2-0.8,2-0.8h0.5
		c1.5,0,2.7,1.3,2.8,2.8V95c0,0.2,0.1,0.4,0.3,0.4h10c0.7,0,1.3,0.3,1.8,0.7c0.5,0.5,0.7,1.1,0.7,1.8c0,0.7-0.2,1.3-0.7,1.8
		c-0.5,0.5-1.1,0.7-1.8,0.7L104.6,100.4z"/>
	<path class="st0" d="M121.7,179.6c0.9,0.9,0.9,2.4-0.1,3.4c-0.4,0.4-1,0.6-1.6,0.6h-11.2c0,0-0.1,0-0.1,0.1c0,0.1,0,0.1,0,0.1
		c1.8,1.1,3.7,1.9,5.7,2.7c2.1,0.8,4.3,1.4,6.5,1.9c0.5,0.1,1,0.5,1.2,1c0.1,0.2,0.1,0.4,0.1,0.6c0,0.4-0.1,0.7-0.4,1l-0.6,0.8
		c-0.5,0.7-1.1,1.2-1.9,1.5c-0.4,0.2-0.8,0.2-1.2,0.2c-0.3,0-0.7-0.1-1-0.1c-4.8-1.5-9.3-3.9-13.2-7.1c-0.1,0-0.1,0-0.2,0
		c-0.1,0-0.1,0.1-0.1,0.1v5.5c0,1.5-1.2,2.7-2.7,2.8c0,0-0.1,0-0.1,0l0,0c-1.5,0-2.7-1.2-2.8-2.7c0,0,0-0.1,0-0.1v-5.2
		c0-0.1,0-0.1-0.1-0.1s-0.1,0-0.2,0c-4,3-8.4,5.3-13.2,6.8c-0.3,0.1-0.7,0.2-1,0.2c-0.4,0-0.9-0.1-1.3-0.2c-0.8-0.3-1.4-0.8-1.9-1.5
		l-0.3-0.4c-0.2-0.3-0.4-0.6-0.4-1c0-0.2,0-0.4,0.1-0.6c0.1-0.6,0.6-1,1.2-1.1c4.3-1,8.4-2.6,12.2-4.8c0,0,0-0.1,0-0.1
		c0,0,0-0.1-0.1-0.1H82.2c-0.6,0-1.2-0.2-1.7-0.7c-0.9-0.9-0.9-2.4,0-3.3c0,0,0,0,0,0c0.4-0.5,1.1-0.7,1.7-0.7h15.6
		c0.2,0,0.4-0.1,0.4-0.3v-1.4c0-0.2-0.1-0.3-0.3-0.4c0,0-0.1,0-0.1,0H86.4c-0.6,0-1.1-0.2-1.5-0.6c-0.8-0.8-0.8-2.1,0-2.9
		c0.4-0.4,0.9-0.6,1.5-0.6h11.4c0.2,0,0.4-0.1,0.4-0.3v-1.5c0-0.2-0.1-0.3-0.3-0.4c0,0-0.1,0-0.1,0H84.1c-0.6,0-1.2-0.2-1.6-0.7
		c-0.9-0.9-0.9-2.2,0-3.1c0,0,0,0,0,0c0.4-0.4,1-0.7,1.6-0.7h6.6c0.1,0,0.1,0,0.2-0.1c0-0.1,0-0.1,0-0.2c-0.4-1-0.8-2-1.3-3
		c0-0.1,0-0.2,0-0.4c0-0.1,0.1-0.2,0.3-0.2h-7.6c-0.6,0-1.2-0.2-1.6-0.7c-0.9-0.9-0.9-2.3-0.1-3.2c0,0,0,0,0.1-0.1
		c0.4-0.4,1-0.7,1.6-0.7H86c0.1,0,0.2,0,0.2-0.1c0-0.1,0-0.1,0-0.2c-0.5-1.2-1-2.3-1.6-3.4c-0.2-0.3-0.3-0.6-0.3-1
		c0-0.3,0.1-0.6,0.2-0.8c0.2-0.6,0.7-1.1,1.3-1.3c0.4-0.1,0.7-0.2,1.1-0.2c0.4,0,0.8,0.1,1.1,0.2c0.7,0.2,1.3,0.7,1.6,1.4
		c0.5,0.8,0.9,1.6,1.4,2.5c0.1,0.3,0.2,0.6,0.2,0.9c0,0.3-0.1,0.5-0.2,0.8c-0.2,0.5-0.7,1-1.2,1.2c0,0,0,0,0,0.1h3.8
		c0.2,0,0.3-0.1,0.3-0.4v-4.8c0-0.7,0.3-1.4,0.8-1.9c0.5-0.5,1.2-0.8,1.9-0.8c1.5,0,2.7,1.2,2.7,2.6c0,0,0,0,0,0v4.8
		c0,0.2,0.1,0.3,0.3,0.4c0,0,0.1,0,0.1,0h2.8c0.2,0,0.4-0.1,0.4-0.3c0,0,0-0.1,0-0.1v-4.8c0-0.7,0.3-1.4,0.8-1.9
		c0.5-0.5,1.2-0.8,1.9-0.8c0.7,0,1.4,0.3,1.9,0.8c0.5,0.5,0.8,1.2,0.8,1.9v4.8c0,0.2,0.1,0.4,0.3,0.4h3.7c0,0,0,0,0-0.1
		c-0.4-0.1-0.7-0.4-0.8-0.8c-0.2-0.4-0.2-0.8,0-1.1c0.5-1,0.9-2,1.3-3c0.3-0.7,0.8-1.3,1.5-1.6c0.4-0.2,0.9-0.4,1.4-0.4
		c0.3,0,0.5,0,0.8,0.1l0.6,0.1c0.6,0.1,1.1,0.6,1.4,1.2c0.1,0.3,0.1,0.5,0.1,0.8c0,0.4-0.1,0.7-0.3,1c-0.9,1.4-1.6,2.6-2.1,3.4
		c-0.1,0.1-0.1,0.2,0,0.2c0.1,0.1,0.1,0.1,0.2,0.1h3.6c0.6,0,1.2,0.2,1.7,0.7c0.9,0.9,0.9,2.4,0,3.3c-0.4,0.4-1,0.7-1.7,0.7h-6.3
		c-0.2,0-0.4,0.1-0.6,0.3c-0.6,1.1-1.2,2.2-1.9,3.3c0,0.1,0,0.1,0,0.2c0,0.1,0.1,0.1,0.1,0.1h6.8c0.6,0,1.2,0.2,1.6,0.7
		c0.9,0.9,0.9,2.2,0,3.1c0,0,0,0,0,0c-0.4,0.4-1,0.7-1.6,0.7h-14c-0.2,0-0.3,0.1-0.4,0.3c0,0,0,0.1,0,0.1v1.5c0,0.2,0.1,0.3,0.4,0.3
		h12c1.1,0,2.1,0.9,2.1,2.1c0,0.6-0.2,1.1-0.6,1.5c-0.4,0.4-0.9,0.6-1.5,0.6h-12c-0.2,0-0.3,0.1-0.4,0.3c0,0,0,0.1,0,0.1v1.4
		c0,0.2,0.1,0.3,0.4,0.3h16C120.7,178.8,121.3,179.1,121.7,179.6z M106.7,162.5c0-0.1,0-0.2,0-0.2c-0.1-0.1-0.1-0.1-0.2-0.1H95.8
		c-0.1,0-0.2,0-0.2,0.1c0,0.1,0,0.2,0,0.2c0.5,0.9,0.9,1.8,1.2,2.7c0.1,0.2,0.1,0.4,0,0.5c-0.1,0.2-0.2,0.3-0.4,0.3l0,0h8.5
		c0.2,0,0.4-0.1,0.5-0.3C105.7,165,106.2,163.9,106.7,162.5L106.7,162.5z"/>
	<path class="st0" d="M101.8,252.9c0,0.7-0.3,1.4-0.8,1.9c-0.5,0.5-1.2,0.8-2,0.8h-1.9c-0.2,0-0.3,0.1-0.3,0.2c0,0,0,0.1,0,0.1v11.9
		c0,0.9-0.1,1.7-0.3,2.5c-0.2,0.6-0.7,1.1-1.3,1.4c-0.9,0.5-2,0.7-3,0.7H92c-0.6,0-1.1-0.2-1.6-0.6c-0.5-0.4-0.9-1-1.1-1.6
		c-0.2-0.5-0.1-1,0.2-1.4c0.3-0.4,0.7-0.7,1.2-0.6h0.8c0.2,0,0.4,0,0.5-0.1c0.1-0.1,0.2-0.3,0.1-0.5V256c0-0.2-0.1-0.3-0.4-0.3H90
		c-1.5,0-2.7-1.3-2.8-2.8V241c0-0.8,0.3-1.5,0.8-2c0.5-0.5,1.2-0.8,1.9-0.8h1.2c0.2,0,0.4-0.1,0.4-0.3c0,0,0,0,0,0
		c0-0.3,0.1-0.9,0.2-1.5s0.2-1.2,0.2-1.5s-0.1-0.3-0.3-0.3h-5.9c-0.2,0-0.3,0.1-0.4,0.3c0,0,0,0.1,0,0.1v13.3
		c0,9.4-0.8,16.5-2.5,21.5c-0.1,0.6-0.6,1-1.2,1.1c-0.2,0-0.3,0-0.5,0c-0.4,0-0.8-0.1-1.1-0.4c-0.6-0.4-1-1-1.3-1.6
		c-0.1-0.4-0.2-0.7-0.2-1.1c0-0.3,0-0.6,0.1-0.9c1.2-4,1.8-10.2,1.8-18.5v-15.7c0-1.5,1.2-2.7,2.7-2.8c0,0,0.1,0,0.1,0h15.9
		c0.6,0,1.3,0.2,1.7,0.7c0.5,0.5,0.7,1.1,0.7,1.7c0,0.6-0.2,1.3-0.7,1.7c-0.4,0.5-1.1,0.7-1.7,0.7h-1.5c-0.2,0-0.4,0.1-0.5,0.3
		c-0.3,1.2-0.7,2.2-0.9,3.1c0,0.1,0,0.1,0,0.2c0,0.1,0.1,0.1,0.2,0.1h2.5c1.5,0,2.7,1.2,2.8,2.7c0,0,0,0.1,0,0.1L101.8,252.9z
		 M87,259.8c0.2-1,1-1.7,2.1-1.8c0.1,0,0.3,0,0.4,0c0.6,0.1,1.1,0.5,1.4,0.9c0.2,0.3,0.3,0.7,0.3,1.1c0,0.2,0,0.3,0,0.5
		c-0.5,2.1-1.1,4.1-1.9,6c-0.2,0.5-0.6,0.9-1.2,1c-0.2,0.1-0.4,0.1-0.6,0.1c-0.4,0-0.7-0.1-1-0.3c-0.5-0.3-0.9-0.7-1.1-1.3
		c-0.1-0.2-0.1-0.5-0.1-0.7c0-0.3,0.1-0.6,0.2-0.9C86.2,263,86.7,261.4,87,259.8z M97,245.1c0.2,0,0.3-0.1,0.3-0.3c0,0,0,0,0-0.1
		v-2.2c0-0.2-0.1-0.3-0.2-0.3c0,0-0.1,0-0.1,0h-5c-0.2,0-0.4,0.1-0.4,0.3v2.2c0,0.2,0.1,0.3,0.4,0.3H97z M92,248.8
		c-0.2,0-0.3,0.1-0.4,0.3c0,0,0,0.1,0,0.1v2.2c0,0.2,0.1,0.3,0.3,0.4c0,0,0.1,0,0.1,0h5c0.2,0,0.3-0.1,0.3-0.4v-2.2
		c0-0.2-0.1-0.4-0.3-0.4H92z M103,263.1c0.1,0.2,0.1,0.4,0.1,0.6c0,0.3-0.1,0.7-0.2,0.9c-0.3,0.5-0.7,0.9-1.3,1.1
		c-0.2,0.1-0.4,0.1-0.7,0.1c-0.3,0-0.6-0.1-0.8-0.2c-0.5-0.2-0.9-0.7-1-1.2c-0.4-1.3-0.8-2.7-1.3-3.9c-0.1-0.2-0.1-0.4-0.1-0.6
		c0-0.3,0-0.5,0.1-0.8c0.2-0.5,0.6-0.8,1.1-1c0.5-0.1,1-0.1,1.5,0c0.5,0.2,0.8,0.6,1,1.1C102.2,260.6,102.6,261.9,103,263.1z
		 M105.7,265.3c0.5-0.5,1.2-0.9,2-0.9h0.4c0.6,0,1.2,0.2,1.7,0.5c0.6,0.3,0.9,0.9,1,1.5v0.3c0,0.5-0.2,1.1-0.7,1.4
		c-1.5,1.3-3.1,2.4-4.8,3.5c-0.5,0.2-1,0.4-1.5,0.4c-0.9,0-1.7-0.4-2.4-1c-0.3-0.3-0.5-0.8-0.5-1.2v-0.3c0.1-0.5,0.4-1,0.9-1.3
		C103.2,267.3,104.5,266.3,105.7,265.3L105.7,265.3z M103.8,240.6c0-0.8,0.3-1.5,0.8-2c0.5-0.5,1.2-0.8,1.9-0.8h2.6
		c0.2,0,0.4-0.1,0.4-0.4c0.1-0.8,0.2-1.7,0.3-2.7c0-0.2-0.1-0.3-0.3-0.3H105c-1.3,0-2.4-1.1-2.4-2.4c0-1.3,1.1-2.4,2.4-2.4h15.6
		c1.3,0,2.4,1.1,2.4,2.4c0,0.6-0.3,1.3-0.7,1.7c-0.4,0.5-1,0.7-1.7,0.7h-4.6c-0.2,0-0.4,0.1-0.5,0.3c-0.3,1.2-0.6,2.1-0.8,2.7
		c0,0.1,0,0.2,0,0.3c0,0.1,0.1,0.1,0.2,0.1h4.2c1.5,0,2.7,1.2,2.8,2.7c0,0,0,0.1,0,0.1v19.8c0,1.5-1.2,2.7-2.7,2.8c0,0-0.1,0-0.1,0
		h-12.5c-0.7,0-1.4-0.3-1.9-0.8c-0.5-0.5-0.8-1.2-0.8-2L103.8,240.6z M116.5,245.1c0.2,0,0.4-0.1,0.4-0.3v-2.4
		c0-0.2-0.1-0.3-0.4-0.3H109c-0.2,0-0.3,0.1-0.3,0.2c0,0,0,0.1,0,0.1v2.4c0,0.2,0.1,0.3,0.2,0.3c0,0,0.1,0,0.1,0H116.5z
		 M116.5,252.1c0.2,0,0.3-0.1,0.4-0.3c0,0,0-0.1,0-0.1v-2.4c0-0.2-0.1-0.3-0.3-0.4c0,0-0.1,0-0.1,0H109c-0.2,0-0.3,0.1-0.3,0.4v2.4
		c0,0.2,0.1,0.4,0.3,0.4H116.5z M116.5,259.1c0.2,0,0.4-0.1,0.4-0.3v-2.4c0-0.2-0.1-0.3-0.4-0.3H109c-0.2,0-0.3,0.1-0.3,0.2
		c0,0,0,0.1,0,0.1v2.4c0,0.2,0.1,0.3,0.2,0.3c0,0,0.1,0,0.1,0H116.5z M115.2,267.7c-0.8-0.8-0.7-2,0-2.7c0.1-0.1,0.2-0.2,0.3-0.2
		c0.5-0.3,1.1-0.5,1.7-0.5h0.2c0.7,0,1.4,0.3,1.9,0.8c1.2,1,2.2,1.9,3,2.7c0.4,0.4,0.6,0.9,0.6,1.5v0.3c-0.1,0.7-0.4,1.2-1,1.6
		c-0.5,0.3-1,0.5-1.5,0.5H120c-0.7-0.1-1.3-0.5-1.8-1C117.3,269.7,116.4,268.8,115.2,267.7L115.2,267.7z"/>
	<path class="st0" d="M119.8,323.7c0.6,0,1.2,0.2,1.6,0.6c0.4,0.4,0.7,1,0.7,1.6c0,1.2-1,2.2-2.2,2.2H81.9c-1.2,0-2.2-1-2.2-2.2
		c0-0.6,0.2-1.2,0.7-1.6c0.4-0.4,1-0.7,1.6-0.6h15.8c0.2,0,0.3-0.1,0.4-0.3c0,0,0-0.1,0-0.1v-1.2c0-0.2-0.1-0.3-0.4-0.3h-9.9
		c-1.5,0-2.7-1.3-2.7-2.8v-9c0-1.5,1.2-2.7,2.8-2.8h26.5c1.5,0,2.7,1.2,2.8,2.8v9c0,1.5-1.2,2.7-2.8,2.8h-10c-0.2,0-0.4,0.1-0.4,0.3
		v1.2c0,0.2,0.1,0.3,0.3,0.4c0,0,0.1,0,0.1,0L119.8,323.7z M87.7,342.3c0.9-0.6,1.9-0.9,3-0.9c0.6,0,1.3,0.1,1.9,0.4h0.1
		c0.5,0.2,0.9,0.7,1,1.3v0.3c0,0.5-0.2,0.9-0.7,1.2c-2.4,1.7-5,3.2-7.7,4.5c-0.5,0.2-1,0.4-1.6,0.4c-0.3,0-0.5,0-0.8-0.1
		c-0.8-0.2-1.5-0.6-2.1-1.1l-0.2-0.2c-0.3-0.3-0.5-0.7-0.5-1.1c0-0.1,0-0.2,0-0.4c0.1-0.5,0.5-1,1-1.2
		C83.4,344.5,85.6,343.5,87.7,342.3z M116.2,337.9c0,0.8-0.3,1.5-0.8,2c-0.5,0.5-1.3,0.8-2,0.8h-9.1c-0.2,0-0.3,0.1-0.4,0.3
		c0,0,0,0.1,0,0.1v4.8c0.1,1-0.1,1.9-0.5,2.8c-0.4,0.7-1.1,1.2-1.9,1.4c-1.8,0.5-3.6,0.7-5.4,0.6l0,0c-0.6,0-1.3-0.2-1.8-0.6
		c-0.5-0.4-0.9-1-1.2-1.6c-0.2-0.5-0.1-1,0.2-1.4c0.3-0.4,0.7-0.7,1.2-0.6c0.5,0,1,0,1.4,0c0.7,0,1.2,0,1.4,0c0.3,0,0.5-0.1,0.7-0.2
		c0.2-0.1,0.2-0.3,0.2-0.5V341c0-0.2-0.1-0.3-0.3-0.4c0,0-0.1,0-0.1,0h-9c-0.7,0-1.5-0.3-2-0.8c-0.5-0.5-0.8-1.3-0.8-2v-5.4
		c0-1.5,1.2-2.7,2.7-2.8c0,0,0.1,0,0.1,0h24.5c0.7,0,1.5,0.3,2,0.8c0.5,0.5,0.8,1.2,0.8,2L116.2,337.9z M90.8,310.8
		c-0.2,0-0.3,0.1-0.3,0.4v1.3c0,0.2,0.1,0.3,0.2,0.3c0,0,0.1,0,0.1,0h20.1c0.2,0,0.3-0.1,0.3-0.2c0,0,0-0.1,0-0.1v-1.3
		c0-0.2-0.1-0.4-0.3-0.4H90.8z M90.8,316.1c-0.2,0-0.3,0.1-0.3,0.2c0,0,0,0.1,0,0.1v1.4c0,0.2,0.1,0.4,0.3,0.4h20.1
		c0.2,0,0.3-0.1,0.3-0.4v-1.4c0-0.2-0.1-0.3-0.3-0.3c0,0-0.1,0-0.1,0H90.8z M92,333.7c-0.2,0-0.4,0.1-0.4,0.3v2.4
		c0,0.2,0.1,0.3,0.4,0.3h18.1c0.2,0,0.4-0.1,0.4-0.3V334c0-0.2-0.1-0.3-0.4-0.3L92,333.7z M108.4,344.8c-0.6-0.2-0.9-0.8-0.9-1.4
		c0-0.4,0.2-0.9,0.6-1.1c0.6-0.5,1.3-0.7,2-0.8c0.2,0,0.4,0,0.6,0c0.5,0,1.1,0.1,1.6,0.3c2.6,1.1,5.2,2.3,7.7,3.6
		c0.6,0.3,0.9,0.9,0.9,1.6c0,0.6-0.2,1.1-0.7,1.5c-0.6,0.5-1.3,0.8-2.1,0.8h-0.2c-0.7,0-1.4-0.2-2-0.6
		C113.3,347.2,110.9,345.9,108.4,344.8L108.4,344.8z"/>
	<path class="st1" d="M101.9-96.9L101.9-96.9c29,0,52.5,23.5,52.5,52.5v413c0,29-23.5,52.5-52.5,52.5l0,0c-29,0-52.5-23.5-52.5-52.5
		v-413C49.4-73.4,72.9-96.9,101.9-96.9z"/>
</g>
</svg>
