<?xml version="1.0" encoding="utf-8"?>
<!-- Generator: Adobe Illustrator 24.2.3, SVG Export Plug-In . SVG Version: 6.00 Build 0)  -->
<svg version="1.1" id="圖層_1" xmlns="http://www.w3.org/2000/svg" xmlns:xlink="http://www.w3.org/1999/xlink" x="0px" y="0px"
	 viewBox="0 0 1556.3 131.6" style="enable-background:new 0 0 1556.3 131.6;" xml:space="preserve">
<style type="text/css">
	.st0{fill:#18254C;}
</style>
<g>
	<g id="圖層_1_1_">
		<path class="st0" d="M603.1,39.3c0.4-0.1,0.9-0.1,1.3,0.1l0.8,0.3c0.4,0.2,0.7,0.4,0.8,0.8c0.2,0.3,0.2,0.8,0.1,1.1
			c-1.3,3.6-3.3,6.9-5.9,9.6c-0.2,0.1-0.2,0.3,0,0.4c2.1,1.4,4.4,2.6,6.8,3.3c0.4,0.1,0.8,0.5,0.9,0.9c0.1,0.5,0,0.9-0.2,1.3
			c-0.4,0.5-0.9,0.9-1.5,1.1c-0.3,0.1-0.6,0.2-0.9,0.2c-0.3,0-0.6-0.1-0.9-0.2c-2.6-1-5-2.3-7.2-4c-0.1-0.2-0.4-0.2-0.6,0
			c0,0,0,0,0,0c-1.9,1.4-3.9,2.6-6,3.5c-0.4,0.2-0.8,0.2-1.2,0.2c-0.3,0-0.7-0.1-1-0.2c-0.7-0.3-1.4-0.7-1.8-1.4
			c-0.2-0.2-0.4-0.5-0.6-0.7c0,0-0.1-0.1-0.1-0.1c0,0,0,0,0,0c-0.1,0-0.1,0.1-0.1,0.1v0.9c0,0.6-0.2,1.1-0.6,1.5
			c-0.4,0.4-0.9,0.6-1.5,0.6c-1.2,0-2.2-1-2.2-2.1c0,0,0,0,0,0v-1.8c0-0.2-0.1-0.3-0.3-0.3c-6.2,0.7-10.7,1.1-13.4,1.4
			c-0.1,0-0.2,0-0.2,0c-0.4,0-0.9-0.2-1.2-0.5c-0.5-0.4-0.7-0.9-0.7-1.5c0-0.4,0.1-0.9,0.4-1.2c0.3-0.4,0.8-0.6,1.4-0.7
			c0.2,0,0.4,0,0.6,0l0.8-0.1c0.2,0,0.4,0,0.7-0.1c0.2,0,0.3-0.2,0.3-0.3c0,0,0,0,0,0V37.1c0-0.2-0.1-0.3-0.3-0.3c0,0-0.1,0-0.1,0
			h-1.8c-1,0-1.8-0.8-1.8-1.8c0-0.5,0.2-1,0.5-1.3c0.3-0.3,0.8-0.5,1.3-0.5h38.4c0.5,0,0.9,0.2,1.3,0.5c0.7,0.7,0.7,1.9,0,2.6
			c-0.3,0.4-0.8,0.5-1.3,0.5h-20c-0.2,0-0.4,0.1-0.4,0.3v17.8c0,0.1,0,0.2,0.1,0.2c0.1,0,0.1,0,0.2,0c2.7-0.8,5.2-2.1,7.4-3.7
			c0.2-0.1,0.2-0.3,0.1-0.4c0,0,0,0,0,0c-1.4-1.7-2.6-3.5-3.6-5.4c-0.2-0.3-0.2-0.6-0.2-0.9c0-0.3,0.1-0.5,0.2-0.8
			c0.3-0.5,0.7-1,1.3-1.1v0H589c-0.5,0-0.9-0.2-1.2-0.5c-0.6-0.7-0.6-1.8,0.1-2.4c0.3-0.3,0.7-0.4,1.1-0.5H603.1z M599.8,16.6
			c0.7,0,1.4,0.3,1.9,0.8c0.5,0.5,0.8,1.2,0.8,2v8.8c0,1.5-1.2,2.7-2.8,2.8h-25.5c-1.5,0-2.7-1.2-2.8-2.8v-8.8c0-0.8,0.3-1.5,0.8-2
			c0.5-0.5,1.2-0.8,1.9-0.8H599.8z M581.5,37.1c0-0.2-0.1-0.3-0.3-0.3c0,0-0.1,0-0.1,0h-6.8c-0.2,0-0.4,0.1-0.4,0.3v2
			c0,0.2,0.1,0.3,0.4,0.3h6.8c0.2,0,0.3-0.1,0.3-0.2c0,0,0-0.1,0-0.1V37.1z M574.3,42.6c-0.2,0-0.4,0.1-0.4,0.3v2.2
			c0,0.2,0.1,0.3,0.4,0.3h6.8c0.2,0,0.3-0.1,0.3-0.2c0,0,0-0.1,0-0.1V43c0-0.2-0.1-0.3-0.2-0.3c0,0-0.1,0-0.1,0L574.3,42.6z
			 M574,51.4c0,0.2,0.1,0.3,0.4,0.3l6.8-0.7c0.2,0,0.4-0.2,0.3-0.4c0,0,0,0,0,0V49c0-0.2-0.1-0.3-0.2-0.3c0,0-0.1,0-0.1,0h-6.8
			c-0.2,0-0.4,0.1-0.4,0.3V51.4z M597.7,22.3c0.2,0,0.4-0.1,0.4-0.3v-2c0-0.2-0.1-0.3-0.3-0.4c0,0-0.1,0-0.1,0h-21.5
			c-0.2,0-0.3,0.1-0.4,0.3c0,0,0,0.1,0,0.1v2c0,0.2,0.1,0.3,0.4,0.3H597.7z M597.7,27.9c0.2,0,0.4-0.1,0.4-0.3v-2.1
			c0-0.2-0.1-0.3-0.4-0.3h-21.5c-0.2,0-0.4,0.1-0.4,0.3v2.1c0,0.2,0.1,0.3,0.4,0.3L597.7,27.9z M601,43c0-0.1,0-0.1,0-0.2
			c0-0.1-0.1-0.1-0.2-0.1H593c-0.1,0-0.1,0-0.2,0.1c0,0.1,0,0.2,0,0.2c0.9,2,2.2,3.8,3.7,5.4c0.2,0.2,0.3,0.2,0.5,0
			C598.6,46.9,599.9,45,601,43z"/>
		<path class="st0" d="M632.2,47.7c0.4,0.3,0.7,0.9,0.8,1.4c0,0.1,0,0.2,0,0.2c0,0.5-0.2,0.9-0.5,1.3c-0.3,0.4-0.8,0.7-1.3,0.7h-0.1
			c-0.5,0-1-0.2-1.3-0.6c-0.8-0.9-1.8-1.9-3-3c0,0-0.1,0-0.1,0c-0.1,0-0.1,0.1-0.1,0.1v8.8c0,1.2-1,2.1-2.2,2.1
			c-1.2,0-2.1-1-2.1-2.1v-8.7c0-0.1,0-0.1-0.1-0.1c-0.1,0-0.1,0-0.1,0c-1.6,2.3-3.3,4.4-5.3,6.4c-0.3,0.3-0.8,0.5-1.3,0.5h-0.2
			c-0.6-0.1-1.1-0.3-1.5-0.8c-0.3-0.4-0.5-0.8-0.5-1.3c0-0.6,0.3-1.1,0.7-1.5c2.9-2.4,5.3-5.3,7.2-8.5c0.1,0,0.1-0.1,0-0.2
			c0,0,0,0,0,0c0-0.1-0.1-0.1-0.2-0.1h-5.8c-0.5,0-0.9-0.1-1.3-0.5c-0.4-0.4-0.6-0.8-0.6-1.4c0-0.5,0.2-1,0.6-1.3
			c0.4-0.4,0.9-0.5,1.4-0.5h6.6c0.2,0,0.3-0.1,0.4-0.3c0,0,0-0.1,0-0.1v-3.7c0-0.2-0.1-0.3-0.4-0.3h-6.7c-1.1,0-1.9-0.8-1.9-1.9
			c0,0,0,0,0,0c0-0.5,0.2-1,0.6-1.3c0.4-0.4,0.9-0.6,1.4-0.5h2.7c0.2,0,0.4-0.1,0.3-0.4c-0.2-1.1-0.4-2.2-0.7-3.2
			c-0.1-0.3-0.1-0.5-0.1-0.8c0-0.4,0.1-0.8,0.3-1.2c0.3-0.6,0.9-1.1,1.5-1.3h0.2c0,0,0,0,0,0c0,0,0-0.1,0-0.1h-3.7
			c-1,0-1.8-0.9-1.8-1.9c0-1,0.8-1.8,1.8-1.8c0,0,0,0,0,0h6.2c0.2,0,0.4-0.1,0.4-0.3v-2.1c0-1.2,1-2.1,2.2-2.1c1.2,0,2.1,1,2.1,2.1
			v2.1c0,0.2,0.1,0.3,0.2,0.3c0,0,0.1,0,0.1,0h6.2c1,0,1.8,0.8,1.8,1.8c0,1-0.8,1.8-1.8,1.9h0h-3.6c0,0,0,0,0,0.1h0.3
			c0.7,0.2,1.3,0.7,1.6,1.3c0.2,0.3,0.3,0.7,0.3,1.1c0,0.3-0.1,0.6-0.2,0.9c-0.6,1.5-1.1,2.6-1.5,3.4c0,0.1,0,0.1,0,0.2
			c0,0.1,0.1,0.1,0.2,0.1h3.4c1,0,1.9,0.8,1.9,1.8c0,0,0,0,0,0.1c0,0.5-0.2,1-0.5,1.4c-0.3,0.4-0.8,0.6-1.3,0.6H627
			c-0.2,0-0.3,0.1-0.3,0.2c0,0,0,0.1,0,0.1v3.7c0,0.2,0.1,0.4,0.3,0.4h6.3c0.5,0,1,0.2,1.3,0.5c0.4,0.3,0.6,0.8,0.6,1.3
			c0,0.5-0.2,1-0.6,1.4c-0.3,0.4-0.8,0.6-1.3,0.6H627c-0.2,0-0.3,0.1-0.3,0.2c0,0,0,0.1,0,0.1V43c0,0.2,0.1,0.4,0.3,0.5
			C628,44.3,629.8,45.7,632.2,47.7z M628.5,23.9c0-0.1,0-0.1,0-0.2c-0.1-0.1-0.1-0.1-0.2-0.1h-7.8c-0.1,0-0.2,0-0.2,0.1
			c0,0.1,0,0.1,0,0.2c0.5,1.1,0.9,2.3,1.3,3.5c0.1,0.2,0.1,0.4,0.1,0.7c0,0.5-0.2,0.9-0.4,1.3c-0.4,0.6-1,1.1-1.6,1.2c0,0,0,0,0,0.1
			h9.9c0,0,0,0,0,0s0,0,0,0l-0.3,0c-0.7-0.1-1.2-0.6-1.5-1.2c-0.2-0.4-0.3-0.8-0.3-1.2c0-0.3,0-0.6,0.1-0.8
			C627.8,26.1,628.2,25,628.5,23.9z M654.8,30.9c1.1,0,2.1,0.9,2.1,2.1c0,1.1-0.9,2-2.1,2h-2.6c-0.2,0-0.4,0.1-0.4,0.3v21.3
			c0,0.6-0.2,1.1-0.6,1.5c-0.4,0.4-1,0.6-1.5,0.6c-1.2,0-2.2-0.9-2.2-2.1c0,0,0,0,0,0V35.4c0-0.2-0.1-0.3-0.3-0.3c0,0,0,0-0.1,0
			h-5.5c-0.2,0-0.4,0.1-0.4,0.3v0.1c0,9.7-2,17.1-6,22.1c-0.3,0.4-0.8,0.6-1.3,0.6h-0.1c-0.6,0-1.1-0.3-1.5-0.7
			c-0.4-0.4-0.7-0.9-0.7-1.5c0-0.1,0-0.2,0-0.2c0-0.5,0.2-0.9,0.5-1.3c2.1-2.8,3.6-6,4.1-9.5c0.3-1.7,0.5-3.3,0.6-4.7s0.2-3,0.2-4.8
			V21.6c0-1.1,0.9-2,2-2.1c0.2,0,0.4,0,0.6,0.1c0.2,0.1,0.5,0.1,0.7,0c3.5-0.8,6.9-1.8,10.2-3c0.5-0.2,1-0.3,1.5-0.3
			c0.2,0,0.4,0,0.6,0c0.7,0.1,1.3,0.4,1.9,0.8c0.3,0.3,0.5,0.7,0.5,1.1v0.3c-0.1,0.5-0.4,1-0.9,1.1c-4,1.5-8.2,2.6-12.4,3.4
			c-0.2,0.1-0.4,0.2-0.4,0.4v7.1c0,0.2,0.1,0.4,0.3,0.4c0,0,0.1,0,0.1,0L654.8,30.9z"/>
		<path class="st0" d="M670.2,32.2c0.5,0.3,0.8,0.9,0.8,1.5v0.2c0,0.5-0.2,1-0.5,1.4c-0.3,0.5-0.9,0.7-1.5,0.8c-0.1,0-0.1,0-0.2,0
			c-0.5,0-1-0.2-1.4-0.5c-1.6-1.2-3.3-2.3-5-3.3c-0.4-0.2-0.8-0.7-0.8-1.2c0-0.1,0-0.2,0-0.4c0-0.4,0.1-0.7,0.4-1
			c0.4-0.5,0.9-0.8,1.5-0.9c0.2,0,0.3,0,0.5,0c0.4,0,0.8,0.1,1.1,0.3C666.9,30,668.6,31,670.2,32.2z M667.2,56.5
			c-0.3,0.5-0.8,0.9-1.4,1.1c-0.2,0-0.3,0-0.5,0c-0.4,0-0.9-0.1-1.2-0.4c-0.5-0.4-0.9-1-1-1.6c0-0.2,0-0.3,0-0.5
			c0-0.5,0.1-1,0.4-1.4c2-3.5,4-7.3,6-11.3c0.2-0.5,0.6-0.8,1.1-0.9c0.5-0.1,1,0,1.4,0.3c0.5,0.4,0.8,0.9,0.9,1.5c0,0.2,0,0.4,0,0.7
			c0,0.4-0.1,0.8-0.2,1.2C670.9,49.1,669.1,52.9,667.2,56.5z M664.7,19.7c-0.4-0.2-0.8-0.7-0.8-1.2v-0.3c0-0.4,0.1-0.7,0.4-1
			c0.4-0.4,0.9-0.7,1.5-0.8c0.2-0.1,0.3-0.1,0.5-0.1c0.4,0,0.8,0.1,1.2,0.3c1.7,0.9,3.3,1.9,4.8,3c0.6,0.4,0.9,1,0.8,1.7
			c0,0.5-0.2,1-0.5,1.5c-0.4,0.4-0.9,0.7-1.5,0.8h-0.2c-0.5,0-1-0.2-1.4-0.5C668,21.8,666.4,20.6,664.7,19.7L664.7,19.7z
			 M683.3,23.2c0.2,0.3,0.2,0.6,0.2,0.9c0,0.3,0,0.5-0.1,0.8c-0.2,0.6-0.7,1-1.2,1.3c-0.3,0.1-0.6,0.2-0.9,0.2
			c-0.3,0-0.5-0.1-0.8-0.1c-0.5-0.2-1-0.6-1.2-1.2c-0.7-1.8-1.6-3.5-2.7-5.1c-0.2-0.3-0.3-0.6-0.3-0.9c0-0.2,0-0.3,0-0.5
			c0.1-0.5,0.5-0.9,1-1.1c0.3-0.1,0.7-0.2,1-0.2c0.2,0,0.4,0,0.7,0.1c0.6,0.1,1.1,0.5,1.4,1C681.6,19.9,682.5,21.5,683.3,23.2z
			 M699.2,28.5c0.7,0,1.5,0.3,2,0.8c0.5,0.5,0.8,1.2,0.8,2v22.6c0,0.9-0.1,1.9-0.5,2.8c-0.3,0.7-0.9,1.2-1.6,1.5
			c-1.7,0.6-3.6,0.9-5.4,0.8l0,0c-0.6,0-1.2-0.2-1.6-0.6c-0.5-0.4-0.9-0.9-1.1-1.5c-0.2-0.5-0.1-1,0.2-1.4c0.3-0.4,0.7-0.6,1.2-0.6
			h3.5c0.3,0,0.5-0.1,0.8-0.2c0.1-0.2,0.2-0.5,0.2-0.7v-4.3c0-0.2-0.1-0.3-0.2-0.3c0,0-0.1,0-0.1,0h-15.6c-0.2,0-0.4,0.1-0.4,0.3
			v7.4c0,0.6-0.2,1.2-0.6,1.6c-0.4,0.4-1,0.6-1.5,0.6c-0.6,0-1.1-0.2-1.5-0.6c-0.4-0.4-0.6-1-0.6-1.6V31.3c0-0.8,0.3-1.5,0.8-2
			c0.5-0.5,1.3-0.8,2-0.8h7.2c0.2,0,0.3-0.1,0.3-0.4V17.3c0-1.2,1-2.2,2.2-2.2c0,0,0,0,0,0c0.6,0,1.2,0.2,1.6,0.6
			c0.4,0.4,0.7,1,0.7,1.6v10.8c0,0.2,0.1,0.4,0.3,0.4H699.2z M697.5,33c0-0.2-0.1-0.3-0.2-0.3c0,0-0.1,0-0.1,0h-15.5
			c-0.2,0-0.4,0.1-0.4,0.3v3.7c0,0.2,0.1,0.3,0.3,0.4c0,0,0.1,0,0.1,0h15.5c0.2,0,0.3-0.1,0.3-0.4V33z M681.3,45
			c0,0.2,0.1,0.3,0.4,0.3h15.5c0.2,0,0.3-0.1,0.3-0.2c0,0,0-0.1,0-0.1v-3.8c0-0.2-0.1-0.3-0.3-0.3c0,0-0.1,0-0.1,0h-15.5
			c-0.2,0-0.4,0.1-0.4,0.3V45z M698.7,18.4c0.2-0.6,0.7-1,1.3-1.2c0.3-0.1,0.6-0.2,0.9-0.2c0.3,0,0.6,0,0.8,0.1
			c0.5,0.2,1,0.6,1.2,1.2c0.1,0.2,0.2,0.5,0.2,0.8c0,0.3-0.1,0.7-0.3,0.9c-1,2-2,3.7-3,5.2c-0.3,0.5-0.8,0.8-1.3,1
			c-0.3,0.1-0.5,0.1-0.8,0.1c-0.3,0-0.6-0.1-0.9-0.2c-0.5-0.2-0.8-0.5-1-1c-0.1-0.2-0.1-0.4-0.1-0.6c0-0.3,0.1-0.6,0.2-0.9
			C697,21.8,697.9,20.1,698.7,18.4L698.7,18.4z"/>
		<path class="st0" d="M713.7,55.8c-0.4,0.5-1,0.8-1.6,0.8h-0.3c-0.6,0-1.1-0.2-1.5-0.5c-0.5-0.3-0.8-0.9-0.8-1.5
			c0-0.5,0.2-1,0.5-1.4c1.5-1.8,2.7-3.8,3.5-6c0.2-0.5,0.6-0.9,1.1-1.2c0.3-0.1,0.6-0.2,0.9-0.2c0.2,0,0.5,0,0.7,0.1
			c0.5,0.2,1,0.6,1.2,1.1c0.1,0.3,0.2,0.6,0.2,0.9c0,0.2,0,0.5-0.1,0.7C716.6,51.3,715.3,53.7,713.7,55.8z M743.1,18.8
			c0.7,0,1.5,0.3,2,0.8c0.5,0.5,0.8,1.2,0.8,2v17.7c0,0.8-0.3,1.5-0.8,2c-0.5,0.5-1.3,0.8-2,0.8H719c-1.5,0-2.7-1.2-2.8-2.7
			c0,0,0,0,0-0.1V21.6c0-1.5,1.2-2.7,2.7-2.8c0,0,0,0,0.1,0h7.9c0.2,0,0.4-0.1,0.5-0.3c0.2-0.5,0.3-0.9,0.5-1.4
			c0.2-0.7,0.7-1.3,1.3-1.7c0.5-0.3,1-0.5,1.6-0.5h0.5c0.6,0.1,1.1,0.5,1.5,1c0.1,0.3,0.2,0.6,0.2,0.9c0,0.3-0.1,0.6-0.2,0.9
			c-0.2,0.2-0.3,0.5-0.5,0.8c0,0.1,0,0.1,0,0.2c0,0.1,0.1,0.1,0.2,0.1L743.1,18.8z M741,25.6c0.2,0,0.3-0.1,0.3-0.2c0,0,0-0.1,0-0.1
			v-2.6c0-0.2-0.1-0.4-0.3-0.4h-20.2c-0.2,0-0.3,0.1-0.3,0.4v2.6c0,0.2,0.1,0.3,0.2,0.3c0,0,0.1,0,0.1,0H741z M741,32.1
			c0.2,0,0.3-0.1,0.3-0.2c0,0,0-0.1,0-0.1v-2.6c0-0.2-0.1-0.3-0.2-0.3c0,0-0.1,0-0.1,0h-20.2c-0.2,0-0.3,0.1-0.3,0.2
			c0,0,0,0.1,0,0.1v2.6c0,0.2,0.1,0.3,0.2,0.3c0,0,0.1,0,0.1,0H741z M741,38.7c0.2,0,0.3-0.1,0.3-0.4v-2.6c0-0.2-0.1-0.4-0.3-0.4
			h-20.2c-0.2,0-0.3,0.1-0.3,0.4v2.6c0,0.2,0.1,0.4,0.3,0.4L741,38.7z M728.2,54.8h7.8c0.6,0.1,1.1-0.1,1.6-0.4
			c0.4-0.5,0.6-1.1,0.7-1.8c0-0.5,0.3-0.9,0.8-1.1c0.4-0.2,0.9-0.3,1.4-0.1c0.6,0.2,1.1,0.6,1.5,1.1c0.2,0.4,0.4,0.8,0.4,1.2
			c0,0.1,0,0.3,0,0.4c-0.1,1.4-0.8,2.7-1.8,3.7c-1.2,0.8-2.6,1.1-4,1h-8.7c-2.7,0-4.5-0.4-5.5-1.1c-0.9-0.8-1.4-2.2-1.4-4.3v-5.3
			c0-0.6,0.2-1.1,0.6-1.5c0.8-0.9,2.2-0.9,3.1,0c0,0,0,0,0,0c0.4,0.4,0.6,1,0.6,1.5v5.2c0,0.7,0.2,1.1,0.5,1.2
			C726.6,54.8,727.4,54.9,728.2,54.8z M727.5,45.7c-0.6-0.5-0.7-1.4-0.2-2.1c0.1-0.1,0.2-0.2,0.3-0.3c0.5-0.3,1-0.5,1.5-0.5h0.1
			c0.6,0,1.1,0.2,1.6,0.6c1.5,1.2,2.9,2.5,4.2,3.9c0.3,0.3,0.5,0.7,0.5,1.2c0,0.1,0,0.2,0,0.4c-0.1,0.6-0.4,1.1-0.9,1.4
			c-0.3,0.2-0.7,0.4-1.2,0.4c-0.1,0-0.3,0-0.4,0c-0.6-0.1-1.1-0.4-1.5-0.8C730.4,48.3,729,47,727.5,45.7L727.5,45.7z M742.6,48.5
			c-0.3-0.3-0.5-0.7-0.5-1.2c0-0.6,0.3-1.1,0.8-1.4c0.4-0.3,1-0.5,1.5-0.5c0.1,0,0.2,0,0.2,0c0.6,0,1.2,0.3,1.6,0.7
			c2.2,2.1,4.2,4.3,5.9,6.8c0.2,0.4,0.4,0.8,0.4,1.2c0,0.2,0,0.4-0.1,0.6c-0.2,0.6-0.5,1.2-1.1,1.5c-0.3,0.2-0.7,0.3-1.1,0.3
			c-0.2,0-0.4,0-0.6,0c-0.6-0.2-1-0.5-1.3-1C746.6,53.1,744.7,50.7,742.6,48.5L742.6,48.5z"/>
		<path class="st0" d="M799.6,22.5c0.8,0.8,0.8,2.2,0,3c-0.4,0.4-0.9,0.7-1.5,0.6h-4.6c-0.2,0-0.4,0.1-0.5,0.3
			c-2.3,6.7-5.9,12.8-10.7,18c-0.2,0.2-0.1,0.3,0,0.5c4.7,3.7,10.1,6.4,15.9,8c0.6,0.1,1,0.6,1.1,1.1c0.1,0.2,0.1,0.4,0.1,0.6
			c0,0.4-0.1,0.8-0.3,1.1c-0.5,0.6-1.1,1.1-1.8,1.5c-0.4,0.1-0.8,0.2-1.3,0.2c-0.3,0-0.7,0-1-0.1c-6-1.8-11.6-4.8-16.5-8.9
			c-0.2-0.2-0.4-0.2-0.6,0c-4.9,3.9-10.4,6.9-16.3,8.9c-0.3,0.1-0.7,0.2-1,0.2c-0.4,0-0.7-0.1-1.1-0.2c-0.7-0.3-1.2-0.7-1.6-1.3
			c-0.2-0.3-0.3-0.6-0.3-1c0-0.2,0-0.4,0.1-0.7c0.2-0.6,0.6-1,1.2-1.2c5.7-1.7,11-4.4,15.6-8c0.1-0.1,0.2-0.3,0.1-0.4
			c0,0,0,0-0.1-0.1c-4.6-5.3-8.1-11.4-10.4-18c-0.1-0.2-0.3-0.3-0.5-0.3h-4.5c-1.2,0-2.1-1-2.1-2.2c0-1.2,1-2.1,2.2-2.1l0,0H776
			c0.2,0,0.3-0.1,0.3-0.4v-5.2c0-0.6,0.2-1.2,0.7-1.6c0.4-0.4,1-0.7,1.6-0.7c0.6,0,1.2,0.2,1.6,0.7c0.4,0.4,0.7,1,0.7,1.6v5.2
			c0,0.2,0.1,0.3,0.3,0.4c0,0,0.1,0,0.1,0h16.9C798.7,21.9,799.2,22.1,799.6,22.5z M787.8,26.5c0-0.1,0-0.1,0-0.2
			c0-0.1-0.1-0.1-0.2-0.1h-18.3c-0.1,0-0.1,0-0.2,0.1c0,0.1,0,0.2,0,0.2c2,5.5,5.1,10.5,9.2,14.8c0.1,0.1,0.3,0.2,0.4,0c0,0,0,0,0,0
			C782.8,37,785.8,32,787.8,26.5z"/>
		<path class="st0" d="M846.1,50c0.5,0,1,0.2,1.3,0.5c0.7,0.7,0.7,1.9,0,2.6c-0.3,0.4-0.8,0.6-1.3,0.5h-17c-0.2,0-0.3,0.1-0.4,0.3
			c0,0,0,0.1,0,0.1v2.6c0,0.6-0.2,1.2-0.7,1.6c-0.9,0.9-2.4,0.9-3.3,0c0,0,0,0,0,0c-0.4-0.4-0.7-1-0.7-1.6V54c0-0.2-0.1-0.3-0.3-0.4
			c0,0-0.1,0-0.1,0h-16.8c-1,0-1.8-0.8-1.8-1.9c0-1,0.8-1.8,1.8-1.8h16.8c0.2,0,0.4-0.1,0.4-0.3v-2c0-0.2-0.1-0.4-0.3-0.4
			c0,0-0.1,0-0.1,0h-10.6c-0.8,0-1.5-0.3-2-0.8c-0.5-0.5-0.8-1.3-0.8-2v-9.2c0-1.5,1.2-2.7,2.7-2.8c0,0,0,0,0.1,0h27
			c1.5,0,2.7,1.2,2.8,2.7c0,0,0,0,0,0.1v9.3c0,0.7-0.3,1.5-0.8,2c-0.5,0.5-1.2,0.8-2,0.8h-10.8c-0.2,0-0.3,0.1-0.4,0.3
			c0,0,0,0.1,0,0.1v2c0,0.2,0.1,0.3,0.4,0.3L846.1,50z M846.1,26.6c0.5,0,0.9,0.2,1.3,0.5c0.7,0.7,0.7,1.8,0,2.5c0,0,0,0,0,0
			c-0.3,0.3-0.8,0.5-1.3,0.5h-39.2c-0.5,0-0.9-0.2-1.3-0.5c-0.7-0.7-0.7-1.8,0-2.5c0,0,0,0,0,0c0.3-0.3,0.8-0.5,1.3-0.5h9.6
			c0.1,0,0.1,0,0.2-0.1c0-0.1,0-0.1,0-0.2c-0.4-1.1-0.9-2.1-1.5-3.1c-0.1-0.2-0.1-0.4,0-0.6c0.1-0.2,0.2-0.3,0.5-0.4l0,0H810
			c-1,0-1.8-0.8-1.8-1.8s0.8-1.8,1.8-1.8c0,0,0,0,0,0h13.7c0.2,0,0.3-0.1,0.4-0.3c0,0,0-0.1,0-0.1v-0.8c0-0.6,0.2-1.2,0.7-1.7
			c0.4-0.4,1-0.7,1.6-0.7c0.6,0,1.2,0.2,1.6,0.7c0.4,0.4,0.7,1,0.7,1.7v0.8c0,0.2,0.1,0.3,0.3,0.4c0,0,0.1,0,0.1,0h14.1
			c1,0,1.8,0.8,1.8,1.8s-0.8,1.8-1.8,1.8c0,0,0,0,0,0h-5l0,0c0.1,0,0.2,0.1,0.2,0.2c0,0.1,0,0.2,0,0.3c-1.2,2.1-1.9,3.3-2.1,3.6
			c-0.1,0.1-0.1,0.2,0,0.2c0,0.1,0.1,0.1,0.2,0.1H846.1z M815,35.5c-0.2,0-0.4,0.1-0.4,0.3c0,0,0,0.1,0,0.1v2.2
			c0,0.2,0.1,0.3,0.3,0.4c0,0,0.1,0,0.1,0h22.8c0.2,0,0.3-0.1,0.4-0.3c0,0,0-0.1,0-0.1v-2.2c0-0.2-0.1-0.4-0.3-0.4c0,0-0.1,0-0.1,0
			L815,35.5z M815,41.4c-0.2,0-0.4,0.1-0.4,0.3c0,0,0,0.1,0,0.1V44c0,0.2,0.1,0.3,0.3,0.4c0,0,0.1,0,0.1,0h22.8
			c0.2,0,0.3-0.1,0.4-0.3c0,0,0-0.1,0-0.1v-2.2c0-0.2-0.1-0.4-0.3-0.4c0,0-0.1,0-0.1,0L815,41.4z M833.4,22.5c0-0.1,0-0.1,0-0.2
			c0-0.1-0.1-0.1-0.2-0.1h-13.4c-0.1,0-0.1,0.1-0.2,0.1c-0.1,0.1-0.1,0.1,0,0.2c0.7,1.2,1.3,2.4,1.7,3.7c0.1,0.2,0.2,0.4,0.5,0.4
			h9.2c0.2,0,0.4-0.1,0.5-0.3C832.3,25.1,832.9,23.8,833.4,22.5L833.4,22.5z"/>
		<path class="st0" d="M868,38.9c0.3,0.5,0.5,1,0.5,1.6c0,0.6-0.2,1.2-0.6,1.7c-0.2,0.4-0.6,0.5-1.1,0.5c-0.4,0-0.8-0.3-1-0.7
			c-0.6-1.2-1.3-2.6-2.2-4.3c0-0.1-0.1-0.1-0.1-0.1s-0.1,0-0.1,0.1V57c0,0.5-0.2,1.1-0.6,1.5c-0.4,0.4-0.9,0.6-1.5,0.6
			c-1.1,0-2.1-0.9-2.1-2.1c0,0,0,0,0,0V39.1l0,0h0c-1,3.2-2.3,6.3-3.8,9.3c-0.2,0.4-0.6,0.6-1.1,0.6c-0.5,0-0.9-0.3-1.1-0.7
			c-0.3-0.5-0.5-1.2-0.5-1.8c0-0.7,0.2-1.3,0.6-1.9c1.3-2.2,2.4-4.6,3.2-7c1-2.6,1.8-5.3,2.4-8c0-0.2-0.1-0.3-0.3-0.3h-3.5
			c-1.1,0-2.1-0.9-2.1-2c0-0.6,0.2-1.1,0.6-1.5c0.4-0.4,0.9-0.6,1.5-0.6h3.8c0.2,0,0.3-0.1,0.3-0.4v-7.7c0-1.1,1-2,2.1-2
			c0.5,0,1.1,0.2,1.5,0.6c0.4,0.4,0.6,0.9,0.6,1.5v7.7c0,0.2,0.1,0.3,0.3,0.4c0,0,0.1,0,0.1,0h2.7c0.5,0,1.1,0.2,1.5,0.6
			c0.8,0.8,0.8,2.1,0,2.9c-0.4,0.4-0.9,0.6-1.4,0.6h-2.7c-0.2,0-0.4,0.1-0.4,0.3v2.1c0,0.2,0.1,0.4,0.2,0.6
			C864.7,33.8,866.1,36,868,38.9z M872.6,49.7c0.3-0.4,0.8-0.7,1.3-0.8c0.2,0,0.4,0,0.6,0c0.3,0,0.7,0.1,1,0.2
			c0.4,0.2,0.7,0.7,0.8,1.1c0.1,0.5,0,1-0.3,1.4c-1.4,1.9-3.1,3.5-4.9,5c-0.3,0.3-0.8,0.4-1.2,0.4h-0.2c-0.5-0.1-1-0.3-1.4-0.7
			c-0.3-0.3-0.5-0.7-0.5-1.2c0-0.5,0.2-1,0.6-1.3C869.9,52.6,871.4,51.2,872.6,49.7L872.6,49.7z M895.9,44.2c0.7,0.7,0.7,1.9,0,2.6
			c-0.3,0.3-0.8,0.5-1.3,0.5h-9.7c-0.2,0-0.4,0.1-0.4,0.3c0,0,0,0.1,0,0.1v7.2c0,0.8-0.1,1.6-0.3,2.3c-0.3,0.6-0.7,1-1.3,1.2
			c-1.3,0.5-2.8,0.7-4.2,0.6l0,0c-0.5,0-1-0.2-1.4-0.5c-0.4-0.3-0.8-0.8-1-1.3c-0.1-0.4-0.1-0.8,0.2-1.2c0.2-0.3,0.6-0.6,1-0.5h0.8
			c0.7,0,1.2,0,1.5,0c0.2,0,0.4,0,0.5-0.1c0.1-0.1,0.1-0.3,0.1-0.5v-7.2c0-0.2-0.1-0.4-0.3-0.4c0,0-0.1,0-0.1,0h-9.6
			c-0.5,0-0.9-0.2-1.3-0.5c-0.7-0.7-0.7-1.9,0-2.6c0.3-0.3,0.8-0.5,1.3-0.5h24.2C895.1,43.7,895.5,43.8,895.9,44.2L895.9,44.2z
			 M876.8,23.5c0.2,0,0.3-0.1,0.3-0.3v-2.2c0-0.2-0.1-0.3-0.2-0.3c0,0-0.1,0-0.1,0h-6.1c-0.5,0-0.9-0.2-1.3-0.5
			c-0.4-0.3-0.5-0.8-0.5-1.3c0-1,0.8-1.8,1.8-1.8h23.9c0.5,0,1,0.2,1.3,0.5c0.3,0.3,0.5,0.8,0.5,1.3c0,1-0.8,1.8-1.8,1.8h-6.4
			c-0.2,0-0.3,0.1-0.3,0.2c0,0,0,0.1,0,0.1v2.1c0,0.2,0.1,0.3,0.3,0.3h4.2c0.8,0,1.5,0.3,2,0.8c0.5,0.5,0.8,1.2,0.8,2v6.1
			c0,0.7-0.3,1.5-0.8,2c-0.5,0.5-1.2,0.8-2,0.8h-19.3c-0.8,0-1.5-0.3-2-0.8c-0.5-0.5-0.8-1.3-0.8-2v-6.1c0-0.7,0.3-1.4,0.8-2
			c0.5-0.5,1.2-0.8,2-0.8L876.8,23.5z M893.4,38.1c0.7,0.7,0.7,1.7,0,2.4c-0.3,0.3-0.7,0.5-1.2,0.5h-19c-0.4,0-0.8-0.2-1.1-0.5
			c-0.7-0.7-0.7-1.7,0-2.4c0.3-0.3,0.7-0.5,1.1-0.5h19C892.7,37.6,893.1,37.8,893.4,38.1z M874.3,26.9c-0.2,0-0.3,0.1-0.3,0.2
			c0,0,0,0.1,0,0.1v4.4c0,0.2,0.1,0.3,0.2,0.3c0,0,0.1,0,0.1,0h2.8c0.2,0,0.4-0.1,0.4-0.3v-4.4c0-0.2-0.1-0.3-0.4-0.3H874.3z
			 M883.9,23.5c0.2,0,0.4-0.1,0.4-0.3v-2.2c0-0.2-0.1-0.3-0.4-0.3H881c-0.2,0-0.4,0.1-0.4,0.3v2.1c0,0.2,0.1,0.3,0.4,0.3L883.9,23.5
			z M884.3,27.2c0-0.2-0.1-0.3-0.4-0.3H881c-0.2,0-0.4,0.1-0.4,0.3v4.4c0,0.2,0.1,0.3,0.4,0.3h3c0.2,0,0.4-0.1,0.4-0.3L884.3,27.2z
			 M890.9,31.9c0.2,0,0.3-0.1,0.3-0.2c0,0,0-0.1,0-0.1v-4.4c0-0.2-0.1-0.3-0.2-0.3c0,0-0.1,0-0.1,0h-3.2c-0.2,0-0.4,0.1-0.4,0.3v4.4
			c0,0.2,0.1,0.3,0.4,0.3L890.9,31.9z M888.4,51.6c-0.6-0.6-0.6-1.5-0.1-2.1c0.1-0.1,0.2-0.2,0.3-0.2c0.4-0.3,0.8-0.4,1.3-0.4h0.2
			c0.5,0,1,0.3,1.4,0.7c1.6,1.6,2.9,3,4,4.2c0.3,0.3,0.4,0.7,0.4,1.1v0.3c-0.1,0.5-0.4,1-0.8,1.3c-0.3,0.3-0.7,0.4-1.2,0.4
			c-0.1,0-0.2,0-0.3,0c-0.5-0.1-1-0.4-1.4-0.8C891.1,54.5,889.8,53,888.4,51.6L888.4,51.6z"/>
		<path class="st0" d="M914.1,46.7c-0.2,0-0.3,0.1-0.3,0.2c0,0,0,0.1,0,0.1v5.6c0,0.2,0.1,0.4,0.3,0.5c2.6,0.9,6.8,1.4,12.4,1.4
			c7.6,0,13,0,16.1-0.1c0.4,0,0.8,0.2,1,0.6c0.1,0.2,0.2,0.5,0.2,0.7c0,0.2,0,0.4-0.1,0.5c-0.2,0.5-0.5,1-1,1.4
			c-0.5,0.4-1,0.5-1.6,0.5h-14.6c-4.2,0.1-8.5-0.3-12.6-1.3c-3.1-0.8-5.7-2.7-7.5-5.3c0-0.1-0.1-0.1-0.1-0.1c-0.1,0-0.1,0.1-0.1,0.1
			c-0.4,2.2-1.2,4.3-2.3,6.2c-0.2,0.4-0.7,0.6-1.1,0.6c-0.5,0-1-0.2-1.3-0.6c-0.4-0.4-0.6-0.9-0.7-1.5v-0.3c0-0.5,0.1-0.9,0.3-1.3
			c1.3-2.6,2.1-6.4,2.4-11.7c0-0.5,0.2-0.9,0.6-1.3c0.3-0.4,0.8-0.5,1.3-0.5c0.5,0,1,0.2,1.3,0.5c0.3,0.3,0.5,0.8,0.5,1.3
			c-0.1,1.1-0.1,2.2-0.2,3.2c0,0.2,0,0.5,0.1,0.7c0.7,1.4,1.6,2.7,2.7,3.7c0.1,0,0.1,0,0.2,0c0.1,0,0.1-0.1,0.1-0.1V39.1
			c0-0.2-0.1-0.3-0.4-0.3h-7.1c-0.5,0-0.9-0.2-1.2-0.5c-0.3-0.3-0.5-0.8-0.5-1.2c0-0.5,0.2-0.9,0.5-1.2c0.3-0.3,0.8-0.5,1.2-0.5h18
			c0.9,0,1.7,0.7,1.7,1.6c0,0,0,0,0,0c0,0.5-0.2,0.9-0.5,1.2c-0.3,0.3-0.7,0.5-1.2,0.5h-6.4c-0.2,0-0.3,0.1-0.3,0.2c0,0,0,0.1,0,0.1
			v3.8c0,0.2,0.1,0.4,0.3,0.4h5.5c0.4,0,0.9,0.2,1.2,0.5c0.7,0.7,0.7,1.7,0,2.4c-0.3,0.3-0.7,0.5-1.2,0.5H914.1z M916.9,17
			c0.7,0,1.4,0.3,1.9,0.8c0.5,0.5,0.8,1.2,0.8,2v9.7c0,0.8-0.3,1.5-0.8,2c-0.5,0.5-1.2,0.8-1.9,0.8H906c-0.7,0-1.4-0.3-1.9-0.8
			c-0.5-0.5-0.8-1.2-0.8-2v-9.7c0-0.8,0.3-1.5,0.8-2c0.5-0.5,1.2-0.8,1.9-0.8L916.9,17z M915.1,23.1c0.2,0,0.3-0.1,0.4-0.3
			c0,0,0-0.1,0-0.1v-2.3c0-0.2-0.1-0.3-0.3-0.4c0,0-0.1,0-0.1,0h-7.5c-0.2,0-0.3,0.1-0.4,0.3c0,0,0,0.1,0,0.1v2.3
			c0,0.2,0.1,0.4,0.4,0.4L915.1,23.1z M915.1,29.1c0.2,0,0.3-0.1,0.4-0.3c0,0,0-0.1,0-0.1v-2.3c0-0.2-0.1-0.3-0.3-0.4
			c0,0-0.1,0-0.1,0h-7.5c-0.3,0-0.4,0.1-0.4,0.4v2.3c0,0.2,0.1,0.4,0.4,0.4L915.1,29.1z M926.1,46.9c0.6-0.6,1.4-1,2.2-1
			c0.3,0,0.6,0,0.9,0.1c0.4,0.1,0.7,0.5,0.9,0.9c0.1,0.4,0,0.9-0.3,1.2c-1.6,1.7-3.4,3.2-5.4,4.5c-0.4,0.2-0.8,0.4-1.3,0.4h-0.4
			c-0.6-0.1-1.1-0.4-1.5-0.8c-0.3-0.3-0.5-0.7-0.4-1.1c0-0.4,0.3-0.8,0.7-1C923.3,49.2,924.8,48.2,926.1,46.9L926.1,46.9z
			 M923.5,26.4c0-0.7,0.3-1.4,0.8-1.9c0.5-0.6,1.2-0.8,2-0.8h3c0.2,0,0.4-0.1,0.5-0.3c0.2-0.6,0.4-1.4,0.7-2.4c0-0.1,0-0.2,0-0.2
			c0-0.1-0.1-0.1-0.2-0.1h-6.8c-0.4,0-0.9-0.2-1.2-0.5c-0.6-0.7-0.6-1.7,0-2.3c0.3-0.3,0.7-0.5,1.2-0.5h18.4c0.9,0,1.7,0.7,1.7,1.7
			s-0.7,1.7-1.7,1.7c0,0,0,0,0,0H935c-0.2,0-0.4,0.1-0.5,0.3c-0.5,1.3-0.8,2.1-1,2.5c-0.1,0.1-0.1,0.2,0,0.2c0,0.1,0.1,0.1,0.2,0.1
			h5.4c1.5,0,2.7,1.2,2.8,2.8v15.8c0,1.5-1.2,2.7-2.8,2.8h-12.8c-1.5,0-2.8-1.2-2.8-2.8V26.4z M937.3,29.8c0.2,0,0.4-0.1,0.4-0.3
			v-2.3c0-0.2-0.1-0.3-0.4-0.3h-9.4c-0.2,0-0.3,0.1-0.3,0.2c0,0,0,0.1,0,0.1v2.3c0,0.2,0.1,0.3,0.2,0.3c0,0,0.1,0,0.1,0L937.3,29.8z
			 M937.3,35.7c0.2,0,0.4-0.1,0.4-0.3v-2.3c0-0.2-0.1-0.3-0.4-0.3h-9.4c-0.2,0-0.3,0.1-0.3,0.2c0,0,0,0.1,0,0.1v2.3
			c0,0.2,0.1,0.3,0.2,0.3c0,0,0.1,0,0.1,0L937.3,35.7z M937.3,41.7c0.2,0,0.4-0.1,0.4-0.3v-2.3c0-0.2-0.1-0.3-0.4-0.3h-9.4
			c-0.2,0-0.3,0.1-0.3,0.2c0,0,0,0.1,0,0.1v2.3c0,0.2,0.1,0.3,0.2,0.3c0,0,0.1,0,0.1,0L937.3,41.7z M935.5,48
			c-0.3-0.2-0.5-0.6-0.4-1c0-0.4,0.2-0.7,0.6-0.9c0.4-0.3,0.9-0.4,1.5-0.4c0.6,0,1.1,0.2,1.6,0.6c1.6,1.1,3.1,2.4,4.5,3.7
			c0.3,0.3,0.5,0.8,0.4,1.2c-0.1,0.5-0.3,0.9-0.7,1.2c-0.4,0.2-0.8,0.3-1.2,0.3c-0.1,0-0.2,0-0.3,0c-0.5-0.1-1-0.3-1.4-0.7
			C938.5,50.6,937.1,49.3,935.5,48L935.5,48z"/>
		<path class="st0" d="M795.4,94h8c0,0.5,0,1,0,1.5c0,0.6,0,1.2,0.1,1.7c0.3,1.3,1.6,2,2.9,1.7c0.9-0.3,1.6-1,1.7-2
			c0.1-0.7,0-1.5,0.1-2.2V94c1.2,0.1,2.4-0.2,3.5,0.4c1,0.5,1.6,1.5,1.6,2.6c0,0.8,0,1.6,0,2.4v15.3c0.1,1.8-1.3,3.4-3.2,3.4
			c-0.1,0-0.3,0-0.4,0h-21c-1.2,0.1-2.4-0.5-3-1.6c-0.3-0.6-0.5-1.3-0.5-2V97.3c-0.1-1.1,0.5-2.2,1.5-2.8c0.3-0.2,0.7-0.4,1.1-0.4
			c0.8-0.1,1.7,0,2.6,0c0,0.7,0,1.3,0,2c0,0.4,0,0.7,0.1,1.1c0.3,1.3,1.6,2.1,2.9,1.8c1-0.2,1.7-1.1,1.8-2.1c0-0.5,0-1,0-1.4
			C795.4,95,795.4,94.5,795.4,94z M787.1,101.4c0,0.1,0,0.2,0,0.2v3.9c0,3,0,5.9,0,8.9c-0.1,0.9,0.6,1.8,1.5,1.9c0.1,0,0.3,0,0.4,0
			h20.8c0.9,0.1,1.7-0.6,1.8-1.5c0-0.1,0-0.2,0-0.3c0-4.3,0-8.5,0-12.8c0-0.1,0-0.2,0-0.3H787.1z"/>
		<path class="st0" d="M806.8,94.7c0,0.6,0,1.2,0,1.8s-0.3,1-0.9,1c-0.5,0-1-0.3-1-0.8c0-0.1,0-0.1,0-0.2c0-1.2,0-2.5,0-3.7
			c0-0.5,0.4-1,0.9-1c0,0,0,0,0.1,0c0.5,0,0.9,0.4,0.9,0.9c0,0,0,0.1,0,0.1C806.7,93.4,806.7,94,806.8,94.7L806.8,94.7z"/>
		<path class="st0" d="M793.9,94.7c0,0.6,0,1.2,0,1.8c0,0.5-0.3,0.9-0.8,1c0,0-0.1,0-0.1,0c-0.5,0-1-0.4-1-0.9c0,0,0-0.1,0-0.1
			c0-1.2,0-2.4,0-3.6c0-0.4,0.2-0.8,0.5-0.9c0.3-0.2,0.7-0.1,0.9,0.1c0.3,0.2,0.4,0.5,0.4,0.8L793.9,94.7L793.9,94.7z"/>
		<path class="st0" d="M802.1,110H797v-1.7h5.1L802.1,110z"/>
		<path class="st0" d="M790,110v-1.7h5.1v1.7H790z"/>
		<path class="st0" d="M802.1,104.5v1.7h-5.1v-1.7H802.1z"/>
		<path class="st0" d="M802.1,112v1.7h-5.1V112H802.1z"/>
		<path class="st0" d="M790,106.2v-1.7h5.1v1.7H790z"/>
		<path class="st0" d="M790,112h5.1v1.7H790V112z"/>
		<path class="st0" d="M808.9,108.2v1.8h-5v-1.7L808.9,108.2z"/>
		<path class="st0" d="M808.9,104.5v1.7h-4.9v-1.7H808.9z"/>
		<path class="st0" d="M808.9,112v1.7h-5V112H808.9z"/>
		<path class="st0" d="M825.6,113.5c-0.2,0-0.3-0.1-0.4-0.2c-0.1-0.1-0.2-0.3-0.2-0.4c0-0.4,0.2-0.8,0.5-1c1.5-1.3,2.9-2.8,4.2-4.5
			c0.8-1,1.3-2.2,1.3-3.4c0-0.7-0.2-1.3-0.6-1.8c-0.4-0.5-1-0.7-1.7-0.7c-0.8,0-1.5,0.4-2.1,0.9c-0.2,0.2-0.4,0.2-0.6,0.2l0,0
			c-0.2,0-0.4-0.1-0.6-0.2c-0.2-0.2-0.3-0.4-0.2-0.6c0-0.2,0.1-0.4,0.2-0.6c0.9-0.9,2.2-1.5,3.5-1.5c1.1-0.1,2.2,0.3,3,1.1
			c0.8,0.8,1.2,1.8,1.1,2.9c0,1.4-0.5,2.7-1.3,3.8c-1,1.5-2.2,2.9-3.5,4.2l0,0l0,0c0.8-0.1,1.5-0.1,2.1-0.1h2.5
			c0.2,0,0.5,0.1,0.6,0.3c0.2,0.2,0.3,0.4,0.3,0.6c0,0.5-0.4,0.9-0.9,0.9c0,0,0,0,0,0L825.6,113.5z"/>
		<path class="st0" d="M839.8,113.8c-1.3,0-2.5-0.7-3.2-1.8c-0.9-1.6-1.3-3.4-1.2-5.2c-0.1-1.8,0.3-3.6,1.2-5.2
			c1.1-1.8,3.4-2.3,5.2-1.2c0.5,0.3,0.9,0.7,1.2,1.2c0.9,1.6,1.3,3.4,1.2,5.2c0.1,1.8-0.3,3.7-1.2,5.3
			C842.3,113.1,841.1,113.8,839.8,113.8z M838.1,110.8c0.3,0.9,1.3,1.5,2.2,1.2c0.6-0.2,1-0.6,1.2-1.2c0.5-1.3,0.7-2.7,0.6-4.1
			c0-3.5-0.8-5.3-2.3-5.3s-2.3,1.8-2.3,5.3C837.4,108.1,837.6,109.5,838.1,110.8L838.1,110.8z"/>
		<path class="st0" d="M846.4,113.5c-0.2,0-0.3-0.1-0.4-0.2c-0.1-0.1-0.2-0.3-0.2-0.4c0-0.4,0.2-0.8,0.5-1c1.5-1.3,2.9-2.8,4.2-4.5
			c0.8-1,1.3-2.2,1.4-3.5c0-0.7-0.2-1.3-0.6-1.8c-0.4-0.5-1-0.7-1.7-0.7c-0.8,0-1.5,0.4-2.1,0.9c-0.2,0.2-0.4,0.2-0.6,0.2l0,0
			c-0.2,0-0.4-0.1-0.6-0.2c-0.2-0.2-0.3-0.4-0.2-0.6c0-0.2,0.1-0.4,0.2-0.6c0.9-0.9,2.2-1.4,3.5-1.4c1.1-0.1,2.2,0.3,3,1.1
			c0.8,0.8,1.2,1.8,1.1,2.9c0,1.4-0.5,2.7-1.3,3.8c-1,1.5-2.2,2.9-3.5,4.2l0,0c0,0,0,0,0,0c0.8-0.1,1.5-0.1,2.1-0.1h2.5
			c0.2,0,0.5,0.1,0.6,0.3c0.2,0.2,0.3,0.4,0.3,0.6c0,0.5-0.4,0.9-0.9,0.9c0,0,0,0,0,0L846.4,113.5z"/>
		<path class="st0" d="M860.3,113.8c-1.4,0-2.7-0.4-3.8-1.2c-0.2-0.1-0.3-0.4-0.3-0.6c0,0,0-0.1,0-0.1c0-0.2,0.1-0.4,0.2-0.6
			c0.1-0.2,0.3-0.3,0.5-0.3h0.1c0.2,0,0.4,0.1,0.5,0.2c0.7,0.6,1.6,0.9,2.5,0.9c0.7,0,1.4-0.3,1.9-0.8c0.5-0.6,0.8-1.3,0.8-2.1
			c0-0.8-0.2-1.5-0.7-2.1c-0.5-0.5-1.2-0.8-1.9-0.7c-0.6,0-1.1,0.2-1.6,0.4c-0.2,0.1-0.3,0.1-0.5,0.2c-0.6,0-1-0.4-1-1
			c0,0,0-0.1,0-0.1l0.3-4.7c0-0.3,0.1-0.6,0.3-0.8c0.2-0.2,0.5-0.3,0.8-0.3h4.9c0.2,0,0.5,0.1,0.6,0.3c0.2,0.2,0.3,0.4,0.3,0.6
			c0,0.2-0.1,0.5-0.3,0.6c-0.2,0.2-0.4,0.3-0.6,0.3h-4c-0.1,0-0.1,0-0.1,0.1c0,0,0,0,0,0l-0.3,3.2c0,0,0,0,0,0.1c0,0,0,0,0.1,0
			c0.5-0.3,1.1-0.4,1.7-0.4c1.1-0.1,2.2,0.3,3,1.1c0.8,0.9,1.2,2,1.1,3.2c0,0.9-0.2,1.8-0.6,2.5c-0.4,0.7-1,1.2-1.7,1.6
			C861.9,113.6,861.1,113.8,860.3,113.8z"/>
		<path class="st0" d="M867.5,109.1c-0.2,0-0.4-0.1-0.5-0.2c-0.1-0.1-0.2-0.3-0.2-0.5c0-0.4,0.3-0.8,0.8-0.8h3.3
			c0.2,0,0.4,0.1,0.5,0.2c0.1,0.1,0.2,0.4,0.2,0.6c0,0.4-0.3,0.8-0.7,0.8c0,0,0,0,0,0H867.5z"/>
		<path class="st0" d="M877.6,113.8c-1.3,0-2.5-0.7-3.2-1.8c-0.9-1.6-1.3-3.4-1.2-5.2c-0.1-1.8,0.3-3.6,1.2-5.2
			c1.1-1.8,3.4-2.3,5.2-1.2c0.5,0.3,0.9,0.7,1.2,1.2c0.9,1.6,1.3,3.4,1.2,5.2c0.1,1.8-0.3,3.6-1.2,5.2
			C880.1,113.1,878.9,113.8,877.6,113.8z M875.9,110.8c0.3,0.9,1.3,1.5,2.2,1.2c0.6-0.2,1-0.6,1.2-1.2c0.5-1.3,0.7-2.7,0.6-4.1
			c0-3.5-0.8-5.3-2.3-5.3s-2.3,1.8-2.3,5.3C875.1,108.1,875.4,109.5,875.9,110.8L875.9,110.8z"/>
		<path class="st0" d="M888,113.8c-1.1,0-2.2-0.3-3.1-1c-0.8-0.6-1.3-1.6-1.2-2.6c0-0.8,0.2-1.5,0.7-2.1c0.4-0.6,1-1.1,1.7-1.5
			c0,0,0,0,0-0.1c0,0,0-0.1,0-0.1c-1.1-0.7-1.7-1.8-1.8-3.1c0-1,0.4-1.9,1.1-2.5c0.8-0.7,1.7-1,2.8-1c1,0,2,0.3,2.8,1
			c0.7,0.7,1,1.6,1,2.6c0,0.6-0.2,1.2-0.5,1.8c-0.3,0.5-0.7,1-1.2,1.4c0,0,0,0.1,0,0.1c0,0,0,0,0,0.1c1.4,0.7,2.2,2,2.2,3.6
			c0,1-0.4,1.9-1.2,2.5C890.2,113.4,889.1,113.8,888,113.8z M888,112.2c0.6,0,1.2-0.2,1.7-0.6c0.4-0.4,0.7-0.9,0.6-1.5
			c0-0.3-0.1-0.6-0.2-0.9c-0.1-0.2-0.2-0.5-0.4-0.7c-0.2-0.2-0.4-0.4-0.7-0.5c-0.3-0.2-0.6-0.3-0.8-0.4l-1-0.4c0,0,0,0-0.1,0
			c0,0-0.1,0-0.1,0c-0.4,0.3-0.8,0.7-1.1,1.2c-0.3,0.5-0.4,1-0.4,1.5c0,0.6,0.3,1.2,0.7,1.6C886.7,112,887.3,112.2,888,112.2z
			 M888.7,106c0.1,0,0.2,0,0.2,0c0.7-0.6,1.1-1.5,1.1-2.4c0-0.6-0.2-1.1-0.5-1.6c-0.4-0.4-1-0.6-1.5-0.6c-1,0-1.9,0.7-1.9,1.8
			c0,0.1,0,0.2,0,0.2c0,0.6,0.2,1.2,0.7,1.6C887.3,105.4,888,105.8,888.7,106L888.7,106z"/>
		<path class="st0" d="M894.8,109.1c-0.2,0-0.4-0.1-0.5-0.2c-0.1-0.1-0.2-0.3-0.2-0.5c0-0.2,0.1-0.4,0.2-0.6
			c0.1-0.1,0.3-0.2,0.5-0.2h3.3c0.2,0,0.4,0.1,0.5,0.2c0.1,0.2,0.2,0.4,0.2,0.6c0,0.2-0.1,0.4-0.2,0.5c-0.1,0.1-0.3,0.2-0.5,0.2
			H894.8z"/>
		<path class="st0" d="M902.1,113.5c-0.2,0-0.4-0.1-0.6-0.2c-0.3-0.3-0.3-0.9,0-1.2c0,0,0,0,0,0c0.2-0.2,0.4-0.2,0.6-0.2h1.9
			c0.1,0,0.2,0,0.2-0.1v-9.1c0-0.1,0-0.1-0.2-0.1h-1.6c-0.2,0-0.3-0.1-0.5-0.2c-0.1-0.1-0.2-0.3-0.2-0.5c0-0.2,0.1-0.4,0.2-0.5
			c0.1-0.1,0.3-0.3,0.5-0.3c0.5-0.1,1.1-0.3,1.6-0.5c0.5-0.2,1-0.4,1.5-0.4c0.2,0,0.4,0.1,0.6,0.2c0.2,0.1,0.2,0.4,0.2,0.6v10.8
			c0,0.1,0,0.1,0.1,0.1h1.6c0.2,0,0.4,0.1,0.6,0.2c0.3,0.3,0.3,0.9,0,1.2c-0.2,0.2-0.4,0.3-0.6,0.2H902.1z"/>
		<path class="st0" d="M911.5,113.5c-0.3,0-0.6-0.3-0.6-0.6c0-0.4,0.2-0.8,0.5-1c1.5-1.3,2.9-2.8,4.2-4.5c0.8-1,1.3-2.2,1.4-3.5
			c0-0.7-0.2-1.3-0.6-1.8c-0.4-0.5-1.1-0.7-1.7-0.7c-0.8,0-1.5,0.4-2.1,0.9c-0.2,0.2-0.4,0.2-0.6,0.2l0,0c-0.2,0-0.4-0.1-0.6-0.2
			c-0.2-0.2-0.3-0.4-0.2-0.6c0-0.2,0.1-0.4,0.2-0.6c0.9-0.9,2.2-1.4,3.5-1.4c1.1-0.1,2.2,0.3,3,1.1c0.8,0.8,1.2,1.8,1.1,2.9
			c0,1.4-0.5,2.7-1.3,3.8c-1,1.5-2.2,2.9-3.6,4.2l0,0l0,0c0.8-0.1,1.5-0.1,2-0.1h2.5c0.5,0,0.9,0.4,0.9,0.9c0,0,0,0,0,0
			c0,0.2-0.1,0.5-0.3,0.6c-0.2,0.2-0.4,0.3-0.6,0.3L911.5,113.5z"/>
		<path class="st0" d="M641.9,99.3c0.4,0.3,0.5,1,0.2,1.4c-0.2,0.3-0.6,0.4-0.9,0.4h-2.2c-0.1,0-0.2,0.1-0.2,0.2
			c-1.1,3.2-2.9,6.2-5.2,8.7c-0.1,0.1-0.1,0.2,0,0.2c2.3,1.8,4.9,3.1,7.7,3.9c0.3,0.1,0.5,0.3,0.5,0.6c0,0.1,0,0.2,0,0.3
			c0,0.2-0.1,0.4-0.2,0.5c-0.2,0.3-0.5,0.6-0.9,0.7c-0.2,0.1-0.4,0.1-0.6,0.1c-0.2,0-0.3,0-0.5-0.1c-2.9-0.9-5.7-2.3-8-4.3
			c-0.1-0.1-0.2-0.1-0.3,0c0,0,0,0,0,0c-2.4,1.9-5,3.3-7.9,4.3c-0.2,0.1-0.3,0.1-0.5,0.1c-0.2,0-0.4,0-0.5-0.1
			c-0.3-0.1-0.6-0.4-0.8-0.7c-0.1-0.1-0.2-0.3-0.2-0.5c0-0.1,0-0.2,0-0.3c0.1-0.3,0.3-0.5,0.6-0.6c2.8-0.8,5.3-2.1,7.6-3.9
			c0.1,0,0.1-0.1,0-0.2c0,0,0,0,0,0c-2.2-2.6-3.9-5.5-5-8.8c0-0.1-0.1-0.2-0.2-0.2h-2.2c-0.6,0-1-0.5-1-1s0.5-1,1-1h8.1
			c0.1,0,0.2-0.1,0.2-0.2v-2.5c0-0.6,0.5-1.1,1.1-1.1c0.3,0,0.6,0.1,0.8,0.3c0.2,0.2,0.3,0.5,0.3,0.8v2.5c0,0.1,0.1,0.2,0.2,0.2h8.2
			C641.4,98.9,641.7,99,641.9,99.3z M636.1,101.2C636.1,101.2,636.1,101.1,636.1,101.2c0-0.1,0-0.2-0.1-0.2c0,0,0,0,0,0h-8.8
			c0,0-0.1,0-0.1,0c0,0,0,0.1,0,0.1c1,2.7,2.5,5.1,4.5,7.2c0,0.1,0.1,0.1,0.2,0c0,0,0,0,0,0C633.7,106.2,635.2,103.8,636.1,101.2z"
			/>
		<path class="st0" d="M666.2,112.6c0.5,0,0.9,0.4,0.9,0.9c0,0,0,0,0,0c0,0.2-0.1,0.5-0.3,0.6c-0.2,0.2-0.4,0.3-0.7,0.3h-8.2
			c-0.1,0-0.2,0-0.2,0.1c0,0,0,0,0,0v1.3c0,0.3-0.1,0.6-0.3,0.8c-0.4,0.4-1.2,0.5-1.6,0c-0.2-0.2-0.3-0.5-0.3-0.8v-1.3
			c0-0.1-0.1-0.2-0.2-0.2c0,0,0,0,0,0h-8.2c-0.2,0-0.5-0.1-0.7-0.3c-0.2-0.2-0.3-0.4-0.3-0.6c0-0.5,0.4-0.9,0.9-0.9c0,0,0,0,0,0h8.2
			c0.1,0,0.2,0,0.2-0.2v-1c0-0.1-0.1-0.2-0.2-0.2c0,0,0,0,0,0h-5.2c-0.4,0-0.7-0.1-1-0.4c-0.3-0.2-0.4-0.6-0.4-0.9v-4.5
			c0-0.7,0.6-1.3,1.3-1.3c0,0,0,0,0,0h13.1c0.4,0,0.7,0.1,1,0.4c0.3,0.3,0.4,0.6,0.4,1v4.6c0,0.4-0.1,0.7-0.4,0.9
			c-0.2,0.3-0.6,0.4-1,0.4h-5.3c-0.1,0-0.2,0-0.2,0.1c0,0,0,0,0,0v1c0,0.1,0.1,0.2,0.2,0.2L666.2,112.6z M666.2,101.3
			c0.2,0,0.5,0.1,0.6,0.2c0.2,0.2,0.3,0.4,0.3,0.6c0,0.2-0.1,0.5-0.3,0.6c-0.2,0.2-0.4,0.3-0.6,0.2h-19c-0.2,0-0.5-0.1-0.6-0.2
			c-0.2-0.2-0.3-0.4-0.3-0.6c0-0.2,0.1-0.5,0.3-0.6c0.2-0.2,0.4-0.3,0.6-0.2h4.7c0,0,0.1,0,0.1-0.1c0,0,0-0.1,0-0.1
			c-0.2-0.5-0.4-1-0.7-1.5c0-0.1,0-0.2,0-0.3c0-0.1,0.1-0.2,0.2-0.2l0,0h-2.8c-0.5,0-0.8-0.4-0.9-0.8c0,0,0,0,0,0
			c0-0.2,0.1-0.5,0.2-0.6c0.2-0.2,0.4-0.3,0.6-0.2h6.7c0.1,0,0.2-0.1,0.2-0.1c0,0,0,0,0,0v-0.4c0-0.6,0.5-1.1,1.1-1.1c0,0,0,0,0,0
			c0.3,0,0.6,0.1,0.8,0.3c0.2,0.2,0.3,0.5,0.3,0.8v0.4c0,0.1,0.1,0.2,0.2,0.2h6.8c0.2,0,0.5,0.1,0.6,0.2c0.2,0.2,0.3,0.4,0.2,0.6
			c0,0.5-0.4,0.8-0.8,0.9c0,0,0,0,0,0h-2.4l0,0c0,0,0.1,0,0.1,0.1c0,0,0,0.1,0,0.1c-0.6,1-0.9,1.6-1,1.8c0,0,0,0.1,0,0.1
			c0,0,0,0,0,0c0,0,0,0.1,0.1,0.1L666.2,101.3z M651.1,105.6c-0.1,0-0.2,0-0.2,0.1c0,0,0,0,0,0v1c0,0.1,0,0.2,0.1,0.2c0,0,0,0,0,0
			h11.1c0.1,0,0.2,0,0.2-0.1c0,0,0,0,0,0v-1c0-0.1,0-0.2-0.1-0.2c0,0,0,0,0,0H651.1z M651.1,108.4c-0.1,0-0.2,0.1-0.2,0.2v1.1
			c0,0.1,0,0.2,0.1,0.2c0,0,0,0,0,0h11.1c0.1,0,0.2,0,0.2-0.1c0,0,0,0,0,0v-1.1c0-0.1-0.1-0.2-0.2-0.2H651.1z M660,99.3
			C660,99.2,660,99.2,660,99.3c0-0.1-0.1-0.2-0.1-0.2h-6.5c0,0-0.1,0-0.1,0.1c0,0,0,0.1,0,0.1c0.4,0.6,0.6,1.2,0.8,1.8
			c0,0.1,0.1,0.2,0.2,0.2h4.5c0.1,0,0.2-0.1,0.2-0.2C659.5,100.5,659.8,99.9,660,99.3z"/>
		<path class="st0" d="M684.2,97.8c-0.1-0.1-0.1-0.3-0.1-0.5c0-0.1,0-0.2,0.1-0.3c0.1-0.3,0.3-0.5,0.6-0.6c0.1-0.1,0.3-0.1,0.5-0.1
			c0.1,0,0.3,0,0.4,0.1c0.3,0.1,0.5,0.3,0.7,0.6c0.7,1.2,1.5,2.4,2.4,3.4c0.9,1.1,1.9,2.1,2.9,3c0.5,0.4,0.6,1.2,0.1,1.7
			c0,0,0,0,0,0c-0.2,0.3-0.6,0.4-0.9,0.5h-0.1c-0.3,0-0.6-0.1-0.8-0.3c-0.3-0.3-0.6-0.6-0.8-0.9c0,0-0.1,0-0.1,0c0,0,0,0,0,0.1
			c0,0.2,0,0.5,0,0.8c-0.2,3.6-0.3,6.1-0.5,7.7c0,1.1-0.3,2.1-0.9,3c-0.2,0.3-0.5,0.5-0.8,0.7c-0.4,0.1-0.7,0.2-1.1,0.3
			c-0.3,0-0.8,0-1.4,0h-1c-0.3,0-0.6-0.1-0.8-0.3c-0.3-0.2-0.4-0.5-0.5-0.8c-0.1-0.2,0-0.5,0.1-0.7c0.1-0.2,0.4-0.3,0.6-0.3
			c0.8,0,1.5,0.1,2.1,0.1c0.4,0,0.7-0.1,1-0.3c0.4-0.7,0.6-1.4,0.7-2.2c0.2-1.2,0.3-3.1,0.4-5.7c0-0.1,0-0.1-0.1-0.2c0,0,0,0,0,0h-5
			c-0.1,0-0.2,0.1-0.2,0.1c0,0,0,0,0,0c-0.1,0.8-0.3,1.6-0.5,2.4c-0.2,0.8-0.5,1.5-0.8,2.3c-0.3,0.8-0.8,1.5-1.2,2.1
			c-0.5,0.7-1.2,1.3-1.8,1.8c-0.8,0.6-1.7,1.1-2.6,1.5c-0.2,0.1-0.3,0.1-0.5,0.1c-0.1,0-0.3,0-0.4-0.1c-0.3-0.1-0.6-0.3-0.8-0.6
			c-0.1-0.1-0.2-0.3-0.2-0.5c0-0.1,0-0.2,0-0.2c0.1-0.3,0.3-0.5,0.5-0.6c0.8-0.3,1.5-0.8,2.2-1.3c0.6-0.4,1.1-0.9,1.6-1.5
			c0.4-0.5,0.8-1.1,1.1-1.7c0.3-0.6,0.5-1.2,0.7-1.8c0.2-0.7,0.3-1.3,0.4-2c0-0.1,0-0.2-0.1-0.2H676c-0.4,0-0.7-0.1-1-0.4
			c-0.3-0.2-0.4-0.6-0.4-0.9v-0.3c0,0,0-0.1,0-0.1c0,0-0.1,0-0.1,0c-0.3,0.3-0.7,0.7-1,1c-0.2,0.2-0.5,0.3-0.8,0.3h-0.1
			c-0.3,0-0.7-0.2-0.9-0.4c-0.2-0.2-0.3-0.5-0.3-0.8c0-0.3,0.1-0.6,0.4-0.8c2.3-1.8,4.1-4.2,5.3-6.8c0.1-0.3,0.4-0.6,0.7-0.7
			c0.2-0.1,0.4-0.1,0.6-0.1c0.1,0,0.2,0,0.4,0c0.3,0.1,0.5,0.3,0.7,0.6c0.1,0.1,0.1,0.3,0.1,0.4c0,0.1,0,0.3-0.1,0.4
			c-1.1,2.3-2.6,4.4-4.3,6.3c0,0,0,0.1,0,0.1c0,0,0,0,0.1,0h13.7c0,0,0,0,0.1,0c0,0,0-0.1,0-0.1C687,102.2,685.5,100.1,684.2,97.8z"
			/>
		<path class="st0" d="M705.2,113.4c0.2,0.2,0.4,0.4,0.4,0.7c0,0.2-0.1,0.5-0.3,0.6c-0.2,0.2-0.4,0.3-0.7,0.3l0,0
			c-0.3,0-0.5-0.1-0.7-0.3c-0.6-0.5-1.4-1.1-2.4-1.9c-0.1-0.1-0.1-0.1-0.2,0c0,0,0,0,0,0c-0.8,1.4-2,2.5-3.4,3.2
			c-0.1,0.1-0.3,0.1-0.5,0.1c-0.1,0-0.2,0-0.3,0c-0.3-0.1-0.5-0.2-0.7-0.5c-0.1-0.1-0.2-0.3-0.2-0.5c0-0.1,0-0.1,0-0.2
			c0.1-0.2,0.2-0.4,0.4-0.5c1.7-0.8,3-2.3,3.3-4.2c0-0.1,0-0.2-0.1-0.2h-2.6c-0.3,0-0.5-0.1-0.7-0.3c-0.2-0.2-0.3-0.4-0.3-0.7
			c0-0.3,0.1-0.5,0.3-0.7c0.2-0.2,0.4-0.3,0.7-0.3h2.7c0.1,0,0.1,0,0.2-0.1c0,0,0,0,0,0v-0.7c0-0.6,0.4-1,1-1s1,0.4,1,1v0.7
			c0,0.1,0.1,0.2,0.2,0.2h3c0.2,0,0.5,0.1,0.7,0.3c0.2,0.2,0.3,0.4,0.3,0.7c0,0.5-0.4,1-0.9,1c0,0,0,0-0.1,0h-3
			c-0.1,0-0.2,0-0.2,0.2c0,0.1,0,0.3-0.1,0.4c0,0.1,0,0.2,0.1,0.3C703.2,111.9,704.2,112.6,705.2,113.4z M701.8,105.9
			c-0.2,0.2-0.4,0.3-0.7,0.3c-0.5,0-1-0.5-1-1v-1.8c0,0,0,0,0-0.1c0,0,0,0-0.1,0c-0.6,0.9-1.4,1.7-2.2,2.4c-0.2,0.1-0.4,0.2-0.5,0.2
			h-0.2c-0.3,0-0.5-0.2-0.7-0.4c-0.2-0.2-0.2-0.4-0.2-0.6c0-0.2,0.2-0.4,0.3-0.5c1.1-0.8,2.1-1.7,2.8-2.8c0,0,0-0.1,0-0.1s0,0-0.1,0
			h-2.2c-0.5,0-0.9-0.4-0.9-0.9c0-0.2,0.1-0.5,0.3-0.6c0.2-0.2,0.4-0.2,0.6-0.2h2.9c0.1,0,0.1,0,0.2-0.1c0,0,0,0,0,0v-2.6
			c0-0.3,0.1-0.5,0.3-0.7c0.2-0.2,0.4-0.3,0.7-0.3c0.2,0,0.5,0.1,0.7,0.3c0.2,0.2,0.3,0.4,0.3,0.7v2.7c0,0.1,0.1,0.2,0.2,0.2h2.9
			c0.5,0,0.9,0.4,0.9,0.9c0,0.2-0.1,0.4-0.2,0.6c-0.2,0.2-0.4,0.3-0.6,0.2h-3c-0.1,0-0.1,0-0.1,0.1c0,0.1,0,0.1,0.1,0.1
			c0.8,0.5,1.9,1.1,3.3,2c0.2,0.1,0.3,0.3,0.4,0.6v0.2c0,0.2-0.1,0.4-0.2,0.5c-0.1,0.2-0.4,0.3-0.6,0.3h-0.1c-0.2,0-0.4-0.1-0.6-0.2
			c-0.6-0.5-1.3-1.1-2.1-1.7h-0.1c0,0,0,0,0,0.1v1.8C702.1,105.5,702,105.7,701.8,105.9z M699.1,98c0.1,0.2,0.1,0.4,0,0.7
			c-0.1,0.2-0.3,0.4-0.5,0.5c-0.2,0.1-0.4,0.1-0.6,0c-0.2-0.1-0.3-0.3-0.4-0.5c-0.2-0.4-0.4-0.8-0.6-1.2c-0.1-0.2-0.1-0.4,0-0.6
			c0.1-0.2,0.2-0.3,0.4-0.4c0.2-0.1,0.4-0.1,0.6,0c0.2,0.1,0.4,0.2,0.5,0.4C698.8,97.2,699,97.6,699.1,98z M703.8,97
			c0.1-0.2,0.3-0.4,0.5-0.5c0.1-0.1,0.3-0.1,0.5-0.1c0.1,0,0.2,0,0.3,0.1c0.2,0,0.4,0.2,0.5,0.4c0.1,0.2,0.1,0.4,0,0.6
			c-0.3,0.6-0.6,1-0.8,1.4c-0.1,0.2-0.3,0.3-0.5,0.4c-0.2,0.1-0.4,0.1-0.6,0c-0.2-0.1-0.3-0.2-0.4-0.4c-0.1-0.2-0.1-0.4,0-0.5
			C703.4,97.9,703.6,97.4,703.8,97z M708.2,113.5c0.2-0.2,0.5-0.3,0.8-0.3h0.2c0.2,0,0.5,0.1,0.7,0.2c0.2,0.1,0.4,0.4,0.4,0.7
			c0,0.2-0.1,0.4-0.3,0.6c-0.9,0.8-2,1.5-3.1,2c-0.2,0.1-0.4,0.2-0.6,0.2c-0.1,0-0.2,0-0.2,0c-0.3-0.1-0.6-0.2-0.8-0.4
			c-0.1-0.1-0.2-0.3-0.2-0.5v-0.1c0-0.2,0.2-0.4,0.4-0.5C706.5,114.7,707.4,114.1,708.2,113.5L708.2,113.5z M706.9,101.8
			c0-0.4,0.1-0.7,0.4-1c0.3-0.2,0.6-0.4,1-0.4h1.5c0.1,0,0.2-0.1,0.2-0.2c0.1-0.4,0.2-1,0.4-1.6c0-0.1,0-0.2-0.1-0.2h-3.1
			c-0.2,0-0.5-0.1-0.7-0.3c-0.2-0.2-0.3-0.4-0.3-0.7c0-0.5,0.4-0.9,0.9-0.9c0,0,0,0,0,0h9.1c0.5,0,0.9,0.4,0.9,0.9
			c0,0.3-0.1,0.5-0.3,0.7c-0.2,0.2-0.4,0.3-0.7,0.3h-3.4c-0.1,0-0.2,0.1-0.2,0.2c-0.2,0.7-0.4,1.2-0.6,1.6c0,0,0,0.1,0,0.1
			c0,0,0.1,0.1,0.1,0.1h2.9c0.7,0,1.3,0.5,1.3,1.3c0,0,0,0.1,0,0.1v9.3c0,0.7-0.5,1.3-1.3,1.3c0,0-0.1,0-0.1,0h-6.8
			c-0.4,0-0.7-0.1-1-0.4c-0.3-0.3-0.4-0.6-0.4-1L706.9,101.8z M714.3,103.9c0.1,0,0.1,0,0.2-0.1c0,0,0,0,0,0v-1.6
			c0-0.1,0-0.2-0.2-0.2h-5.2c-0.1,0-0.2,0-0.2,0.1c0,0,0,0,0,0v1.6c0,0.1,0.1,0.2,0.2,0.2L714.3,103.9z M714.3,107.4
			c0.1,0,0.2-0.1,0.2-0.2v-1.6c0-0.1,0-0.1-0.1-0.2c0,0,0,0,0,0h-5.2c-0.1,0-0.2,0-0.2,0.2v1.6c0,0.1,0.1,0.2,0.2,0.2H714.3z
			 M714.3,110.8c0.1,0,0.2-0.1,0.2-0.2v-1.6c0-0.1,0-0.1-0.1-0.2c0,0,0,0,0,0h-5.2c-0.1,0-0.2,0-0.2,0.2v1.6c0,0.1,0,0.2,0.1,0.2
			c0,0,0,0,0,0H714.3z M713,114.5c-0.2-0.1-0.3-0.3-0.3-0.5c0-0.2,0.1-0.4,0.3-0.6c0.2-0.2,0.5-0.2,0.8-0.2c0.3,0,0.5,0.1,0.8,0.2
			c0.9,0.6,1.7,1.2,2.4,1.8c0.2,0.1,0.3,0.4,0.3,0.6c0,0.3-0.1,0.5-0.3,0.7c-0.2,0.1-0.4,0.2-0.7,0.2h-0.1c-0.3,0-0.6-0.1-0.8-0.3
			C714.6,115.6,713.8,115,713,114.5z"/>
		<path class="st0" d="M726.7,115.5c-1.7,0-3.2-0.8-4.1-2.3c-1-1.5-1.5-3.7-1.5-6.7c0-2.9,0.5-5.1,1.5-6.6c1.4-2.2,4.4-2.9,6.6-1.5
			c0.6,0.4,1.1,0.9,1.5,1.5c1,1.5,1.5,3.7,1.5,6.6s-0.5,5.1-1.5,6.6C729.9,114.6,728.3,115.5,726.7,115.5z M724.5,111.7
			c0.3,1.2,1.6,1.9,2.8,1.5c0.7-0.2,1.3-0.8,1.5-1.5c0.6-1.7,0.9-3.4,0.8-5.2c0-4.5-1-6.7-3-6.7s-3,2.2-3,6.7
			C723.5,108.3,723.8,110.1,724.5,111.7L724.5,111.7z"/>
		<path class="st0" d="M739.5,115.5c-1.7,0.1-3.4-0.5-4.8-1.6c-0.3-0.2-0.4-0.5-0.4-0.9c0-0.3,0.1-0.5,0.2-0.8
			c0.2-0.2,0.4-0.4,0.7-0.4c0,0,0.1,0,0.1,0c0.2,0,0.5,0.1,0.7,0.2c0.9,0.7,2.1,1.2,3.2,1.2c0.9,0,1.7-0.2,2.4-0.8
			c0.6-0.5,0.9-1.3,0.9-2.1c0-0.8-0.3-1.6-0.9-2.2c-0.9-0.6-2-0.9-3.1-0.9c-0.3,0-0.5-0.1-0.7-0.3c-0.4-0.4-0.4-1,0-1.4
			c0.2-0.2,0.4-0.3,0.7-0.3c2.3-0.2,3.5-1.2,3.5-3c0-0.7-0.2-1.3-0.7-1.8c-0.5-0.5-1.2-0.7-1.9-0.7c-0.9,0-1.8,0.4-2.6,0.9
			c-0.2,0.1-0.4,0.2-0.7,0.2h-0.1c-0.3,0-0.5-0.1-0.7-0.4c-0.2-0.2-0.3-0.5-0.2-0.7c0-0.3,0.1-0.6,0.4-0.8c1.2-0.9,2.6-1.4,4-1.4
			c1.4-0.1,2.7,0.3,3.8,1.2c1,0.8,1.5,2,1.4,3.3c0,0.9-0.2,1.7-0.8,2.4c-0.5,0.7-1.3,1.2-2.1,1.5c0,0,0,0,0,0.1c0,0,0,0.1,0,0.1
			c1,0.2,1.8,0.8,2.5,1.5c0.7,0.8,1,1.7,1,2.8c0.1,1.4-0.5,2.7-1.6,3.6C742.4,115,741,115.5,739.5,115.5z"/>
		<path class="st0" d="M607.4,106.2l-2.2-2.2l-8.2-8.2c-0.5-0.6-1.3-0.9-2.1-0.9h-7.1c-0.6-0.1-1.2,0.4-1.2,1c0,0.1,0,0.1,0,0.2v3.6
			c0,1.2,0,2.4,0,3.6c0,0.8,0.3,1.5,0.8,2l1.4,1.4l9.1,9.1c0.4,0.5,1.1,0.5,1.6,0c0,0,0,0,0,0l7.9-7.9
			C607.9,107.5,607.9,106.8,607.4,106.2C607.5,106.3,607.4,106.3,607.4,106.2z M591.5,102.4c-1.4,0-2.5-1.1-2.5-2.4
			c0-1.4,1.1-2.5,2.4-2.5c1.4,0,2.5,1.1,2.5,2.4c0,0,0,0,0,0C594,101.3,592.9,102.4,591.5,102.4z"/>
	</g>
</g>
</svg>
