<?xml version="1.0" encoding="utf-8"?>
<!-- Generator: Adobe Illustrator 24.2.3, SVG Export Plug-In . SVG Version: 6.00 Build 0)  -->
<svg version="1.1" id="圖層_1" xmlns="http://www.w3.org/2000/svg" xmlns:xlink="http://www.w3.org/1999/xlink" x="0px" y="0px"
	 viewBox="0 0 261.2 33.4" style="enable-background:new 0 0 261.2 33.4;" xml:space="preserve">
<style type="text/css">
	.st0{fill:#D7B21D;}
</style>
<g>
	<g id="圖層_1_1_">
		<polygon class="st0" points="143.1,0 161.2,13.7 143.1,27.5 		"/>
		<path class="st0" d="M47.9,3.5c0.4,0.4,0.4,1,0,1.4c0,0,0,0,0,0c-0.2,0.2-0.4,0.3-0.7,0.3H36.6c-0.1,0-0.2,0.1-0.2,0.2
			c0,0,0,0,0,0.1v4.7l0,0c0.2-0.2,0.5-0.3,0.8-0.2c3,1.4,5.8,3.1,8.5,4.9c0.3,0.2,0.4,0.4,0.5,0.8c0,0.1,0,0.1,0,0.2
			c0,0.6-0.4,1.1-1,1.1H45c-0.3,0-0.5-0.1-0.7-0.2c-2.5-1.7-5.1-3.3-7.8-4.7c0,0-0.1,0-0.1,0c0,0-0.1,0.1-0.1,0.1v13.4
			c0,0.3-0.1,0.6-0.3,0.8c-0.4,0.4-1.1,0.4-1.5,0c0,0,0,0,0,0c-0.2-0.2-0.3-0.5-0.3-0.8v-20c0-0.1-0.1-0.2-0.2-0.2c0,0,0,0-0.1,0
			h-9.5c-0.3,0-0.5-0.1-0.7-0.3c-0.4-0.4-0.4-1,0-1.4c0,0,0,0,0,0c0.2-0.2,0.4-0.3,0.7-0.3h22.7C47.4,3.2,47.7,3.3,47.9,3.5z"/>
		<path class="st0" d="M54.3,13.8c-0.2-0.2-0.3-0.5-0.3-0.8c0-0.3,0.1-0.6,0.3-0.8c0.2-0.2,0.5-0.3,0.8-0.3h23.2
			c0.3,0,0.6,0.1,0.8,0.3c0.2,0.2,0.3,0.5,0.3,0.8c0,0.6-0.5,1.1-1.1,1.1H55C54.8,14.2,54.5,14,54.3,13.8z"/>
		<path class="st0" d="M100.7,3c0,0,0,0.1,0,0.1c0,0,0.1,0.1,0.1,0.1h8c0.2,0,0.4,0.1,0.6,0.2c0.2,0.2,0.3,0.4,0.2,0.6
			c0,0.2-0.1,0.4-0.2,0.6c-0.2,0.2-0.4,0.2-0.6,0.2h-4.6c0,0-0.1,0-0.1,0.1c0,0,0,0.1,0,0.1c0.3,0.4,0.6,0.9,0.9,1.4
			c0.1,0.1,0.1,0.3,0,0.4c0,0.1-0.1,0.2-0.3,0.2l0,0l0,0h0.2c0.5,0,0.9,0.2,1.3,0.5l0.1,0.1c0.1,0.1,0.2,0.3,0.1,0.5
			c0,0.2-0.2,0.3-0.4,0.4c-5.3,0.7-10.7,1.1-16,1.2c-0.1,0-0.2,0.1-0.2,0.2v0.8c0,0.1,0.1,0.2,0.1,0.2c0,0,0,0,0,0h15.8
			c0.4,0,0.8,0.2,1.1,0.5c0.3,0.3,0.5,0.7,0.5,1.1v2c0,0.9-0.7,1.6-1.6,1.6H90c-0.1,0-0.2,0.1-0.2,0.2c0,0,0,0,0,0
			c-0.2,3.3-1.2,6.5-3,9.3c-0.1,0.2-0.4,0.3-0.6,0.3l0,0c-0.2,0-0.5-0.1-0.6-0.3c-0.2-0.2-0.3-0.4-0.4-0.7c0-0.3,0-0.5,0.2-0.7
			C87.1,21.6,88,17.9,88,13V9.3c0-0.4,0.2-0.8,0.5-1c0.2-0.2,0.5-0.3,0.7-0.3c0.1,0,0.2,0,0.3,0.1l0,0c0.1,0,0.3,0,0.4,0
			c5.3-0.2,9.7-0.5,13.1-0.9c5.1-0.6,0.1,0,0.1-0.1c0,0,0-0.1,0-0.1c-0.4-0.7-0.9-1.4-1.4-2c-0.1-0.1-0.2-0.2-0.3-0.2h-1.7
			c-0.1,0-0.3,0.1-0.3,0.2c-0.5,0.7-1.1,1.3-1.7,1.9c-0.2,0.2-0.5,0.3-0.8,0.3h-0.1c-0.3,0-0.5,0-0.8-0.2c-0.2-0.1-0.3-0.3-0.3-0.6
			c0-0.2,0.1-0.5,0.2-0.6c0.3-0.3,0.6-0.6,0.9-0.9c0,0,0-0.1,0-0.1c0,0,0-0.1-0.1-0.1h-4.6c0,0-0.1,0-0.1,0.1c0,0,0,0.1,0,0.1
			c0.2,0.3,0.3,0.7,0.5,1c0.1,0.2,0.1,0.5,0,0.7C92.4,7,92.2,7.2,92,7.2c-0.2,0.1-0.5,0-0.7-0.1c-0.2-0.1-0.4-0.3-0.5-0.6
			c-0.2-0.5-0.4-1-0.7-1.5c0-0.1-0.2-0.2-0.3-0.2h-0.8c-0.1,0-0.3,0.1-0.3,0.2c-0.5,0.7-1,1.3-1.6,1.9c-0.4,0.4-1.1,0.5-1.5,0.1
			c-0.2-0.1-0.4-0.4-0.3-0.7c0-0.2,0.1-0.4,0.2-0.6c1.2-1.2,2.2-2.5,2.9-4c0.2-0.4,0.6-0.7,1.1-0.7c0.1,0,0.2,0,0.3,0
			c0.2,0,0.5,0.2,0.6,0.4c0.1,0.2,0.1,0.5,0,0.7C90,2.6,89.9,2.8,89.8,3c0,0,0,0.1,0,0.1c0,0,0.1,0.1,0.1,0.1h5.7
			c0.4,0,0.7,0.2,1,0.4c0.3,0.3,0.4,0.6,0.4,1c0,0,0,0.1,0,0.1s0,0,0.1,0c0.7-0.8,1.4-1.8,1.9-2.8c0.1-0.3,0.3-0.5,0.6-0.6
			c0.2-0.1,0.4-0.1,0.6-0.1c0.1,0,0.2,0,0.3,0.1c0.2,0,0.5,0.2,0.6,0.4c0.1,0.2,0.1,0.5,0,0.7C100.9,2.6,100.8,2.8,100.7,3z
			 M105.5,12.6c0-0.1-0.1-0.2-0.2-0.2H90.1c-0.1,0-0.2,0.1-0.2,0.1c0,0,0,0,0,0v0.4c0,0.6,0,1,0,1.3c0,0.1,0.1,0.2,0.1,0.2
			c0,0,0,0,0,0h15.2c0.2,0,0.2-0.1,0.2-0.2L105.5,12.6z M106.7,17.6c0.4,0,0.9,0.2,1.2,0.5c0.3,0.3,0.5,0.7,0.5,1.1v5.6
			c0,0.4,0,0.7-0.2,1.1c-0.1,0.3-0.4,0.5-0.6,0.6c-0.8,0.2-1.7,0.3-2.5,0.3c-0.2,0-0.5-0.1-0.7-0.2c-0.2-0.2-0.3-0.4-0.4-0.6
			c-0.1-0.2-0.1-0.4,0-0.5c0.1-0.2,0.3-0.2,0.5-0.2h0.9c0.2,0,0.4,0,0.7,0c0.3,0,0.4-0.1,0.4-0.4v-1.9c0-0.1-0.1-0.2-0.2-0.2
			c0,0,0,0,0,0h-3.3c-0.1,0-0.2,0.1-0.2,0.2v2.6c0,0.2-0.1,0.5-0.3,0.6c-0.2,0.2-0.4,0.3-0.6,0.3c-0.2,0-0.5-0.1-0.6-0.3
			c-0.2-0.2-0.3-0.4-0.3-0.6v-2.6c0-0.1-0.1-0.2-0.2-0.2c0,0,0,0,0,0h-3.2c-0.1,0-0.2,0.1-0.2,0.2v2.6c0,0.2-0.1,0.5-0.3,0.6
			c-0.2,0.2-0.4,0.3-0.6,0.3c-0.2,0-0.5-0.1-0.6-0.3c-0.2-0.2-0.3-0.4-0.3-0.6v-2.6c0-0.1-0.1-0.2-0.2-0.2h-3
			c-0.1,0-0.2,0.1-0.2,0.2c0,0,0,0,0,0v2.9c0,0.2-0.1,0.5-0.3,0.6c-0.3,0.4-0.9,0.4-1.3,0c0,0,0,0,0,0c-0.2-0.2-0.3-0.4-0.3-0.6
			v-6.5c0-0.4,0.2-0.8,0.5-1.1c0.3-0.3,0.7-0.5,1.2-0.5L106.7,17.6z M92,21c0,0.1,0.1,0.2,0.2,0.2h3.1c0.1,0,0.2-0.1,0.2-0.1
			c0,0,0,0,0,0v-1.6c0-0.1-0.1-0.2-0.2-0.2h-3.1c-0.1,0-0.2,0.1-0.2,0.2c0,0,0,0,0,0.1L92,21z M97.3,21c0,0.1,0.1,0.2,0.1,0.2
			c0,0,0,0,0,0h3.2c0.2,0,0.2-0.1,0.2-0.2v-1.6c0-0.1-0.1-0.2-0.2-0.2c0,0,0,0-0.1,0h-3.2c-0.1,0-0.2,0.1-0.2,0.2V21z M102.7,21
			c0,0.1,0.1,0.2,0.1,0.2c0,0,0,0,0,0h3.3c0.1,0,0.2-0.1,0.2-0.2v-1.6c0-0.1-0.1-0.2-0.2-0.2c0,0,0,0,0,0h-3.3
			c-0.1,0-0.2,0.1-0.2,0.2V21z"/>
	</g>
</g>
</svg>
