<?xml version="1.0" encoding="utf-8"?>
<!-- Generator: Adobe Illustrator 24.2.3, SVG Export Plug-In . SVG Version: 6.00 Build 0)  -->
<svg version="1.1" id="圖層_1" xmlns="http://www.w3.org/2000/svg" xmlns:xlink="http://www.w3.org/1999/xlink" x="0px" y="0px"
	 viewBox="0 0 314.5 134" style="enable-background:new 0 0 314.5 134;" xml:space="preserve">
<style type="text/css">
	.st0{fill:#D7B21D;}
	.st1{fill:#18254C;}
	.st2{fill:#FFFFFF;}
</style>
<g>
	<g id="圖層_1_1_">
		<path class="st0" d="M13.8,107.8H22c0,0.5,0,1,0,1.5c0,0.6,0,1.2,0.1,1.8c0.3,1.3,1.7,2.1,3,1.7c1-0.3,1.7-1.1,1.8-2.1
			c0.1-0.8,0-1.5,0.1-2.3c0-0.2,0-0.5,0-0.8c1.2,0.1,2.5-0.2,3.7,0.4c1,0.5,1.7,1.6,1.7,2.7c0,0.8,0,1.6,0,2.4v15.8
			c0,0.6-0.1,1.2-0.4,1.7c-0.6,1.2-1.9,1.9-3.3,1.8H7c-1.3,0.1-2.5-0.6-3.1-1.6c-0.4-0.6-0.5-1.4-0.5-2.1c0-3.3,0-6.5,0-9.8
			c0-2.7,0-5.3,0-8c-0.1-1.2,0.5-2.2,1.5-2.8c0.3-0.2,0.7-0.4,1.1-0.4c0.9-0.1,1.8,0,2.7,0c0,0.7,0,1.4,0,2.1c0,0.4,0,0.7,0.1,1.1
			c0.3,1.3,1.6,2.2,3,1.9c1-0.2,1.8-1.1,1.9-2.1c0-0.5,0-1,0-1.5C13.8,108.8,13.8,108.3,13.8,107.8z M5.2,115.5c0,0.1,0,0.2,0,0.2v4
			c0,3.1,0,6.1,0,9.2c-0.1,0.9,0.6,1.8,1.5,1.9c0.1,0,0.3,0,0.4,0h21.5c0.9,0.1,1.8-0.6,1.9-1.5c0-0.1,0-0.2,0-0.3v-13.2
			c0-0.1,0-0.2,0-0.3L5.2,115.5z"/>
		<path class="st0" d="M25.5,108.5v1.9c0.2,0.5-0.1,1.1-0.7,1.2s-1.1-0.1-1.2-0.7c-0.1-0.2-0.1-0.4,0-0.6c0-1.3,0-2.5,0-3.8
			c-0.2-0.5,0.1-1.1,0.7-1.3c0.5-0.2,1.1,0.1,1.3,0.7c0.1,0.2,0.1,0.4,0,0.6C25.5,107.2,25.5,107.8,25.5,108.5L25.5,108.5z"/>
		<path class="st0" d="M12.2,108.6c0,0.6,0,1.2,0,1.8c0.1,0.5-0.3,1-0.8,1.1c0,0-0.1,0-0.1,0c-0.6,0-1-0.4-1-1c0,0,0,0,0-0.1
			c0-1.2,0-2.5,0-3.7c0-0.4,0.2-0.8,0.6-1c0.3-0.2,0.7-0.1,0.9,0.1c0.3,0.2,0.4,0.5,0.4,0.8L12.2,108.6L12.2,108.6z"/>
		<path class="st0" d="M20.6,124.3h-5.3v-1.8h5.3V124.3z"/>
		<path class="st0" d="M8.2,124.3v-1.8h5.2v1.8H8.2z"/>
		<path class="st0" d="M20.7,118.7v1.8h-5.3v-1.8H20.7z"/>
		<path class="st0" d="M20.7,126.4v1.8h-5.3v-1.8L20.7,126.4z"/>
		<path class="st0" d="M8.2,120.4v-1.8h5.2v1.8H8.2z"/>
		<path class="st0" d="M8.2,126.3h5.2v1.8H8.2V126.3z"/>
		<path class="st0" d="M27.7,122.5v1.8h-5.1v-1.8H27.7z"/>
		<path class="st0" d="M27.7,118.7v1.8h-5.1v-1.8H27.7z"/>
		<path class="st0" d="M27.7,126.4v1.8h-5.1v-1.8L27.7,126.4z"/>
		<path class="st1" d="M27,76.7c0.3-0.1,0.6,0,0.9,0.1l0.5,0.2c0.2,0.1,0.4,0.3,0.5,0.5c0.1,0.2,0.1,0.5,0,0.8
			c-0.9,2.4-2.2,4.6-4,6.5c-0.1,0.1-0.1,0.2,0,0.3c1.4,1,2.9,1.7,4.6,2.2c0.3,0.1,0.5,0.3,0.6,0.6c0.1,0.3,0,0.6-0.2,0.9
			c-0.3,0.3-0.6,0.6-1,0.8c-0.2,0.1-0.4,0.1-0.6,0.1c-0.2,0-0.4,0-0.6-0.1c-1.7-0.6-3.4-1.6-4.8-2.7c-0.1-0.1-0.3-0.1-0.4,0
			c0,0,0,0,0,0c-1.3,0.9-2.6,1.8-4.1,2.4c-0.3,0.1-0.5,0.1-0.8,0.2c-0.2,0-0.4,0-0.7-0.1c-0.5-0.2-0.9-0.5-1.2-0.9
			c-0.1-0.2-0.3-0.3-0.4-0.4c0,0-0.1,0-0.1,0c0,0,0,0,0,0c0,0-0.1,0.1-0.1,0.1v0.6c0,0.4-0.1,0.7-0.4,1c-0.3,0.3-0.6,0.4-1,0.4
			c-0.4,0-0.7-0.2-1-0.4c-0.3-0.3-0.4-0.6-0.4-1v-1.2c0-0.2-0.1-0.2-0.2-0.2c-4.2,0.5-7.2,0.8-9,0.9c-0.1,0-0.1,0-0.2,0
			c-0.3,0-0.6-0.1-0.8-0.3c-0.6-0.4-0.7-1.2-0.3-1.8c0.2-0.3,0.6-0.4,0.9-0.4c0.1,0,0.3,0,0.4,0h0.5c0.1,0,0.3,0,0.4,0
			c0.1,0,0.2-0.1,0.2-0.2c0,0,0,0,0,0v-10c0-0.1-0.1-0.2-0.2-0.2c0,0,0,0-0.1,0H3.2C2.5,75,2,74.5,2,73.8c0-0.3,0.1-0.6,0.3-0.8
			c0.2-0.2,0.5-0.4,0.9-0.4H29c0.3,0,0.6,0.1,0.9,0.4c0.5,0.5,0.5,1.2,0,1.7c-0.2,0.2-0.5,0.4-0.9,0.4H15.6c-0.2,0-0.2,0.1-0.2,0.2
			v12c0,0.1,0,0.1,0.1,0.2c0,0,0.1,0,0.1,0c1.8-0.6,3.5-1.4,5-2.5c0.1-0.1,0.1-0.2,0.1-0.3c0,0,0,0,0,0c-0.9-1.1-1.7-2.3-2.4-3.6
			c-0.1-0.2-0.2-0.4-0.2-0.6c0-0.2,0-0.4,0.1-0.5c0.2-0.4,0.5-0.6,0.9-0.8l0,0h-1.5c-0.3,0-0.6-0.1-0.8-0.3
			c-0.2-0.2-0.4-0.5-0.4-0.8c0-0.3,0.1-0.6,0.4-0.8c0.2-0.2,0.5-0.4,0.8-0.3L27,76.7L27,76.7z M24.8,61.4c0.5,0,1,0.2,1.3,0.6
			c0.4,0.3,0.6,0.8,0.5,1.3v5.9c0,0.5-0.2,1-0.5,1.3c-0.3,0.4-0.8,0.6-1.3,0.6H7.6c-1,0-1.8-0.8-1.9-1.9v-6c0-0.5,0.2-1,0.6-1.3
			c0.3-0.3,0.8-0.5,1.3-0.5L24.8,61.4z M12.5,75.3c0-0.1-0.1-0.2-0.2-0.2c0,0,0,0,0,0H7.6c-0.2,0-0.2,0.1-0.2,0.2v1.4
			c0,0.2,0.1,0.2,0.2,0.2h4.6c0.1,0,0.2-0.1,0.2-0.2c0,0,0,0,0,0V75.3z M7.6,79c-0.2,0-0.2,0.1-0.2,0.2v1.4c0,0.1,0.1,0.2,0.2,0.2
			h4.6c0.1,0,0.2-0.1,0.2-0.2c0,0,0,0,0,0v-1.4c0-0.1-0.1-0.2-0.2-0.2c0,0,0,0,0,0H7.6z M7.4,84.9c0,0.2,0.1,0.2,0.2,0.2l4.6-0.4
			c0.1,0,0.2-0.1,0.2-0.3c0,0,0,0,0,0v-1.1c0-0.1-0.1-0.2-0.2-0.2c0,0,0,0-0.1,0H7.6c-0.2,0-0.2,0.1-0.2,0.2V84.9z M23.4,65.3
			c0.2,0,0.3-0.1,0.3-0.2v-1.3c0-0.2-0.1-0.2-0.3-0.2H8.9c-0.1,0-0.2,0.1-0.2,0.2c0,0,0,0,0,0.1v1.4c0,0.2,0.1,0.2,0.2,0.2
			L23.4,65.3z M23.4,69.1c0.2,0,0.3-0.1,0.3-0.2v-1.4c0-0.2-0.1-0.2-0.3-0.2H8.9c-0.2,0-0.2,0.1-0.2,0.2v1.4c0,0.2,0.1,0.2,0.2,0.2
			H23.4z M25.6,79.2c0,0,0-0.1,0-0.1c0,0-0.1-0.1-0.1-0.1h-5.2c0,0-0.1,0-0.1,0.1c0,0.1,0,0.1,0,0.2c0.6,1.3,1.5,2.6,2.5,3.7
			c0.1,0.1,0.2,0.1,0.3,0.1c0,0,0,0,0.1-0.1C24,81.8,24.9,80.6,25.6,79.2L25.6,79.2z"/>
		<path class="st1" d="M49.1,82.4c0.3,0.2,0.5,0.6,0.5,0.9c0,0.1,0,0.1,0,0.2c0,0.3-0.1,0.6-0.3,0.9c-0.2,0.3-0.5,0.4-0.9,0.4h-0.1
			c-0.3,0-0.7-0.1-0.9-0.4c-0.6-0.6-1.2-1.2-2-2c0,0-0.1,0-0.1,0c0,0-0.1,0.1-0.1,0.1v6c0,0.8-0.7,1.4-1.4,1.4
			c-0.8,0-1.4-0.6-1.5-1.4c0,0,0,0,0,0v-5.9c0,0,0-0.1-0.1-0.1s-0.1,0-0.1,0c-1,1.6-2.2,3-3.6,4.3c-0.2,0.2-0.5,0.3-0.9,0.3h-0.2
			c-0.4,0-0.8-0.2-1-0.5c-0.2-0.2-0.3-0.6-0.3-0.9c0-0.4,0.2-0.8,0.5-1c1.9-1.6,3.6-3.5,4.9-5.7c0,0,0-0.1,0-0.1
			c0,0-0.1-0.1-0.1-0.1h-3.9c-0.7,0-1.3-0.6-1.3-1.3c0-0.3,0.1-0.7,0.4-0.9c0.2-0.2,0.6-0.4,0.9-0.4h4.5c0.1,0,0.2-0.1,0.3-0.2
			c0,0,0,0,0-0.1v-2.4c0-0.2-0.1-0.2-0.2-0.2h-4.6c-0.3,0-0.7-0.1-0.9-0.4c-0.2-0.2-0.4-0.6-0.4-0.9c0-0.3,0.1-0.7,0.4-0.9
			c0.2-0.2,0.6-0.4,0.9-0.4h1.8c0.2,0,0.2-0.1,0.2-0.2c-0.1-0.7-0.3-1.5-0.5-2.2c-0.1-0.2-0.1-0.4-0.1-0.5c0-0.3,0.1-0.6,0.2-0.8
			c0.2-0.4,0.6-0.7,1-0.8h0.2l0,0l0,0H38c-0.7,0-1.2-0.6-1.2-1.2c-0.1-0.7,0.4-1.3,1.1-1.3c0,0,0.1,0,0.1,0h4.2
			c0.2,0,0.2-0.1,0.2-0.2v-1.4c0-0.8,0.6-1.4,1.4-1.5c0,0,0,0,0,0c0.8,0,1.5,0.6,1.5,1.5l0,0v1.4c0,0.1,0.1,0.2,0.2,0.2c0,0,0,0,0,0
			h4.2c0.3,0,0.6,0.1,0.9,0.4c0.2,0.2,0.4,0.5,0.4,0.9c0,0.3-0.1,0.7-0.4,0.9c-0.2,0.2-0.5,0.4-0.9,0.4h-2.4c0,0,0,0,0,0.1h0.2
			c0.5,0.1,0.8,0.4,1.1,0.8c0.1,0.2,0.2,0.5,0.2,0.7c0,0.2,0,0.4-0.1,0.6c-0.4,1-0.7,1.7-1,2.3c0,0,0,0.1,0,0.1
			c0,0.1,0.1,0.1,0.1,0.1h2.3c0.7,0,1.2,0.5,1.3,1.2c0,0,0,0,0,0.1c0,0.3-0.1,0.7-0.4,0.9c-0.2,0.2-0.6,0.4-0.9,0.4h-4.5
			c-0.2,0-0.2,0.1-0.2,0.2v2.4c0,0.2,0.1,0.3,0.2,0.3h4.2c0.3,0,0.6,0.1,0.9,0.4c0.2,0.2,0.4,0.6,0.4,0.9c0,0.3-0.1,0.7-0.4,0.9
			c-0.2,0.2-0.5,0.4-0.9,0.4h-4.2c-0.1,0-0.2,0.1-0.2,0.2c0,0,0,0,0,0v0.1c0,0.1,0.1,0.3,0.2,0.3C46.2,80.1,47.4,81.1,49.1,82.4z
			 M46.5,66.4c0,0,0-0.1,0-0.1c0-0.1-0.1-0.1-0.2-0.1h-5.3c-0.1,0-0.1,0-0.1,0.1c0,0,0,0.1,0,0.1c0.3,0.8,0.6,1.5,0.8,2.3
			c0,0.1,0.1,0.3,0.1,0.4c0,0.3-0.1,0.6-0.3,0.9c-0.2,0.4-0.6,0.7-1.1,0.8c0,0,0,0,0,0.1h6.7 M47.2,70.8H47c-0.4-0.1-0.8-0.4-1-0.8
			c-0.1-0.2-0.2-0.5-0.2-0.8c0-0.2,0-0.4,0.1-0.6c0.3-0.9,0.5-1.6,0.7-2.3L47.2,70.8z M64.3,71.1c0.4,0,0.7,0.1,1,0.4
			c0.3,0.3,0.4,0.6,0.4,1c0,0.8-0.6,1.4-1.4,1.4h-1.8c-0.2,0-0.2,0.1-0.2,0.2v14.3c0,0.4-0.1,0.7-0.4,1c-0.3,0.3-0.6,0.4-1,0.4
			c-0.4,0-0.7-0.2-1-0.4c-0.3-0.3-0.4-0.6-0.4-1V74.1c0-0.1-0.1-0.2-0.2-0.2c0,0,0,0,0,0h-3.8c-0.2,0-0.3,0.1-0.3,0.2v0.1
			c0,6.6-1.3,11.5-4,14.9c-0.2,0.3-0.5,0.4-0.9,0.4h-0.1c-0.4,0-0.7-0.2-1-0.4c-0.3-0.3-0.5-0.6-0.5-1c0-0.1,0-0.1,0-0.2
			c0-0.3,0-0.6,0.2-0.9c0.7-0.9,1.3-1.9,1.8-3c0.5-1.1,0.8-2.2,1-3.4c0.2-1.2,0.3-2.2,0.4-3.2s0.1-2,0.1-3.2v-9.4
			c0-0.4,0.2-0.9,0.6-1.1c0.2-0.2,0.5-0.3,0.8-0.3c0.1,0,0.3,0,0.4,0.1c0.2,0,0.3,0,0.5,0c2.3-0.5,4.6-1.2,6.9-2
			c0.3-0.1,0.7-0.2,1-0.2h0.4c0.5,0.1,0.9,0.3,1.3,0.6c0.2,0.2,0.3,0.5,0.3,0.8v0.2c0,0.4-0.3,0.6-0.6,0.8c-2.7,1-5.5,1.7-8.4,2.3
			c-0.2,0-0.3,0.1-0.3,0.3v4.8c0,0.2,0.1,0.2,0.3,0.2L64.3,71.1z"/>
		<path class="st1" d="M77.1,72c0.3,0.2,0.5,0.6,0.6,1v0.2c0,0.3-0.1,0.7-0.3,0.9c-0.2,0.3-0.6,0.5-1,0.5c0,0-0.1,0-0.1,0
			c-0.3,0-0.7-0.1-0.9-0.3c-1.1-0.8-2.2-1.6-3.4-2.3c-0.3-0.2-0.5-0.4-0.6-0.8c0-0.1,0-0.2,0-0.3c0-0.3,0.1-0.5,0.3-0.7
			c0.2-0.3,0.6-0.5,1-0.6H73c0.3,0,0.5,0.1,0.8,0.2C74.9,70.5,76,71.2,77.1,72z M75.1,88.4c-0.2,0.4-0.6,0.6-1,0.7
			c-0.1,0-0.2,0-0.3,0c-0.3,0-0.6-0.1-0.8-0.3c-0.4-0.3-0.6-0.7-0.7-1.1c0-0.1,0-0.2,0-0.3c0-0.3,0.1-0.6,0.2-0.9
			c1.4-2.3,2.7-4.9,4-7.6c0.1-0.3,0.4-0.6,0.7-0.6c0.4-0.1,0.7,0,1,0.2c0.3,0.3,0.5,0.6,0.6,1c0,0.1,0,0.3,0,0.4
			c0,0.3-0.1,0.5-0.2,0.8C77.6,83.4,76.3,86,75.1,88.4L75.1,88.4z M73.4,63.5c-0.3-0.2-0.5-0.5-0.6-0.8v-0.2c0-0.3,0.1-0.5,0.2-0.7
			c0.3-0.3,0.6-0.5,1-0.6c0.1,0,0.2-0.1,0.3-0.1c0.3,0,0.5,0.1,0.8,0.2c1.1,0.6,2.2,1.3,3.2,2.1c0.4,0.3,0.5,0.7,0.5,1.2
			c0,0.4-0.1,0.7-0.3,1c-0.3,0.3-0.6,0.5-1,0.5h-0.1c-0.4,0-0.7-0.1-1-0.3C75.5,64.9,74.5,64.2,73.4,63.5z M86,65.9
			c0.1,0.2,0.2,0.4,0.2,0.6c0,0.2-0.1,0.3-0.2,0.5c-0.1,0.4-0.4,0.7-0.8,0.9C85,68,84.8,68,84.6,68c-0.2,0-0.3,0-0.5-0.1
			c-0.4-0.1-0.6-0.4-0.8-0.8c-0.5-1.2-1.1-2.3-1.8-3.4c-0.1-0.2-0.2-0.4-0.2-0.6c0-0.1,0-0.2,0-0.3c0.1-0.3,0.4-0.6,0.7-0.7
			c0.2-0.1,0.5-0.2,0.7-0.2c0.1,0,0.3,0,0.4,0.1c0.4,0.1,0.8,0.3,1,0.7C84.8,63.6,85.5,64.7,86,65.9z M96.7,69.5
			c0.5,0,1,0.2,1.3,0.5c0.4,0.3,0.6,0.8,0.6,1.3v15.2c0,0.6-0.1,1.3-0.3,1.9c-0.2,0.5-0.6,0.8-1.1,1C96,89.8,94.7,90,93.5,90l0,0
			c-0.4,0-0.8-0.1-1.1-0.4c-0.3-0.2-0.6-0.6-0.7-1c-0.1-0.3-0.1-0.7,0.1-0.9c0.2-0.3,0.5-0.4,0.8-0.4h2.3c0.2,0,0.4-0.1,0.5-0.2
			c0.1-0.1,0.2-0.3,0.1-0.5v-3c0-0.1-0.1-0.2-0.2-0.2c0,0,0,0,0,0H84.9c-0.2,0-0.3,0.1-0.3,0.2v5c0,0.8-0.6,1.5-1.4,1.5
			c0,0,0,0-0.1,0c-0.8,0-1.5-0.7-1.5-1.5c0,0,0,0,0,0V71.3c0-0.5,0.2-1,0.6-1.3c0.3-0.3,0.8-0.5,1.3-0.5h4.9c0.2,0,0.2-0.1,0.2-0.2
			v-7.3c0-0.4,0.2-0.8,0.4-1.1c0.3-0.3,0.7-0.5,1.1-0.4c0.4,0,0.8,0.1,1.1,0.4c0.3,0.3,0.5,0.7,0.5,1.1v7.3c0,0.2,0.1,0.2,0.2,0.2
			H96.7z M95.6,72.5c0-0.1-0.1-0.2-0.2-0.2c0,0,0,0,0,0H84.9c-0.2,0-0.3,0.1-0.3,0.2V75c0,0.2,0.1,0.2,0.3,0.2h10.4
			c0.1,0,0.2-0.1,0.2-0.2L95.6,72.5z M84.6,80.6c0,0.2,0.1,0.2,0.3,0.2h10.4c0.1,0,0.2-0.1,0.2-0.2c0,0,0,0,0-0.1V78
			c0-0.1-0.1-0.2-0.2-0.2c0,0,0,0,0,0H84.9c-0.2,0-0.3,0.1-0.3,0.2V80.6z M96.3,62.7c0.2-0.4,0.5-0.7,0.8-0.8
			c0.2-0.1,0.4-0.1,0.6-0.1c0.2,0,0.4,0,0.6,0.1c0.4,0.1,0.7,0.4,0.8,0.8c0.1,0.2,0.1,0.3,0.1,0.5c0,0.2-0.1,0.4-0.2,0.6
			c-0.7,1.3-1.4,2.5-2,3.5c-0.2,0.3-0.5,0.6-0.9,0.7C96,68,95.8,68,95.6,68c-0.2,0-0.4,0-0.6-0.1c-0.3-0.1-0.6-0.4-0.7-0.7
			c0-0.1-0.1-0.3-0.1-0.4c0-0.2,0.1-0.4,0.2-0.6C95.2,65,95.8,63.8,96.3,62.7z"/>
		<path class="st1" d="M108.9,87.9c-0.3,0.3-0.6,0.5-1.1,0.6h-0.2c-0.4,0-0.7-0.1-1-0.3c-0.3-0.2-0.5-0.6-0.5-1
			c0-0.3,0.1-0.7,0.3-0.9c1-1.2,1.8-2.5,2.3-4c0.1-0.3,0.4-0.6,0.7-0.8c0.2-0.1,0.4-0.1,0.6-0.1c0.2,0,0.3,0,0.5,0.1
			c0.4,0.1,0.6,0.4,0.8,0.8c0.1,0.2,0.1,0.4,0.1,0.6c0,0.2,0,0.3-0.1,0.5C110.9,84.9,110,86.5,108.9,87.9z M128.7,62.9
			c0.5,0,1,0.2,1.3,0.5c0.4,0.3,0.6,0.8,0.6,1.3v12c0,0.5-0.2,1-0.6,1.3c-0.3,0.4-0.8,0.5-1.3,0.5h-16.3c-1,0-1.8-0.8-1.9-1.8
			c0,0,0,0,0-0.1v-12c0-0.5,0.2-1,0.5-1.3c0.3-0.4,0.8-0.6,1.3-0.5h5.3c0.1,0,0.3-0.1,0.3-0.2c0.1-0.3,0.2-0.6,0.3-0.9
			c0.2-0.5,0.5-0.9,0.9-1.2c0.3-0.2,0.7-0.3,1.1-0.3h0.3c0.4,0.1,0.8,0.3,1,0.7c0.1,0.2,0.1,0.4,0.2,0.6c0,0.2-0.1,0.4-0.2,0.6
			l-0.3,0.5c0,0,0,0.1,0,0.1c0,0,0.1,0.1,0.1,0.1H128.7z M127.3,67.4c0.1,0,0.2-0.1,0.2-0.2c0,0,0,0,0-0.1v-1.7
			c0-0.2-0.1-0.3-0.2-0.3h-13.7c-0.2,0-0.2,0.1-0.2,0.3v1.7c0,0.1,0.1,0.2,0.2,0.2c0,0,0,0,0.1,0L127.3,67.4z M127.3,71.8
			c0.1,0,0.2-0.1,0.2-0.2c0,0,0,0,0-0.1v-1.7c0-0.1-0.1-0.2-0.2-0.2c0,0,0,0-0.1,0h-13.7c-0.1,0-0.2,0.1-0.2,0.2c0,0,0,0,0,0.1v1.8
			c0,0.1,0.1,0.2,0.2,0.2c0,0,0,0,0.1,0L127.3,71.8z M127.3,76.3c0.2,0,0.2-0.1,0.2-0.3v-1.7c0-0.2-0.1-0.2-0.2-0.2h-13.7
			c-0.2,0-0.2,0.1-0.2,0.2v1.7c0,0.2,0.1,0.3,0.2,0.3L127.3,76.3z M118.6,87.2h5.3c0.4,0,0.8-0.1,1.1-0.3c0.3-0.3,0.4-0.8,0.4-1.2
			c0-0.3,0.2-0.6,0.5-0.8c0.3-0.2,0.6-0.2,0.9-0.1c0.4,0.1,0.8,0.4,1,0.8c0.2,0.2,0.3,0.5,0.2,0.8c0,0.1,0,0.2,0,0.3
			c-0.1,0.9-0.5,1.8-1.2,2.5c-0.8,0.5-1.7,0.7-2.7,0.7h-5.8c-1.8,0-3.1-0.2-3.7-0.8c-0.7-0.8-1.1-1.8-0.9-2.9v-3.5
			c0-0.4,0.2-0.7,0.4-1c0.6-0.6,1.5-0.6,2.1,0c0,0,0,0,0,0c0.3,0.3,0.4,0.6,0.4,1v3.5c0,0.4,0.1,0.7,0.3,0.8
			C117.6,87.2,118.1,87.3,118.6,87.2L118.6,87.2z M118.2,81c-0.4-0.4-0.5-1-0.1-1.4c0.1-0.1,0.1-0.1,0.2-0.2c0.3-0.2,0.6-0.3,1-0.3
			h0.1c0.4,0,0.8,0.1,1.1,0.4c1,0.8,1.9,1.7,2.8,2.6c0.2,0.2,0.3,0.5,0.3,0.8c0,0.1,0,0.2,0,0.2c-0.1,0.4-0.3,0.7-0.6,0.9
			c-0.2,0.2-0.5,0.3-0.8,0.2c-0.1,0-0.2,0-0.2,0c-0.4-0.1-0.7-0.3-1-0.6C120,82.8,119.1,81.9,118.2,81L118.2,81z M128.3,83
			c-0.4-0.4-0.5-1.1-0.1-1.6c0.1-0.1,0.1-0.1,0.2-0.2c0.3-0.2,0.6-0.3,1-0.3h0.2c0.4,0,0.8,0.2,1.1,0.5c1.5,1.4,2.8,2.9,4,4.6
			c0.2,0.2,0.2,0.5,0.2,0.8c0,0.1,0,0.3-0.1,0.4c-0.1,0.4-0.4,0.8-0.7,1c-0.2,0.1-0.5,0.2-0.7,0.2c-0.1,0-0.2,0-0.4,0
			c-0.4-0.1-0.7-0.3-0.9-0.7C131,86,129.8,84.4,128.3,83z"/>
		<path class="st1" d="M146.5,69.7c0.1,0,0.2-0.1,0.2-0.1c0,0,0,0,0,0v-0.1c0-0.3,0.1-0.7,0.4-0.9c0.2-0.2,0.6-0.4,0.9-0.4
			c0.3,0,0.7,0.1,0.9,0.4c0.2,0.2,0.4,0.6,0.4,0.9v0.1c0,0.1,0.1,0.2,0.2,0.2h4.6c0.3,0,0.6,0.1,0.8,0.3c0.2,0.2,0.3,0.5,0.3,0.8
			c0,0.3-0.1,0.6-0.3,0.8c-0.2,0.2-0.5,0.3-0.8,0.3h-4.6c-0.1,0-0.2,0.1-0.2,0.2v1.1c0,0.2,0.1,0.3,0.2,0.3h3.1c0.5,0,1,0.2,1.3,0.5
			c0.4,0.3,0.6,0.8,0.6,1.3v5.4c0,0.5-0.2,1-0.6,1.3c-0.3,0.3-0.8,0.5-1.3,0.5h-3.1c-0.1,0-0.2,0.1-0.2,0.2V84
			c0,0.2,0.1,0.2,0.2,0.2h4.9c0.6,0,1.1,0.5,1.1,1.1c0,0.3-0.1,0.6-0.3,0.8c-0.2,0.2-0.5,0.3-0.8,0.3h-4.9c-0.1,0-0.2,0.1-0.2,0.3
			v1.9c0,0.7-0.6,1.3-1.3,1.3c0,0,0,0-0.1,0c-0.7,0-1.3-0.6-1.3-1.3v-1.9c0-0.1-0.1-0.2-0.2-0.3c0,0,0,0-0.1,0h-4.9
			c-0.3,0-0.6-0.1-0.8-0.3c-0.4-0.4-0.4-1.1,0-1.6c0,0,0,0,0,0c0.2-0.2,0.5-0.3,0.8-0.3h4.9c0.1,0,0.2-0.1,0.2-0.2c0,0,0,0,0-0.1
			v-1.2c0-0.1-0.1-0.2-0.2-0.2c0,0,0,0,0,0h-3c-0.5,0-1-0.2-1.3-0.5c-0.4-0.3-0.6-0.8-0.6-1.3v-5.4c0-0.5,0.2-1,0.6-1.3
			c0.3-0.3,0.8-0.5,1.3-0.5h3c0.1,0,0.2-0.1,0.3-0.2c0,0,0,0,0-0.1v-1.1c0-0.1-0.1-0.2-0.2-0.2c0,0,0,0-0.1,0H142
			c-0.3,0-0.6-0.1-0.8-0.3c-0.2-0.2-0.3-0.5-0.3-0.8c0-0.3,0.1-0.6,0.3-0.8c0.2-0.2,0.5-0.3,0.8-0.3L146.5,69.7z M160.2,65.5
			c-0.1-0.1-0.2-0.2-0.4-0.2h-1.7c-0.2,0-0.3,0.1-0.4,0.2c-0.5,0.6-1,1.2-1.5,1.7c-0.3,0.3-0.7,0.5-1.1,0.5c-0.1,0-0.1,0-0.2,0
			c-0.4,0-0.7-0.1-1-0.3c-0.5-0.2-0.7-0.8-0.5-1.3c0.1-0.1,0.2-0.2,0.3-0.3l0.3-0.3c0,0,0.1-0.1,0-0.1c0,0-0.1,0-0.1,0h-4.6
			c0,0-0.1,0-0.1,0.1c0,0,0,0.1,0,0.1c0.1,0.2,0.2,0.4,0.3,0.5c0.1,0.2,0.1,0.3,0.1,0.5c0,0.2,0,0.3-0.1,0.5
			c-0.2,0.3-0.4,0.6-0.8,0.7c-0.1,0-0.2,0.1-0.4,0.1c-0.2,0-0.5-0.1-0.7-0.2c-0.3-0.2-0.6-0.4-0.8-0.8c-0.2-0.4-0.4-0.8-0.6-1.3
			c-0.1-0.1-0.2-0.2-0.4-0.2h-0.6c-0.1,0-0.3,0.1-0.4,0.2c-0.5,0.7-1,1.3-1.5,1.9c-0.3,0.3-0.7,0.5-1.1,0.5c-0.1,0-0.1,0-0.2,0
			c-0.4,0-0.7-0.1-1-0.3c-0.3-0.2-0.5-0.6-0.5-1c0-0.3,0.1-0.6,0.3-0.8c1.2-1.3,2.3-2.8,3.1-4.4c0.2-0.4,0.5-0.7,0.9-0.8
			c0.2-0.1,0.5-0.2,0.7-0.2c0.1,0,0.3,0,0.4,0c0.4,0.1,0.7,0.3,0.8,0.7c0.1,0.1,0.1,0.3,0.1,0.5c0,0.2,0,0.4-0.1,0.5
			c0,0.1-0.1,0.2-0.2,0.3c0,0,0,0.1,0,0.1c0,0,0.1,0.1,0.1,0.1h5.8c0.5,0,1,0.2,1.3,0.5c0.4,0.3,0.6,0.8,0.6,1.3v0.1
			c0,0,0,0.1,0,0.1c0,0,0.1,0,0.1,0c0.8-1,1.6-2,2.1-3.2c0.2-0.4,0.5-0.7,0.9-0.9c0.2-0.1,0.5-0.2,0.8-0.2c0.1,0,0.3,0,0.4,0.1
			c0.4,0.1,0.7,0.3,0.8,0.7c0.1,0.2,0.1,0.3,0.1,0.5c0,0.2,0,0.4-0.1,0.5l-0.2,0.3c0,0,0,0.1,0,0.1c0,0.1,0.1,0.1,0.1,0.1h8.5
			c0.3,0,0.7,0.1,0.9,0.4c0.2,0.2,0.4,0.6,0.4,0.9c0,0.7-0.6,1.3-1.3,1.3l0,0h-4.7c0,0-0.1,0-0.1,0.1c0,0,0,0.1,0,0.1
			c0.2,0.3,0.4,0.7,0.7,1c0.1,0.2,0.2,0.3,0.2,0.5c0,0.1,0,0.3-0.1,0.4c-0.1,0.3-0.4,0.6-0.7,0.7c-0.2,0-0.3,0.1-0.5,0.1
			c-0.2,0-0.4,0-0.6-0.1c-0.4-0.2-0.7-0.4-0.9-0.8C161.1,66.7,160.7,66.1,160.2,65.5z M144.2,75.4c-0.1,0-0.2,0.1-0.2,0.2
			c0,0,0,0,0,0v1.3c0,0.1,0.1,0.2,0.2,0.2c0,0,0,0,0,0h2.3c0.2,0,0.2-0.1,0.2-0.2v-1.3c0-0.2-0.1-0.2-0.2-0.2L144.2,75.4z M144,80.4
			c0,0.2,0.1,0.2,0.2,0.2h2.3c0.1,0,0.2-0.1,0.2-0.2c0,0,0,0,0-0.1v-1.3c0-0.2-0.1-0.2-0.2-0.2h-2.3c-0.1,0-0.2,0.1-0.2,0.2
			c0,0,0,0,0,0V80.4z M152,75.6c0-0.2-0.1-0.2-0.2-0.2h-2.3c-0.1,0-0.2,0.1-0.2,0.2v1.3c0,0.2,0.1,0.2,0.2,0.2h2.3
			c0.2,0,0.2-0.1,0.2-0.2V75.6z M151.8,80.7c0.1,0,0.2-0.1,0.2-0.2c0,0,0,0,0-0.1v-1.3c0-0.2-0.1-0.2-0.2-0.2h-2.3
			c-0.1,0-0.2,0.1-0.2,0.2v1.3c0,0.2,0.1,0.2,0.2,0.2L151.8,80.7z M160.9,87h4.8c0.5,0,0.9-0.2,1.1-0.5c0.3-0.7,0.5-1.4,0.5-2.2
			c0-0.3,0.2-0.6,0.5-0.7c0.3-0.1,0.6-0.1,0.9,0c0.4,0.2,0.7,0.4,0.9,0.8c0.2,0.3,0.3,0.6,0.3,0.9v0.2c-0.1,1.2-0.5,2.4-1.1,3.4
			c-0.7,0.7-1.7,1-2.8,0.9h-5.4c-1.2,0.1-2.4-0.2-3.3-0.9c-0.6-0.6-0.9-1.7-0.9-3.4V71.1c0-0.5,0.2-1,0.6-1.3
			c0.3-0.4,0.8-0.6,1.3-0.6h8.2c0.5,0,1,0.2,1.3,0.6c0.4,0.3,0.6,0.8,0.6,1.3v7.5c0,0.6-0.1,1.2-0.3,1.7c-0.2,0.4-0.6,0.8-1,1
			c-1,0.3-2,0.5-3,0.5H164c-0.4,0-0.8-0.1-1.1-0.4c-0.3-0.2-0.6-0.6-0.7-1c-0.1-0.3-0.1-0.7,0.1-0.9c0.2-0.3,0.5-0.4,0.8-0.4
			c0.6,0,1.2,0,1.9,0c0.2,0,0.3-0.1,0.4-0.1c0.1-0.1,0.1-0.3,0.1-0.4v-6.4c0-0.2-0.1-0.2-0.3-0.2h-5.7c-0.1,0-0.2,0.1-0.2,0.2
			c0,0,0,0,0,0.1v13.2c-0.1,0.5,0.1,0.9,0.3,1.3C160,87,160.4,87.1,160.9,87z"/>
		<path class="st1" d="M180.5,61.9c0.1-0.4,0.4-0.7,0.7-0.8c0.2-0.1,0.4-0.2,0.7-0.2c0.1,0,0.3,0,0.4,0.1c0.4,0.1,0.7,0.3,0.9,0.7
			c0.1,0.2,0.2,0.4,0.2,0.6c0,0.2,0,0.3-0.1,0.5c-0.6,1.6-1.3,3.3-2,5c-0.1,0.1-0.1,0.3-0.1,0.4v20.6c0,0.4-0.1,0.7-0.4,1
			c-0.3,0.3-0.6,0.4-1,0.4c-0.4,0-0.7-0.1-1-0.4c-0.3-0.3-0.4-0.6-0.4-1V73.1c0,0,0-0.1-0.1-0.1c0,0,0,0,0,0c-0.1,0-0.1,0-0.1,0
			c-0.4,0.7-0.9,1.3-1.4,2c-0.2,0.3-0.5,0.4-0.8,0.4h-0.2c-0.4,0-0.7-0.3-0.9-0.6c-0.2-0.4-0.3-0.8-0.3-1.2c0-0.1,0-0.2,0-0.3
			c0-0.5,0.2-1,0.5-1.4C177.6,68.8,179.3,65.4,180.5,61.9z M197.8,81.3c0,0.7-0.6,1.3-1.3,1.3c-0.7,0-1.3-0.6-1.3-1.3V64.8
			c0-0.1-0.1-0.2-0.2-0.2c0,0,0,0-0.1,0h-5.6c-0.1,0-0.3,0.1-0.3,0.2c-0.3,1.8-0.6,3-0.7,3.7c-0.1,0.2,0,0.2,0.1,0.2h3.6
			c0.3-0.1,0.6-0.1,0.8,0l0.5,0.1c0.2,0.1,0.5,0.2,0.6,0.5c0.1,0.2,0.2,0.5,0.2,0.7c-1.2,8.9-3.9,15.3-8.3,19.1
			c-0.2,0.2-0.5,0.3-0.8,0.3h-0.2c-0.4-0.1-0.8-0.3-1-0.6c-0.2-0.3-0.3-0.6-0.3-0.9c0-0.4,0.2-0.8,0.5-1.1c2.1-1.8,3.7-4.1,4.8-6.7
			c0.1-0.1,0-0.3-0.1-0.4c-1-1-2-2-3.2-2.8c-0.1-0.1-0.2-0.1-0.3,0.1c-0.3,0.6-0.7,1.2-1.1,1.7c-0.2,0.3-0.5,0.4-0.8,0.4
			c-0.3,0-0.7-0.2-0.9-0.4c-0.3-0.3-0.4-0.7-0.4-1.2c0-0.4,0.1-0.7,0.3-1c1.8-2.7,3.1-6.7,3.9-11.8c0-0.2,0-0.2-0.2-0.2h-1
			c-0.4,0-0.7-0.1-0.9-0.4c-0.2-0.2-0.4-0.6-0.4-0.9c0-0.4,0.1-0.7,0.4-0.9c0.2-0.3,0.6-0.4,0.9-0.4h8.3c1,0,1.8,0.8,1.9,1.9l0,0
			c0,0.2,0.1,0.3,0.2,0.3h0.6c0.5,0,1,0.2,1.3,0.5c0.4,0.3,0.6,0.8,0.6,1.3L197.8,81.3z M191.2,71.5c0-0.2-0.1-0.2-0.2-0.2h-3.2
			c-0.1,0-0.3,0.1-0.3,0.2c-0.3,0.9-0.6,1.8-1,2.7c0,0.1,0,0.3,0.1,0.4c1.3,0.9,2.3,1.7,3.1,2.4c0.1,0.1,0.2,0.1,0.2-0.1
			C190.5,75.2,190.9,73.4,191.2,71.5z M200.8,62.3c0-0.7,0.6-1.3,1.4-1.3c0.4,0,0.7,0.1,1,0.4c0.3,0.3,0.4,0.6,0.4,1v24.1
			c0,0.7-0.1,1.4-0.3,2c-0.2,0.5-0.6,0.8-1.1,1c-1.2,0.4-2.4,0.6-3.7,0.5l0,0c-0.4,0-0.8-0.1-1.1-0.4c-0.4-0.3-0.6-0.7-0.8-1.1
			c0-0.1,0-0.2,0-0.3c0-0.2,0.1-0.4,0.2-0.6c0.2-0.3,0.5-0.4,0.9-0.4c0.3,0,1.1,0,2.5,0c0.2,0,0.4-0.1,0.6-0.2
			c0.1-0.2,0.2-0.3,0.2-0.5L200.8,62.3z"/>
		<path class="st1" d="M238.7,65.4c0.3,0.3,0.4,0.6,0.4,1c0,0.8-0.6,1.4-1.4,1.4c0,0,0,0,0,0h-3.1c-0.2,0-0.3,0.1-0.4,0.2
			c-1.5,4.5-4,8.6-7.2,12.1c-0.1,0.1-0.1,0.2,0,0.3c3.2,2.5,6.8,4.4,10.7,5.4c0.4,0.1,0.7,0.4,0.8,0.8c0,0.1,0.1,0.3,0.1,0.4
			c0,0.3-0.1,0.5-0.2,0.7c-0.3,0.4-0.7,0.8-1.2,1c-0.3,0.1-0.6,0.2-0.9,0.2c-0.2,0-0.4,0-0.7-0.1c-4.1-1.2-7.8-3.3-11.1-6
			c-0.1-0.1-0.3-0.1-0.4,0c-3.3,2.6-7,4.6-11,6c-0.4,0.2-0.9,0.2-1.4,0c-0.5-0.2-0.9-0.5-1.1-0.9c-0.1-0.2-0.2-0.4-0.2-0.7
			c0-0.2,0-0.3,0.1-0.4c0.1-0.4,0.4-0.7,0.8-0.8c3.8-1.1,7.4-3,10.6-5.4c0.1-0.1,0.1-0.2,0-0.3c0,0,0,0,0,0c-3.1-3.6-5.5-7.7-7-12.2
			c-0.1-0.1-0.2-0.2-0.4-0.2h-3c-0.8,0-1.4-0.6-1.4-1.4c0-0.8,0.7-1.4,1.5-1.4h11.2c0.1,0,0.2-0.1,0.2-0.2v-3.5
			c0-0.8,0.7-1.5,1.5-1.5c0.8,0,1.5,0.7,1.5,1.5c0,0,0,0,0,0v3.5c0,0.1,0.1,0.2,0.2,0.2c0,0,0,0,0.1,0h11.4
			C238,65,238.4,65.1,238.7,65.4z M230.7,68.1c0,0,0-0.1,0-0.1c0,0-0.1-0.1-0.1-0.1h-12.3c0,0-0.1,0-0.1,0.1c0,0,0,0.1,0,0.2
			c1.4,3.7,3.5,7.1,6.2,10c0.1,0.1,0.2,0.1,0.3,0c0,0,0,0,0,0C227.3,75.2,229.4,71.8,230.7,68.1z"/>
		<path class="st1" d="M272.4,84c0.3,0,0.7,0.1,0.9,0.4c0.2,0.2,0.4,0.5,0.4,0.9c0,0.3-0.1,0.7-0.4,0.9c-0.2,0.2-0.6,0.4-0.9,0.4
			H261c-0.2,0-0.3,0.1-0.3,0.2v1.8c0,0.4-0.2,0.8-0.5,1.1c-0.3,0.3-0.7,0.5-1.1,0.5c-0.4,0-0.8-0.2-1.1-0.5
			c-0.3-0.3-0.5-0.7-0.5-1.1v-1.8c0-0.1-0.1-0.2-0.2-0.2c0,0,0,0-0.1,0H246c-0.7,0-1.2-0.5-1.3-1.2c0,0,0,0,0-0.1
			c0-0.3,0.1-0.6,0.4-0.9c0.2-0.2,0.6-0.3,0.9-0.3h11.4c0.2,0,0.2-0.1,0.2-0.2v-1.4c0-0.1-0.1-0.2-0.2-0.2c0,0,0,0-0.1,0h-7.2
			c-0.5,0-1-0.2-1.3-0.6c-0.3-0.3-0.5-0.8-0.5-1.3V74c0-0.5,0.2-1,0.5-1.3c0.3-0.4,0.8-0.6,1.3-0.5h18.1c0.5,0,1,0.2,1.3,0.5
			c0.4,0.3,0.5,0.8,0.5,1.3v6.3c0,0.5-0.2,1-0.5,1.3c-0.3,0.4-0.8,0.6-1.3,0.6H261c-0.2,0-0.3,0.1-0.3,0.2v1.3
			c0,0.1,0.1,0.2,0.3,0.2L272.4,84z M272.4,68.3c0.7,0,1.2,0.5,1.2,1.2c0,0,0,0,0,0c0,0.3-0.1,0.6-0.4,0.9c-0.2,0.2-0.5,0.4-0.9,0.3
			H246c-0.3,0-0.6-0.1-0.9-0.3c-0.2-0.2-0.4-0.5-0.4-0.9c0-0.3,0.1-0.6,0.4-0.9c0.2-0.2,0.5-0.3,0.9-0.3h6.5c0,0,0.1,0,0.1-0.1
			c0,0,0-0.1,0-0.1c-0.3-0.7-0.6-1.4-1-2.1c-0.1-0.1-0.1-0.3,0-0.4c0-0.1,0.2-0.2,0.3-0.2l0,0h-3.8c-0.7,0-1.2-0.5-1.2-1.2
			c0,0,0,0,0,0c0-0.3,0.1-0.6,0.3-0.8c0.2-0.2,0.5-0.4,0.9-0.3h9.2c0.1,0,0.2-0.1,0.2-0.2c0,0,0,0,0-0.1V62c0-0.9,0.7-1.6,1.6-1.6
			c0.9,0,1.6,0.7,1.6,1.6c0,0,0,0,0,0v0.6c0,0.1,0.1,0.2,0.2,0.2c0,0,0,0,0.1,0h9.5c0.3,0,0.6,0.1,0.9,0.3c0.2,0.2,0.4,0.5,0.4,0.8
			c0,0.3-0.1,0.6-0.4,0.8c-0.2,0.2-0.5,0.4-0.9,0.3h-3.4l0,0c0.1,0,0.1,0,0.1,0.1c0,0.1,0,0.1,0,0.2l-1.4,2.5c0,0,0,0.1,0,0.1
			c0,0,0.1,0.1,0.1,0.1L272.4,68.3z M251.4,74.3c-0.1,0-0.2,0.1-0.2,0.2c0,0,0,0,0,0.1v1.4c0,0.2,0.1,0.3,0.2,0.3h15.4
			c0.2,0,0.2-0.1,0.2-0.3v-1.5c0-0.1-0.1-0.2-0.2-0.2c0,0,0,0-0.1,0L251.4,74.3z M251.4,78.2c-0.2,0-0.2,0.1-0.2,0.3v1.5
			c0,0.1,0.1,0.2,0.2,0.2c0,0,0,0,0.1,0h15.4c0.1,0,0.2-0.1,0.2-0.2c0,0,0,0,0-0.1v-1.5c0-0.2-0.1-0.3-0.2-0.3L251.4,78.2z
			 M263.8,65.5c0,0,0-0.1,0-0.1c0,0-0.1-0.1-0.1-0.1h-9c0,0-0.1,0-0.1,0.1c0,0,0,0.1,0,0.1c0.5,0.8,0.9,1.6,1.2,2.5
			c0,0.1,0.2,0.2,0.3,0.2h6.2c0.2,0,0.3-0.1,0.4-0.2C263.1,67.2,263.5,66.3,263.8,65.5L263.8,65.5z"/>
		<path class="st1" d="M287,87.9c-2.3,0-4.5-1.2-5.6-3.2c-1.4-2.1-2-5.2-2-9.2s0.7-7.1,2-9.1c2-3.1,6.1-4,9.2-2.1
			c0.8,0.5,1.5,1.2,2.1,2.1c1.4,2.1,2.1,5.1,2.1,9.1s-0.7,7.1-2.1,9.2C291.5,86.7,289.3,88,287,87.9z M284,82.7
			c0.7,1.5,1.8,2.3,3,2.3s2.3-0.8,3-2.3s1.1-3.9,1.1-7.2c0-6.2-1.4-9.3-4.1-9.3c-2.8,0-4.1,3.1-4.1,9.3
			C282.9,78.8,283.2,81.2,284,82.7z"/>
		<path class="st1" d="M304.8,87.9c-2.4,0.1-4.8-0.7-6.6-2.2c-0.4-0.3-0.6-0.7-0.5-1.2c0-0.4,0.1-0.7,0.4-1c0.2-0.3,0.6-0.5,1-0.5
			c0,0,0.1,0,0.1,0c0.3,0,0.7,0.1,0.9,0.3c1.3,1,2.9,1.6,4.5,1.6c1.2,0.1,2.3-0.3,3.3-1c0.8-0.7,1.3-1.8,1.2-3c0-1.1-0.4-2.3-1.3-3
			c-1.3-0.9-2.8-1.3-4.4-1.3c-0.4,0-0.7-0.2-1-0.4c-0.3-0.3-0.4-0.6-0.4-1c0-0.4,0.1-0.7,0.4-1c0.3-0.3,0.6-0.4,1-0.5
			c3.2-0.3,4.9-1.7,4.9-4.1c0-0.9-0.3-1.9-1-2.5c-0.7-0.7-1.7-1-2.7-1c-1.3,0-2.6,0.5-3.6,1.3c-0.3,0.2-0.6,0.3-1,0.3h-0.1
			c-0.4,0-0.8-0.2-1-0.5c-0.2-0.3-0.4-0.6-0.4-1c0-0.5,0.2-0.9,0.6-1.1c1.6-1.2,3.6-1.9,5.6-1.9c1.9-0.1,3.8,0.5,5.4,1.7
			c2.3,2,2.7,5.4,0.9,7.9c-0.8,1-1.8,1.7-3,2.2c0,0-0.1,0.1-0.1,0.1c0,0.1,0,0.1,0.1,0.1c1.3,0.3,2.6,1.1,3.5,2.1
			c0.9,1.1,1.4,2.4,1.3,3.8c0.1,1.9-0.8,3.8-2.3,5C308.9,87.4,306.8,88,304.8,87.9z"/>
		<path class="st0" d="M50,128c-0.2,0-0.3-0.1-0.5-0.2c-0.1-0.1-0.2-0.3-0.2-0.4c0-0.4,0.2-0.8,0.5-1c1.6-1.4,3-2.9,4.3-4.6
			c0.8-1,1.3-2.3,1.4-3.6c0-0.7-0.2-1.3-0.6-1.8c-0.4-0.5-1.1-0.7-1.7-0.7c-0.8,0-1.6,0.4-2.1,0.9c-0.2,0.2-0.4,0.2-0.6,0.2l0,0
			c-0.2,0-0.4-0.1-0.6-0.2c-0.2-0.2-0.3-0.4-0.3-0.6c0-0.2,0.1-0.4,0.3-0.6c1-0.9,2.3-1.5,3.6-1.5c1.1-0.1,2.2,0.4,3.1,1.1
			c0.8,0.8,1.2,1.9,1.1,3c0,1.4-0.5,2.8-1.3,3.9c-1.1,1.6-2.3,3-3.7,4.3l0,0c0,0,0,0,0,0c0.8-0.1,1.5-0.1,2.1-0.1h2.5
			c0.2,0,0.5,0.1,0.7,0.3c0.2,0.2,0.3,0.4,0.3,0.7c0,0.2-0.1,0.5-0.3,0.7c-0.2,0.2-0.4,0.3-0.7,0.3L50,128z"/>
		<path class="st0" d="M66,128.2c-1.3,0-2.6-0.7-3.3-1.8c-0.9-1.7-1.3-3.5-1.2-5.4c-0.1-1.9,0.3-3.7,1.2-5.3
			c1.1-1.8,3.5-2.4,5.4-1.2c0.5,0.3,0.9,0.7,1.2,1.2c0.9,1.6,1.4,3.5,1.2,5.4c0.1,1.9-0.3,3.7-1.2,5.4
			C68.6,127.6,67.4,128.2,66,128.2z M64.2,125.2c0.3,1,1.3,1.5,2.3,1.3c0.6-0.2,1.1-0.7,1.3-1.3c0.5-1.3,0.7-2.8,0.7-4.2
			c0-3.6-0.8-5.4-2.4-5.4s-2.4,1.8-2.4,5.4C63.5,122.4,63.8,123.8,64.2,125.2L64.2,125.2z"/>
		<path class="st0" d="M74.3,128c-0.2,0-0.3-0.1-0.4-0.2c-0.1-0.1-0.2-0.3-0.2-0.4c0-0.4,0.2-0.8,0.5-1c1.6-1.4,3-2.9,4.3-4.6
			c0.8-1,1.3-2.3,1.4-3.6c0-0.7-0.2-1.3-0.6-1.8c-0.5-0.5-1.1-0.7-1.8-0.7c-0.8,0-1.6,0.4-2.1,0.9c-0.2,0.2-0.4,0.2-0.6,0.2l0,0
			c-0.2,0-0.4-0.1-0.6-0.2c-0.2-0.2-0.3-0.4-0.3-0.6c0-0.2,0.1-0.4,0.3-0.6c1-0.9,2.3-1.5,3.6-1.5c1.1-0.1,2.2,0.4,3.1,1.1
			c0.8,0.8,1.2,1.9,1.2,3c0,1.4-0.5,2.7-1.3,3.9c-1.1,1.6-2.3,3-3.7,4.3l0,0c0,0,0,0,0.1,0c0.8-0.1,1.5-0.1,2.1-0.1h2.5
			c0.2,0,0.5,0.1,0.7,0.3c0.2,0.2,0.3,0.4,0.3,0.7c0,0.2-0.1,0.5-0.3,0.7c-0.2,0.2-0.4,0.3-0.7,0.3L74.3,128z"/>
		<path class="st0" d="M90,128.2c-1.4,0-2.8-0.4-3.9-1.3c-0.2-0.1-0.3-0.4-0.3-0.6c0,0,0-0.1,0-0.1c0-0.2,0.1-0.4,0.2-0.6
			c0.1-0.2,0.3-0.3,0.6-0.3h0.1c0.2,0,0.4,0.1,0.5,0.2c0.7,0.6,1.6,0.9,2.6,0.9c0.8,0,1.5-0.3,2-0.8c0.5-0.6,0.8-1.4,0.8-2.2
			c0-0.8-0.2-1.5-0.7-2.1c-0.5-0.5-1.2-0.8-1.9-0.8c-0.6,0-1.2,0.2-1.7,0.5c-0.2,0.1-0.3,0.1-0.5,0.2c-0.2,0-0.4-0.1-0.5-0.2
			c-0.3-0.2-0.5-0.6-0.5-1l0.3-4.9c0-0.3,0.1-0.6,0.4-0.8c0.2-0.2,0.5-0.3,0.8-0.3h5c0.2,0,0.5,0.1,0.7,0.3c0.2,0.2,0.3,0.4,0.3,0.7
			c0,0.2-0.1,0.5-0.3,0.7c-0.2,0.2-0.4,0.3-0.7,0.3H89c-0.1,0-0.1,0-0.2,0.1l-0.3,3.3c0,0,0,0,0,0.1c0,0,0.1,0,0.1,0
			c0.6-0.3,1.2-0.4,1.9-0.4c1.1,0,2.2,0.4,3,1.1c0.8,0.9,1.3,2.1,1.2,3.3c0,0.9-0.2,1.8-0.7,2.6c-0.4,0.7-1,1.3-1.7,1.7
			C91.6,128,90.8,128.2,90,128.2z"/>
		<path class="st0" d="M98.8,123.4c-0.2,0-0.4-0.1-0.6-0.2c-0.2-0.1-0.2-0.3-0.2-0.6c0-0.4,0.4-0.8,0.8-0.8h3.4
			c0.2,0,0.4,0.1,0.6,0.2c0.1,0.2,0.2,0.4,0.2,0.6c0,0.2-0.1,0.4-0.2,0.6c-0.1,0.1-0.4,0.2-0.6,0.2H98.8z"/>
		<path class="st0" d="M110.7,128.2c-1.4,0-2.6-0.7-3.3-1.8c-0.9-1.7-1.3-3.5-1.2-5.4c-0.1-1.9,0.3-3.7,1.2-5.3
			c1.2-1.8,3.6-2.4,5.4-1.2c0.5,0.3,0.9,0.7,1.2,1.2c0.9,1.6,1.3,3.5,1.2,5.3c0.1,1.9-0.3,3.7-1.2,5.4
			C113.3,127.5,112,128.2,110.7,128.2z M108.9,125.2c0.3,1,1.3,1.5,2.3,1.3c0.6-0.2,1.1-0.7,1.3-1.3c0.5-1.3,0.7-2.8,0.7-4.2
			c0-3.6-0.8-5.4-2.4-5.4s-2.4,1.8-2.4,5.4C108.2,122.4,108.4,123.8,108.9,125.2L108.9,125.2z"/>
		<path class="st0" d="M122.8,128.2c-1.2,0.1-2.3-0.3-3.2-1c-0.8-0.6-1.3-1.6-1.3-2.6c0-0.8,0.2-1.6,0.7-2.2
			c0.5-0.6,1.1-1.1,1.8-1.5c0,0,0,0,0-0.1c0,0,0-0.1,0-0.1c-1.1-0.7-1.8-1.9-1.8-3.2c0-1,0.4-1.9,1.1-2.6c0.8-0.7,1.8-1,2.8-1
			c1-0.1,2.1,0.3,2.9,1c0.7,0.7,1.1,1.7,1.1,2.7c0,0.6-0.2,1.3-0.5,1.8c-0.3,0.5-0.8,1-1.3,1.4c0,0,0,0.1,0,0.1c0,0,0,0,0,0.1
			c1.4,0.7,2.3,2.1,2.3,3.7c0,1-0.4,2-1.2,2.6C125.2,127.9,124,128.2,122.8,128.2z M122.8,126.6c0.6,0,1.2-0.2,1.7-0.6
			c0.4-0.4,0.7-1,0.7-1.5c0-0.3-0.1-0.6-0.2-0.9c-0.1-0.2-0.3-0.5-0.4-0.7c-0.2-0.2-0.5-0.4-0.7-0.6c-0.3-0.2-0.6-0.3-0.9-0.5
			l-1.1-0.5h-0.1c0,0-0.1,0-0.1,0.1c-0.5,0.3-0.8,0.7-1.1,1.2c-0.3,0.5-0.4,1-0.4,1.6c0,0.7,0.3,1.3,0.8,1.7
			C121.5,126.4,122.2,126.7,122.8,126.6L122.8,126.6z M123.6,120.2c0.1,0,0.2,0,0.2,0c0.7-0.6,1.1-1.5,1.2-2.5
			c0-0.6-0.2-1.2-0.6-1.6c-0.7-0.9-1.9-1-2.8-0.3c-0.5,0.4-0.8,1.1-0.7,1.7c0,0.6,0.2,1.2,0.7,1.6
			C122.2,119.6,122.9,119.9,123.6,120.2L123.6,120.2z"/>
		<path class="st0" d="M131.3,123.4c-0.2,0-0.4-0.1-0.6-0.2c-0.2-0.1-0.2-0.3-0.2-0.6c0-0.4,0.4-0.8,0.8-0.8h3.4
			c0.2,0,0.4,0.1,0.6,0.2c0.1,0.2,0.2,0.4,0.2,0.6c0,0.2-0.1,0.4-0.2,0.6c-0.2,0.1-0.4,0.2-0.6,0.2H131.3z"/>
		<path class="st0" d="M140.3,128c-0.2,0-0.5-0.1-0.6-0.2c-0.4-0.3-0.4-0.9,0-1.3c0,0,0,0,0,0c0.2-0.2,0.4-0.3,0.6-0.2h2
			c0.1,0,0.1,0,0.1-0.1c0,0,0,0,0,0v-9.4c0-0.1,0-0.1-0.1-0.2c0,0,0,0,0,0h-1.6c-0.2,0-0.4-0.1-0.5-0.2c-0.1-0.1-0.2-0.3-0.2-0.5
			c0-0.2,0.1-0.4,0.2-0.5c0.1-0.2,0.3-0.3,0.5-0.3c0.6-0.1,1.1-0.3,1.6-0.5c0.5-0.2,1-0.4,1.6-0.4c0.2,0,0.4,0.1,0.6,0.2
			c0.2,0.2,0.2,0.4,0.2,0.6V126c0,0.1,0,0.2,0.1,0.2h1.7c0.2,0,0.5,0.1,0.6,0.2c0.3,0.4,0.3,0.9,0,1.3c-0.2,0.2-0.4,0.3-0.6,0.2
			L140.3,128z"/>
		<path class="st0" d="M151.4,128c-0.2,0-0.3-0.1-0.4-0.2c-0.1-0.1-0.2-0.3-0.2-0.4c0-0.4,0.2-0.8,0.5-1c1.6-1.4,3-2.9,4.3-4.6
			c0.8-1,1.3-2.3,1.4-3.6c0-0.7-0.2-1.3-0.6-1.8c-0.4-0.5-1.1-0.7-1.7-0.7c-0.8,0-1.6,0.4-2.1,0.9c-0.2,0.2-0.4,0.2-0.6,0.2l0,0
			c-0.2,0-0.4-0.1-0.6-0.2c-0.2-0.2-0.3-0.4-0.3-0.6c0-0.2,0.1-0.4,0.3-0.6c1-0.9,2.3-1.5,3.6-1.5c1.1-0.1,2.2,0.4,3.1,1.1
			c0.8,0.8,1.2,1.9,1.1,3c0,1.4-0.5,2.7-1.3,3.9c-1.1,1.6-2.3,3-3.7,4.3l0,0c0,0,0,0,0.1,0c0.8-0.1,1.5-0.1,2.1-0.1h2.6
			c0.2,0,0.5,0.1,0.6,0.3c0.2,0.2,0.3,0.4,0.3,0.7c0,0.2-0.1,0.5-0.3,0.7c-0.2,0.2-0.4,0.3-0.6,0.3L151.4,128z"/>
		<rect x="0.4" class="st1" width="159" height="46"/>
		<path class="st2" d="M37.5,17.4c0.2,0.2,0.3,0.5,0.3,0.8c0,0.3-0.1,0.6-0.3,0.8c-0.2,0.2-0.5,0.3-0.8,0.3h-2.3
			c-0.1,0-0.2,0.1-0.2,0.2c-1.2,3.3-3,6.4-5.4,9c-0.1,0.1-0.1,0.2,0,0.2c2.4,1.9,5.1,3.2,8,4c0.3,0.1,0.5,0.3,0.6,0.6
			c0,0.1,0,0.2,0,0.3c0,0.2-0.1,0.4-0.2,0.5c-0.2,0.3-0.6,0.6-0.9,0.7c-0.2,0.1-0.4,0.1-0.6,0.1c-0.2,0-0.3,0-0.5-0.1
			c-3-0.9-5.8-2.4-8.2-4.4c-0.1-0.1-0.2-0.1-0.3,0c0,0,0,0,0,0c-2.4,1.9-5.2,3.4-8.2,4.5c-0.2,0.1-0.3,0.1-0.5,0.1
			c-0.2,0-0.4,0-0.5-0.1c-0.3-0.1-0.6-0.4-0.8-0.7c-0.1-0.2-0.2-0.3-0.2-0.5c0-0.1,0-0.2,0-0.3c0.1-0.3,0.3-0.5,0.6-0.6
			c2.8-0.8,5.5-2.2,7.9-4c0.1-0.1,0.1-0.2,0-0.2c0,0,0,0,0,0c-2.3-2.6-4.1-5.7-5.2-9c0-0.1-0.1-0.2-0.3-0.2h-2.2
			c-0.3,0-0.6-0.1-0.8-0.3c-0.2-0.2-0.3-0.5-0.3-0.8c0-0.6,0.5-1.1,1.1-1.1h8.4c0.1,0,0.2-0.1,0.2-0.2v-2.6c0-0.3,0.1-0.6,0.3-0.8
			c0.5-0.4,1.2-0.4,1.6,0c0.2,0.2,0.3,0.5,0.3,0.8v2.6c0,0.1,0.1,0.2,0.2,0.2c0,0,0,0,0,0h8.5C37.1,17.1,37.3,17.2,37.5,17.4z
			 M31.6,19.4c0,0,0-0.1,0-0.1c0,0,0-0.1-0.1-0.1h-9.1c0,0-0.1,0-0.1,0c0,0,0,0.1,0,0.1c1,2.8,2.6,5.3,4.6,7.4c0,0.1,0.1,0.1,0.2,0
			c0,0,0,0,0,0C29.1,24.7,30.6,22.1,31.6,19.4z"/>
		<path class="st2" d="M62.6,31.2c0.5,0,0.9,0.4,0.9,0.9c0,0,0,0,0,0c0,0.2-0.1,0.5-0.3,0.7c-0.2,0.2-0.4,0.3-0.7,0.3h-8.5
			c-0.1,0-0.2,0.1-0.2,0.1c0,0,0,0,0,0v1.3c0,0.3-0.1,0.6-0.3,0.8c-0.2,0.2-0.5,0.4-0.8,0.3c-0.3,0-0.6-0.1-0.8-0.3
			c-0.2-0.2-0.3-0.5-0.3-0.8v-1.3c0-0.1-0.1-0.2-0.1-0.2c0,0,0,0,0,0H43c-0.3,0-0.5-0.1-0.7-0.3c-0.4-0.4-0.4-0.9,0-1.3
			c0.2-0.2,0.4-0.3,0.7-0.3h8.4c0.1,0,0.2,0,0.2-0.2v-1c0-0.1-0.1-0.2-0.1-0.2c0,0,0,0,0,0h-5.4c-0.4,0-0.7-0.1-1-0.4
			c-0.3-0.3-0.4-0.6-0.4-1v-4.6c0-0.8,0.6-1.4,1.3-1.4c0,0,0,0,0,0h13.5c0.8,0,1.4,0.6,1.4,1.4c0,0,0,0,0,0v4.7c0,0.4-0.1,0.7-0.4,1
			c-0.3,0.3-0.6,0.4-1,0.4h-5.4c-0.1,0-0.2,0.1-0.2,0.1c0,0,0,0,0,0v1c0,0.1,0.1,0.2,0.2,0.2L62.6,31.2z M62.6,19.5
			c0.2,0,0.5,0.1,0.6,0.3c0.4,0.4,0.4,0.9,0,1.3c0,0,0,0,0,0c-0.2,0.2-0.4,0.3-0.6,0.3H43c-0.2,0-0.5-0.1-0.7-0.3
			c-0.3-0.4-0.3-0.9,0-1.3c0.2-0.2,0.4-0.3,0.7-0.3h4.8c0,0,0.1,0,0.1,0c0,0,0-0.1,0-0.1c-0.2-0.5-0.5-1.1-0.8-1.6
			c0-0.1,0-0.2,0-0.3c0-0.1,0.1-0.2,0.2-0.2l0,0h-2.8c-0.2,0-0.5-0.1-0.6-0.3c-0.2-0.2-0.3-0.4-0.2-0.6c0-0.5,0.4-0.9,0.8-0.9
			c0,0,0,0,0.1,0h6.9c0.1,0,0.2-0.1,0.2-0.1c0,0,0,0,0,0v-0.4c0-0.6,0.5-1.2,1.2-1.2c0.6,0,1.2,0.5,1.2,1.2c0,0,0,0,0,0v0.4
			c0,0.1,0.1,0.2,0.1,0.2c0,0,0,0,0,0h7.1c0.2,0,0.5,0.1,0.6,0.2c0.2,0.2,0.3,0.4,0.3,0.6c0,0.5-0.4,0.9-0.9,0.9h-2.5l0,0
			c0,0,0.1,0,0.1,0.1c0,0.1,0,0.1,0,0.2c-0.6,1-0.9,1.6-1,1.8c0,0,0,0.1,0,0.1c0,0,0.1,0.1,0.1,0L62.6,19.5z M47.1,23.9
			c-0.1,0-0.2,0.1-0.2,0.1c0,0,0,0,0,0v1.1c0,0.1,0.1,0.2,0.1,0.2c0,0,0,0,0,0h11.4c0.1,0,0.2-0.1,0.2-0.1c0,0,0,0,0,0v-1.1
			c0-0.1-0.1-0.2-0.1-0.2c0,0,0,0,0,0H47.1z M47.1,26.9c-0.1,0-0.2,0.1-0.2,0.1c0,0,0,0,0,0v1.1c0,0.1,0.1,0.2,0.2,0.2h11.4
			c0.1,0,0.2-0.1,0.2-0.2V27c0-0.1-0.1-0.2-0.1-0.2c0,0,0,0,0,0L47.1,26.9z M56.3,17.4c0,0,0-0.1,0-0.1c0,0-0.1-0.1-0.1-0.1h-6.7
			c0,0-0.1,0-0.1,0.1c0,0,0,0.1,0,0.1c0,0,0,0,0,0c0.4,0.6,0.7,1.2,0.9,1.9c0,0.1,0.1,0.2,0.2,0.2h4.6c0.1,0,0.2-0.1,0.2-0.2
			C55.7,18.7,56,18.1,56.3,17.4z"/>
		<path class="st2" d="M81.2,15.9c-0.1-0.1-0.1-0.3-0.1-0.5c0-0.1,0-0.2,0.1-0.4c0.1-0.3,0.3-0.5,0.6-0.6c0.2-0.1,0.3-0.1,0.5-0.1
			c0.2,0,0.3,0,0.4,0.1c0.3,0.1,0.6,0.3,0.7,0.6c0.7,1.3,1.6,2.4,2.5,3.6c0.9,1.1,1.9,2.2,3,3.1c0.3,0.2,0.4,0.6,0.4,0.9
			c0,0.3-0.1,0.6-0.3,0.9C88.7,23.8,88.4,24,88,24h0c-0.3,0-0.6-0.1-0.8-0.4c-0.3-0.3-0.6-0.6-0.9-0.9c0,0-0.1,0-0.1,0
			c0,0,0,0-0.1,0.1c0,0.4,0,0.6,0,0.8c-0.2,3.7-0.3,6.3-0.5,7.9c0,1.1-0.4,2.1-0.9,3.1c-0.2,0.3-0.5,0.5-0.8,0.7
			c-0.4,0.1-0.8,0.2-1.2,0.3c-0.4,0-0.8,0-1.5,0h-1.1c-0.3,0-0.6-0.1-0.9-0.4c-0.3-0.2-0.4-0.5-0.6-0.9c-0.1-0.2,0-0.5,0.1-0.7
			c0.1-0.2,0.4-0.3,0.6-0.3c0.8,0,1.5,0.1,2.2,0.1c0.4,0,0.7-0.1,1-0.3c0.4-0.7,0.6-1.5,0.7-2.3c0.2-1.2,0.3-3.2,0.4-5.9
			c0-0.1,0-0.2-0.1-0.2c0,0,0,0,0,0h-5.2c-0.1,0-0.2,0.1-0.2,0.2c0,0,0,0,0,0c-0.1,0.9-0.3,1.7-0.5,2.5c-0.2,0.8-0.5,1.6-0.8,2.3
			c-0.7,1.6-1.8,3-3.2,4.1c-0.8,0.6-1.7,1.1-2.6,1.5c-0.2,0.1-0.3,0.1-0.5,0.1c-0.2,0-0.3,0-0.4-0.1c-0.3-0.1-0.6-0.3-0.8-0.6
			c-0.1-0.2-0.2-0.3-0.2-0.5c0-0.1,0-0.2,0-0.2c0.1-0.3,0.3-0.5,0.5-0.6c0.8-0.3,1.6-0.8,2.3-1.3c0.6-0.4,1.2-0.9,1.6-1.5
			c0.4-0.5,0.8-1.1,1.1-1.8c0.3-0.6,0.5-1.2,0.7-1.9c0.2-0.6,0.3-1.3,0.4-2c0-0.1,0-0.2-0.1-0.2h-2.9c-0.4,0-0.7-0.1-1-0.4
			c-0.3-0.3-0.4-0.6-0.4-1V23c0,0,0,0,0-0.1c0,0-0.1,0-0.1,0c-0.3,0.3-0.7,0.7-1.1,1c-0.2,0.2-0.5,0.3-0.9,0.3c0,0-0.1,0-0.1,0
			c-0.4,0-0.7-0.1-1-0.4c-0.2-0.2-0.3-0.5-0.3-0.8c0-0.3,0.1-0.7,0.4-0.9c2.4-1.9,4.3-4.3,5.6-7c0.2-0.5,0.7-0.8,1.3-0.8
			c0.1,0,0.3,0,0.4,0c0.3,0.1,0.6,0.3,0.7,0.6c0.1,0.1,0.1,0.3,0.1,0.4c0,0.2,0,0.3-0.1,0.4c-1.1,2.4-2.6,4.6-4.4,6.5
			c0,0,0,0.1,0,0.1c0,0,0,0.1,0.1,0h14.1c0,0,0.1,0,0.1,0c0,0,0-0.1,0-0.1C84.1,20.4,82.6,18.2,81.2,15.9z"/>
		<path class="st2" d="M102.9,32c0.2,0.2,0.4,0.5,0.4,0.8c0,0.3-0.1,0.5-0.3,0.7c-0.2,0.2-0.4,0.3-0.7,0.3l0,0
			c-0.3,0-0.5-0.1-0.7-0.3c-0.6-0.5-1.4-1.2-2.4-1.9c0-0.1-0.1-0.1-0.2,0c0,0,0,0,0,0c-0.8,1.5-2,2.6-3.5,3.4
			c-0.1,0.1-0.3,0.1-0.5,0.1c-0.4,0-0.8-0.2-1-0.5c-0.1-0.1-0.2-0.3-0.2-0.5c0-0.1,0-0.1,0-0.2c0.1-0.2,0.2-0.4,0.4-0.6
			c1.8-0.8,3.1-2.4,3.4-4.3c0-0.1,0-0.2-0.1-0.2h-2.7c-0.3,0-0.5-0.1-0.7-0.3c-0.2-0.2-0.3-0.4-0.3-0.7c0-0.3,0.1-0.5,0.3-0.7
			c0.2-0.2,0.4-0.3,0.7-0.3h2.8c0.1,0,0.1,0,0.2-0.1c0,0,0,0,0,0V26c0-0.6,0.4-1,1-1s1,0.4,1,1v0.7c0,0.1,0.1,0.2,0.2,0.2h3
			c0.6,0,1,0.4,1,1c0,0.3-0.1,0.5-0.3,0.7c-0.2,0.2-0.4,0.3-0.7,0.3h-3.1c-0.1,0-0.2,0-0.2,0.2c0,0.1,0,0.3-0.1,0.4
			c0,0.1,0,0.2,0.1,0.3C100.8,30.4,101.9,31.2,102.9,32z M99.4,24.2c-0.4,0.4-1,0.4-1.4,0c-0.2-0.2-0.3-0.4-0.3-0.7v-1.9
			c0,0,0,0,0-0.1c0,0,0,0-0.1,0c-0.7,0.9-1.5,1.7-2.3,2.4c-0.2,0.1-0.4,0.2-0.6,0.2h-0.2c-0.3,0-0.5-0.2-0.7-0.4
			c-0.2-0.2-0.2-0.4-0.2-0.6c0-0.2,0.2-0.4,0.3-0.5c1.1-0.8,2.1-1.8,2.9-2.9c0,0,0-0.1,0-0.1c0,0-0.1,0-0.1,0h-2.3
			c-0.2,0-0.5-0.1-0.6-0.3c-0.2-0.2-0.3-0.4-0.3-0.6c0-0.2,0.1-0.5,0.3-0.6c0.2-0.2,0.4-0.3,0.6-0.3h3c0.1,0,0.1,0,0.2-0.1
			c0,0,0,0,0,0v-2.7c0-0.3,0.1-0.5,0.3-0.7c0.4-0.4,1-0.4,1.4,0c0.2,0.2,0.3,0.4,0.3,0.7v2.7c0,0.1,0.1,0.2,0.2,0.2h3
			c0.2,0,0.5,0.1,0.6,0.3c0.2,0.2,0.3,0.4,0.2,0.6c0,0.2-0.1,0.5-0.2,0.6c-0.2,0.2-0.4,0.3-0.6,0.3h-3.1c-0.1,0-0.1,0-0.1,0.1
			c0,0.1,0,0.1,0.1,0.1c0.9,0.5,2,1.1,3.4,2.1c0.2,0.1,0.4,0.4,0.4,0.6v0.2c0,0.2-0.1,0.4-0.2,0.6c-0.1,0.2-0.4,0.3-0.6,0.4h-0.1
			c-0.2,0-0.4-0.1-0.6-0.2c-0.7-0.5-1.4-1.1-2.2-1.7c0,0-0.1,0-0.1,0c0,0,0,0,0,0.1v1.8C99.7,23.8,99.6,24,99.4,24.2L99.4,24.2z
			 M96.6,16.1c0.1,0.2,0.1,0.5,0,0.7c-0.1,0.2-0.3,0.4-0.5,0.5c-0.2,0.1-0.4,0.1-0.6,0c-0.2-0.1-0.4-0.3-0.4-0.5
			c-0.2-0.4-0.4-0.9-0.6-1.3c-0.1-0.2-0.1-0.4,0-0.6c0.1-0.2,0.2-0.3,0.4-0.4c0.2-0.1,0.5-0.1,0.7,0c0.2,0.1,0.4,0.2,0.5,0.4
			C96.2,15.3,96.4,15.7,96.6,16.1L96.6,16.1z M101.4,15c0.1-0.3,0.3-0.5,0.5-0.6c0.1-0.1,0.3-0.1,0.5-0.1c0.1,0,0.2,0,0.3,0
			c0.2,0.1,0.4,0.2,0.5,0.4c0.1,0.2,0.1,0.5,0,0.7c-0.3,0.6-0.6,1-0.8,1.4c-0.1,0.2-0.3,0.3-0.5,0.4c-0.2,0.1-0.4,0.1-0.7,0
			c-0.2-0.1-0.3-0.2-0.4-0.4c-0.1-0.2-0.1-0.4,0-0.5C101.1,15.9,101.3,15.5,101.4,15z M106,32c0.2-0.2,0.5-0.3,0.8-0.4
			c0.1,0,0.1,0,0.2,0c0.2,0,0.5,0.1,0.7,0.2c0.3,0.1,0.4,0.4,0.4,0.7c0,0.2-0.1,0.4-0.3,0.6c-1,0.8-2,1.5-3.2,2.1
			c-0.2,0.1-0.4,0.2-0.6,0.2c-0.1,0-0.2,0-0.3,0c-0.3-0.1-0.6-0.2-0.8-0.4c-0.1-0.1-0.2-0.3-0.2-0.5v-0.1c0-0.2,0.2-0.4,0.4-0.5
			C104.2,33.3,105.1,32.7,106,32z M104.7,20c0-0.4,0.1-0.7,0.4-1c0.3-0.3,0.6-0.4,1-0.4h1.6c0.1,0,0.2-0.1,0.2-0.2
			c0.1-0.5,0.3-1,0.4-1.6c0-0.1,0-0.2-0.1-0.2H105c-0.3,0-0.5-0.1-0.7-0.3c-0.2-0.2-0.3-0.4-0.3-0.7c0-0.3,0.1-0.5,0.3-0.7
			c0.2-0.2,0.4-0.3,0.7-0.3h9.4c0.6,0,1,0.4,1,1c0,0.3-0.1,0.5-0.3,0.7c-0.2,0.2-0.4,0.3-0.7,0.3h-3.5c-0.1,0-0.2,0.1-0.2,0.2
			c-0.2,0.7-0.4,1.2-0.6,1.6c0,0,0,0.1,0,0.1c0,0,0.1,0.1,0.1,0h3c0.7,0,1.3,0.6,1.3,1.4v9.6c0,0.8-0.6,1.4-1.4,1.4c0,0,0,0,0,0
			h-7.1c-0.4,0-0.7-0.1-1-0.4c-0.3-0.3-0.4-0.6-0.4-1L104.7,20z M112.2,22.2c0.1,0,0.2,0,0.2-0.2v-1.6c0-0.1-0.1-0.2-0.2-0.2h-5.4
			c-0.1,0-0.2,0.1-0.2,0.2V22c0,0.1,0.1,0.2,0.2,0.2L112.2,22.2z M112.2,25.8c0.1,0,0.2-0.1,0.2-0.2v-1.7c0-0.1-0.1-0.2-0.2-0.2
			h-5.4c-0.1,0-0.2,0-0.2,0.2v1.6c0,0.1,0.1,0.2,0.1,0.2c0,0,0,0,0,0L112.2,25.8z M112.2,29.4c0.1,0,0.2-0.1,0.2-0.2v-1.7
			c0-0.1-0.1-0.2-0.2-0.2h-5.4c-0.1,0-0.2,0-0.2,0.2v1.6c0,0.1,0.1,0.2,0.2,0.2L112.2,29.4z M111,33.1c-0.3-0.2-0.3-0.7-0.1-1
			c0,0,0.1-0.1,0.1-0.1c0.5-0.3,1.1-0.3,1.6,0c0.9,0.6,1.7,1.2,2.4,1.8c0.2,0.1,0.3,0.4,0.3,0.6c0,0.3-0.1,0.5-0.3,0.7
			c-0.2,0.2-0.5,0.2-0.7,0.2h-0.1c-0.3,0-0.6-0.2-0.8-0.3C112.6,34.3,111.8,33.7,111,33.1z"/>
		<path class="st2" d="M125,34.1c-1.7,0-3.3-0.9-4.2-2.3c-1-1.6-1.5-3.9-1.5-6.9s0.5-5.2,1.5-6.8c1.5-2.3,4.5-3,6.8-1.6
			c0.6,0.4,1.2,0.9,1.6,1.6c1,1.5,1.5,3.8,1.5,6.8s-0.5,5.3-1.5,6.9C128.3,33.2,126.7,34.1,125,34.1z M122.8,30.2
			c0.4,1.2,1.7,1.9,2.9,1.6c0.8-0.2,1.3-0.8,1.6-1.6c0.6-1.7,0.9-3.5,0.8-5.4c0-4.6-1-6.9-3.1-6.9c-2,0-3.1,2.3-3.1,6.9
			C121.8,26.7,122.1,28.5,122.8,30.2L122.8,30.2z"/>
		<path class="st2" d="M138.3,34.1c-1.8,0.1-3.5-0.5-4.9-1.6c-0.3-0.2-0.4-0.5-0.4-0.9c0-0.3,0.1-0.5,0.3-0.8
			c0.2-0.2,0.4-0.4,0.7-0.4h0.1c0.3,0,0.5,0.1,0.7,0.3c1,0.8,2.1,1.2,3.4,1.2c0.9,0,1.8-0.2,2.4-0.8c0.6-0.5,1-1.3,0.9-2.1
			c0-0.9-0.3-1.7-1-2.2c-1-0.7-2.1-1-3.2-1c-0.3,0-0.5-0.1-0.7-0.3c-0.2-0.2-0.3-0.4-0.3-0.7c0-0.3,0.1-0.5,0.3-0.7
			c0.2-0.2,0.5-0.3,0.7-0.4c2.4-0.2,3.6-1.2,3.6-3c0-0.7-0.2-1.4-0.7-1.9c-0.5-0.5-1.3-0.7-2-0.7c-1,0-1.9,0.4-2.7,1
			c-0.2,0.2-0.5,0.2-0.7,0.2h-0.1c-0.3,0-0.6-0.1-0.8-0.4c-0.2-0.2-0.3-0.5-0.3-0.7c0-0.3,0.1-0.6,0.4-0.8c1.2-0.9,2.7-1.4,4.2-1.4
			c1.4-0.1,2.8,0.3,4,1.1c1,0.8,1.6,2.1,1.5,3.4c0,0.9-0.3,1.8-0.8,2.5c-0.6,0.7-1.3,1.3-2.2,1.6c0,0,0,0.1-0.1,0.1 M140.6,24.6
			c1,0.3,1.9,0.8,2.6,1.6c0.7,0.8,1,1.8,1,2.8c0.1,1.4-0.6,2.8-1.7,3.7c-1.2,1-2.7,1.4-4.2,1.4L140.6,24.6z"/>
	</g>
</g>
</svg>
