<?xml version="1.0" encoding="utf-8"?>
<!-- Generator: Adobe Illustrator 24.2.3, SVG Export Plug-In . SVG Version: 6.00 Build 0)  -->
<svg version="1.1" id="圖層_1" xmlns="http://www.w3.org/2000/svg" xmlns:xlink="http://www.w3.org/1999/xlink" x="0px" y="0px"
	 viewBox="0 0 195 449.8" style="enable-background:new 0 0 195 449.8;" xml:space="preserve">
<style type="text/css">
	.st0{clip-path:url(#SVGID_2_);fill:#18254C;}
	.st1{clip-path:url(#SVGID_2_);fill:none;stroke:#18254C;stroke-width:1.02;stroke-miterlimit:10;}
</style>
<g>
	<defs>
		<rect id="SVGID_1_" x="-0.1" width="194.1" height="451"/>
	</defs>
	<clipPath id="SVGID_2_">
		<use xlink:href="#SVGID_1_"  style="overflow:visible;"/>
	</clipPath>
	<path class="st0" d="M112.6,95.9c0.2,0,0.4,0,0.6,0c0.4,0,0.7,0.1,1.1,0.2l0.9,0.4c0.5,0.2,0.9,0.5,1.1,1c0.1,0.3,0.2,0.6,0.2,0.8
		c0,0.2,0,0.4-0.1,0.7c-1.2,3.4-2.9,6.5-5.2,9.2c-0.2,0.2-0.1,0.3,0,0.5c1.7,1.1,3.6,1.9,5.5,2.6c0.6,0.2,1,0.6,1.2,1.2
		c0.1,0.2,0.1,0.4,0.1,0.6c0,0.4-0.1,0.8-0.4,1.1l0,0c-0.5,0.7-1.1,1.2-1.9,1.4c-0.3,0.1-0.7,0.2-1.1,0.2c-0.4,0-0.8-0.1-1.2-0.2
		c-2.1-0.8-4.2-2-6-3.4c-0.2-0.1-0.4-0.1-0.6,0c-1.7,1.2-3.5,2.3-5.3,3.2c-0.4,0.2-0.8,0.3-1.2,0.3c-0.3,0-0.7-0.1-1-0.2
		c-0.7-0.2-1.4-0.7-1.8-1.4c-0.3-0.4-0.6-0.8-0.9-1.2c0-0.1-0.1-0.1-0.1,0c0,0-0.1,0.1-0.1,0.1v0.8c0,0.7-0.3,1.4-0.8,1.9
		c-0.5,0.5-1.2,0.8-1.9,0.8c-0.7,0-1.4-0.3-1.9-0.8c-0.5-0.5-0.8-1.2-0.8-1.9V113c0-0.2-0.1-0.4-0.3-0.3c-2.5,0.3-6.7,0.6-12.5,1.1
		h-0.2c-0.6,0-1.1-0.2-1.6-0.6c-0.5-0.4-0.8-1-0.8-1.6c0-0.1,0-0.2,0-0.2c0-1.2,1-2.3,2.2-2.4l1.4-0.1c0.2,0,0.3-0.2,0.3-0.4
		c0,0,0,0,0,0v-14c0-0.2-0.1-0.3-0.3-0.3c0,0,0,0-0.1,0h-1.2c-0.6,0-1.2-0.2-1.6-0.7c-0.9-0.8-0.9-2.2-0.1-3.1c0,0,0,0,0.1-0.1
		c0.4-0.4,1-0.7,1.6-0.7h38.2c0.6,0,1.2,0.2,1.6,0.7c0.9,0.8,0.9,2.2,0.1,3.1c0,0,0,0-0.1,0.1c-0.4,0.4-1,0.7-1.6,0.7H96.7
		c-0.2,0-0.3,0.1-0.3,0.2c0,0,0,0.1,0,0.1v16.9c0,0.1,0,0.2,0.1,0.2c0.1,0,0.2,0,0.2,0c2.2-0.8,4.3-1.8,6.2-3.1
		c0.2-0.1,0.2-0.3,0-0.5c-1.1-1.4-2.1-2.8-2.9-4.4c-0.2-0.3-0.3-0.6-0.3-1c0-0.3,0.1-0.6,0.2-0.9c0.3-0.6,0.8-1.1,1.5-1.3h0.1
		 M101.5,100.3h-1.8c-0.6,0-1.1-0.2-1.6-0.6c-0.4-0.4-0.7-1-0.7-1.6c0-0.6,0.2-1.1,0.7-1.5c0.4-0.4,1-0.6,1.6-0.6h12.6
		c0.1,0,0.2,0,0.2-0.1L101.5,100.3z M110,73.2c1.5,0,2.7,1.2,2.8,2.8v9.2c0,1.5-1.3,2.7-2.8,2.8H84c-1.5,0-2.7-1.2-2.8-2.8v-9.2
		c0-0.7,0.3-1.4,0.8-1.9c0.5-0.5,1.2-0.8,2-0.8L110,73.2z M90.9,94.5c0-0.2-0.1-0.3-0.4-0.3H85c-0.2,0-0.3,0.1-0.3,0.2
		c0,0,0,0.1,0,0.1v1.2c0,0.2,0.1,0.4,0.3,0.4h5.5c0.2,0,0.3-0.1,0.4-0.3c0,0,0-0.1,0-0.1L90.9,94.5z M85,100.1
		c-0.2,0-0.3,0.1-0.3,0.2c0,0,0,0.1,0,0.1v1.3c0,0.2,0.1,0.4,0.3,0.4h5.5c0.2,0,0.3-0.1,0.4-0.3c0,0,0-0.1,0-0.1v-1.3
		c0-0.2-0.1-0.3-0.4-0.3H85z M85,106.1c-0.2,0-0.3,0.1-0.3,0.2c0,0,0,0.1,0,0.1v1.7c0,0.2,0.1,0.3,0.2,0.3c0,0,0.1,0,0.1,0
		c2.6-0.2,4.4-0.3,5.5-0.5c0.2,0,0.4-0.1,0.4-0.3c0,0,0-0.1,0-0.1v-1.2c0-0.2-0.1-0.3-0.4-0.3L85,106.1z M106.8,78.8
		c0.2,0,0.3-0.1,0.3-0.2c0,0,0-0.1,0-0.1v-1.3c0-0.2-0.1-0.4-0.3-0.4H87.1c-0.2,0-0.3,0.1-0.3,0.4v1.3c0,0.2,0.1,0.3,0.2,0.3
		c0,0,0.1,0,0.1,0L106.8,78.8z M106.8,84.3c0.2,0,0.3-0.1,0.3-0.4v-1.4c0-0.2-0.1-0.3-0.2-0.3c0,0-0.1,0-0.1,0H87.1
		c-0.2,0-0.3,0.1-0.3,0.2c0,0,0,0.1,0,0.1v1.3c0,0.2,0.1,0.4,0.3,0.4L106.8,84.3z M109.9,100.7c0-0.1,0-0.2,0-0.2
		c0-0.1-0.1-0.1-0.2-0.1H104c-0.1,0-0.2,0-0.2,0.1c0,0.1,0,0.1,0,0.2c0.7,1.5,1.7,2.9,2.8,4.1c0.1,0.1,0.3,0.2,0.4,0c0,0,0,0,0,0
		C108.2,103.6,109.1,102.2,109.9,100.7L109.9,100.7z"/>
	<path class="st0" d="M89.4,178.3c-0.1,0-0.2,0.1-0.2,0.1c0,0,0,0,0,0c0,0.1,0.1,0.2,0.1,0.3c0.9,0.6,2.4,1.8,4.6,3.5
		c0.6,0.4,0.9,1,1,1.7c0,0.1,0,0.2,0,0.3c0,0.6-0.2,1.2-0.6,1.6c-0.4,0.5-1,0.8-1.7,0.8l0,0c-0.6,0-1.3-0.2-1.7-0.7
		c-0.5-0.5-1-1-1.6-1.5c0,0-0.1,0-0.1,0c-0.1,0-0.1,0.1-0.1,0.1v7.1c0,1.5-1.2,2.7-2.7,2.8c0,0,0,0-0.1,0c-0.7,0-1.5-0.3-2-0.8
		c-0.5-0.5-0.8-1.2-0.8-2v-6.5c0-0.1,0-0.1-0.1-0.1c-0.1,0-0.1,0-0.1,0c-1.2,1.6-2.4,3.2-3.8,4.6c-0.4,0.4-1,0.7-1.6,0.7
		c-0.1,0-0.2,0-0.3,0c-0.7-0.1-1.4-0.4-1.8-0.9c-0.4-0.5-0.7-1.1-0.7-1.7c0-0.7,0.3-1.4,0.8-1.9c2.5-2.1,4.6-4.6,6.3-7.3
		c0-0.1,0-0.1,0-0.2c0-0.1-0.1-0.1-0.2-0.1h-4.5c-1.3,0-2.4-1.1-2.4-2.4s1.1-2.4,2.4-2.4h5.7c0.2,0,0.3-0.1,0.3-0.4v-3
		c0-0.2-0.1-0.3-0.2-0.3c0,0-0.1,0-0.1,0h-5.9c-0.6,0-1.2-0.2-1.7-0.7c-0.9-0.9-0.9-2.4,0-3.3c0.4-0.5,1-0.7,1.7-0.7h1.7
		c0.2,0,0.3-0.1,0.3-0.3c-0.1-0.8-0.3-1.6-0.5-2.4c-0.1-0.2-0.1-0.5-0.1-0.7c0-0.4,0.1-0.9,0.3-1.2c0.3-0.6,0.8-1,1.5-1.2v-0.1H78
		c-0.6,0-1.2-0.2-1.7-0.7c-0.9-0.9-1-2.4-0.1-3.3c0.5-0.5,1.1-0.7,1.8-0.7h5.4c0.2,0,0.3-0.1,0.3-0.2c0,0,0-0.1,0-0.1v-1.3
		c0-0.8,0.3-1.5,0.8-2c0.5-0.5,1.3-0.8,2-0.8c0.7,0,1.4,0.3,1.9,0.8c0.5,0.5,0.8,1.3,0.8,2v1.3c0,0.2,0.1,0.3,0.4,0.3h5.2
		c1.3,0,2.4,1,2.4,2.2c0,0.7-0.2,1.3-0.7,1.8c-0.4,0.4-1,0.7-1.7,0.7h-2.4v0.1c1,0.2,1.7,1,1.7,2c0,0.3-0.1,0.6-0.2,0.8
		c-0.5,1.2-0.9,2.1-1.2,2.8c0,0.1,0,0.1,0,0.2c0,0.1,0.1,0.1,0.2,0.1h2.2c0.6,0,1.2,0.2,1.7,0.7c0.9,0.9,0.9,2.4,0,3.3
		c-0.4,0.5-1,0.7-1.7,0.7h-5.6c-0.2,0-0.4,0.1-0.4,0.3v3c0,0.2,0.1,0.3,0.3,0.4c0,0,0.1,0,0.1,0h5.2c1.3,0,2.4,1.1,2.4,2.4
		c0,0.6-0.3,1.2-0.7,1.7c-0.4,0.5-1.1,0.7-1.7,0.7L89.4,178.3z M89.8,159.5c0-0.1,0-0.2-0.1-0.3c0-0.1-0.1-0.1-0.2-0.1h-6.6
		c-0.1,0-0.1,0-0.2,0.1c0,0.1,0,0.1,0,0.2c0.4,0.9,0.7,1.9,1,2.8c0.1,0.2,0.1,0.4,0.1,0.6c0,0.4-0.1,0.8-0.4,1.1
		c-0.3,0.5-0.8,0.9-1.4,1.1v0.1h8.8V165h-0.1c-0.7-0.1-1.3-0.6-1.6-1.2c-0.2-0.3-0.3-0.7-0.3-1.1c0-0.3,0-0.6,0.1-0.8
		C89.3,161,89.6,160.2,89.8,159.5z M116.8,165.5c1.4,0,2.6,1.2,2.6,2.6c0,1.4-1.2,2.6-2.6,2.6h-1.6c-0.2,0-0.3,0.1-0.3,0.4v20.4
		c0,1.5-1.2,2.7-2.8,2.8c-0.8,0-1.5-0.3-2-0.8c-0.5-0.5-0.8-1.2-0.8-1.9v-20.3c0-0.2-0.1-0.4-0.3-0.4h-4.2c-0.2,0-0.3,0.1-0.3,0.4
		c-0.1,9.3-2,16.4-5.6,21.4c-0.4,0.5-1,0.8-1.6,0.8h-0.1c-0.7,0-1.4-0.3-1.8-0.8l-0.1-0.1c-0.5-0.5-0.8-1.1-0.9-1.8
		c0-0.1,0-0.3,0-0.4c0-0.6,0.2-1.2,0.5-1.6c0.9-1.3,1.7-2.8,2.3-4.3c0.6-1.6,1.1-3.2,1.3-4.9c0.3-1.7,0.5-3.2,0.6-4.6
		s0.1-2.9,0.1-4.6v-13.9c0-1.1,0.9-2.1,2.1-2.1c0.2,0,0.4,0,0.6,0.1l0.3,0.1c0.2,0.1,0.5,0.1,0.7,0c3.2-0.7,6.3-1.8,9.3-3
		c0.5-0.2,1.1-0.4,1.7-0.4c0.2,0,0.4,0,0.7,0c0.8,0.1,1.6,0.4,2.2,1l0.5,0.4c0.4,0.3,0.6,0.8,0.6,1.3c0,0.1,0,0.3,0,0.4
		c-0.1,0.6-0.5,1.1-1.1,1.3c-3.9,1.4-7.8,2.5-11.8,3.3c-0.2,0-0.3,0.2-0.3,0.4v6c0,0.2,0.1,0.4,0.3,0.4L116.8,165.5z"/>
	<path class="st0" d="M84.3,244.6c0.6,0.4,1,1.1,1.1,1.8c0,0.1,0,0.2,0,0.4c0,0.6-0.2,1.2-0.6,1.7l0,0c-0.4,0.6-1.1,1-1.8,1h-0.3
		c-0.6,0-1.2-0.2-1.7-0.5c-1.3-1-2.8-2-4.2-2.9c-0.6-0.3-1-0.9-1.1-1.5c0-0.2,0-0.3,0-0.5c0-0.5,0.2-0.9,0.5-1.3
		c0.5-0.6,1.1-1,1.8-1.1c0.2-0.1,0.4-0.1,0.7-0.1c0.5,0,0.9,0.1,1.3,0.4C81.5,242.8,82.9,243.7,84.3,244.6z M82.1,270
		c-0.3,0.6-0.9,1.1-1.5,1.2c-0.2,0-0.4,0-0.6,0c-0.5,0-1-0.2-1.4-0.5l-0.6-0.4c-0.6-0.4-1-1.1-1.1-1.8c-0.1-0.2-0.1-0.4-0.1-0.6
		c0-0.6,0.2-1.1,0.5-1.5c1.8-3.1,3.7-6.6,5.6-10.5c0.3-0.6,0.8-1,1.4-1.2c0.2,0,0.3,0,0.5,0c0.5,0,0.9,0.2,1.3,0.5
		c0.6,0.5,1,1.2,1.2,2c0.1,0.3,0.1,0.6,0.1,0.9c0,0.5-0.1,1-0.3,1.5C85.6,263,83.9,266.5,82.1,270z M79,233.5
		c-0.6-0.3-1-0.9-1.1-1.5c0-0.1,0-0.3,0-0.4c0-0.5,0.2-1,0.5-1.4c0.5-0.6,1.1-1,1.9-1.1c0.2,0,0.4,0,0.7,0c0.5,0,1,0.1,1.4,0.4
		c1.4,0.8,2.8,1.6,4.1,2.5c0.6,0.4,1,1.1,1,1.9c0,0.1,0,0.2,0,0.3c0,0.7-0.2,1.3-0.7,1.8l-0.1,0.1c-0.4,0.6-1.1,0.9-1.8,0.9h-0.2
		c-0.6,0-1.3-0.2-1.8-0.6C81.7,235.3,80.4,234.4,79,233.5z M98,235.3c0.2,0.3,0.3,0.7,0.3,1.1c0,0.3-0.1,0.7-0.2,1
		c-0.3,0.7-0.8,1.3-1.6,1.6l-0.1,0.1c-0.3,0.1-0.7,0.2-1,0.2c-0.3,0-0.7-0.1-1-0.2c-0.7-0.3-1.2-0.8-1.5-1.5c-0.6-1.3-1.2-2.6-2-4
		c-0.2-0.4-0.3-0.8-0.3-1.2c0-0.2,0-0.5,0.1-0.7c0.2-0.6,0.6-1.2,1.2-1.4c0.4-0.2,0.9-0.3,1.3-0.3c0.3,0,0.6,0,0.8,0.1
		c0.7,0.2,1.4,0.6,1.7,1.3C96.6,232.7,97.3,234,98,235.3z M114,241.1c1.5,0,2.7,1.2,2.8,2.8v22.5c0.1,1.1-0.1,2.3-0.5,3.3
		c-0.4,0.8-1,1.5-1.8,1.8c-1.7,0.6-3.4,0.9-5.2,0.9h-0.1c-0.7,0-1.4-0.2-2-0.7c-0.6-0.5-1.1-1.2-1.3-1.9c0,0,0-0.1,0-0.1
		c-0.1-0.2-0.1-0.4-0.1-0.7c0-0.4,0.1-0.7,0.3-1c0.3-0.5,0.9-0.8,1.4-0.8h2.8c0.3,0,0.5-0.1,0.7-0.3c0.2-0.2,0.2-0.4,0.2-0.7v-2.8
		c0-0.2-0.1-0.4-0.3-0.4H97c-0.2,0-0.3,0.1-0.3,0.4v6.2c0,1.5-1.2,2.7-2.8,2.8h-0.1c-0.8,0-1.5-0.3-2-0.8c-0.5-0.5-0.8-1.2-0.8-2
		v-25.9c0-1.5,1.3-2.7,2.8-2.8h7.1c0.2,0,0.3-0.1,0.3-0.2c0,0,0-0.1,0-0.1v-10.2c0-0.8,0.3-1.5,0.8-2c0.5-0.5,1.3-0.8,2-0.8h0.2
		c0.7,0,1.5,0.3,2,0.8c0.5,0.5,0.8,1.2,0.8,2v10.2c0,0.2,0.1,0.3,0.2,0.3c0,0,0.1,0,0.1,0L114,241.1z M111.2,246.8
		c0-0.2-0.1-0.4-0.3-0.4H97c-0.2,0-0.3,0.1-0.3,0.4v2.8c0,0.2,0.1,0.4,0.3,0.4h13.9c0.2,0,0.3-0.1,0.3-0.4L111.2,246.8z M96.6,258
		c0,0.2,0.1,0.4,0.3,0.4h13.9c0.2,0,0.3-0.1,0.3-0.4v-2.9c0-0.2-0.1-0.4-0.3-0.4H97c-0.2,0-0.3,0.1-0.3,0.4L96.6,258z M112.3,231.5
		c0.3-0.7,0.8-1.2,1.5-1.5c0.4-0.2,0.8-0.3,1.2-0.3c0.3,0,0.6,0.1,0.9,0.2l0.3,0.1c0.7,0.2,1.2,0.7,1.5,1.4c0.1,0.3,0.2,0.7,0.2,1
		c0,0.4-0.1,0.7-0.2,1.1c-0.8,1.5-1.6,3-2.3,4.3c-0.4,0.6-1,1.1-1.7,1.4c-0.3,0.1-0.7,0.2-1,0.2c-0.4,0-0.8-0.1-1.1-0.2
		c-0.6-0.2-1.1-0.7-1.4-1.3c-0.1-0.3-0.1-0.6-0.1-0.8c0-0.4,0.1-0.7,0.3-1.1C111,234.3,111.7,232.9,112.3,231.5L112.3,231.5z"/>
	<path class="st0" d="M80.8,346.9c-0.4,0.6-1.1,1.1-1.9,1.1h-0.4c-0.6,0-1.3-0.2-1.8-0.6l-0.2-0.2c-0.6-0.4-0.9-1-1-1.7v-0.3
		c0-0.6,0.2-1.2,0.6-1.6c1.2-1.5,2.1-3.2,2.8-5c0.3-0.7,0.8-1.2,1.4-1.5c0.3-0.2,0.7-0.3,1.1-0.3c0.3,0,0.6,0.1,0.9,0.1
		c0.7,0.2,1.2,0.8,1.6,1.4c0.2,0.4,0.3,0.8,0.3,1.2c0,0.3,0,0.6-0.1,0.9C83.2,342.8,82.1,345,80.8,346.9z M94.1,337.8
		c-0.5-0.4-0.7-1-0.7-1.6c0-0.7,0.3-1.4,0.9-1.8l1-0.6c0,0,0-0.1,0-0.1c0,0,0-0.1-0.1-0.1H84.7c-1.5,0-2.7-1.3-2.7-2.8v-18.6
		c0-0.7,0.3-1.4,0.8-2c0.5-0.5,1.2-0.8,2-0.8h8c0.2,0,0.4-0.1,0.4-0.3c0.1-0.4,0.2-0.7,0.3-1.1c0.2-0.7,0.6-1.4,1.3-1.8
		c0.5-0.4,1.1-0.6,1.7-0.6h0.4l1.4,0.2c0.6,0,1.2,0.4,1.5,1c0.1,0.3,0.2,0.6,0.2,0.9c0,0.3-0.1,0.6-0.2,0.9l-0.3,0.6
		c-0.1,0-0.1,0.1,0,0.2c0,0,0,0,0,0c0.1,0.1,0.1,0.1,0.2,0.1h10.3c0.8,0,1.5,0.3,2,0.8c0.5,0.5,0.8,1.2,0.8,2v18.6
		c0,1.5-1.3,2.7-2.8,2.8h-13c0,0-0.1,0-0.1,0.1s0,0.1,0,0.1c1.6,1.2,3,2.5,4.4,4c0.4,0.4,0.6,0.9,0.6,1.5c0,0.1,0,0.3,0,0.4
		c-0.1,0.7-0.5,1.4-1.1,1.8c-0.4,0.3-0.9,0.4-1.5,0.4c-0.2,0-0.3,0-0.5,0c-0.7-0.1-1.4-0.5-1.8-1.1
		C96.1,339.8,95.1,338.8,94.1,337.8z M95.1,345.4h6.7c0.5,0,1-0.1,1.4-0.2c0.3-0.3,0.6-0.6,0.6-1.1c0.2-0.6,0.5-1.1,1.1-1.4
		c0.3-0.2,0.6-0.3,1-0.3c0.3,0,0.5,0.1,0.8,0.1c0.7,0.3,1.3,0.8,1.8,1.4c0.3,0.4,0.4,0.9,0.4,1.5c0,0.2,0,0.4,0,0.7
		c-0.2,1.4-1,2.6-2.1,3.5c-1.3,0.7-2.8,1-4.3,0.9h-7.9c-3.1,0-5.1-0.5-6.2-1.4s-1.6-2.6-1.6-5.1v-4.2c0-0.7,0.3-1.4,0.8-2
		c0.5-0.5,1.2-0.8,2-0.8h0.1c1.5,0,2.7,1.3,2.8,2.8v4.1c0,0.7,0.2,1.1,0.4,1.3C93.6,345.4,94.4,345.5,95.1,345.4z M87.9,313.9
		c-0.2,0-0.4,0.1-0.4,0.3v1.6c0,0.2,0.1,0.3,0.3,0.4c0,0,0.1,0,0.1,0h18.7c0.2,0,0.3-0.1,0.4-0.3c0,0,0-0.1,0-0.1v-1.6
		c0-0.2-0.1-0.3-0.4-0.3H87.9z M87.9,320.3c-0.2,0-0.4,0.1-0.4,0.3v1.8c0,0.2,0.1,0.3,0.4,0.3h18.7c0.2,0,0.4-0.1,0.4-0.3v-1.8
		c0-0.2-0.1-0.3-0.4-0.3H87.9z M87.9,326.8c-0.2,0-0.4,0.1-0.4,0.3c0,0,0,0.1,0,0.1v1.7c0,0.2,0.1,0.3,0.4,0.3h18.7
		c0.2,0,0.4-0.1,0.4-0.3v-1.7c0-0.2-0.1-0.3-0.3-0.4c0,0-0.1,0-0.1,0H87.9z M108.9,340.4c-0.4-0.4-0.6-0.9-0.6-1.5
		c0-0.1,0-0.2,0-0.3c0-0.7,0.4-1.3,1-1.6c0.6-0.4,1.2-0.6,1.9-0.6h0.3c0.8,0.1,1.5,0.4,2,0.9c1.9,1.9,3.6,3.9,5.1,6.1
		c0.3,0.4,0.4,1,0.4,1.5c0,0.2,0,0.5-0.1,0.7c-0.2,0.7-0.7,1.4-1.3,1.8l-0.3,0.2c-0.4,0.2-0.9,0.3-1.3,0.3c-0.2,0-0.4,0-0.7,0
		c-0.7-0.2-1.3-0.6-1.6-1.3C112.3,344.5,110.6,342.4,108.9,340.4L108.9,340.4z"/>
	<path class="st1" d="M97.9-96.9L97.9-96.9c29,0,52.5,23.5,52.5,52.5v413c0,29-23.5,52.5-52.5,52.5l0,0c-29,0-52.5-23.5-52.5-52.5
		v-413C45.4-73.4,68.9-96.9,97.9-96.9z"/>
</g>
</svg>
