<?xml version="1.0" encoding="utf-8"?>
<!-- Generator: Adobe Illustrator 24.2.3, SVG Export Plug-In . SVG Version: 6.00 Build 0)  -->
<svg version="1.1" id="圖層_1" xmlns="http://www.w3.org/2000/svg" xmlns:xlink="http://www.w3.org/1999/xlink" x="0px" y="0px"
	 viewBox="0 0 292 124.4" style="enable-background:new 0 0 292 124.4;" xml:space="preserve">
<style type="text/css">
	.st0{fill:#D7B21D;}
	.st1{fill:#FFFFFF;}
</style>
<g>
	<g id="圖層_1_1_">
		<g id="about">
			<g>
				<g>
					<g id="about-2">
						<polygon class="st0" points="251.9,32.3 270,46.1 251.9,59.8 						"/>
						<circle class="st0" cx="58" cy="45" r="23"/>
						<path class="st1" d="M53.2,55.9c-1,0-1.9-0.8-1.8-1.9c0,0,0,0,0,0v-0.1c0-1,0.8-1.8,1.8-1.8h3c0.2,0,0.2-0.1,0.2-0.2V37.3
							c0-0.2-0.1-0.2-0.2-0.2h-2.6c-0.8,0-1.4-0.7-1.4-1.5c0-0.4,0.1-0.8,0.4-1.1c0.3-0.3,0.6-0.5,1-0.7c0.9-0.2,1.7-0.5,2.5-0.8
							c1-0.5,2.2-0.8,3.3-0.8c0.5,0,0.9,0.2,1.2,0.5c0.3,0.3,0.5,0.8,0.5,1.2v17.9c0,0.2,0.1,0.2,0.2,0.2h2.4c1,0,1.8,0.8,1.8,1.8
							V54c0,1-0.8,1.8-1.8,1.8l0,0L53.2,55.9z"/>
						<path class="st0" d="M123.2,55.9c-0.4,0-0.7-0.1-1-0.4c-0.3-0.3-0.4-0.6-0.4-1c0-0.9,0.3-1.7,1-2.2c2.5-2.2,4.9-4.7,6.9-7.3
							c1.3-1.6,2.2-3.5,2.3-5.6c0.1-1-0.3-2-0.9-2.8c-0.7-0.7-1.7-1.1-2.6-1c-1.1,0-2.2,0.5-3,1.2c-0.4,0.3-0.9,0.5-1.3,0.5
							c-0.5,0-0.9-0.2-1.2-0.5c-0.4-0.3-0.6-0.8-0.6-1.3c0-0.5,0.2-1,0.6-1.3c1.7-1.5,3.9-2.3,6.2-2.3c2-0.1,3.9,0.6,5.4,2
							c1.4,1.4,2.1,3.3,2,5.3c0,3.6-2.6,7.9-7.7,13c0,0-0.1,0-0.1,0.1c0,0,0,0.1,0.1,0.1c0,0,0,0,0,0c1.5-0.2,2.7-0.2,3.6-0.2h3.3
							c0.5,0,1,0.2,1.3,0.5c0.4,0.3,0.6,0.8,0.6,1.3V54c0,0.5-0.2,1-0.6,1.3c-0.3,0.4-0.8,0.5-1.3,0.5L123.2,55.9z"/>
						<path class="st0" d="M201.1,56.3c-2.4,0.1-4.7-0.6-6.6-2c-0.4-0.3-0.7-0.8-0.7-1.3v-0.2c0-0.5,0.2-0.9,0.4-1.3
							c0.3-0.4,0.7-0.6,1.2-0.7h0.2c0.4,0,0.8,0.1,1.1,0.3c1.1,0.8,2.5,1.2,3.9,1.3c1.1,0.1,2.1-0.3,2.9-0.9
							c0.7-0.6,1.1-1.5,1.1-2.4c0-1-0.3-1.9-1.1-2.6c-1.1-0.7-2.4-1.1-3.8-1.1c-0.5,0-0.9-0.2-1.2-0.6c-0.3-0.3-0.5-0.7-0.5-1.2
							c0-0.5,0.2-0.9,0.5-1.2c0.3-0.3,0.7-0.5,1.2-0.6c2.7-0.3,4.1-1.5,4.1-3.5c0-0.8-0.3-1.6-0.8-2.2c-0.7-0.6-1.5-0.8-2.4-0.8
							c-1.1,0.1-2.1,0.4-3,1c-0.3,0.2-0.7,0.4-1.2,0.4c-0.1,0-0.1,0-0.2,0c-0.5,0-0.9-0.2-1.3-0.6v-0.1c-0.3-0.3-0.4-0.7-0.4-1.2
							v-0.3c0.1-0.5,0.3-0.9,0.7-1.2c1.7-1.1,3.6-1.8,5.6-1.8c2-0.1,4,0.5,5.6,1.7c1.4,1.1,2.2,2.9,2.1,4.7c0,1.2-0.3,2.3-1,3.2
							c-0.7,1-1.7,1.7-2.9,2.1c-0.1,0-0.1,0-0.1,0.1s0,0.1,0.1,0.1c1.3,0.3,2.5,1.1,3.4,2.1c0.9,1,1.3,2.4,1.3,3.7
							c0.1,2-0.8,3.8-2.4,5C205.4,55.7,203.3,56.4,201.1,56.3z"/>
					</g>
				</g>
			</g>
		</g>
	</g>
</g>
</svg>
