<?xml version="1.0" encoding="utf-8"?>
<!-- Generator: Adobe Illustrator 24.2.3, SVG Export Plug-In . SVG Version: 6.00 Build 0)  -->
<svg version="1.1" id="圖層_1" xmlns="http://www.w3.org/2000/svg" xmlns:xlink="http://www.w3.org/1999/xlink" x="0px" y="0px"
	 viewBox="0 0 195 449.8" style="enable-background:new 0 0 195 449.8;" xml:space="preserve">
<style type="text/css">
	.st0{clip-path:url(#SVGID_2_);fill:#18254C;}
	.st1{clip-path:url(#SVGID_2_);fill:none;stroke:#18254C;stroke-width:1.02;stroke-miterlimit:10;}
</style>
<g>
	<defs>
		<rect id="SVGID_1_" x="-1.1" y="-0.7" width="192" height="450.1"/>
	</defs>
	<clipPath id="SVGID_2_">
		<use xlink:href="#SVGID_1_"  style="overflow:visible;"/>
	</clipPath>
	<path class="st0" d="M119.6,88.1c1.3,0.1,2.3,1.2,2.2,2.5c-0.1,1.2-1,2.1-2.2,2.2H87.3c-0.2,0-0.4,0.1-0.4,0.3v3.1
		c0,8.2-1.3,14.7-3.8,19.5c-0.3,0.6-0.9,1-1.6,1h-0.3c-0.6,0-1.2-0.2-1.6-0.6c0,0-0.1-0.1-0.1-0.1c-0.6-0.5-1-1.1-1.1-1.8
		c-0.1-0.2-0.1-0.5-0.1-0.7c0-0.5,0.1-1,0.4-1.4c1.9-3.8,2.8-9.1,2.8-15.9v-5.2c0-0.7,0.3-1.4,0.8-1.9c0.5-0.5,1.2-0.9,2-0.8h2.9
		c0.1,0,0.2-0.1,0.2-0.1c0,0,0-0.1,0-0.1c-0.3-0.5-0.3-1.1-0.1-1.6c0.2-0.5,0.7-0.9,1.2-0.9c2.2-0.4,4.3-0.8,6.3-1.3
		c0.1,0,0.1,0,0.1-0.1s0-0.1-0.1-0.1c-1.6-0.4-3-0.8-4.4-1.1c-0.5-0.1-0.9-0.5-1-1c-0.1-0.5,0.1-1,0.5-1.3c0,0,0-0.1,0-0.1
		c0,0,0-0.1-0.1-0.1h-6.5c-0.6,0-1.2-0.2-1.6-0.7c-0.9-0.9-0.9-2.3,0-3.2c0.4-0.4,1-0.7,1.6-0.7h13.4c0.2,0,0.4-0.1,0.4-0.3v-0.1
		c0-1.5,1.2-2.7,2.7-2.8c0,0,0.1,0,0.1,0h0.2c1.5,0,2.7,1.2,2.8,2.7c0,0,0,0.1,0,0.1v0.1c0,0.2,0.1,0.3,0.4,0.3h14.2
		c1.2,0,2.2,1,2.2,2.2c0,0.6-0.2,1.2-0.7,1.6c-0.4,0.4-1,0.7-1.6,0.7h-5.4l0,0c0.2,0.1,0.3,0.3,0.3,0.5c0,0.2-0.1,0.4-0.3,0.5
		c-1.4,0.8-2.8,1.5-4.3,2.1c-0.1,0-0.1,0.1-0.1,0.2c0,0,0,0.1,0.1,0.1c0,0,0,0,0,0c1.4,0.4,2.8,0.9,4.2,1.4c0.6,0.2,1,0.6,1,1.2
		c0,0.1,0,0.2,0,0.3c0,0.4-0.2,0.9-0.6,1.1l0,0c-0.1,0-0.1,0.1,0,0.1c0,0,0.1,0.1,0.1,0.1L119.6,88.1z M101.9,101.2
		c0-0.2-0.1-0.3-0.4-0.3h-7.1c-0.2,0-0.4,0.1-0.6,0.3c-0.3,0.5-0.7,1-1,1.4c-0.4,0.6-1.1,0.9-1.8,0.9h-0.2c-0.6,0-1.2-0.2-1.7-0.6
		c-0.5-0.3-0.9-0.9-0.9-1.5v-0.3c0-0.5,0.2-1.1,0.6-1.5c1.2-1.4,2.1-2.9,2.9-4.5c0.3-0.7,0.8-1.2,1.4-1.6c0.4-0.2,0.9-0.3,1.3-0.3
		c0.2,0,0.5,0,0.7,0.1h0.2c0.6,0.1,1.1,0.5,1.4,1.1c0.3,0.5,0.3,1.2,0,1.7c0,0.1,0,0.1,0,0.2c0,0.1,0.1,0.1,0.2,0.1h4.6
		c0.2,0,0.3-0.1,0.4-0.3c0,0,0-0.1,0-0.1l0,0c0-0.8,0.3-1.5,0.8-2c0.5-0.5,1.2-0.8,2-0.8l0,0c1.5,0,2.8,1.2,2.8,2.8l0,0
		c0,0.2,0.1,0.4,0.3,0.4h9c0.6,0,1.2,0.2,1.6,0.6c0.4,0.4,0.7,1,0.7,1.6c0,0.6-0.2,1.2-0.7,1.6c-0.4,0.4-1,0.7-1.6,0.7h-9
		c-0.2,0-0.3,0.1-0.3,0.2c0,0,0,0.1,0,0.1v2.4c0,0.2,0.1,0.3,0.2,0.3c0,0,0.1,0,0.1,0h7.7c0.6,0,1.1,0.2,1.5,0.6
		c0.8,0.9,0.8,2.2,0,3.1c-0.4,0.4-0.9,0.6-1.5,0.6h-7.7c-0.2,0-0.3,0.1-0.3,0.2c0,0,0,0.1,0,0.1v3c0,0.2,0.1,0.3,0.2,0.3
		c0,0,0.1,0,0.1,0h11.3c0.6,0,1.2,0.2,1.6,0.7c0.9,0.9,0.9,2.4,0,3.3c-0.4,0.4-1,0.7-1.6,0.7H90.1c-1.3,0-2.3-1-2.3-2.3
		c0-0.6,0.3-1.2,0.7-1.7c0.4-0.4,1-0.7,1.6-0.7h11.5c0.2,0,0.4-0.1,0.4-0.3v-3c0-0.2-0.1-0.3-0.4-0.3H94c-0.6,0-1.1-0.2-1.5-0.6
		c-0.9-0.9-0.9-2.2,0-3.1c0.4-0.4,1-0.5,1.5-0.5h7.6c0.2,0,0.4-0.1,0.4-0.3V101.2z M93.4,88.1L93.4,88.1L93.4,88.1h14.8l0,0l0,0
		c-2-0.7-4.1-1.4-6.3-2.1c-0.2-0.1-0.4-0.1-0.7,0C98.8,86.8,96.2,87.4,93.4,88.1z M106,80.5C106,80.5,106,80.5,106,80.5L106,80.5
		l-10.9-0.1l0,0l0,0l6.2,1.6c0.2,0.1,0.4,0.1,0.7,0C103.3,81.6,104.6,81.1,106,80.5z"/>
	<path class="st0" d="M82.2,195.5c-0.7,0-1.4-0.3-1.9-0.8c-0.5-0.5-0.8-1.2-0.8-1.9v-16.1c0-0.7,0.3-1.4,0.8-1.9
		c0.5-0.5,1.2-0.8,2-0.8H95c0.8,0,1.5,0.3,2,0.8c0.5,0.5,0.8,1.2,0.8,1.9v15.8c0,1.5-1.3,2.8-2.8,2.8h-1c-1.1,0-1.9-0.8-2-1.8
		c0,0,0-0.1,0-0.1c0-0.1-0.1-0.2-0.2-0.2c0,0,0,0-0.1,0h-6.6c-0.1,0-0.3,0.1-0.3,0.2c0,0,0,0,0,0.1c0,0.6-0.2,1.1-0.6,1.5
		c-0.4,0.4-0.9,0.6-1.5,0.6H82.2z M92,179.8c0-0.2-0.1-0.4-0.3-0.4h-6.4c-0.2,0-0.3,0.1-0.4,0.3c0,0,0,0.1,0,0.1v7.6
		c0,0.2,0.1,0.3,0.4,0.3h6.5c0.2,0,0.3-0.1,0.3-0.2c0,0,0-0.1,0-0.1L92,179.8z M111.4,152.6c1.5,0,2.7,1.1,2.8,2.6c0,0,0,0.1,0,0.1
		v11.8c0,1.5-1.2,2.7-2.7,2.8c0,0-0.1,0-0.1,0H88.8c-0.7,0-1.4-0.3-1.9-0.8c-0.5-0.5-0.8-1.2-0.8-2v-11.8c0-0.8,0.3-1.5,0.8-2
		c0.5-0.5,1.2-0.8,1.9-0.8L111.4,152.6z M108,164.6c0.2,0,0.3-0.1,0.3-0.4v-5.8c0-0.2-0.1-0.4-0.3-0.4H91.9c-0.2,0-0.3,0.1-0.3,0.4
		v5.8c0,0.2,0.1,0.4,0.3,0.4H108z M101.8,176.7c0-0.7,0.3-1.4,0.8-1.9c0.5-0.5,1.2-0.8,2-0.8h13.3c0.8,0,1.5,0.3,2,0.8
		c0.5,0.5,0.8,1.2,0.8,1.9v15.9c0,0.7-0.3,1.4-0.8,1.9c-0.5,0.5-1.2,0.8-2,0.8h-1c-0.5,0-1-0.2-1.4-0.6c-0.4-0.4-0.6-0.9-0.6-1.4
		c0-0.1-0.1-0.2-0.2-0.2c0,0,0,0-0.1,0h-7.1c-0.2,0-0.2,0.1-0.2,0.3c0,0.6-0.2,1.1-0.6,1.5c-0.4,0.4-0.9,0.6-1.5,0.6h-0.6
		c-0.7,0-1.4-0.3-1.9-0.8c-0.5-0.5-0.8-1.2-0.8-1.9L101.8,176.7z M107.3,187.3c0,0.2,0.1,0.3,0.2,0.3c0,0,0.1,0,0.1,0h6.9
		c0.2,0,0.3-0.1,0.3-0.2c0,0,0-0.1,0-0.1v-7.6c0-0.2-0.1-0.4-0.3-0.4h-6.9c-0.2,0-0.3,0.1-0.3,0.4V187.3z"/>
	<path class="st0" d="M100,234.8c0-0.1-0.1-0.1-0.2-0.1c-0.1,0-0.2,0-0.2,0.1c-1.9,3-4.3,5.7-6.9,8.1c-2.9,2.7-6.1,5.1-9.5,7.1
		c-0.4,0.2-0.9,0.4-1.4,0.4c-0.3,0-0.5,0-0.8-0.1c-0.7-0.2-1.4-0.6-1.8-1.3c-0.1-0.1-0.1-0.2-0.2-0.3c-0.3-0.4-0.5-0.9-0.5-1.4
		c0-0.1,0-0.3,0-0.4c0.1-0.7,0.5-1.2,1.1-1.5c3.2-1.8,6.1-3.9,8.7-6.5c2.5-2.4,4.8-5,6.7-7.9c0.5-0.7,1.1-1.3,1.8-1.7
		c0.7-0.4,1.5-0.6,2.3-0.6h0.6c1.7,0,3.4,0.8,4.3,2.3c2.1,3,4.6,5.7,7.4,8.1c2.7,2.3,5.7,4.3,8.9,5.8c0.6,0.3,1,0.8,1.2,1.4
		c0,0.2,0,0.4,0,0.6c0,0.5-0.2,0.9-0.4,1.3c-0.2,0.2-0.3,0.5-0.5,0.8c-0.4,0.6-1,1.1-1.8,1.3c-0.2,0.1-0.5,0.1-0.8,0.1
		c-0.5,0-0.9-0.1-1.4-0.4c-3.4-2-6.7-4.4-9.6-7.1C104.4,240.6,102,237.8,100,234.8z M88.6,249.3c0-0.8,0.3-1.5,0.8-2
		c0.5-0.5,1.2-0.8,1.9-0.8h0.4c1.5,0,2.7,1.2,2.8,2.7c0,0,0,0.1,0,0.1v3.2c0,1.6-0.1,3.3-0.3,4.9c-0.2,1.7-0.5,3.3-1,4.9
		c-0.5,1.8-1.4,3.6-2.5,5.2c-1.2,1.7-2.7,3.3-4.4,4.6c-0.5,0.4-1.1,0.6-1.7,0.6c-0.1,0-0.2,0-0.4,0c-0.8-0.1-1.5-0.4-2.1-0.9
		c-0.2-0.2-0.4-0.3-0.6-0.5c-0.9-0.8-0.9-2.1-0.2-2.9c0.1-0.1,0.2-0.2,0.3-0.3c1.4-1.1,2.6-2.3,3.7-3.7c0.9-1.3,1.7-2.7,2.1-4.2
		c0.4-1.3,0.7-2.6,0.9-3.9c0.1-1.3,0.2-2.6,0.2-3.9V249.3z M105.2,249c0-0.7,0.3-1.4,0.8-1.9c0.5-0.5,1.2-0.8,2-0.8h0.4
		c0.8,0,1.5,0.3,2,0.8c0.5,0.5,0.8,1.2,0.8,1.9v21.8c0,0.8-0.3,1.5-0.8,2c-0.5,0.5-1.3,0.8-2,0.8H108c-1.5,0-2.7-1.1-2.8-2.6
		c0,0,0-0.1,0-0.1L105.2,249z"/>
	<path class="st0" d="M89.7,325.8c-0.1-0.3-0.2-0.6-0.2-0.8c0-0.2,0-0.5,0.1-0.7c0.2-0.5,0.5-0.9,1-1.1c0.3-0.1,0.6-0.2,0.9-0.2
		c0.8,0,1.6,0.5,2,1.2c1.1,2,2,4.1,2.7,6.2c0.1,0.2,0.1,0.5,0.1,0.8c0,0.4-0.1,0.7-0.3,1c-0.3,0.6-0.7,1-1.3,1.3
		c-0.2,0.1-0.5,0.2-0.7,0.2c-0.3,0-0.6-0.1-0.8-0.2c-0.5-0.2-0.9-0.7-1-1.2v0c0-0.2-0.2-0.3-0.4-0.2l-1.8,0.1
		c-0.2,0-0.3,0.1-0.3,0.4v16.8c0,1.4-1.1,2.5-2.5,2.5s-2.5-1.1-2.5-2.5v-16.4c0-0.2-0.1-0.4-0.3-0.3l-4.1,0.2c-0.1,0-0.1,0-0.2,0
		c-0.6,0-1.2-0.2-1.6-0.7c-0.5-0.4-0.8-1-0.9-1.7v-0.2c0-1.3,1-2.3,2.2-2.4h0.6c0.2,0,0.4-0.1,0.6-0.3c0.6-0.7,1.2-1.5,1.8-2.5
		c0.2-0.2,0.2-0.4,0-0.6c-1.1-1.6-2.4-3.1-3.8-4.5c-0.5-0.5-0.7-1.1-0.8-1.7v-0.3c0-0.6,0.2-1.1,0.5-1.6l0.6-0.9
		c0.2-0.3,0.5-0.5,0.8-0.5c0.3-0.1,0.7,0.1,0.9,0.3c0.1,0.1,0.2,0,0.2,0c0.9-1.9,1.8-3.8,2.5-5.7c0.4-1,1.4-1.7,2.5-1.7
		c0.3,0,0.6,0,0.9,0.1c0.6,0.2,1.1,0.7,1.4,1.4c0.1,0.3,0.2,0.5,0.2,0.8c0,0.4-0.1,0.7-0.3,1c-1.7,3.2-3,5.6-4,7
		c-0.1,0.2-0.1,0.4,0,0.6c0.7,0.8,1,1.2,1.2,1.4s0.1,0.1,0.2,0.1c0.1,0,0.2-0.1,0.2-0.1c1.1-1.9,2.1-3.6,3-5.2
		c0.3-0.6,0.8-1.1,1.5-1.3c0.3-0.1,0.6-0.2,0.9-0.2c0.4,0,0.7,0.1,1.1,0.3c0.6,0.2,1.1,0.8,1.2,1.4c0.1,0.2,0.1,0.4,0.1,0.6
		c0,0.4-0.1,0.9-0.4,1.2c-2.6,3.9-5,7.4-7.4,10.5c0,0.1,0,0.1,0,0.2c0,0.1,0.1,0.1,0.1,0.1l3.9-0.2c0.1,0,0.1,0,0.2-0.1
		c0-0.1,0-0.2,0-0.2C90.2,326.6,90,326.2,89.7,325.8z M79.1,337.3c0.1-0.6,0.4-1.2,0.9-1.5c0.4-0.3,0.8-0.4,1.3-0.4h0.4
		c0.6,0.1,1.2,0.5,1.6,1c0.3,0.4,0.5,0.9,0.5,1.5v0.4c-0.4,2.6-0.9,5.2-1.7,7.7c-0.2,0.6-0.6,1-1.2,1.2c-0.3,0.1-0.5,0.1-0.8,0.1
		c-0.3,0-0.7-0.1-1-0.2c-0.6-0.3-1-0.7-1.3-1.3c-0.1-0.3-0.2-0.7-0.2-1c0-0.3,0-0.6,0.1-0.8C78.4,341.7,78.9,339.5,79.1,337.3z
		 M90.6,337.8c-0.1-0.2-0.1-0.5-0.1-0.7c0-0.9,0.6-1.6,1.4-1.9c0.6-0.2,1.2-0.2,1.7,0.1c0.5,0.2,0.9,0.7,1.1,1.2
		c0.6,1.6,1.2,3.1,1.6,4.5c0.1,0.2,0.1,0.4,0.1,0.7c0,0.4-0.1,0.7-0.3,1.1c-0.3,0.6-0.8,1-1.4,1.2c-0.2,0.1-0.4,0.1-0.7,0.1
		c-1,0-1.8-0.6-2-1.5C91.7,341.1,91.2,339.5,90.6,337.8z M97.6,313.6c-1-1-1-2.7,0-3.7c0,0,0,0,0,0c0.5-0.5,1.2-0.8,1.8-0.8h19.2
		c1.5,0,2.7,1.2,2.7,2.6c0,0,0,0,0,0c0,3.6-0.2,7.2-0.6,10.7c-0.1,1.5-0.5,3-1.2,4.3c-0.9,1.1-2.2,1.7-3.6,1.9
		c-1,0.1-2.1,0.2-3.1,0.1l0,0c-0.7,0-1.5-0.3-2-0.8c-0.6-0.5-1-1.2-1.3-2v0c-0.1-0.2-0.1-0.4-0.1-0.6c0-0.4,0.1-0.7,0.3-1
		c0.3-0.4,0.8-0.7,1.4-0.7h2.2c0.5,0,1.1-0.1,1.5-0.5c0.5-0.6,0.9-3.5,1.1-8.5c0-0.2-0.1-0.3-0.3-0.4c0,0-0.1,0-0.1,0h-6.3
		c-0.2,0-0.4,0.1-0.4,0.3c0,0,0,0,0,0c-0.4,2.9-1.2,5.6-2.6,8.2c-1.4,2.4-3.3,4.4-5.7,5.8c-0.4,0.2-0.8,0.4-1.3,0.4
		c-0.3,0-0.5,0-0.8-0.1c-0.7-0.2-1.4-0.6-1.8-1.3c-0.3-0.4-0.5-0.8-0.5-1.3c0-0.1,0-0.3,0-0.4c0.1-0.6,0.4-1.2,1-1.5
		c1.7-1,3.1-2.4,4.1-4.1c0.9-1.8,1.6-3.7,1.8-5.6c0.1-0.2,0-0.4-0.3-0.4h-3.6C98.7,314.3,98,314.1,97.6,313.6L97.6,313.6z
		 M101.1,351.6c-1.4,0-2.6-1.1-2.7-2.6v-14.9c0-0.8,0.3-1.5,0.8-2c0.5-0.5,1.3-0.8,2-0.8h16.4c1.5,0,2.7,1.2,2.8,2.7
		c0,0,0,0.1,0,0.1v14.5c0,0.7-0.3,1.4-0.8,1.9c-0.5,0.5-1.2,0.8-2,0.8h-1.1c-0.4,0-0.8-0.2-1.2-0.5c-0.3-0.3-0.5-0.7-0.5-1.2
		c0-0.1-0.1-0.2-0.1-0.2c0,0,0,0,0,0h-10.7c-0.1,0-0.2,0.1-0.2,0.2c0,0,0,0,0,0.1c0,0.5-0.2,0.9-0.5,1.3c-0.3,0.3-0.8,0.5-1.2,0.5
		L101.1,351.6z M114.9,336.7c0-0.2-0.1-0.4-0.3-0.4H104c-0.2,0-0.3,0.1-0.3,0.4v7.5c0,0.2,0.1,0.4,0.3,0.4h10.4
		c0.2,0,0.3-0.1,0.3-0.4L114.9,336.7z"/>
	<path class="st1" d="M100.9-95.9L100.9-95.9c29,0,52.5,23.5,52.5,52.5v413c0,29-23.5,52.5-52.5,52.5l0,0c-29,0-52.5-23.5-52.5-52.5
		v-413C48.4-72.4,71.9-95.9,100.9-95.9z"/>
</g>
</svg>
