<svg id="圖層_1" data-name="圖層 1" xmlns="http://www.w3.org/2000/svg" xmlns:xlink="http://www.w3.org/1999/xlink" viewBox="0 0 83.97 95.43"><defs><style>.cls-1{fill:none;}.cls-2{clip-path:url(#clip-path);}.cls-3{fill:#fff;}</style><clipPath id="clip-path"><rect class="cls-1" x="-228.16" y="-939.47" width="1920" height="1080"/></clipPath></defs><g id="home"><g class="cls-2"><g id="home-2" data-name="home"><path class="cls-3" d="M.36,64.1a3.11,3.11,0,0,1,2.18-1.74c.94-.25,1.85-.58,2.78-.88a2.23,2.23,0,0,1,3.06,1.27,2.2,2.2,0,0,1-1.64,2.86c-1,.34-1.95.64-2.93,1-1.81.58-2.53.3-3.45-1.33Z"/><path class="cls-3" d="M78.62,41.82a5.48,5.48,0,0,1-1.83,4.09Q70.47,52,64.18,58.18a1.83,1.83,0,0,0-.6,1.8c1,5.87,2,11.76,3,17.64a5.18,5.18,0,0,1-2.1,5.29,5.08,5.08,0,0,1-5.65.54C55.53,81.77,52.24,80,49,78.28c-2-1.06-4-2.09-6-3.18a1.92,1.92,0,0,0-2,0q-7.8,4.14-15.63,8.22a5.41,5.41,0,0,1-7.89-3.21,7.35,7.35,0,0,1-.08-3c.92-5.7,1.91-11.4,2.92-17.08a1.87,1.87,0,0,0-.63-1.86C15.4,54.09,11.26,50,7.08,46a5.51,5.51,0,0,1,3.18-9.66c5.78-.81,11.55-1.69,17.32-2.51a1.82,1.82,0,0,0,1.52-1.14Q33,24.75,36.9,16.84A5.46,5.46,0,0,1,43.83,14a5.54,5.54,0,0,1,3.1,2.93c2.57,5.23,5.17,10.45,7.73,15.69a2,2,0,0,0,1.7,1.25c5.8.8,11.6,1.68,17.4,2.52A5.46,5.46,0,0,1,78.62,41.82ZM74.24,42c0-1.14-.69-1.29-1.4-1.39C67.09,39.81,61.35,39,55.6,38.15a5.74,5.74,0,0,1-4.69-3.28c-.72-1.49-1.46-3-2.19-4.43Q45.89,24.7,43.06,19c-.25-.51-.51-1-1.17-.95s-.93.46-1.16,1a2.59,2.59,0,0,1-.14.29Q36.77,27,33,34.75A5.67,5.67,0,0,1,28.5,38.1L15.91,39.93c-1.79.26-3.59.5-5.37.8a1.07,1.07,0,0,0-.62,1.88l.4.4q6.21,6.06,12.43,12.11a5.68,5.68,0,0,1,1.82,5.35c-1,5.8-2,11.61-3,17.41-.1.59-.19,1.14.37,1.54s1.07.14,1.58-.14c5.09-2.67,10.2-5.32,15.26-8a6.09,6.09,0,0,1,6.17,0c5.09,2.72,10.22,5.38,15.33,8.08.52.27,1,.54,1.58.11s.45-.91.35-1.47c-1-5.67-1.91-11.35-2.94-17a6.19,6.19,0,0,1,1.95-6c4.16-4,8.26-8,12.38-12.06A6,6,0,0,0,74.24,42Z"/><path class="cls-3" d="M44.06,91.36c0,.7,0,1.41,0,2.1a2.16,2.16,0,0,1-4.3,0c-.06-1.42-.06-2.86,0-4.28a2.09,2.09,0,0,1,2.13-2,2.11,2.11,0,0,1,2.18,2.05c0,.72,0,1.45,0,2.18Z"/><path class="cls-3" d="M83.43,64.57a2.19,2.19,0,0,1-2.75,2.21c-1.32-.37-2.63-.8-3.92-1.27a2.15,2.15,0,0,1-1.37-2.68,2.09,2.09,0,0,1,2.54-1.48,40.08,40.08,0,0,1,4.23,1.37A2,2,0,0,1,83.43,64.57Z"/><path class="cls-3" d="M17.91,16.19a6.29,6.29,0,0,1,1.44,1,35.46,35.46,0,0,1,2.3,3.13,2.16,2.16,0,0,1-.49,3.08,2.14,2.14,0,0,1-3-.49c-.82-1.08-1.61-2.17-2.37-3.29a2.05,2.05,0,0,1-.07-2.3A2.44,2.44,0,0,1,17.91,16.19Z"/><path class="cls-3" d="M61.6,21.55a9.07,9.07,0,0,1,.6-1.3c.68-1,1.41-2,2.13-2.95a2.19,2.19,0,1,1,3.55,2.56c-.75,1.06-1.5,2.11-2.3,3.13a2.08,2.08,0,0,1-2.47.69A2.49,2.49,0,0,1,61.6,21.55Z"/></g></g></g></svg>