<svg id="圖層_1" data-name="圖層 1" xmlns="http://www.w3.org/2000/svg" xmlns:xlink="http://www.w3.org/1999/xlink" viewBox="0 0 82.97 95.43"><defs><style>.cls-1{fill:none;}.cls-2{clip-path:url(#clip-path);}.cls-3{fill:#fff;}</style><clipPath id="clip-path"><rect class="cls-1" x="-47.16" y="-939.47" width="1920" height="1080"/></clipPath></defs><g id="home"><g class="cls-2"><g id="home-2" data-name="home"><path class="cls-3" d="M8.86,48.91c-1-.09-1.87-.09-2.73-.25A7.58,7.58,0,0,1,1.8,36.32c.19-.23.4-.44.61-.65Q19.06,19,35.73,2.36A9.44,9.44,0,0,1,38,.71c2.27-1.2,6.42-.94,8.49,1.23,1.18,1.25,2.43,2.43,3.65,3.65Q65.07,20.53,80,35.5a8.27,8.27,0,0,1,1.88,2.58c2.09,5.24-1.12,10.5-6.7,10.74-.45,0-.9,0-1.43,0v1c0,7.88,0,15.76,0,23.64a8.8,8.8,0,0,1-6.88,8.79,10.74,10.74,0,0,1-2.4.24c-4.08,0-8.17,0-12.26,0-2.05,0-3-.9-3-2.93V61.13c0-2.91-1.63-4.53-4.56-4.53H37.75A4.06,4.06,0,0,0,33.37,61c0,6.19,0,12.37,0,18.56,0,2.11-.88,3-3,3-4,0-8.07-.09-12.1,0a9.15,9.15,0,0,1-9.47-9.48c.14-7.72,0-15.44,0-23.16ZM54.08,77.7H64.29c3,0,4.62-1.59,4.62-4.62V46.77A2.5,2.5,0,0,1,71.7,44c1.1,0,2.2,0,3.31,0a2.73,2.73,0,0,0,2.7-2.21,3.21,3.21,0,0,0-1.28-3Q60.08,22.4,43.74,6c-1.75-1.75-3.12-1.75-4.89,0Q24.29,20.64,9.7,35.21c-1.33,1.33-2.67,2.66-4,4a2.76,2.76,0,0,0,2,4.77h3c2.13,0,3,.9,3,3.05q0,13.15,0,26.31a4.06,4.06,0,0,0,4.39,4.36h9.6c.26,0,.51,0,.83,0v-1c0-5.46,0-10.92,0-16.38a8.56,8.56,0,0,1,7.8-8.36c3.29-.23,6.6,0,9.91,0a3.6,3.6,0,0,1,.79.12,8.82,8.82,0,0,1,7,8.78c0,5.3,0,10.6,0,15.9Z"/></g></g></g></svg>