<svg id="圖層_1" data-name="圖層 1" xmlns="http://www.w3.org/2000/svg" xmlns:xlink="http://www.w3.org/1999/xlink" viewBox="0 0 90.97 95.43"><defs><style>.cls-1{fill:none;}.cls-2{clip-path:url(#clip-path);}.cls-3{fill:#fff;}</style><clipPath id="clip-path"><rect class="cls-1" x="-412.16" y="-939.47" width="1920" height="1080"/></clipPath></defs><g id="home"><g class="cls-2"><g id="home-2" data-name="home"><path class="cls-3" d="M89.78,39.3a32.24,32.24,0,0,1-1.64,4.64,11.89,11.89,0,0,1-8.34,6.15c-.69.15-.94.37-.93,1.11,0,4.36,0,8.71,0,13.07,0,2.7-1.59,4.6-4.1,4.7a5.7,5.7,0,0,1-2.8-.72,108.29,108.29,0,0,0-19-8.14,101.87,101.87,0,0,0-20.07-4.18,1.48,1.48,0,0,0-.25,0c.12.36.21.7.34,1q4,11.08,8,22.16c1.26,3.49-.7,6.31-4.39,6.32H27.32a4.4,4.4,0,0,1-4.49-3.17Q18,69.13,13.27,55.92a2.37,2.37,0,0,0-1.09-1.36,6.42,6.42,0,0,1-3.11-4.23C9,50.16,9,50,9,49.83a2.21,2.21,0,0,0-.13-.24c-.91,0-1.86,0-2.81,0A5.53,5.53,0,0,1,.55,44.14q-.06-6.27,0-12.55a5.51,5.51,0,0,1,5.05-5.4c.89-.07,1.79-.06,2.69-.05a.66.66,0,0,0,.78-.6,6.68,6.68,0,0,1,6.8-5.35c3.14,0,6.27-.09,9.41,0a81.49,81.49,0,0,0,18.22-2A101.68,101.68,0,0,0,71.9,7.49a4.76,4.76,0,0,1,3.42-.7,4.41,4.41,0,0,1,3.56,4.69c0,3.93,0,7.85,0,11.77a11.34,11.34,0,0,0,0,1.65.93.93,0,0,0,.56.63c5.68,1.35,9.1,4.84,10.18,10.59a.56.56,0,0,0,.13.22ZM74.53,64.77V11a107.48,107.48,0,0,1-42.77,13.3V51.48A107.23,107.23,0,0,1,74.53,64.77ZM27.3,51.23V24.51c-3.93,0-7.79,0-11.65,0A2.35,2.35,0,0,0,13.23,27q0,10.85,0,21.68a2.33,2.33,0,0,0,2.52,2.49c1.25,0,2.49,0,3.74,0Zm9.81,30c0-.21-.06-.32-.09-.42q-4.47-12.35-8.93-24.69c-.18-.51-.49-.54-.92-.54H18.46c-.21,0-.43,0-.65.05a1.16,1.16,0,0,0,0,.33q4.47,12.35,8.93,24.69a.77.77,0,0,0,.9.57c2.79,0,5.57,0,8.36,0ZM78.94,45.81c3.76-.53,6.61-4.22,6.5-8.28-.11-3.7-3.15-7.28-6.5-7.58ZM8.86,30.44c-.93,0-1.77,0-2.6,0a1.27,1.27,0,0,0-1.39,1.42c0,.67,0,1.34,0,2,0,3.27,0,6.55,0,9.83,0,.74.18,1.42,1,1.5a27.59,27.59,0,0,0,3,0Z"/></g></g></g></svg>