<svg id="圖層_1" data-name="圖層 1" xmlns="http://www.w3.org/2000/svg" xmlns:xlink="http://www.w3.org/1999/xlink" viewBox="0 0 37.97 95.43"><defs><style>.cls-1{fill:none;}.cls-2{clip-path:url(#clip-path);}.cls-3{fill:#fff;stroke:#fff;stroke-miterlimit:10;stroke-width:1.8px;}</style><clipPath id="clip-path"><rect class="cls-1" x="-621.16" y="-939.47" width="1920" height="1080"/></clipPath></defs><g id="home"><g class="cls-2"><g id="home-2" data-name="home"><path class="cls-3" d="M1.7,62c0-7.5-.07-15-.06-22.48a4.63,4.63,0,0,1,.46-2C4.79,32,7.54,26.55,10.23,21a2.22,2.22,0,0,1,2.29-1.4q6.68,0,13.35-.05a2.25,2.25,0,0,1,2.3,1.4c2.72,5.49,5.52,11,8.25,16.45a4.64,4.64,0,0,1,.47,2q.12,22.22.18,44.44a8.84,8.84,0,0,1-9.23,9.28L11,93.19a8.8,8.8,0,0,1-9.18-9.14Q1.74,73,1.7,62ZM4.63,44.72c0,8.85.06,17.62.1,26.38L34,71c0-8.81-.07-17.58-.1-26.38Zm0-3,29.49-.11a10.66,10.66,0,0,0-.47-3c-2.49-5.13-5.11-10.2-7.66-15.31a1,1,0,0,0-1.12-.67c-3.76,0-7.52.06-11.28,0a1.16,1.16,0,0,0-1.22.79c-2.32,4.74-4.63,9.49-7,14.18A6.74,6.74,0,0,0,4.62,41.68Zm.08,33c0,1.4,0,7.91,0,9.17,0,4,2.43,6.39,6.39,6.38q8.36,0,16.71-.06c3.9,0,6.32-2.46,6.32-6.37,0-3,0-6,0-9v-.81l-29.38.1c0,1,0,1.88,0,2.89"/><path class="cls-3" d="M19.11,5.11l7.23,0c1.18,0,1.59.37,1.62,1.58,0,1.66,0,3.32,0,5,0,1.09,0,2.18,0,3.27s-.55,1.73-1.75,1.74q-7.09,0-14.19.05A1.52,1.52,0,0,1,10.34,15q0-4.17,0-8.34c0-1.13.47-1.53,1.58-1.53ZM13.32,7.92c0,2,0,3.9,0,5.78l11.64,0c0-2,0-3.86,0-5.78Z"/></g></g></g></svg>